<?xml version="1.0" encoding="UTF-8" standalone="no"?>
<svg width="40px" height="34px" viewBox="0 0 40 34" version="1.1" xmlns="http://www.w3.org/2000/svg" xmlns:xlink="http://www.w3.org/1999/xlink">
    <!-- Generator: Sketch 41.2 (35397) - http://www.bohemiancoding.com/sketch -->
    <title>Page 1</title>
    <desc>Created with Sketch.</desc>
    <defs></defs>
    <g id="Page-1" stroke="none" stroke-width="1" fill="none" fill-rule="evenodd">
        <g id="Artboard" transform="translate(-190.000000, -553.000000)" fill="#DCE2E8">
            <g id="Page-1" transform="translate(190.000000, 553.000000)">
                <path d="M27,7 C27,10.64508 24.04508,13.6 20.4,13.6 C16.75492,13.6 13.8,10.64508 13.8,7 C13.8,3.35492 16.75492,0.4 20.4,0.4 C24.04508,0.4 27,3.35492 27,7 Z" id="Fill-1"></path>
                <path d="M13.8,27 C13.8,30.645078 10.84508,33.6 7.2,33.6 C3.55492,33.6 0.6,30.645078 0.6,27 C0.6,23.35492 3.55492,20.4 7.2,20.4 C10.84508,20.4 13.8,23.35492 13.8,27 Z" id="Fill-3"></path>
                <path d="M40,27 C40,30.645078 37.04508,33.6 33.4,33.6 C29.75492,33.6 26.8,30.645078 26.8,27 C26.8,23.35492 29.75492,20.4 33.4,20.4 C37.04508,20.4 40,23.35492 40,27 Z" id="Fill-4"></path>
            </g>
        </g>
    </g>
</svg>