<?xml version="1.0" encoding="UTF-8" standalone="no"?>
<svg width="43px" height="46px" viewBox="0 0 43 46" version="1.1" xmlns="http://www.w3.org/2000/svg" xmlns:xlink="http://www.w3.org/1999/xlink">
    <!-- Generator: Sketch 41.2 (35397) - http://www.bohemiancoding.com/sketch -->
    <title>Shape</title>
    <desc>Created with Sketch.</desc>
    <defs></defs>
    <g id="Page-1" stroke="none" stroke-width="1" fill="none" fill-rule="evenodd">
        <g id="Artboard" transform="translate(-160.000000, -507.000000)" fill="#DCE2E8">
            <path d="M202.438705,542.765561 C202.424115,541.454697 202.117348,540.160294 201.639242,538.944453 C201.270375,538.003205 200.842025,537.086647 200.423775,536.166723 C197.095287,528.912948 193.602364,521.735761 189.947712,514.640721 C189.433692,513.649342 188.930521,512.651978 188.387695,511.675939 C187.854221,510.723841 187.233207,509.807284 186.429255,509.062067 C185.146449,507.839118 183.425192,507.109987 181.658668,507 L180.845363,507 C179.026839,507.089785 177.251711,507.852959 175.946832,509.124916 C175.172435,509.858536 174.573119,510.753021 174.053861,511.678557 C173.518143,512.638511 173.022079,513.620162 172.517786,514.595828 C170.065501,519.356051 167.685422,524.153125 165.378366,528.985403 C164.003156,531.877235 162.639543,534.77393 161.327931,537.694194 C160.783982,538.910783 160.292034,540.168898 160.106852,541.496971 C159.763798,543.739357 160.255746,546.092851 161.45363,548.01837 C162.48616,549.690993 164.036077,551.038894 165.84263,551.817406 C167.254885,552.426941 168.789856,552.698632 170.325531,552.610883 C172.376748,552.502018 174.354642,551.765031 176.090115,550.68948 C178.026108,549.501322 179.681897,547.921102 181.223584,546.26681 C182.657154,547.811864 184.191359,549.286212 185.962372,550.441822 C187.67278,551.56713 189.622989,552.381931 191.674207,552.575717 C193.902002,552.80841 196.21023,552.256231 198.080007,551.016073 C199.733777,549.920266 201.014454,548.346629 201.751474,546.504741 C202.22605,545.316197 202.459653,544.045178 202.438705,542.765561 L202.438705,542.765561 Z M181.232936,541.900631 C180.673649,541.242206 180.180953,540.52991 179.686012,539.822851 C178.853254,538.601398 178.096066,537.324578 177.487023,535.975555 C176.987967,534.856233 176.5873,533.681169 176.430924,532.460839 C176.316822,531.492655 176.344132,530.482572 176.699532,529.563395 C177.017521,528.701458 177.628809,527.954744 178.403206,527.461299 C180.248292,526.270523 182.87825,526.399215 184.550125,527.843635 C185.396351,528.564535 185.901767,529.63036 186.028963,530.72574 C186.195439,532.181756 185.864356,533.644133 185.355948,535.002134 C184.395994,537.522105 182.87638,539.780952 181.232936,541.900631 L181.232936,541.900631 Z M199.337,544.988867 C198.84393,546.690671 197.658765,548.177364 196.1081,549.035187 C194.733638,549.803973 193.093187,550.067343 191.543644,549.808462 C189.570241,549.501322 187.799602,548.454202 186.265397,547.218159 C185.137844,546.312077 184.122523,545.276554 183.14985,544.209233 C184.685551,542.266879 186.132215,540.234741 187.237322,538.013305 C188.201764,536.067959 188.934636,533.960252 189.00422,531.77286 C189.043501,530.38493 188.782375,528.971561 188.134051,527.735893 C187.285207,526.084967 185.76447,524.816751 184.021141,524.203219 C182.392662,523.621486 180.582368,523.569485 178.920967,524.043102 C177.354216,524.486416 175.923264,525.428039 174.942735,526.733291 C174.079674,527.871319 173.587726,529.270471 173.473624,530.689452 C173.298169,532.733187 173.810319,534.77206 174.58509,536.650815 C175.73696,539.395997 177.42754,541.880803 179.294698,544.185664 C178.45278,545.158028 177.539149,546.065906 176.561487,546.901666 C175.045614,548.184472 173.311263,549.301176 171.346463,549.726159 C169.758013,550.082681 168.044238,549.905355 166.587473,549.168369 C164.88118,548.318028 163.571065,546.716484 163.076872,544.875514 C162.699026,543.523124 162.782825,542.062992 163.232125,540.738286 C163.605856,539.642159 164.112769,538.597657 164.587134,537.543055 C167.879999,530.367449 171.333736,523.266764 174.945727,516.246379 C175.484439,515.201504 176.01492,514.151765 176.585056,513.124099 C177.050442,512.296205 177.591772,511.483274 178.356817,510.901915 C179.184036,510.257483 180.207322,509.916388 181.255757,509.935602 C182.333179,509.922882 183.404242,510.319808 184.228395,511.012276 C185.042448,511.688284 185.592382,512.613072 186.086201,513.534866 C187.20253,515.631725 188.274715,517.7529 189.347274,519.871831 C192.408346,525.930354 195.349633,532.04866 198.169418,538.223178 C198.595524,539.182384 199.051558,540.134107 199.338496,541.146435 C199.689033,542.394823 199.70063,543.743098 199.337,544.988867 L199.337,544.988867 Z" id="Shape"></path>
        </g>
    </g>
</svg>