<?xml version="1.0" encoding="UTF-8" standalone="no"?>
<svg width="55px" height="50px" viewBox="0 0 55 50" version="1.1" xmlns="http://www.w3.org/2000/svg" xmlns:xlink="http://www.w3.org/1999/xlink">
    <!-- Generator: Sketch 41.2 (35397) - http://www.bohemiancoding.com/sketch -->
    <title>Shape</title>
    <desc>Created with Sketch.</desc>
    <defs></defs>
    <g id="Page-1" stroke="none" stroke-width="1" fill="none" fill-rule="evenodd">
        <g id="Artboard" transform="translate(-767.000000, -781.000000)" fill="#DCE2E8">
            <path d="M767.1,819.8 C767.26665,819.53335 767.5333,819.51665 767.9,819.75 C776.2333,824.58335 785.3,827 795.1,827 C801.6333,827 808.0833,825.78335 814.45,823.35 C814.61665,823.28335 814.8583,823.18335 815.175,823.05 C815.49165,822.91665 815.71665,822.81665 815.85,822.75 C816.35,822.55 816.74165,822.65 817.025,823.05 C817.3083,823.45 817.21665,823.81665 816.75,824.15 C816.15,824.58335 815.3833,825.08335 814.45,825.65 C811.5833,827.35 808.3833,828.66665 804.85,829.6 C801.31665,830.53335 797.86665,831 794.5,831 C789.3,831 784.3833,830.09165 779.75,828.275 C775.11665,826.45835 770.96665,823.9 767.3,820.6 C767.1,820.43335 767,820.26665 767,820.1 C767,820 767.0333,819.9 767.1,819.8 Z M782.15,805.55 C782.15,803.25 782.71665,801.28335 783.85,799.65 C784.9833,798.01665 786.5333,796.78335 788.5,795.95 C790.3,795.18335 792.51665,794.63335 795.15,794.3 C796.05,794.2 797.51665,794.06665 799.55,793.9 L799.55,793.05 C799.55,790.91665 799.31665,789.48335 798.85,788.75 C798.15,787.75 797.05,787.25 795.55,787.25 L795.15,787.25 C794.05,787.35 793.1,787.7 792.3,788.3 C791.5,788.9 790.9833,789.73335 790.75,790.8 C790.61665,791.46665 790.2833,791.85 789.75,791.95 L784,791.25 C783.4333,791.11665 783.15,790.81665 783.15,790.35 C783.15,790.25 783.16665,790.13335 783.2,790 C783.76665,787.03335 785.1583,784.83335 787.375,783.4 C789.59165,781.96665 792.1833,781.16665 795.15,781 L796.4,781 C800.2,781 803.16665,781.98335 805.3,783.95 C805.634616,784.284852 805.943806,784.644181 806.225,785.025 C806.5083,785.40835 806.7333,785.75 806.9,786.05 C807.06665,786.35 807.21665,786.78335 807.35,787.35 C807.4833,787.91665 807.5833,788.30835 807.65,788.525 C807.71665,788.74165 807.76665,789.20835 807.8,789.925 C807.8333,790.64165 807.85,791.06665 807.85,791.2 L807.85,803.3 C807.85,804.16665 807.975,804.95835 808.225,805.675 C808.475,806.39165 808.71665,806.90835 808.95,807.225 C809.1833,807.54165 809.56665,808.05 810.1,808.75 C810.3,809.05 810.4,809.31665 810.4,809.55 C810.4,809.81665 810.26665,810.05 810,810.25 C807.2333,812.65 805.7333,813.95 805.5,814.15 C805.1,814.45 804.61665,814.48335 804.05,814.25 C803.5833,813.85 803.175,813.46665 802.825,813.1 C802.475,812.73335 802.225,812.46665 802.075,812.3 C801.925,812.13335 801.6833,811.80835 801.35,811.325 C801.01665,810.84165 800.7833,810.51665 800.65,810.35 C798.7833,812.38335 796.95,813.65 795.15,814.15 C794.01665,814.48335 792.61665,814.65 790.95,814.65 C788.3833,814.65 786.275,813.85835 784.625,812.275 C782.975,810.69165 782.15,808.45 782.15,805.55 Z M790.75,804.55 C790.75,805.85 791.075,806.89165 791.725,807.675 C792.375,808.45835 793.25,808.85 794.35,808.85 C794.45,808.85 794.59165,808.83335 794.775,808.8 C794.9583,808.76665 795.0833,808.75 795.15,808.75 C796.55,808.38335 797.6333,807.48335 798.4,806.05 C798.76665,805.41665 799.04165,804.725 799.225,803.975 C799.4083,803.225 799.5083,802.61665 799.525,802.15 C799.54165,801.68335 799.55,800.91665 799.55,799.85 L799.55,798.6 C797.61665,798.6 796.15,798.73335 795.15,799 C792.21665,799.83335 790.75,801.68335 790.75,804.55 Z M811.75,820.65 C811.81665,820.51665 811.91665,820.38335 812.05,820.25 C812.8833,819.68335 813.6833,819.3 814.45,819.1 C815.71665,818.76665 816.95,818.58335 818.15,818.55 C818.4833,818.51665 818.8,818.53335 819.1,818.6 C820.6,818.73335 821.5,818.98335 821.8,819.35 C821.9333,819.55 822,819.85 822,820.25 L822,820.6 C822,821.76665 821.6833,823.14165 821.05,824.725 C820.41665,826.30835 819.5333,827.58335 818.4,828.55 C818.2333,828.68335 818.0833,828.75 817.95,828.75 C817.8833,828.75 817.81665,828.73335 817.75,828.7 C817.55,828.6 817.5,828.41665 817.6,828.15 C818.8333,825.25 819.45,823.23335 819.45,822.1 C819.45,821.73335 819.3833,821.46665 819.25,821.3 C818.91665,820.9 817.9833,820.7 816.45,820.7 C815.8833,820.7 815.21665,820.73335 814.45,820.8 C813.61665,820.9 812.85,821 812.15,821.1 C811.95,821.1 811.81665,821.06665 811.75,821 C811.6833,820.93335 811.66665,820.86665 811.7,820.8 C811.7,820.76665 811.71665,820.71665 811.75,820.65 Z" id="Shape"></path>
        </g>
    </g>
</svg>