<?xml version="1.0" encoding="UTF-8" standalone="no"?>
<svg width="40px" height="50px" viewBox="0 0 40 50" version="1.1" xmlns="http://www.w3.org/2000/svg" xmlns:xlink="http://www.w3.org/1999/xlink">
    <!-- Generator: Sketch 41.2 (35397) - http://www.bohemiancoding.com/sketch -->
    <title>Shape</title>
    <desc>Created with Sketch.</desc>
    <defs></defs>
    <g id="Page-1" stroke="none" stroke-width="1" fill="none" fill-rule="evenodd">
        <g id="Artboard" transform="translate(-311.000000, -778.000000)" fill="#DCE2E8">
            <path d="M344.40678,804.098585 C344.475813,811.532757 350.928513,814.006662 351,814.038239 C350.945439,814.212712 349.968966,817.563796 347.600411,821.025226 C345.552899,824.017808 343.427852,826.999427 340.080275,827.061179 C336.790945,827.121788 335.733243,825.110598 331.972608,825.110598 C328.213109,825.110598 327.037953,826.999422 323.924236,827.121788 C320.692975,827.244064 318.232404,823.885707 316.167876,820.904088 C311.949265,814.805085 308.725372,803.669739 313.054245,796.153198 C315.204736,792.420454 319.047827,790.056724 323.219158,789.996111 C326.392174,789.935585 329.387124,792.13081 331.326829,792.13081 C333.265304,792.13081 336.904805,789.49086 340.730879,789.87857 C342.332604,789.945235 346.828673,790.525576 349.715723,794.751467 C349.483098,794.895677 344.350992,797.883345 344.40678,804.098592 M338.224866,785.843547 C339.940364,783.767005 341.094993,780.876266 340.779998,778 C338.307236,778.099383 335.317112,779.64778 333.543455,781.72318 C331.953917,783.561043 330.56184,786.502661 330.937446,789.321999 C333.69363,789.535241 336.509283,787.92141 338.224866,785.843551" id="Shape"></path>
        </g>
    </g>
</svg>