<?xml version="1.0" encoding="UTF-8" standalone="no"?>
<svg width="50px" height="50px" viewBox="0 0 50 50" version="1.1" xmlns="http://www.w3.org/2000/svg" xmlns:xlink="http://www.w3.org/1999/xlink">
    <!-- Generator: Sketch 42 (36781) - http://www.bohemiancoding.com/sketch -->
    <title>Page 1</title>
    <desc>Created with Sketch.</desc>
    <defs></defs>
    <g id="Page-1" stroke="none" stroke-width="1" fill="none" fill-rule="evenodd">
        <g id="Artboard" transform="translate(-596.000000, -871.000000)" fill="#DCE2E8">
            <g id="Page-1" transform="translate(596.000000, 871.000000)">
                <path d="M33.1725394,49.8142114 C33.1725394,48.0487539 33.3184385,46.3372397 33.1450946,44.6588486 C32.6354732,39.7252524 30.1618139,35.8851893 26.225694,32.9594795 C22.7255363,30.3577445 18.7042429,28.9653155 14.4952524,28.0356625 C14.3165457,27.9960726 14.1395741,27.9485962 13.9602366,27.91153 C13.7845268,27.8752524 13.6069243,27.8476498 13.3971451,27.6844006 C13.7655994,27.5621609 14.1324763,27.4344006 14.5029811,27.3186278 C17.6760095,26.327776 20.6032965,24.9072713 22.9260095,22.4509621 C25.5381546,19.688817 26.6085016,16.3610568 26.5573975,12.6031703 C26.4883123,7.51373817 24.486735,3.41705047 20.3914669,0.367050473 C20.3092902,0.305851735 20.1973028,0.284400631 20.0993533,0.244337539 C20.1376814,0.188659306 20.1761672,0.132981073 20.2144953,0.0773028391 L49.8616562,0.0773028391 C49.8807413,0.407902208 49.9140221,0.716735016 49.9140221,1.02572555 C49.9165457,16.9555363 49.916388,32.885347 49.9159148,48.8151577 C49.9159148,49.8590063 49.9138644,49.8616877 48.8900473,49.8618454 C43.9744322,49.8629495 39.058817,49.8631073 34.1430442,49.8604259 C33.835,49.8602681 33.5267981,49.8317192 33.1725394,49.8142114" id="Fill-1"></path>
                <path d="M12.455347,49.8622555 C8.64698738,49.8622555 4.8383123,49.845694 1.03026814,49.8766088 C0.283580442,49.8827603 -0.00600946372,49.7483754 0.000141955836,48.8961672 C0.043044164,42.8292902 0.0398895899,36.7619401 0.00313880126,30.6949054 C-0.00190851735,29.8687224 0.288154574,29.7089432 1.03484227,29.666041 C3.71181388,29.5122555 6.37805994,29.4354416 9.04430599,29.8360726 C17.3083438,31.0780284 23.4504574,36.3684069 24.8288486,44.9395426 C25.0395741,46.2501104 24.9728549,47.6059464 25.0236435,48.9411199 C25.0491956,49.6139905 24.7763249,49.8870189 24.0379968,49.8797634 C20.177429,49.8420662 16.3162303,49.8622555 12.455347,49.8622555" id="Fill-3"></path>
                <path d="M0.0628706625,27.2481546 L0.0628706625,0.0255993691 L0.924069401,0.0255993691 C3.07895899,0.0255993691 5.23574132,0.0819085174 7.3877918,0.00414826498 C8.64993691,-0.0414353312 9.76555205,0.293422713 10.8478864,0.853044164 C14.9092429,2.95335962 17.2407886,6.32512618 18.095836,10.7683438 C18.5840063,13.3049369 18.5139748,15.839795 17.8816404,18.3366404 C16.8649211,22.3505205 14.2374763,24.8511514 10.3508833,26.0879022 C7.03179811,27.1440536 3.59962145,27.2262303 0.0628706625,27.2481546" id="Fill-5"></path>
            </g>
        </g>
    </g>
</svg>