<svg width="140px" height="48px" viewBox="20 94 321 48" version="1.1" xmlns="http://www.w3.org/2000/svg" xmlns:xlink="http://www.w3.org/1999/xlink">
<!-- Generator: Sketch 42 (36781) - http://www.bohemiancoding.com/sketch -->
<desc>Created with Sketch.</desc>
<defs></defs>
<g id="BE-logo-blue" stroke="none" stroke-width="1" fill="none" fill-rule="evenodd" transform="translate(20.000000, 94.000000)">
<path d="M0.16267666,47.1 L0.16267666,0.78 L17.2597645,0.78 C24.5916702,0.78 30.6542398,2.89846154 30.6542398,12.78 C30.6542398,18.1038462 28.037666,21.9507692 22.8068094,22.9869231 L22.8068094,23.1092308 C29.6346467,24.0715385 31.4172163,28.4976923 31.4172163,34.8484615 C31.4172163,46.5923077 21.2739829,47.1069231 17.1933191,47.1069231 L0.16267666,47.1069231 L0.16267666,47.1 Z M9.79955032,19.7076923 L16.2401713,19.7076923 C18.3435118,19.7076923 21.2808565,18.2953846 21.2808565,13.8023077 C21.2808565,10.4007692 18.989636,7.89923077 15.7338116,7.89923077 L9.79955032,7.89923077 L9.79955032,19.7076923 Z M9.79955032,39.9784615 L15.1541328,39.9784615 C17.1979015,39.9784615 21.7986724,39.9161538 21.7986724,33.4338462 C21.7986724,29.3261538 20.2658458,26.8246154 15.4199143,26.8246154 L9.79955032,26.8246154 L9.79955032,39.9784615 Z" id="Shape" fill="#DCE2E8" fill-rule="nonzero"></path>
<path d="M45.8977302,47.1 L36.2746039,47.1 L36.2746039,0.78 L54.0728051,0.78 C60.6417345,0.78 64.8552891,5.01230769 64.8552891,12.9046154 C64.8552891,18.8123077 62.5640685,23.2338462 56.3067452,24.2630769 L56.3067452,24.3923077 C58.4123769,24.6484615 64.6605353,25.1584615 64.6605353,33.5007692 C64.6605353,36.45 64.8529979,45.18 65.7465739,47.1023077 L56.2952891,47.1023077 C55.0190792,44.2823077 55.2734047,41.1369231 55.2734047,38.1230769 C55.2734047,32.6007692 55.7843469,27.9161538 48.3859957,27.9161538 L45.8977302,27.9161538 L45.8977302,47.1 Z M45.8977302,20.7923077 L50.1777302,20.7923077 C54.0040685,20.7923077 55.0901071,16.9430769 55.0901071,13.9938462 C55.0901071,9.57 53.2365096,7.89923077 50.1777302,7.89923077 L45.8977302,7.89923077 L45.8977302,20.7923077 Z" id="Shape" fill="#DCE2E8" fill-rule="nonzero"></path>
<polygon id="Shape" fill="#DCE2E8" fill-rule="nonzero" points="69.3689936 47.1 69.3689936 0.78 78.9921199 0.78 78.9921199 47.1"></polygon>
<path d="M105.602355,15.0253846 C105.664218,10.7238462 104.963105,6.94846154 99.8605567,6.94846154 C93.8644325,6.94846154 93.8644325,15.0969231 93.8644325,24.0807692 C93.8644325,38.5823077 95.2666595,41.1576923 100.751842,41.1576923 C102.384317,41.1198133 103.999925,40.815878 105.53591,40.2576923 L105.53591,29.9723077 L100.307345,29.9723077 L100.307345,22.8461538 L115.170493,22.8461538 L115.170493,46.3315385 C112.553919,46.8438462 105.984989,47.8730769 102.158651,47.8730769 C85.9574304,47.8730769 84.103833,41.1369231 84.103833,23.5546154 C84.103833,11.88 84.6789293,0.0161538462 100.435653,0.0161538462 C109.875482,0.0161538462 115.743298,5.34 115.170493,15.0323077 L105.602355,15.0253846 Z" id="Shape" fill="#DCE2E8" fill-rule="nonzero"></path>
<polygon id="Shape" fill="#DCE2E8" fill-rule="nonzero" points="140.680942 19.3223077 140.680942 0.78 150.315525 0.78 150.315525 47.1 140.680942 47.1 140.680942 26.4415385 129.651006 26.4415385 129.651006 47.1 120.016424 47.1 120.016424 0.78 129.651006 0.78 129.651006 19.3223077"></polygon>
<polygon id="Shape" fill="#DCE2E8" fill-rule="nonzero" points="186.097516 0.78 186.097516 8.48076923 175.383769 8.48076923 175.383769 47.1069231 165.746895 47.1069231 165.746895 8.48076923 155.033148 8.48076923 155.033148 0.78"></polygon>
<polygon id="Shape" fill="#DCE2E8" fill-rule="nonzero" points="191.832441 47.1 191.832441 0.78 216.962548 0.78 216.962548 7.90384615 201.462441 7.90384615 201.462441 19.3223077 215.755075 19.3223077 215.755075 26.4415385 201.462441 26.4415385 201.462441 39.9784615 217.47349 39.9784615 217.47349 47.1"></polygon>
<path d="M222.642484,0.78 L238.717687,0.78 C251.346895,0.78 253.706852,9.24923077 253.706852,23.6815385 C253.706852,30.8030769 254.786017,47.1046154 238.332762,47.1046154 L222.642484,47.1046154 L222.642484,0.78 Z M232.26561,39.9761538 L236.912206,39.9761538 C242.784604,39.9761538 243.925632,35.5476923 243.925632,23.94 C243.925632,15.4015385 243.925632,7.90384615 237.230685,7.90384615 L232.258737,7.90384615 L232.258737,39.9807692 L232.26561,39.9761538 Z" id="Shape" fill="#DCE2E8" fill-rule="nonzero"></path>
<path d="M279.913833,15.0253846 C279.975696,10.7238462 279.281456,6.94846154 274.169743,6.94846154 C268.17591,6.94846154 268.17591,15.0969231 268.17591,24.0807692 C268.17591,38.5823077 269.580428,41.1576923 275.049572,41.1576923 C276.682047,41.1198133 278.297655,40.815878 279.83364,40.2576923 L279.83364,29.9723077 L274.600493,29.9723077 L274.600493,22.8461538 L289.46364,22.8461538 L289.46364,46.3315385 C286.865396,46.8438462 280.298758,47.8730769 276.463255,47.8730769 C260.262034,47.8730769 258.410728,41.1369231 258.410728,23.5546154 C258.410728,11.88 258.983533,0.0161538462 274.740257,0.0161538462 C284.180086,0.0161538462 290.047901,5.34 289.475096,15.0323077 L279.913833,15.0253846 Z" id="Shape" fill="#DCE2E8" fill-rule="nonzero"></path>
<polygon id="Shape" fill="#DCE2E8" fill-rule="nonzero" points="295.287923 47.1 295.287923 0.78 320.424904 0.78 320.424904 7.90384615 304.924797 7.90384615 304.924797 19.3223077 319.212848 19.3223077 319.212848 26.4415385 304.924797 26.4415385 304.924797 39.9784615 320.935846 39.9784615 320.935846 47.1"></polygon>
</g>
</svg>
