<?xml version="1.0" encoding="UTF-8" standalone="no"?>
<svg width="45px" height="46px" viewBox="0 0 45 46" version="1.1" xmlns="http://www.w3.org/2000/svg" xmlns:xlink="http://www.w3.org/1999/xlink">
    <!-- Generator: Sketch 41.2 (35397) - http://www.bohemiancoding.com/sketch -->
    <title>Shape</title>
    <desc>Created with Sketch.</desc>
    <defs></defs>
    <g id="Page-1" stroke="none" stroke-width="1" fill="none" fill-rule="evenodd">
        <g id="Artboard" transform="translate(-269.000000, -547.000000)" fill="#DCE2E8">
            <path d="M292.983947,547.266253 C299.670658,550.36791 306.466881,553.570992 313.144275,556.691985 C313.500584,556.858625 313.96781,556.972004 313.968337,557.476496 C313.96904,557.981866 313.502517,558.094366 313.14533,558.261182 C306.441863,561.397775 299.735814,564.528847 293.027189,567.654394 C292.005198,568.130233 290.955785,568.124081 289.932563,567.647187 C283.211144,564.51338 276.49162,561.375512 269.773993,558.233585 C269.428231,558.071866 268.993173,557.949522 269.006708,557.457863 C269.019365,556.997844 269.435614,556.878313 269.768192,556.722746 C276.514141,553.570641 283.328469,550.368965 290.083208,547.236195 C290.79723,546.905551 292.240041,546.928051 292.983947,547.266077 L292.983947,547.266253 Z M291.478909,592.977588 C290.992523,592.977588 290.628129,592.793018 289.933091,592.532862 C283.220891,589.419428 276.516954,586.288064 269.813543,583.155646 C269.457235,582.989181 268.99581,582.871584 269.000029,582.363928 C269.004423,581.858909 269.4662,581.747464 269.822684,581.578011 C270.934499,581.049262 272.052115,580.532465 273.169204,580.01479 C274.285413,579.497467 275.394064,579.504674 276.513438,580.02938 C280.957183,582.112385 285.405498,584.184844 289.851001,586.263455 C290.954906,586.779548 292.049319,586.768825 293.151818,586.252381 C297.610017,584.165358 302.069466,582.081005 306.530162,579.999321 C307.583442,579.507662 308.650609,579.493951 309.70881,579.973482 C310.898848,580.512602 312.080097,581.071059 313.262049,581.626702 C313.437302,581.709144 313.615017,581.802132 313.761794,581.92553 C314.077673,582.191838 314.081891,582.552365 313.759509,582.810588 C313.563513,582.96756 313.329021,583.083048 313.0991,583.190275 C306.44983,586.297029 299.801439,589.405541 293.143204,592.49296 C292.625705,592.732725 291.965471,592.977588 291.478909,592.977588 L291.478909,592.977588 Z M291.455355,580.528247 C291.232992,580.528247 290.369028,580.292348 289.877192,580.064009 C283.192591,576.959716 276.516954,573.836086 269.840789,570.714039 C269.482196,570.546344 269.014619,570.438063 269.005302,569.938493 C268.995458,569.408513 269.484833,569.302517 269.853973,569.126912 C270.978269,568.591659 272.105728,568.062382 273.237231,567.542422 C274.310198,567.049532 275.384924,567.061133 276.457012,567.561758 C280.945582,569.658474 285.434151,571.755542 289.925884,573.845227 C290.965629,574.328976 292.021545,574.325109 293.062169,573.840832 C297.56691,571.743237 302.068487,569.639138 306.572701,567.540136 C307.614028,567.054805 308.666253,567.054981 309.708283,567.530644 C310.89586,568.072401 312.076054,568.630506 313.257478,569.185447 C313.419724,569.261736 313.586189,569.342244 313.725056,569.452634 C314.083649,569.7374 314.080661,570.113395 313.718025,570.398336 C313.578455,570.508199 313.412693,570.589235 313.250447,570.665172 C306.505728,573.818157 299.762416,576.973954 293.009611,580.109009 C292.545549,580.324692 291.677542,580.528247 291.455355,580.528247 L291.455355,580.528247 Z" id="Shape"></path>
        </g>
    </g>
</svg>