<svg width="49px" height="49px" viewBox="0 0 49 49" version="1.1" xmlns="http://www.w3.org/2000/svg" xmlns:xlink="http://www.w3.org/1999/xlink">
<!-- Generator: Sketch 42 (36781) - http://www.bohemiancoding.com/sketch -->
<desc>Created with Sketch.</desc>
<defs></defs>
<g id="Caremerge_Logo_PANTONE" stroke="none" stroke-width="1" fill="none" fill-rule="evenodd">
<path d="M25.1930182,40.3621818 C24.3220364,40.1169455 23.5421091,39.6616727 22.8578909,39.0373818 C20.3688727,39.2049455 18.0226909,39.0510545 15.9325091,38.6158545 C16.9666909,42.2990545 19.0077091,44.9565091 21.8530909,45.7568 C26.7069091,47.1220364 32.3828364,42.6647273 35.8626909,35.3442909 C35.2954182,35.6477091 34.7077818,35.9380364 34.1003636,36.2126545 C31.3972364,39.4967273 28.1181091,41.1848727 25.1930182,40.3621818" id="Fill-1" fill="#DCE2E8"></path>
<path d="M38.3554909,22.3394909 C38.5992727,23.2971636 38.5751273,24.2856727 38.3188364,25.2738909 C39.6642909,27.3216 40.6693818,29.4007273 41.3099636,31.3984 C44.0942545,28.6208 45.4417455,25.4568727 44.6976,22.5346909 C43.4426182,17.6081455 36.6432,14.9184 28.4738909,15.6258909 C28.9905455,15.9470545 29.5057455,16.2900364 30.0180364,16.6554182 C34.3604364,17.3093818 37.5883636,19.3277091 38.3554909,22.3394909" id="Fill-2" fill="#DCE2E8"></path>
<path d="M15.952,19.9616 C16.6594909,19.2715636 17.5278545,18.7982545 18.512,18.5259636 C19.5921455,16.3386182 20.8712727,14.4258909 22.2609455,12.8581818 C18.4872727,11.856 15.0973091,12.2769455 12.9501091,14.3717818 C9.28727273,17.9450182 10.3953455,25.2497455 15.1709091,32.0078545 C15.1834182,31.4132364 15.2154182,30.8090182 15.2669091,30.1960727 C13.5904,26.0436364 13.6962909,22.1623273 15.952,19.9616" id="Fill-3" fill="#DCE2E8"></path>
<g id="Group-8" fill="#DCE2E8">
<path d="M30.7714909,0.273163636 C27.2788364,0.273163636 24.4474182,3.10458182 24.4474182,6.59723636 C24.4474182,7.85570909 24.8165818,9.0272 25.4501818,10.0125091 C24.3485091,10.7505455 23.2756364,11.7137455 22.2609455,12.8581818 C20.8712727,14.4258909 19.5921455,16.3386182 18.512,18.5259636 C17.6651636,20.2411636 16.9390545,22.1210182 16.3749818,24.1268364 C15.7934545,26.1946182 15.4315636,28.2370909 15.2669091,30.1960727 C15.2154182,30.8090182 15.1834182,31.4132364 15.1709091,32.0078545 C15.1403636,33.4411636 15.2209455,34.8154182 15.4071273,36.1050182 C16.4768,36.2501818 17.6107636,36.3130182 18.7901091,36.2894545 C18.8404364,36.2885818 18.8901818,36.2885818 18.9405091,36.2874182 C19.5677091,36.2708364 20.2074182,36.2289455 20.8564364,36.1626182 C19.2896,32.6702545 19.0705455,27.5037091 20.5786182,22.1422545 C20.9568,20.7976727 21.4231273,19.5226182 21.9566545,18.3293091 C22.1975273,17.7905455 22.4514909,17.2683636 22.7188364,16.7653818 C22.7415273,16.7223273 22.7639273,16.6784 22.7869091,16.6356364 C23.3690182,15.5560727 24.0098909,14.5666909 24.6912,13.6776727 C25.3335273,12.8392727 26.0116364,12.0893091 26.7144727,11.4472727 C27.8126545,12.3668364 29.2270545,12.9210182 30.7714909,12.9210182 C34.2641455,12.9210182 37.0955636,10.0898909 37.0955636,6.59723636 C37.0955636,3.10458182 34.2641455,0.273163636 30.7714909,0.273163636" id="Fill-4"></path>
<path d="M45.5662545,36.1984 C44.4762182,35.5691636 43.2770909,35.3064727 42.1070545,35.3626182 C42.0235636,34.1064727 41.7504,32.7714909 41.3099636,31.3984 C40.6693818,29.4007273 39.6642909,27.3216 38.3188364,25.2738909 C37.2328727,23.6212364 35.9310545,21.9901091 34.4212364,20.4424727 C33.0138182,18.9998545 31.5296,17.7332364 30.0180364,16.6554182 C29.5057455,16.2900364 28.9905455,15.9470545 28.4738909,15.6258909 C27.2104727,14.8404364 25.9403636,14.1885091 24.6912,13.6776727 C24.0098909,14.5666909 23.3690182,15.5560727 22.7869091,16.6356364 C22.7639273,16.6784 22.7415273,16.7223273 22.7188364,16.7653818 C22.4514909,17.2683636 22.1975273,17.7905455 21.9566545,18.3293091 C25.7245091,18.7802182 30.2164364,21.1578182 34.0381091,25.0754909 C35.0653091,26.1282909 35.9799273,27.2270545 36.7755636,28.3441455 C37.1255273,28.8357818 37.4507636,29.3309091 37.7541818,29.8272 C37.7864727,29.8801455 37.8170182,29.9328 37.8487273,29.9857455 C38.4686545,31.0176 38.9888,32.0535273 39.3984,33.0731636 C39.7626182,33.9793455 40.0421818,34.8724364 40.2324364,35.7376 C38.8869818,36.2289455 37.6994909,37.1758545 36.9274182,38.5131636 C35.1810909,41.5377455 36.2176,45.4053818 39.2421818,47.1517091 C42.2667636,48.8980364 46.1346909,47.8618182 47.8810182,44.8372364 C49.6273455,41.8123636 48.5908364,37.9447273 45.5662545,36.1984" id="Fill-6"></path>
<path d="M37.8487273,29.9857455 C37.8170182,29.9328 37.7864727,29.8801455 37.7541818,29.8272 C37.4507636,29.3309091 37.1255273,28.8357818 36.7755636,28.3441455 C34.5032727,31.3867636 30.1940364,34.0930909 24.8837818,35.4455273 C23.5179636,35.7934545 22.1681455,36.0285091 20.8564364,36.1626182 C20.2074182,36.2289455 19.5677091,36.2708364 18.9405091,36.2874182 C18.8901818,36.2885818 18.8404364,36.2885818 18.7901091,36.2894545 C17.6107636,36.3130182 16.4768,36.2501818 15.4071273,36.1050182 C14.3927273,35.9674182 13.4347636,35.7585455 12.5527273,35.4786909 C12.8,34.0680727 12.5739636,32.5664 11.8018909,31.2288 C10.0555636,28.2042182 6.18763636,27.168 3.16305455,28.9143273 C0.138472727,30.6603636 -0.898036364,34.5282909 0.848290909,37.5528727 C2.59461818,40.5777455 6.46225455,41.6139636 9.48712727,39.8676364 C10.5768727,39.2384 11.4039273,38.3313455 11.9403636,37.2898909 C13.1124364,37.8667636 14.4605091,38.3092364 15.9325091,38.6158545 C18.0226909,39.0510545 20.3688727,39.2049455 22.8578909,39.0373818 C24.7447273,38.9102545 26.7106909,38.6016 28.7042909,38.0936727 C30.6248727,37.6046545 32.4346182,36.9658182 34.1003636,36.2126545 C34.7077818,35.9380364 35.2954182,35.6477091 35.8626909,35.3442909 C37.1569455,34.6516364 38.3426909,33.8882909 39.3984,33.0731636 C38.9888,32.0535273 38.4686545,31.0176 37.8487273,29.9857455" id="Fill-7"></path>
</g>
</g>
</svg>
