<?xml version="1.0" encoding="UTF-8" standalone="no"?>
<svg width="53px" height="50px" viewBox="0 0 53 50" version="1.1" xmlns="http://www.w3.org/2000/svg" xmlns:xlink="http://www.w3.org/1999/xlink">
    <!-- Generator: Sketch 42 (36781) - http://www.bohemiancoding.com/sketch -->
    <title>Page 1</title>
    <desc>Created with Sketch.</desc>
    <defs></defs>
    <g id="Page-1" stroke="none" stroke-width="1" fill="none" fill-rule="evenodd">
        <g id="Artboard" transform="translate(-477.000000, -993.000000)" fill="#DCE2E8">
            <g id="Page-1" transform="translate(477.000000, 993.000000)">
                <path d="M45.6958025,4.12089506 C48.0525926,4.61472222 50.3535185,5.09682099 52.639321,5.57583333 C52.5291358,8.9637963 49.0041358,12.6989815 45.2485802,13.5465123 C41.3439506,14.4279938 37.9834568,13.3113272 34.8516667,10.9758333 C29.6417901,7.09003086 23.9507407,6.61225309 18.1047531,9.21595679 C9.68654321,12.9650309 6.0982716,23.7505247 10.197037,32.4940432 C14.1303704,40.884784 23.8245062,44.3767593 32.2032099,40.4208951 C34.6627778,39.259784 36.002284,38.0107099 39.0245062,34.0431173 C41.2920988,35.2934259 43.5680247,36.5483642 45.9343827,37.8533025 C44.1896296,41.0921914 41.7908642,43.5928086 38.7828395,45.4418827 C30.0072222,50.8357099 20.9399383,51.2647222 12.092716,45.950216 C3.34919753,40.6977469 -0.386604938,32.5014506 0.400740741,22.4357099 C1.44981481,9.02799383 13.4809877,-0.91058642 26.8646296,0.148981481 C31.4711111,0.513796296 35.5890123,1.91719136 39.2069136,4.78601852 C39.5288272,5.04095679 39.8649383,5.27861111 40.2041358,5.51040123 C42.6174074,7.15947531 44.1961111,6.79959877 45.6958025,4.12089506" id="Fill-4"></path>
            </g>
        </g>
    </g>
</svg>