<svg width="127px" height="48px" viewBox="-1 0 227 48" version="1.1" xmlns="http://www.w3.org/2000/svg" xmlns:xlink="http://www.w3.org/1999/xlink">
<!-- Generator: Sketch 42 (36781) - http://www.bohemiancoding.com/sketch -->
<desc>Created with Sketch.</desc>
<defs></defs>
<g id="Codecademy" stroke="none" stroke-width="1" fill="none" fill-rule="evenodd" transform="translate(-1.000000, 0.000000)">
<g id="g11" transform="translate(0.263607, 0.000000)" fill-rule="nonzero" fill="#DCE2E8">
<path d="M9.62911475,32.5408525 C9.22465574,31.3140984 9.024,29.7655082 9.024,27.6834098 C9.024,25.6005246 9.22465574,24.0487869 9.62911475,22.8251803 C10.759082,19.3140984 13.7523934,17.3956721 17.6718689,17.3956721 C20.5825574,17.3956721 22.8873443,18.5799344 24.424918,20.4582295 C24.5437377,20.6203279 24.5838689,20.8650492 24.384,21.0279344 L21.8384262,23.2737049 C21.6354098,23.4381639 21.4339672,23.3972459 21.271082,23.1934426 C20.3000656,22.0918033 19.2897049,21.4780328 17.6726557,21.4780328 C15.9352131,21.4780328 14.6022295,22.3357377 14.0348852,24.0503607 C13.7138361,25.0323934 13.6312131,26.1741639 13.6312131,27.6841967 C13.6312131,29.1942295 13.7130492,30.3777049 14.0348852,31.3581639 C14.6014426,33.0302951 15.9352131,33.888 17.6726557,33.888 C19.2897049,33.888 20.3000656,33.2750164 21.271082,32.1757377 C21.4339672,31.9687869 21.6354098,31.9687869 21.8384262,32.132459 L24.384,34.3782295 C24.5838689,34.5411148 24.5437377,34.7457049 24.424918,34.9502951 C22.8881311,36.788459 20.5833443,37.9711475 17.6718689,37.9711475 C13.7523934,37.9695738 10.759082,36.0495738 9.62911475,32.5408525" id="path13"></path>
<path d="M97.9491148,32.5408525 C97.5446557,31.3140984 97.344,29.7655082 97.344,27.6834098 C97.344,25.6005246 97.5446557,24.0487869 97.9491148,22.8251803 C99.0814426,19.3140984 102.071607,17.3956721 105.991082,17.3956721 C108.902557,17.3956721 111.208131,18.5799344 112.743344,20.4582295 C112.863738,20.6203279 112.905443,20.8650492 112.701639,21.0279344 L110.155279,23.2737049 C109.953049,23.4381639 109.752393,23.3972459 109.590295,23.1934426 C108.620852,22.0918033 107.609705,21.4780328 105.991082,21.4780328 C104.254426,21.4780328 102.919869,22.3357377 102.354885,24.0503607 C102.030689,25.0323934 101.952,26.1741639 101.952,27.6841967 C101.952,29.1942295 102.030689,30.3777049 102.354885,31.3581639 C102.919869,33.0302951 104.254426,33.888 105.991082,33.888 C107.609705,33.888 108.620852,33.2750164 109.590295,32.1757377 C109.752393,31.9687869 109.953836,31.9687869 110.155279,32.132459 L112.701639,34.3782295 C112.905443,34.5411148 112.863738,34.7457049 112.743344,34.9502951 C111.208131,36.788459 108.902557,37.9711475 105.991082,37.9711475 C102.071607,37.9695738 99.0814426,36.0495738 97.9491148,32.5408525" id="path15"></path>
<path d="M200.027803,37.5218361 C199.785443,37.5218361 199.624131,37.3597377 199.624131,37.1126557 L199.624131,25.7649836 C199.624131,23.2335738 198.369836,21.4772459 195.943869,21.4772459 C193.599738,21.4772459 192.225836,23.2327869 192.225836,25.7649836 L192.225836,37.1126557 C192.225836,37.3589508 192.062951,37.5218361 191.822164,37.5218361 L188.10177,37.5218361 C187.85941,37.5218361 187.696525,37.3597377 187.696525,37.1126557 L187.696525,25.7649836 C187.696525,23.2335738 186.443803,21.4772459 184.02177,21.4772459 C181.676066,21.4772459 180.30059,23.2327869 180.30059,25.7649836 L180.30059,37.1126557 C180.30059,37.3589508 180.139279,37.5218361 179.896131,37.5218361 L176.177311,37.5218361 C175.933377,37.5218361 175.773639,37.3597377 175.773639,37.1126557 L175.773639,18.2525902 C175.773639,18.007082 175.933377,17.8434098 176.177311,17.8434098 L179.896131,17.8434098 C180.139279,17.8434098 180.30059,18.007082 180.30059,18.2525902 L180.30059,19.6815738 L180.341508,19.6815738 C181.191344,18.4563934 182.887869,17.3956721 185.474361,17.3956721 C187.779148,17.3956721 189.638557,18.3328525 190.808656,20.0073443 L190.850361,20.0073443 C192.345443,18.3761311 194.286689,17.3956721 197.076197,17.3956721 C201.601574,17.3956721 204.150295,20.4975738 204.150295,24.7026885 L204.150295,37.1118689 C204.150295,37.3589508 203.98741,37.5218361 203.744262,37.5218361 L200.027803,37.5218361 L200.027803,37.5218361 L200.027803,37.5218361 Z" id="path17"></path>
<path d="M209.766295,44.8689836 C209.524721,44.8689836 209.36341,44.7053115 209.36341,44.4590164 L209.36341,41.1942295 C209.36341,40.9502951 209.524721,40.7842623 209.766295,40.7842623 L210.494951,40.7842623 C212.030164,40.7842623 212.800525,40.093377 213.405639,38.4590164 L213.972197,36.7853115 L206.85718,18.2518033 C206.775344,18.0062951 206.93823,17.842623 207.182164,17.842623 L211.182689,17.842623 C211.425049,17.842623 211.587148,18.0062951 211.665836,18.2518033 L216.073967,31.111082 L216.153443,31.111082 L220.358557,18.2518033 C220.439607,18.0062951 220.601705,17.842623 220.841705,17.842623 L224.680918,17.842623 C224.925639,17.842623 225.087738,18.0062951 225.005115,18.2518033 L217.569049,38.7446557 C215.872525,43.399082 214.253115,44.8674098 211.02059,44.8674098 L209.766295,44.8689836 L209.766295,44.8689836 Z" id="path19"></path>
<path d="M28.1437377,32.5424262 C27.6991475,31.152 27.496918,29.8465574 27.496918,27.6834098 C27.496918,25.5234098 27.6991475,24.2163934 28.1437377,22.8314754 C29.2351475,19.4022295 32.2237377,17.4011803 36.1841311,17.4011803 C40.1028197,17.4011803 43.0929836,19.4014426 44.1843934,22.8314754 C44.626623,24.2163934 44.8304262,25.5234098 44.8304262,27.6834098 C44.8304262,29.8465574 44.626623,31.152 44.1843934,32.5424262 C43.0921967,35.9693115 40.1028197,37.9687869 36.1841311,37.9687869 C32.2237377,37.9695738 29.2351475,35.9700984 28.1437377,32.5424262 M39.8203279,31.3180328 C40.1445246,30.2990164 40.2247869,29.3586885 40.2247869,27.6841967 C40.2247869,26.0144262 40.1445246,25.1150164 39.8203279,24.055082 C39.2553443,22.4238689 38.0018361,21.4827541 36.1841311,21.4827541 C34.3672131,21.4827541 33.072,22.4238689 32.5078033,24.055082 C32.1859672,25.1158033 32.1041311,26.0144262 32.1041311,27.6841967 C32.1041311,29.3586885 32.1859672,30.2990164 32.5078033,31.3180328 C33.072,32.9523934 34.368,33.888 36.1841311,33.888 C38.0018361,33.8872131 39.2553443,32.9516066 39.8203279,31.3180328" id="path21"></path>
<path d="M123.57482,17.3956721 C120.380852,17.3956721 118.239738,18.1707541 116.662033,19.3140984 C116.502295,19.4384262 116.46059,19.6398689 116.583344,19.8436721 L118.075279,22.539541 C118.200393,22.7441311 118.439607,22.7850492 118.64341,22.621377 C119.573508,21.888 120.905705,21.2734426 123.090098,21.2734426 C126.274623,21.2734426 127.355803,22.2397377 127.410885,24.363541 L127.411672,24.363541 L127.411672,24.3895082 C127.413246,24.439082 127.413246,24.4894426 127.413246,24.5421639 L127.413246,30.9112131 C127.413246,33.1561967 125.878033,34.2562623 123.090098,34.2562623 C120.905705,34.2562623 119.73482,33.4418361 119.73482,31.8098361 C119.73482,29.9716721 121.029246,29.1533115 123.938361,29.1533115 L124.82282,29.1548852 C125.06518,29.1548852 125.228066,28.9912131 125.228066,28.7480656 L125.228066,26.1308852 C125.228066,25.8869508 125.06518,25.7240656 124.82282,25.7240656 L124.628459,25.7240656 L123.211279,25.7232787 C118.401836,25.7232787 115.407738,27.6857705 115.407738,31.9695738 C115.407738,36.0936393 118.401836,37.9703607 121.956984,37.9703607 C124.703213,37.9703607 126.523279,37.0323934 127.453377,35.6852459 L127.492721,35.6852459 L127.492721,37.1142295 C127.492721,37.3597377 127.656393,37.5234098 127.897967,37.5234098 L131.29259,37.5234098 C131.535738,37.5234098 131.697836,37.3605246 131.697836,37.1142295 L131.697836,24.2549508 C131.698623,19.4384262 129.51659,17.3956721 123.57482,17.3956721" id="path23"></path>
<path d="M75.2828852,25.7217049 C75.1774426,25.7217049 75.1081967,25.7917377 75.1081967,25.8971803 L75.1081967,26.0136393 L75.1081967,26.3551475 L75.1081967,28.5175082 L75.1081967,28.8078689 L75.1081967,28.9754754 C75.1081967,29.080918 75.1774426,29.1517377 75.2828852,29.1517377 L75.3836066,29.1517377 L85.2920656,29.1517377 C85.5753443,29.1517377 85.7374426,28.9896393 85.7374426,28.7464918 C85.7374426,25.5596066 85.5336393,24.2116721 85.090623,22.8251803 C83.9976393,19.4777705 81.0885246,17.396459 77.0864262,17.396459 C73.2062951,17.396459 70.2161311,19.3959344 69.1231475,22.8251803 C68.7210492,24.0904918 68.4763279,25.6422295 68.4763279,27.6834098 C68.4763279,29.7245902 68.7596066,31.2338361 69.1664262,32.5007213 C70.2570492,35.9283934 73.1661639,37.9695738 77.2886557,37.9695738 C80.8847213,37.9695738 83.6356721,36.5815082 85.2912787,34.6221639 C85.4518033,34.4191475 85.4518033,34.2153443 85.2503607,34.0500984 L82.8676721,31.9278689 C82.6638689,31.7649836 82.4624262,31.8074754 82.2594098,32.0097049 C81.2907541,33.072 79.8759344,33.888 77.6931148,33.888 C75.5126557,33.888 73.975082,32.8272787 73.3282623,30.9096393 C73.2306885,30.6413115 73.1496393,30.3596066 73.0984918,30.0535082 L73.0977049,30.0535082 C72.9505574,29.2225574 72.864,28.4136393 72.864,27.2254426 C72.8954754,26.1057049 72.96,25.3904262 73.1189508,24.4815738 C73.1205246,24.4689836 73.1228852,24.4579672 73.1252459,24.4461639 C73.1268197,24.4367213 73.1283934,24.4296393 73.1299672,24.4201967 L73.1299672,24.4209836 C73.1685246,24.2069508 73.2212459,24.0055082 73.2865574,23.8048525 C73.8121967,22.2129836 75.2671475,21.2742295 77.1281311,21.2742295 C78.9474098,21.2742295 80.4,22.2129836 80.9256393,23.8048525 C81.0885246,24.2974426 81.168,24.7845246 81.168,25.4801311 C81.168,25.6430164 81.0877377,25.7232787 80.9256393,25.7232787 L75.6149508,25.7232787 L75.6157377,25.7224918 L75.2828852,25.7217049 L75.2828852,25.7217049 L75.2828852,25.7217049 Z" id="path25"></path>
<path d="M64.7213115,9.76367213 L61.0087869,9.76367213 C60.7640656,9.76367213 60.6027541,9.92655738 60.6027541,10.168918 L60.6027541,19.7067541 L60.6027541,19.7067541 L60.6027541,27.5944918 L60.6027541,27.6574426 L60.6027541,27.7203934 L60.6027541,28.7677377 L60.5822951,28.7677377 C60.5390164,29.8929836 60.4170492,30.6326557 60.2006557,31.3259016 C59.6758033,32.9547541 58.4222951,33.8510164 56.5676066,33.8510164 C54.7514754,33.8510164 53.5011148,32.9547541 52.9739016,31.3259016 C52.6921967,30.4280656 52.5725902,29.4507541 52.5725902,27.6574426 C52.5725902,25.864918 52.6921967,24.8852459 52.9739016,23.9905574 C53.4908852,22.3923934 54.7011148,21.4898361 56.4574426,21.4544262 L58.0422295,21.4544262 C58.1193443,21.435541 58.1697049,21.3749508 58.1697049,21.2868197 L58.1901639,17.5601311 C58.1901639,17.464918 58.1303607,17.4011803 58.0422295,17.3901639 L56.776918,17.3854426 L55.2897049,17.3854426 L55.2897049,17.3862295 C52.0359344,17.4208525 49.6540328,19.0072131 48.6562623,22.1114754 C48.171541,23.6215082 47.9700984,25.0095738 47.9700984,27.6574426 C47.9700984,30.3060984 48.171541,31.6925902 48.6562623,33.1994754 C49.6650492,36.3391475 52.087082,37.9286557 55.3959344,37.9286557 C58.0209836,37.9286557 59.6356721,36.9521311 60.5618361,35.6049836 L60.6011803,35.6049836 L60.6011803,37.0725246 C60.6011803,37.3180328 60.7632787,37.480918 61.0072131,37.480918 L64.7197377,37.480918 C64.9620984,37.480918 65.1241967,37.3188197 65.1241967,37.0725246 L65.1241967,10.168918 C65.1257705,9.92577049 64.9636721,9.76367213 64.7213115,9.76367213" id="path27"></path>
<path d="M162.047213,25.7217049 C161.943344,25.7217049 161.872525,25.7917377 161.872525,25.8971803 L161.872525,26.0136393 L161.872525,26.3551475 L161.872525,28.5175082 L161.872525,28.8078689 L161.872525,28.9754754 C161.872525,29.080918 161.943344,29.1517377 162.047213,29.1517377 L162.149508,29.1517377 L172.058754,29.1517377 C172.341246,29.1517377 172.503344,28.9896393 172.503344,28.7464918 C172.503344,25.5596066 172.300328,24.2116721 171.857311,22.8251803 C170.764328,19.4777705 167.854426,17.396459 163.853902,17.396459 C159.972984,17.396459 156.98282,19.3959344 155.889836,22.8251803 C155.486951,24.0904918 155.243016,25.6422295 155.243016,27.6834098 C155.243016,29.7245902 155.526295,31.2338361 155.933115,32.5007213 C157.022951,35.9283934 159.932852,37.9695738 164.055344,37.9695738 C167.65141,37.9695738 170.402361,36.5815082 172.058754,34.6221639 C172.219279,34.4191475 172.219279,34.2153443 172.017049,34.0500984 L169.634361,31.9278689 C169.431344,31.7649836 169.229902,31.8074754 169.026885,32.0097049 C168.05823,33.072 166.644197,33.888 164.459803,33.888 C162.279344,33.888 160.742557,32.8272787 160.094951,30.9096393 C159.998164,30.6413115 159.916328,30.3596066 159.866754,30.0535082 L159.865967,30.0535082 C159.718033,29.2225574 159.631475,28.4136393 159.631475,27.2254426 C159.661377,26.1057049 159.725902,25.3904262 159.885639,24.4815738 C159.888787,24.4689836 159.890361,24.4579672 159.891934,24.4461639 C159.893508,24.4367213 159.895082,24.4296393 159.896656,24.4201967 L159.896656,24.4209836 C159.936787,24.2069508 159.988721,24.0055082 160.054033,23.8048525 C160.578885,22.2129836 162.034623,21.2742295 163.895607,21.2742295 C165.714885,21.2742295 167.167475,22.2129836 167.693115,23.8048525 C167.855213,24.2974426 167.936262,24.7845246 167.936262,25.4801311 C167.936262,25.6430164 167.855213,25.7232787 167.693115,25.7232787 L162.382426,25.7232787 L162.382426,25.7224918 L162.047213,25.7217049 L162.047213,25.7217049 L162.047213,25.7217049 Z" id="path29"></path>
<path d="M151.678426,9.76367213 L147.95882,9.76367213 C147.715672,9.76367213 147.553574,9.92734426 147.553574,10.1697049 L147.553574,19.720918 L147.553574,27.6212459 L147.553574,27.6834098 L147.553574,27.7471475 L147.553574,28.7960656 L147.533902,28.7960656 C147.489836,29.9228852 147.367082,30.6633443 147.150689,31.357377 C146.625049,32.989377 145.36918,33.888 143.512918,33.888 C141.695213,33.888 140.442492,32.989377 139.914492,31.357377 C139.633574,30.4579672 139.51082,29.4798689 139.51082,27.6834098 C139.51082,25.8885246 139.632,24.9064918 139.914492,24.0110164 C140.431475,22.4104918 141.644066,21.5150164 143.403541,21.4796066 L144.990689,21.4803934 C145.233836,21.4803934 145.395934,21.3175082 145.395934,21.0743607 L145.395934,17.8032787 C145.395934,17.5593443 145.233836,17.396459 144.990689,17.396459 L144.796328,17.396459 L142.397115,17.3956721 L142.341246,17.3956721 L142.289311,17.3956721 L142.23423,17.3956721 L142.23423,17.396459 C138.976525,17.4302951 136.590689,19.0198033 135.592131,22.1287869 C135.106623,23.6411803 134.90518,25.0300328 134.90518,27.6818361 C134.90518,30.3344262 135.106623,31.7240656 135.592131,33.2333115 C136.601705,36.3761311 139.028459,37.9687869 142.342033,37.9687869 C144.97023,37.9687869 146.587279,36.9914754 147.515803,35.6419672 L147.555148,35.6419672 L147.555148,37.111082 C147.555148,37.3581639 147.717246,37.5202623 147.96118,37.5202623 L151.68,37.5202623 C151.922361,37.5202623 152.085246,37.3589508 152.085246,37.111082 L152.085246,10.1697049 C152.082098,9.92655738 151.92,9.76367213 151.678426,9.76367213" id="path31"></path>
<path d="M97.645377,43.0874754 L97.645377,46.807082 C97.645377,47.0518033 97.8074754,47.2139016 98.050623,47.2139016 L111.833705,47.2139016 C112.08,47.2139016 112.242885,47.0510164 112.242885,46.807082 L112.242885,43.0874754 C112.242885,42.8459016 112.08,42.6830164 111.833705,42.6830164 L98.050623,42.6830164 C97.8074754,42.6830164 97.645377,42.8459016 97.645377,43.0874754" id="path33"></path>
<path d="M94.1460984,0.131409836 C94.1398033,0.125114754 94.1358689,0.117245902 94.1303607,0.111737705 C94.1295738,0.11095082 94.1287869,0.11095082 94.1287869,0.11095082 C94.0579672,0.0409180328 93.9572459,0 93.8376393,0 L93.832918,0 L0.929311475,0 C0.898622951,0 0.869508197,0.00314754098 0.841180328,0.00786885246 C0.833311475,0.00944262295 0.826229508,0.0125901639 0.81757377,0.0141639344 C0.79947541,0.0188852459 0.779803279,0.0228196721 0.763278689,0.0299016393 C0.760131148,0.0306885246 0.757770492,0.0322622951 0.755409836,0.0338360656 C0.611409836,0.092852459 0.523278689,0.227409836 0.523278689,0.405245902 L0.523278689,0.406819672 L0.523278689,46.8015738 L0.523278689,46.8047213 C0.523278689,46.9463607 0.578360656,47.0573115 0.671213115,47.1281311 C0.678295082,47.1352131 0.684590164,47.1415082 0.694032787,47.1462295 L0.694032787,47.1470164 C0.758557377,47.1879344 0.837245902,47.2099672 0.929311475,47.2099672 L93.8321311,47.2099672 L93.8368525,47.2099672 C93.9737705,47.2099672 94.0847213,47.1572459 94.1547541,47.0667541 C94.2098361,46.999082 94.2420984,46.9101639 94.2420984,46.8039344 L94.2420984,46.8007869 L94.2420984,0.406819672 L94.2420984,0.405245902 C94.2420984,0.294295082 94.2066885,0.200655738 94.1460984,0.131409836 L94.1460984,0.131409836 Z M5.45390164,42.6814426 C5.42478689,42.6814426 5.39645902,42.679082 5.37127869,42.6751475 C5.36340984,42.6735738 5.3547541,42.6696393 5.34688525,42.6672787 C5.328,42.6633443 5.30911475,42.6594098 5.29180328,42.6523279 C5.28865574,42.651541 5.28708197,42.6491803 5.28393443,42.6483934 C5.14072131,42.5901639 5.05337705,42.4563934 5.05259016,42.2801311 L5.05259016,8.65180328 L5.05259016,4.93377049 C5.05259016,4.75514754 5.14072131,4.62216393 5.28393443,4.56236066 C5.28786885,4.56157377 5.29022951,4.55921311 5.29259016,4.55842623 C5.30911475,4.55213115 5.36262295,4.5387541 5.37127869,4.53639344 C5.39803279,4.53245902 5.42636066,4.53009836 5.45547541,4.53009836 L89.3091148,4.53009836 C89.3390164,4.53009836 89.3665574,4.53245902 89.3933115,4.53639344 C89.4019672,4.5387541 89.4098361,4.54190164 89.416918,4.5442623 C89.4358033,4.54819672 89.4546885,4.55213115 89.472,4.55921311 C89.4759344,4.56 89.4775082,4.56236066 89.4806557,4.56314754 C89.6246557,4.62216393 89.712,4.75593443 89.712,4.93455738 L89.712,42.280918 C89.7112131,42.4579672 89.623082,42.5917377 89.4814426,42.6499672 C89.4782951,42.6507541 89.4767213,42.6531148 89.4727869,42.6539016 C89.4562623,42.6601967 89.4365902,42.664918 89.4184918,42.6688525 C89.4098361,42.6712131 89.4027541,42.6751475 89.3940984,42.6767213 C89.3673443,42.6814426 89.341377,42.6830164 89.3122623,42.6830164 L5.45390164,42.6830164 L5.45390164,42.6814426 L5.45390164,42.6814426 Z" id="path35"></path>
</g>
</g>
</svg>
