<?xml version="1.0" encoding="UTF-8" standalone="no"?>
<svg width="50px" height="50px" viewBox="0 0 50 50" version="1.1" xmlns="http://www.w3.org/2000/svg" xmlns:xlink="http://www.w3.org/1999/xlink">
    <!-- Generator: Sketch 42 (36781) - http://www.bohemiancoding.com/sketch -->
    <title>Group</title>
    <desc>Created with Sketch.</desc>
    <defs></defs>
    <g id="Page-1" stroke="none" stroke-width="1" fill="none" fill-rule="evenodd">
        <g id="Artboard" transform="translate(-929.000000, -1044.000000)" fill="#DCE2E8">
            <g id="Group" transform="translate(929.000000, 1044.000000)">
                <path d="M24.9245763,49.9121469 L24.9245763,40.2644068 C35.1627119,40.2644068 43.0788136,30.1313559 39.170339,19.3680791 C37.7225989,15.3813559 34.5423729,12.2016949 30.5553672,10.7548023 C19.7935028,6.84971751 9.66327684,14.7635593 9.66186441,24.9997175 C9.66186441,24.9997175 9.66073446,25.0022599 9.65932203,25.0022599 L0.0141242938,25.0022599 C0.0141242938,8.69152542 15.7717514,-4.00847458 32.8635593,1.32711864 C40.3327684,3.65875706 46.2677966,9.59378531 48.599435,17.0629944 C53.9350282,34.1548023 41.2353107,49.9121469 24.9245763,49.9121469" id="Fill-1"></path>
                <path d="M24.9466102,40.2889831 L15.3276836,40.2889831 L15.3276836,30.6731638 C15.3276836,30.6731638 15.3285311,30.6717514 15.3293785,30.6717514 L24.9449153,30.6717514 C24.9457627,30.6717514 24.9466102,30.6723164 24.9466102,30.6723164 L24.9466102,40.2889831" id="Fill-3"></path>
                <path d="M15.3259887,47.679661 L7.93785311,47.679661 L7.93615819,47.6779661 L7.93615819,40.2889831 L15.3276836,40.2889831 L15.3276836,47.6779661 C15.3276836,47.6779661 15.3268362,47.679661 15.3259887,47.679661" id="Fill-4"></path>
                <path d="M7.94124294,40.2889831 L1.74774011,40.2889831 C1.74519774,40.2889831 1.74322034,40.2872881 1.74322034,40.2872881 L1.74322034,34.0966102 C1.74322034,34.0966102 1.74519774,34.0920904 1.74774011,34.0920904 L7.93672316,34.0920904 C7.93926554,34.0920904 7.94124294,34.0940678 7.94124294,34.0940678 L7.94124294,40.2889831" id="Fill-5"></path>
            </g>
        </g>
    </g>
</svg>