<?xml version="1.0" encoding="UTF-8" standalone="no"?>
<svg width="70px" height="50px" viewBox="0 0 70 50" version="1.1" xmlns="http://www.w3.org/2000/svg" xmlns:xlink="http://www.w3.org/1999/xlink">
    <!-- Generator: Sketch 42 (36781) - http://www.bohemiancoding.com/sketch -->
    <title>Page 1</title>
    <desc>Created with Sketch.</desc>
    <defs>
        <polygon id="path-1" points="0.152356688 0.120382166 57.5273885 0.120382166 57.5273885 39.9543631 0.152356688 39.9543631 0.152356688 0.120382166"></polygon>
    </defs>
    <g id="Page-1" stroke="none" stroke-width="1" fill="none" fill-rule="evenodd">
        <g id="Artboard" transform="translate(-552.000000, -1231.000000)">
            <g id="Page-1" transform="translate(552.000000, 1231.000000)">
                <path d="M11.0970382,29.6234713 C11.0970382,29.6234713 4.26933121,32.9788854 0.334617834,37.7228344 C-0.243726115,38.3011783 0.103407643,38.9954459 0.103407643,38.9954459 C0.103407643,38.9954459 4.15372611,49.9871656 23.5951274,49.8715605 C35.1674204,50.1030892 43.2680573,45.243535 43.2680573,45.243535 C43.2680573,45.243535 51.1374841,44.7807962 54.0304777,43.5078662 C55.3034076,42.9295223 55.5349363,42.466465 55.5349363,42.466465 C55.5349363,42.466465 52.5260191,43.0451274 39.7964013,40.1524522 C21.0492675,35.0616879 11.0970382,29.6234713 11.0970382,29.6234713" id="Fill-1" fill="#DCE2E8"></path>
                <g id="Group-5" transform="translate(12.101911, 0.198089)">
                    <mask id="mask-2" fill="white">
                        <use xlink:href="#path-1"></use>
                    </mask>
                    <g id="Clip-4"></g>
                    <path d="M0.152356688,26.4171019 L6.51700637,3.27633758 C6.51700637,3.27633758 7.67433121,0.615191083 9.75745223,0.38366242 C11.8405732,0.152452229 18.7838854,-0.310286624 26.7689172,1.07792994 C34.7536306,2.46646497 48.2934395,8.13589172 55.9310191,17.1607325 C56.6256051,18.2021338 58.7084076,20.0534076 56.6256051,23.177293 C54.5424841,26.3014968 44.5902548,39.9543631 44.5902548,39.9543631 C44.5902548,39.9543631 35.1007643,39.838758 25.2644586,36.7148726 C10.5673248,31.8553185 0.152356688,26.4171019 0.152356688,26.4171019" id="Fill-3" fill="#DCE2E8" mask="url(#mask-2)"></path>
                </g>
                <path d="M47.4342357,4.74719745 L56.4606688,16.7803185 L42.9208599,36.7971975 C42.9208599,36.7971975 46.6240446,39.1112102 56.5762739,39.1112102 L68.8431529,21.0615287 C68.8431529,21.0615287 69.3058917,20.2513376 68.3800955,19.2102548 C67.4542994,18.1688535 64.5613057,13.8876433 56.2291401,8.91248408 C51.368949,6.01980892 47.4342357,4.74719745 47.4342357,4.74719745" id="Fill-6" fill="#DCE2E8"></path>
                <path d="M37.0191083,39.8053822 C37.0191083,39.8053822 41.9952229,41.4251274 46.0455414,42.1193949 C50.0958599,42.8136624 53.6834395,42.9292675 53.6834395,42.9292675 C53.6834395,42.9292675 49.1700637,44.896465 43.2681529,44.0862739 C43.2681529,44.0862739 38.639172,47.3260828 31.3487261,48.4830892 C24.0579618,49.6400955 16.0732484,49.1773567 11.5598726,46.6318153 C7.04681529,44.0862739 7.97261146,43.8550637 7.97261146,43.8550637 L11.9070064,44.6649363 C11.9070064,44.6649363 21.1649682,46.978949 27.4140127,45.9375478 C34.1261146,44.4334076 37.0191083,39.8053822 37.0191083,39.8053822" id="Fill-8" fill="#DCE2E8"></path>
            </g>
        </g>
    </g>
</svg>