<?xml version="1.0" encoding="UTF-8" standalone="no"?>
<svg width="54px" height="50px" viewBox="0 0 54 50" version="1.1" xmlns="http://www.w3.org/2000/svg" xmlns:xlink="http://www.w3.org/1999/xlink">
    <!-- Generator: Sketch 42 (36781) - http://www.bohemiancoding.com/sketch -->
    <title>g3010</title>
    <desc>Created with Sketch.</desc>
    <defs></defs>
    <g id="Page-1" stroke="none" stroke-width="1" fill="none" fill-rule="evenodd">
        <g id="Artboard" transform="translate(-945.000000, -726.000000)" fill-rule="nonzero" fill="#DCE2E8">
            <g id="uber_logo" transform="translate(641.000000, 726.000000)">
                <g id="Boostrap3-grid-system-layouts">
                    <g id="Artboard-8-Copy">
                        <g id="g3010" transform="translate(331.000000, 25.000000) scale(1, -1) translate(-331.000000, -25.000000) translate(304.000000, 0.000000)">
                            <polygon id="path2997" points="15.8052003 49.5411913 0.200799091 39.3527759 10.9901129 30.712688 26.7235414 40.4276522"></polygon>
                            <polygon id="path3001" points="0.200851657 22.0722334 15.8052529 11.8838181 26.7235939 20.9978838 10.9901654 30.712848"></polygon>
                            <polygon id="path3005" points="26.7237515 20.9978825 37.6426192 11.8838168 53.2464938 22.0722321 42.45718 30.7128467"></polygon>
                            <polygon id="path3009" points="53.2466521 39.3529352 37.6427775 49.5413506 26.7239098 40.4278115 42.4573383 30.7128473"></polygon>
                            <polygon id="path3013" points="26.7556672 19.0370889 15.8052009 9.95040852 11.1196674 13.0096716 11.1196674 9.57965258 26.7556672 0.202792518 42.3921935 9.57965258 42.3921935 13.0096716 37.7071867 9.95040852"></polygon>
                        </g>
                    </g>
                </g>
            </g>
        </g>
    </g>
</svg>