<?xml version="1.0" encoding="UTF-8" standalone="no"?>
<svg width="72px" height="29px" viewBox="0 0 72 29" version="1.1" xmlns="http://www.w3.org/2000/svg" xmlns:xlink="http://www.w3.org/1999/xlink">
    <!-- Generator: Sketch 42 (36781) - http://www.bohemiancoding.com/sketch -->
    <title>EBay_logo</title>
    <desc>Created with Sketch.</desc>
    <defs></defs>
    <g id="Page-1" stroke="none" stroke-width="1" fill="none" fill-rule="evenodd">
        <g id="Artboard" transform="translate(-927.000000, -1125.000000)" fill-rule="nonzero" fill="#DCE2E8">
            <g id="EBay_logo" transform="translate(927.000000, 1125.000000)">
                <path d="M9.31509911,6.30531374 C4.24711447,6.30531374 0.023966216,8.45540729 0.023966216,14.9421414 C0.023966216,20.0810629 2.86372771,23.317247 9.44596005,23.317247 C17.1935557,23.317247 17.6902047,18.2136669 17.6902047,18.2136669 L13.936129,18.2136669 C13.936129,18.2136669 13.1312237,20.9617486 9.21695328,20.9617486 C6.02888693,20.9617486 3.73590463,18.8081163 3.73590463,15.7894874 L18.0827877,15.7894874 L18.0827877,13.8952532 C18.0827877,10.9088801 16.1869858,6.30531374 9.31509911,6.30531374 L9.31509911,6.30531374 Z M9.18423793,8.7262426 C12.218947,8.7262426 14.287818,10.5853696 14.287818,13.3718089 L3.81893594,13.3718089 C3.81893594,10.4136627 6.51933973,8.7262426 9.18423793,8.7262426 L9.18423793,8.7262426 Z" id="e"></path>
                <path d="M18.0801248,0.0239843877 L18.0801248,20.0596346 C18.0801248,21.1969216 17.9989543,22.793803 17.9989543,22.793803 L21.5795514,22.793803 C21.5795514,22.793803 21.7080713,21.6469002 21.7080713,20.5987427 C21.7080713,20.5987427 23.4771175,23.3663198 28.2872855,23.3663198 C33.352586,23.3663198 36.7932515,19.849647 36.7932515,14.8112802 C36.7932515,10.1241603 33.632889,6.35438653 28.295463,6.35438653 C23.2973405,6.35438653 21.7442336,9.0533952 21.7442336,9.0533952 L21.7442336,0.0239843877 L18.0801248,0.0239843877 Z M27.3712569,8.83256715 C30.8109901,8.83256715 32.9982827,11.3854446 32.9982827,14.8112802 C32.9982827,18.4848672 30.4720328,20.8881392 27.3957943,20.8881392 C23.7245731,20.8881392 21.7442336,18.0216651 21.7442336,14.8439956 C21.7442336,11.8830268 23.5212503,8.83256715 27.3712569,8.83256715 Z" id="b"></path>
                <path d="M45.6918008,6.30531374 C38.0674012,6.30531374 37.5784181,10.4800617 37.5784181,11.1471717 L41.3733869,11.1471717 C41.3733869,11.1471717 41.572394,8.70988493 45.4300794,8.70988493 C47.9368658,8.70988493 49.8793553,9.85728095 49.8793553,12.0631988 L49.8793553,12.8483649 L45.4300794,12.8483649 C39.5233498,12.8483649 36.4006682,14.5763167 36.4006682,18.082806 C36.4006682,21.533695 39.2859261,23.4113033 43.1849953,23.4113033 C48.4988211,23.4113033 50.2105952,20.4751092 50.2105952,20.4751092 C50.2105952,21.6429665 50.3006342,22.793803 50.3006342,22.793803 L53.674324,22.793803 C53.674324,22.793803 53.5434621,21.3673052 53.5434621,20.454662 L53.5434621,12.5661959 C53.5434621,7.39383664 49.3714143,6.30531374 45.6918008,6.30531374 L45.6918008,6.30531374 Z M49.8793553,15.2038633 L49.8793553,16.2507516 C49.8793553,17.6161792 49.0367902,21.0108214 44.0764864,21.0108214 C41.360241,21.0108214 40.1956393,19.6552138 40.1956393,18.082806 C40.1956393,15.222286 44.117537,15.2038633 49.8793553,15.2038633 L49.8793553,15.2038633 Z" id="a"></path>
                <polygon id="y" points="51.499928 6.96027826 55.7692697 6.96027826 61.8963681 19.2355097 68.0094483 6.96027826 71.8768595 6.96027826 60.7419883 28.8140621 56.6852958 28.8140621 59.8984023 22.7220218"></polygon>
            </g>
        </g>
    </g>
</svg>