<svg width="120px" height="48px" viewBox="14 7 197 48" version="1.1" xmlns="http://www.w3.org/2000/svg" xmlns:xlink="http://www.w3.org/1999/xlink">
    <!-- Generator: Sketch 42 (36781) - http://www.bohemiancoding.com/sketch -->
    <desc>Created with Sketch.</desc>
    <defs></defs>
    <g id="ephox-colour-onlight-rgb" stroke="none" stroke-width="1" fill="none" fill-rule="evenodd" transform="translate(14.000000, 7.000000)">
        <g id="Shape" fill="#DCE2E8">
            <path d="M21.4647887,35.2225352 C21.4647887,41.0098571 16.7732374,45.7014085 10.9859155,45.7014085 C5.19859361,45.7014085 0.507042254,41.0098571 0.507042254,35.2225352 C0.507042254,29.4352133 5.19859361,24.743662 10.9859155,24.743662 L21.4647887,24.743662 L21.4647887,35.2225352 L21.4647887,35.2225352 Z"></path>
            <path d="M31.943662,24.743662 C37.7309839,24.743662 42.4225352,20.0521106 42.4225352,14.2647887 C42.4225352,8.47746685 37.7309839,3.78591549 31.943662,3.78591549 C26.1563401,3.78591549 21.4647887,8.47746685 21.4647887,14.2647887 L21.4647887,24.743662 L31.943662,24.743662 Z"></path>
            <path d="M41.7464789,36.9126761 C41.7464789,41.3931833 38.1143101,45.0253521 33.6338028,45.0253521 C29.1532956,45.0253521 25.5211268,41.3931833 25.5211268,36.9126761 L25.5211268,28.8 L33.6338028,28.8 C38.1143101,28.8 41.7464789,32.4321688 41.7464789,36.9126761 L41.7464789,36.9126761 L41.7464789,36.9126761 Z"></path>
            <path d="M16.7323944,12.2366197 L16.7323944,20.0112676 L8.95774648,20.0112676 C4.66392702,20.0112676 1.18309859,16.5304392 1.18309859,12.2366197 C1.18309859,7.94280025 4.66392702,4.46197183 8.95774648,4.46197183 C13.2515659,4.46197183 16.7323944,7.94280025 16.7323944,12.2366197 L16.7323944,12.2366197 L16.7323944,12.2366197 Z"></path>
            <path d="M67.3014085,10.4788732 C59.3239437,10.4788732 53.7126761,17.0366197 53.7126761,25.0140845 L53.7126761,25.1492958 C53.7126761,33.7352113 59.9323944,39.6169014 67.9774648,39.6169014 C72.369764,39.7564593 76.573648,37.8296791 79.3352113,34.4112676 L75.6169014,31.0985915 C73.3859155,33.2619718 71.1549296,34.4112676 68.0450704,34.4112676 C63.9211268,34.4112676 60.6760563,31.8422535 60,27.3126761 L80.4507042,27.3126761 C80.5269057,26.7069325 80.5720353,26.0976839 80.5859155,25.4873239 C80.6197183,17.4422535 76.1577465,10.4788732 67.3014085,10.4788732 Z M60,23.1211268 C60.6084507,18.7943662 63.3126761,15.8197183 67.2338028,15.8197183 C71.4929577,15.8197183 73.9267606,18.9971831 74.3323944,23.1211268 L60,23.1211268 Z"></path>
            <path d="M99.7521127,10.6140845 C95.2225352,10.6140845 92.315493,12.9126761 90.2873239,15.8197183 L90.2873239,11.1549296 L83.9323944,11.1549296 L83.9323944,47.5267606 L90.2873239,47.5267606 L90.2873239,34.7492958 C92.3923997,37.9027885 95.9613899,39.763762 99.7521127,39.684507 C106.309859,39.684507 112.664789,34.4788732 112.664789,25.2169014 L112.664789,25.0816901 C112.664789,15.7521127 106.309859,10.6140845 99.7521127,10.6140845 Z M106.242254,25.0816901 C106.242254,30.6253521 102.659155,34.0056338 98.2647887,34.0056338 C93.8704225,34.0056338 90.1521127,30.4225352 90.1521127,25.0816901 L90.1521127,24.9464789 C90.1521127,19.6056338 93.9380282,16.0225352 98.2647887,16.0225352 C102.591549,16.0225352 106.242254,19.5380282 106.242254,24.9464789 L106.242254,25.0816901 L106.242254,25.0816901 Z"></path>
            <path d="M130.174648,10.5464789 C125.847887,10.5464789 123.278873,12.8450704 121.453521,15.4140845 L121.453521,0.473239437 L115.166197,0.473239437 L115.166197,38.9408451 L121.521127,38.9408451 L121.521127,23.256338 C121.521127,18.9295775 124.090141,16.3605634 127.808451,16.3605634 C131.526761,16.3605634 133.757746,18.8619718 133.757746,23.1887324 L133.757746,39.0084507 L140.112676,39.0084507 L140.112676,21.228169 C140.112676,14.7380282 136.461972,10.5464789 130.174648,10.5464789 Z"></path>
            <path d="M171.71831,25.0140845 C171.71831,17.0366197 165.430986,10.5464789 156.912676,10.5464789 C148.394366,10.5464789 142.039437,17.1042254 142.039437,25.0816901 L142.039437,25.2169014 C142.039437,33.1267606 148.326761,39.6169014 156.777465,39.684507 C165.36338,39.684507 171.71831,33.0591549 171.71831,25.1492958 L171.71831,25.0140845 Z M165.36338,25.2169014 C165.36338,30.0169014 162.050704,34.0056338 156.980282,34.0056338 C151.909859,34.0056338 148.461972,29.9492958 148.461972,25.0816901 L148.461972,24.9464789 C148.461972,20.0788732 151.707042,16.0901408 156.84507,16.0901408 C161.847887,16.0901408 165.36338,20.1464789 165.36338,25.0816901 L165.36338,25.2169014 Z"></path>
            <polygon points="186.692958 24.743662 196.495775 11.1549296 189.667606 11.1549296 183.24507 20.484507 176.822535 11.1549296 169.859155 11.1549296 179.661972 24.8112676 169.453521 39.0084507 176.28169 39.0084507 183.109859 29.0704225 189.938028 39.0084507 196.901408 39.0084507"></polygon>
        </g>
    </g>
</svg>
