<?xml version="1.0" encoding="UTF-8" standalone="no"?>
<svg width="68px" height="33px" viewBox="0 0 68 33" version="1.1" xmlns="http://www.w3.org/2000/svg" xmlns:xlink="http://www.w3.org/1999/xlink">
    <!-- Generator: Sketch 42 (36781) - http://www.bohemiancoding.com/sketch -->
    <title>Shape</title>
    <desc>Created with Sketch.</desc>
    <defs></defs>
    <g id="Page-1" stroke="none" stroke-width="1" fill="none" fill-rule="evenodd">
        <g id="Artboard" transform="translate(-642.000000, -1084.000000)" fill-rule="nonzero" fill="#DCE2E8">
            <path d="M649.236226,1095.57928 L649.236226,1086.53459 C649.236226,1086.19945 649.269661,1085.99844 649.839444,1085.99844 L657.51052,1085.99844 C658.850694,1085.99844 659.587651,1087.13761 660.1238,1089.28141 L660.559248,1090.99017 L661.865589,1090.99017 C662.099831,1086.13298 662.300639,1084.02241 662.300639,1084.02241 C662.300639,1084.02241 659.017868,1084.39079 657.074874,1084.39079 L647.260195,1084.39079 L642,1084.22322 L642,1085.63026 L643.775821,1085.96521 C645.015293,1086.19985 645.316206,1086.46752 645.417505,1087.60689 C645.417505,1087.60689 645.518207,1090.95673 645.518207,1096.4844 C645.518207,1102.01128 645.417505,1105.32808 645.417505,1105.32808 C645.417505,1106.33291 645.015293,1106.70129 643.775821,1106.93653 L642,1107.27167 L642,1108.67792 L647.260195,1108.51075 L656.037005,1108.51075 C658.013434,1108.51075 662.602745,1108.67792 662.602745,1108.67792 C662.70285,1107.47168 663.373336,1102.01128 663.473839,1101.40906 L662.234366,1101.40906 L660.927826,1104.39052 C659.88916,1106.73493 658.382011,1106.9027 656.706694,1106.9027 L651.714972,1106.9027 C650.039853,1106.9027 649.235828,1106.23261 649.235828,1104.79233 L649.235828,1097.15429 C649.235828,1097.15429 652.887177,1097.15429 654.159885,1097.25499 C655.098047,1097.32226 655.667233,1097.59014 655.96914,1098.89648 L656.371352,1100.63847 L657.811034,1100.63847 L657.710929,1096.24956 L657.911736,1091.82802 L656.471656,1091.82802 L656.002973,1093.77082 C655.701065,1095.04373 655.500457,1095.27876 654.193717,1095.4123 C652.720003,1095.58027 649.235629,1095.54664 649.235629,1095.54664 L649.235629,1095.57987 L649.236226,1095.57987 L649.236226,1095.57928 L649.236226,1095.57928 Z M669.101218,1087.47275 C668.632137,1089.54969 668.163056,1091.15754 666.521571,1092.22964 C665.516739,1092.89933 664.511509,1093.13357 664.110093,1093.1672 L664.110093,1094.44011 L667.091355,1094.44011 L667.091355,1104.72427 C667.091355,1107.60562 669.001113,1109.01287 671.546728,1109.01287 C673.523356,1109.01287 675.566456,1108.17541 676.270177,1106.43302 L675.566456,1105.52849 C675.231313,1106.09827 674.160009,1106.93554 672.819834,1106.93554 C671.34612,1106.93554 670.542095,1105.9303 670.542095,1103.38489 L670.542095,1094.30677 L675.500382,1094.67555 L675.768059,1092.39701 L670.542294,1092.59822 L670.542294,1087.50599 L669.101218,1087.47275 L669.101218,1087.47275 Z M679.687283,1103.29135 L678.414376,1103.32479 C678.481246,1104.06154 678.515079,1104.9999 678.515079,1105.8708 C678.515079,1106.77533 678.481644,1107.61279 678.414376,1108.0146 C678.414376,1108.0146 680.96039,1108.95177 683.539837,1108.95177 C687.023814,1108.95177 689.804467,1107.27685 689.804467,1103.99388 C689.804467,1098.3667 681.362601,1099.20436 681.362601,1095.41827 C681.362601,1093.84406 682.769446,1093.24084 684.310428,1093.24084 C685.516465,1093.24084 686.521298,1093.67629 686.722304,1094.31334 L687.559963,1096.82572 L688.799634,1096.75885 C688.900336,1095.41867 688.967007,1093.87769 689.168212,1092.63842 C688.095913,1092.16934 685.851211,1091.90086 684.445361,1091.90086 C681.161595,1091.90086 678.515676,1093.34154 678.515676,1096.55764 C678.515676,1102.15178 686.756137,1101.01282 686.756137,1105.13384 C686.756137,1106.60716 685.851211,1107.64582 683.80831,1107.64582 C681.932782,1107.64582 680.994421,1106.67463 680.62664,1105.70263 L679.687283,1103.29135 L679.687283,1103.29135 Z M699.878065,1107.16142 C697.938653,1112.57884 695.56459,1113.9823 693.424769,1113.9823 C692.521435,1113.9823 692.087181,1113.58068 691.952846,1112.94642 L691.451325,1110.33752 L690.046669,1110.40439 C689.779192,1111.94278 689.511714,1113.64875 689.14433,1115.05281 C689.980397,1115.68727 691.384058,1116.02241 692.488,1116.02241 C694.795791,1116.02241 698.306435,1115.7209 701.515968,1108.09739 L706.899951,1095.39121 C707.335,1094.35433 707.501577,1094.25403 708.772294,1093.75211 L709.474622,1093.48523 L709.474622,1092.31482 L706.297728,1092.48199 L702.887189,1092.31482 L702.887189,1093.48523 L703.756093,1093.75211 C704.625197,1094.02019 705.027209,1094.35433 705.027209,1094.95636 C705.027209,1095.25707 704.926507,1095.55818 704.758936,1096.02587 C704.257415,1097.29738 701.147589,1104.85403 700.312517,1106.45949 L701.14739,1106.15798 C699.675865,1102.5134 697.436536,1096.42709 697.101791,1095.39141 C697.034921,1095.1906 697.001486,1095.02343 697.001486,1094.85546 C697.001486,1094.3207 697.369268,1093.88585 698.1719,1093.71888 L699.275445,1093.48543 L699.275445,1092.31502 L694.693895,1092.48219 L691.049312,1092.31502 L691.049312,1093.48543 L691.651336,1093.68584 C692.487204,1093.95332 692.688011,1094.18756 693.189532,1095.35777 C695.964015,1101.71136 697.268964,1105.18837 699.040406,1109.73649 L699.878065,1107.16142 L699.878065,1107.16142 Z" id="Shape"></path>
        </g>
    </g>
</svg>