<?xml version="1.0" encoding="UTF-8" standalone="no"?>
<svg width="42px" height="50px" viewBox="0 0 42 50" version="1.1" xmlns="http://www.w3.org/2000/svg" xmlns:xlink="http://www.w3.org/1999/xlink">
    <!-- Generator: Sketch 42 (36781) - http://www.bohemiancoding.com/sketch -->
    <title>Shape</title>
    <desc>Created with Sketch.</desc>
    <defs></defs>
    <g id="Page-1" stroke="none" stroke-width="1" fill="none" fill-rule="evenodd">
        <g id="Artboard" transform="translate(-494.000000, -915.000000)" fill-rule="nonzero" fill="#DCE2E8">
            <path d="M498.178341,924.684236 L498.181443,924.684236 L502.873915,924.684236 C503.14281,924.684236 503.359046,924.465242 503.359563,924.198415 C503.359563,924.196692 503.302595,920.174906 503.302595,919.056493 L503.302595,919.043221 C503.302595,918.12467 503.495389,917.323846 503.831163,916.65273 L503.991638,916.351343 C503.973711,916.35436 503.955699,916.363151 503.937859,916.381077 L494.820259,925.422489 C494.802419,925.437141 494.791302,925.456188 494.786131,925.475751 C494.974702,925.382414 495.232565,925.254861 495.269021,925.238831 C496.063036,924.880563 497.025799,924.684236 498.178341,924.684236 Z M534.69183,923.699753 C534.319084,921.704417 533.132758,920.721055 532.060196,920.334433 C530.903,919.916181 528.556549,919.482933 525.60836,919.135438 C523.236485,918.856115 520.448684,918.87835 518.764731,918.930406 C518.562629,917.546115 517.591678,916.281448 516.50524,915.843632 C513.610571,914.678508 509.138214,914.959986 507.989895,915.281797 C507.077463,915.536816 506.067471,916.059437 505.505377,916.864829 C505.128407,917.402791 504.884506,918.092006 504.88261,919.054856 C504.88261,919.599798 504.897779,920.883512 504.911654,922.024074 C504.925444,923.168169 504.94044,924.191434 504.94044,924.198415 C504.939923,925.217026 504.114364,926.046032 503.091271,926.047325 L498.398024,926.047325 C497.396909,926.047325 496.632024,926.215557 496.047695,926.481004 C495.462504,926.74671 495.048044,927.104891 494.733127,927.528659 C494.10631,928.370162 493.997459,929.408595 494.000044,930.468316 C494.000044,930.468316 494.009266,931.334295 494.217918,933.010405 C494.391407,934.307305 495.797847,943.367161 497.133702,946.122557 C497.651669,947.194602 497.996665,947.641122 499.014241,948.11367 C501.281489,949.084363 506.460212,950.164251 508.887418,950.47348 C511.310228,950.783485 512.830862,951.435123 513.737089,949.53502 C513.740106,949.53028 513.918593,949.0623 514.164132,948.375756 C514.950907,945.991643 515.060361,943.876251 515.060361,942.345448 C515.060361,942.189799 515.28875,942.182646 515.28875,942.345448 C515.28875,943.426197 515.082338,947.250622 517.971319,948.276645 C519.111795,948.681107 521.477723,949.041702 523.881659,949.323438 C526.055311,949.5732 527.632741,950.428578 527.632741,956.005213 C527.632741,959.398027 526.920084,959.863249 523.194685,959.863249 C520.174791,959.863249 519.023801,959.941418 519.023801,957.542222 C519.023801,955.603164 520.941572,955.806386 522.362921,955.806386 C522.997754,955.806386 522.537014,955.334183 522.537014,954.13786 C522.537014,952.947828 523.2813,952.259906 522.577348,952.242497 C517.662435,952.107274 514.770524,952.236895 514.770524,958.383639 C514.770524,963.963807 516.905996,965 523.881573,965 C529.350823,965 531.278764,964.820909 533.537048,957.813875 C533.984086,956.430618 535.06475,952.20923 535.718801,945.121441 C536.132399,940.639948 535.329076,927.113682 534.69183,923.699753 Z M525.157875,938.650558 C524.482191,938.626944 523.832276,938.669605 523.226229,938.766993 C523.396787,937.389511 523.965344,935.699266 525.979469,935.770024 C528.209055,935.846728 528.521472,937.954018 528.529401,939.3814 C527.589304,938.9622 526.425472,938.695116 525.157875,938.650558 Z" id="Shape"></path>
        </g>
    </g>
</svg>