<?xml version="1.0" encoding="UTF-8" standalone="no"?>
<svg width="49px" height="49px" viewBox="0 0 49 49" version="1.1" xmlns="http://www.w3.org/2000/svg" xmlns:xlink="http://www.w3.org/1999/xlink">
    <!-- Generator: Sketch 41.2 (35397) - http://www.bohemiancoding.com/sketch -->
    <title>Group</title>
    <desc>Created with Sketch.</desc>
    <defs></defs>
    <g id="Page-1" stroke="none" stroke-width="1" fill="none" fill-rule="evenodd">
        <g id="Artboard" transform="translate(-477.000000, -847.000000)" fill="#DCE2E8">
            <g id="Group" transform="translate(477.000000, 847.000000)">
                <path d="M28.8734307,18.6867407 L27.8247862,15.87798 L19.4356302,4.7907665 L20.9336938,4.34727796 L35.4649105,16.764957 L44.0038729,14.3996848 C45.0525174,14.1040258 46.1011619,14.1040258 47,14.1040258 C44.3034856,8.3386748 39.3598758,3.75595991 32.9182024,1.3906877 C20.184662,-3.04419768 6.10286441,3.46030088 1.45886733,16.173639 C0.110610112,20.0172063 -0.33880896,24.1564327 0.260416469,28 L20.9336938,21.0520129 L28.8734307,18.6867407 Z" id="Shape"></path>
                <path d="M44.7332388,18.4624327 L36.3116354,20.8023251 L30.6972331,38.6440043 L29.2197588,39.0827341 L30.4017383,25.4821098 L29.8107485,22.7034876 L21.9801348,24.8971367 L1,29.7231647 C2.62522171,37.6203014 8.38737142,44.6399785 16.6612274,47.5648439 C29.2197588,52.0983854 43.1080171,45.5174381 47.5404399,33.08676 C49.4611565,27.6757589 49.4611565,21.9722713 47.6881874,17 C46.9494502,17.4387298 45.9152182,18.1699462 44.7332388,18.4624327 Z" id="Shape"></path>
            </g>
        </g>
    </g>
</svg>