<?xml version="1.0" encoding="UTF-8" standalone="no"?>
<svg width="50px" height="50px" viewBox="0 0 50 50" version="1.1" xmlns="http://www.w3.org/2000/svg" xmlns:xlink="http://www.w3.org/1999/xlink">
    <!-- Generator: Sketch 42 (36781) - http://www.bohemiancoding.com/sketch -->
    <title>Page 1</title>
    <desc>Created with Sketch.</desc>
    <defs>
        <polygon id="path-1" points="0.0467423151 6.35416667 4.98890625 6.35416667 4.98890625 0.00585416667 0.0467423151 0.00585416667"></polygon>
        <polygon id="path-3" points="0.0436530259 4.6875 4.99373881 4.6875 4.99373881 0.026815245 0.0436530259 0.026815245"></polygon>
    </defs>
    <g id="Page-1" stroke="none" stroke-width="1" fill="none" fill-rule="evenodd">
        <g id="Artboard" transform="translate(-183.000000, -968.000000)">
            <g id="Page-1" transform="translate(183.000000, 968.000000)">
                <path d="M49.84375,0 C49.8518229,0.276614583 49.8658333,0.553229167 49.8669271,0.82984375 C49.8701042,1.64578125 49.8681771,2.46166667 49.8682812,3.27755208 L49.8682812,3.54020833 L49.5177604,3.54020833 C37.1925,3.54026042 24.8672396,3.54114583 12.5419792,3.53453125 C12.2696875,3.534375 12.1675521,3.58739583 12.115625,3.88338542 C11.8763021,5.24776042 11.2194271,6.4290625 10.3959375,7.51859375 C9.09791667,9.2359375 7.51901042,10.6241667 5.51828125,11.4695312 C4.89989583,11.7307812 4.23614583,11.8847917 3.55880208,12.0988021 L3.55880208,23.7202083 L8.05510417,23.7202083 L8.05510417,46.3486979 L19.2789583,46.3486979 L19.2789583,49.8839062 L18.9857812,49.8839062 C14.29,49.8839583 9.59427083,49.8841146 4.89848958,49.8840625 C4.54203125,49.8840625 4.54197917,49.8835937 4.54197917,49.5130729 C4.54197917,42.1873437 4.54203125,34.8616146 4.54203125,27.5358854 L4.54203125,27.2395833 L0,27.2395833 L0,9.0625 C0.415416667,9.040625 0.83609375,9.05328125 1.24541667,8.99130208 C4.39119792,8.515 6.67520833,6.82760417 8.11604167,4.00822917 C8.75541667,2.75713542 9.10005208,1.419375 9.0625,0 L49.84375,0 Z" id="Fill-1" fill="#DCE2E8"></path>
                <g id="Group-5" transform="translate(44.895833, 43.645833)">
                    <mask id="mask-2" fill="white">
                        <use xlink:href="#path-1"></use>
                    </mask>
                    <g id="Clip-4"></g>
                    <path d="M3.61484375,4.10090625 C3.6109375,3.331375 3.2846875,2.92007292 2.70859375,2.830125 C2.20244792,2.7510625 1.73729167,3.05423958 1.57572917,3.56845833 C1.39875,4.1316875 1.59786458,4.76601042 2.04052083,5.01314583 C2.39119792,5.20892708 2.75458333,5.21517708 3.10328125,5.01215625 C3.49875,4.78184375 3.61192708,4.40121875 3.61484375,4.10090625 L3.61484375,4.10090625 Z M1.92708333,6.3541875 C1.89786458,6.33825 1.8703125,6.31366667 1.83916667,6.307625 C0.789947917,6.10465625 0.126510417,5.3491875 0.0555729167,4.2704375 C0.0103125,3.58189583 0.131770833,2.9360625 0.58921875,2.39351042 C1.30765625,1.541375 2.60234375,1.44897917 3.45416667,2.17929167 C3.478125,2.1998125 3.5084375,2.21283333 3.57135417,2.25080208 L3.57135417,0.00585416667 L4.98890625,0.00585416667 L4.98890625,6.21913542 L3.65375,6.21913542 L3.65375,5.71673958 C3.63880208,5.7004375 3.62380208,5.68413542 3.60885417,5.66778125 C3.28692708,6.0985625 2.82645833,6.248875 2.34375,6.3541875 L1.92708333,6.3541875 Z" id="Fill-3" fill="#DCE2E8" mask="url(#mask-2)"></path>
                </g>
                <g id="Group-8" transform="translate(28.802083, 45.312500)">
                    <mask id="mask-4" fill="white">
                        <use xlink:href="#path-3"></use>
                    </mask>
                    <g id="Clip-7"></g>
                    <path d="M1.50014583,2.30923438 C1.49540625,2.86970313 1.74660417,3.28944271 2.17207292,3.43215104 C2.74905208,3.62569271 3.31061458,3.33006771 3.47894792,2.74423438 C3.6836875,2.03178646 3.37530208,1.34220313 2.78441667,1.19131771 C2.06858333,1.00845313 1.50696875,1.49730729 1.50014583,2.30923438 L1.50014583,2.30923438 Z M2.23957292,4.68751563 C2.09972917,4.65334896 1.96014583,4.61777604 1.81988542,4.58517188 C0.633427083,4.30949479 -0.0194895833,3.40569271 0.0484791667,2.13235938 C0.10696875,1.03756771 0.93884375,0.185640625 2.08509375,0.054546875 C2.82269792,-0.029828125 3.5265,0.064859375 4.13525,0.526213542 C4.87113542,1.08392188 5.1615,2.06303646 4.89847917,3.03100521 C4.66457292,3.89194271 3.93045833,4.50402604 2.9811875,4.63256771 C2.90644792,4.64267188 2.83394792,4.66881771 2.76040625,4.68751563 L2.23957292,4.68751563 Z" id="Fill-6" fill="#DCE2E8" mask="url(#mask-4)"></path>
                </g>
                <path d="M35.8854167,50 C35.8385417,49.9823958 35.7930729,49.9569792 35.7445833,49.9483854 C35.0802604,49.8311458 34.6480729,49.4929167 34.5942708,48.8228125 C34.5044271,47.7040104 34.5196354,46.5767187 34.4901042,45.4346875 L35.9363021,45.4346875 C35.9409896,45.5330729 35.9490625,45.6253646 35.9491667,45.7176562 C35.9503646,46.4117187 35.9482813,47.1057292 35.9514063,47.7997396 C35.9520313,47.9379167 35.9623438,48.0771875 35.9822917,48.2139062 C36.0335417,48.5647917 36.2021354,48.7406771 36.5196875,48.7886458 C36.8336979,48.8360937 37.1521875,48.6835417 37.2608333,48.3848437 C37.3361979,48.1777604 37.3747917,47.9475 37.3797917,47.7264583 C37.3947396,47.05875 37.3847917,46.3905729 37.3858854,45.7225521 C37.3859896,45.6296875 37.3935417,45.5368229 37.3982292,45.4316667 L38.8047396,45.4316667 L38.8047396,49.8663542 L37.4535417,49.8663542 C37.4440104,49.7289583 37.4347917,49.5956771 37.42875,49.5085417 C37.0552604,49.6714583 36.6786979,49.8357292 36.3020833,50 L35.8854167,50 Z" id="Fill-9" fill="#DCE2E8"></path>
                <path d="M25.2272396,44.7302292 L25.2272396,46.3895 C25.6079688,46.3602813 25.974375,46.3677292 26.3244792,46.2956979 C26.6958333,46.2193438 26.8869792,45.8994479 26.8711458,45.5153854 C26.85625,45.1545521 26.6316667,44.8546042 26.2716146,44.7985104 C25.9342188,44.7459583 25.5878646,44.751375 25.2272396,44.7302292 M28.6958854,49.8802813 C28.1260937,49.8802813 27.6170833,49.8869479 27.1086979,49.8723125 C27.0411979,49.8703854 26.9557813,49.7722604 26.9142188,49.6986667 C26.5563542,49.0648646 26.2066146,48.4265313 25.8544792,47.7895 C25.6641146,47.4450729 25.6554688,47.4412708 25.2153646,47.5258021 C25.2153646,47.9248646 25.2152604,48.3302813 25.2154167,48.73575 C25.2155208,49.0565833 25.2240625,49.3778333 25.2092188,49.6979896 C25.2063021,49.7610104 25.1151563,49.8706979 25.0617708,49.8725208 C24.6388021,49.887 24.2151562,49.8805938 23.7734375,49.8805938 L23.7734375,43.631375 C23.9429167,43.631375 24.1050521,43.6281458 24.2670313,43.6319479 C25.0894271,43.6512708 25.921875,43.5990313 26.731875,43.7098125 C28.0040625,43.8838229 28.6302604,45.0040833 28.2257812,46.2243438 C28.0720833,46.6878333 27.79,46.9706458 27.1245833,47.3110104 C27.6375521,48.1498125 28.1493229,48.9866354 28.6958854,49.8802813" id="Fill-11" fill="#DCE2E8"></path>
                <path d="M36.1838854,35.770474 C36.1838854,36.1084948 36.1794062,36.428026 36.1856562,36.7472969 C36.1890937,36.924224 36.0740937,36.9097969 35.9586771,36.9097448 C35.3251875,36.9094323 34.69175,36.9101094 34.0582604,36.9104219 C33.9645104,36.910474 33.8707083,36.9104219 33.7569063,36.9104219 L33.7569063,38.4408385 L36.0168542,38.4408385 L36.0168542,39.6037552 L33.7469062,39.6037552 L33.7469062,41.9938073 C33.2757083,41.9938073 32.8368542,41.9995365 32.3986771,41.9843802 C32.3577917,41.9829219 32.2890937,41.8496406 32.2881562,41.7768281 C32.2795625,41.1087552 32.2831042,40.440526 32.2831042,39.772349 L32.2831042,36.101724 L32.2831042,35.770474 L36.1838854,35.770474 Z" id="Fill-13" fill="#DCE2E8"></path>
                <path d="M42.770349,49.8811042 C42.770349,49.0885521 42.7736302,48.3430833 42.7681615,47.5976667 C42.7667031,47.3994896 42.7599844,47.1967292 42.7175365,47.0044896 C42.648526,46.6921979 42.4588906,46.5425625 42.1575365,46.5148021 C41.8300365,46.4845937 41.522224,46.6159479 41.4248802,46.8919896 C41.3373281,47.1402187 41.2875885,47.4123542 41.279151,47.6757396 C41.2586823,48.3171458 41.2607656,48.9599062 41.277224,49.6015208 C41.2832656,49.8385 41.205974,49.8981354 40.9818073,49.8875104 C40.611651,49.8699583 40.2400365,49.8827708 39.851599,49.8827708 L39.851599,45.4323021 L41.2602448,45.4323021 L41.2602448,46.0548021 C41.3577969,45.9444896 41.4111823,45.8824062 41.4663906,45.8220417 C42.0582135,45.1748542 43.2598281,45.1669375 43.822224,45.8113646 C44.1119115,46.1432917 44.1938906,46.5566771 44.2019635,46.9758437 C44.2193594,47.877875 44.2132135,48.7804271 44.2061823,49.6826667 C44.2056615,49.749125 44.1226406,49.8706875 44.0746198,49.8724062 C43.6520677,49.8874583 43.2287865,49.8811042 42.770349,49.8811042" id="Fill-15" fill="#DCE2E8"></path>
                <path d="M46.340901,38.0267448 C46.195276,38.2842448 46.0474635,38.545599 45.9038698,38.7994531 C45.6315781,38.6825781 45.387776,38.544401 45.125849,38.4760677 C44.9161094,38.4213802 44.6810573,38.4272135 44.4638177,38.4558594 C44.3760573,38.4674219 44.2613698,38.6017969 44.2411615,38.6976302 C44.2242344,38.7778906 44.3044948,38.9147135 44.3819948,38.9703906 C44.5051719,39.0588281 44.6591302,39.1083073 44.8050677,39.1602344 C45.0824635,39.2590365 45.368401,39.3352865 45.6417865,39.4436198 C46.127151,39.6358594 46.4142344,39.9935156 46.4528802,40.5222135 C46.493974,41.085026 46.2586094,41.516849 45.7824115,41.8100781 C45.3172031,42.0965365 44.7972031,42.1230469 44.2720469,42.0810156 C43.6868906,42.0342448 43.159651,41.8361719 42.688974,41.4215365 C42.862099,41.1438802 43.0330885,40.8697656 43.1978281,40.6057031 C43.5009531,40.7478906 43.7700156,40.9196615 44.064026,40.9984115 C44.329651,41.0696094 44.6247552,41.0642448 44.902151,41.0396615 C44.9962656,41.031276 45.1288698,40.8697656 45.1461094,40.762474 C45.1605885,40.6723698 45.055849,40.5239323 44.9632969,40.4646094 C44.8135052,40.3685156 44.6323594,40.318724 44.4609531,40.2595052 C44.2238177,40.1776302 43.9756927,40.1232552 43.7457448,40.0254948 C42.8200677,39.631901 42.6710573,38.4401302 43.4632969,37.8167969 C44.1851719,37.248776 45.7210573,37.3554427 46.340901,38.0267448" id="Fill-17" fill="#DCE2E8"></path>
                <path d="M47.5170833,36.3475156 L48.9700521,36.3475156 L48.9700521,37.5348594 L49.9473437,37.5348594 L49.9473437,38.6316302 L49.0099479,38.6316302 C49.0099479,39.3051719 48.9998958,39.952151 49.0159896,40.598401 C49.0208333,40.7928281 49.1699479,40.9056927 49.3734896,40.9019948 C49.5360937,40.8990781 49.6983854,40.8807969 49.8825,40.8678281 C49.9038021,41.1831406 49.9327083,41.5009531 49.9399479,41.8192865 C49.94125,41.8762135 49.8572917,41.9813177 49.8057292,41.985849 C49.3854687,42.0230365 48.9572396,42.0984531 48.5436458,42.0524635 C47.9339062,41.9847031 47.5844271,41.538974 47.5552083,40.8710573 C47.5272396,40.2306927 47.5353646,39.5887135 47.5279687,38.9474115 C47.5269271,38.8538698 47.5278125,38.760276 47.5278125,38.6444427 L46.9134375,38.6444427 L46.9134375,37.5629844 L47.5170833,37.5629844 L47.5170833,36.3475156 Z" id="Fill-19" fill="#DCE2E8"></path>
                <path d="M39.4479479,37.5559062 L40.8664375,37.5559062 L40.8664375,38.1756979 C41.2647187,37.5436146 41.7612292,37.3317917 42.4383646,37.5314271 C42.4095104,37.9723125 42.3810729,38.4075208 42.3518542,38.853875 C42.1929479,38.817625 42.0686771,38.7803333 41.9415937,38.7618437 C41.3739375,38.6793437 40.9298229,39.0452292 40.8940417,39.6803854 C40.8570104,40.3379375 40.8746667,40.9985625 40.8687292,41.6578854 C40.8678437,41.7596042 40.868625,41.861375 40.868625,41.9792396 L39.4479479,41.9792396 L39.4479479,37.5559062 Z" id="Fill-21" fill="#DCE2E8"></path>
                <path d="M37.0178385,37.5579323 L38.4342448,37.5579323 L38.4342448,41.9926719 C37.9969531,41.9926719 37.5667448,41.9994948 37.137474,41.9822031 C37.0942969,41.9804323 37.0229948,41.8330885 37.0222135,41.752724 C37.0139323,40.928349 37.0176302,40.1038698 37.0178385,39.2793906 C37.0179427,38.7157969 37.0178385,38.1522031 37.0178385,37.5579323" id="Fill-23" fill="#DCE2E8"></path>
                <path d="M37.7334844,37.0028854 C37.2335365,37.0010625 36.9134323,36.7079375 36.918849,36.257 C36.9241615,35.8124167 37.261401,35.5129896 37.7490052,35.5199167 C38.2285365,35.5267917 38.545151,35.8196562 38.5478073,36.2587708 C38.5505677,36.7127292 38.2310365,37.0047083 37.7334844,37.0028854" id="Fill-25" fill="#DCE2E8"></path>
            </g>
        </g>
    </g>
</svg>