
<svg width="114px" height="42px" viewBox="13 8 114 42" version="1.1" xmlns="http://www.w3.org/2000/svg" xmlns:xlink="http://www.w3.org/1999/xlink">
<!-- Generator: Sketch 42 (36781) - http://www.bohemiancoding.com/sketch -->
<desc>Created with Sketch.</desc>
<defs></defs>
<g id="Ford_logo" stroke="none" stroke-width="1" fill="none" fill-rule="evenodd" transform="translate(13.000000, 8.000000)">
<g id="layer1" transform="translate(0.000000, 0.356755)" fill-rule="nonzero" fill="#DCE2E8">
<g id="g3637" transform="translate(0.126027, 0.376537)">
<path d="M56.2416978,39.0944403 C25.2153074,39.0944403 0.0643794753,30.427361 0.0643794753,19.7357501 C0.0643794753,9.04229934 25.2155106,0.376447577 56.2416978,0.376447577 C87.2649924,0.376447577 112.415092,9.04229934 112.415092,19.7357501 C112.415092,30.427361 87.2649924,39.0944403 56.2416978,39.0944403 Z M56.2416978,2.0530492 C26.3054467,2.0530492 2.03981718,9.96819497 2.03981718,19.735546 C2.03981718,29.502897 26.3054467,37.4192703 56.2416978,37.4192703 C86.1777457,37.4192703 110.441722,29.502897 110.441722,19.735546 C110.441722,9.96819497 86.1777457,2.0530492 56.2416978,2.0530492 L56.2416978,2.0530492 Z" id="path3534"></path>
<path d="M91.2193819,13.401218 C91.296895,13.2665492 91.2152383,13.167698 91.0432753,13.167698 C90.1461955,13.167698 88.9694472,13.1697104 88.0347484,13.1697104 C87.8119227,13.1697104 87.6967906,13.1965326 87.5917864,13.4011835 C87.2470116,14.0559016 83.0423053,20.2946499 82.259529,21.5062582 C82.1278623,21.690863 81.9668399,21.6652798 81.9482376,21.4550919 C81.8690711,20.7354974 81.2413208,19.908453 80.2526717,19.5128382 C79.4990399,19.2099368 78.7621538,19.1550849 77.9963263,19.2557818 C76.6137052,19.4395672 75.3815642,20.162439 74.2982459,20.9765898 C72.6657223,22.2057979 71.2574707,23.7982818 69.4391269,24.975096 C68.4463421,25.6154859 67.0874909,26.174219 66.1780082,25.3404187 C65.3549274,24.5850066 65.4477359,22.9063581 66.7069537,21.6085909 C66.8398634,21.4726917 66.998818,21.5862822 66.973805,21.7084656 C66.8551588,22.2956452 67.0012962,22.8793433 67.4510791,23.2886711 C68.0004876,23.7759731 68.7865709,23.8314373 69.4595899,23.5062272 C70.2537332,23.1165489 70.7204611,22.3642071 70.8564705,21.510352 C71.0673077,20.1855671 70.0373182,19.0171445 68.7487447,18.9236117 C67.7020135,18.850956 66.6982721,19.2113685 65.7201652,20.0109869 C65.2300778,20.4135617 64.9510347,20.7113459 64.5272967,21.3085529 C64.4239459,21.455296 64.2651985,21.4704407 64.2701629,21.2532928 C64.3193561,19.5572486 63.6105787,18.6031106 62.1942669,18.571795 C61.095446,18.546209 59.9209727,19.1362576 59.0057009,19.8589225 C58.0023739,20.656701 57.1251396,21.713991 56.1850621,22.7074252 C56.0680693,22.8298156 55.9657545,22.8240861 55.9330958,22.5866763 C55.904768,21.4630753 55.6193223,20.3744697 55.094098,19.6018661 C54.9082738,19.3329395 54.5174016,19.1997024 54.188747,19.3816479 C54.0370318,19.4639228 53.5084967,19.7041988 53.1246526,20.0107828 C52.9336609,20.1663287 52.8598691,20.391253 52.9433784,20.6800332 C53.450825,22.3584747 53.3389998,24.2671647 52.6515141,25.8792982 C52.0200466,27.3555352 50.7924476,28.6874813 49.3498838,29.1379452 C48.3994752,29.4361404 47.4110333,29.2902166 46.7998175,28.4560081 C45.959995,27.3043689 46.2991879,25.3021489 47.5505568,23.6392574 C48.6555771,22.1755058 50.2529599,21.2453122 51.8468285,20.6464666 C52.0345133,20.5748343 52.0729611,20.4557212 52.0200466,20.2979272 C51.9332304,20.0380046 51.7955675,19.6851645 51.7387246,19.5236849 C51.5925872,19.1387127 51.1831127,19.0758803 50.6837261,19.1299129 C49.5257873,19.2633541 48.4811239,19.6563069 47.4492738,20.2031669 C44.7474883,21.6358099 43.3927727,24.4087935 42.798713,25.8921918 C42.5130522,26.604421 42.2685244,27.0493565 41.9524799,27.4435397 C41.5264708,27.9736164 40.9921506,28.4560081 40.0140397,29.3063847 C39.9257812,29.3843618 39.8598423,29.5470689 39.9340485,29.6981099 C40.0338851,29.9027723 40.5423676,30.6135699 40.6858196,30.6770146 C40.8451846,30.7545806 41.0299768,30.6463142 41.1037686,30.5935121 C41.7881546,30.1342484 42.6064822,29.4066705 43.0072752,28.9130209 C43.1476234,28.743969 43.2919001,28.8149889 43.3663134,29.0716342 C43.7402368,30.3923282 44.7193756,31.4704924 46.0728522,31.9213674 C48.5503658,32.74882 51.1204847,31.5511316 53.0599568,29.4666367 C54.2929265,28.1418518 54.7377451,27.2896324 55.2098517,26.7104363 C56.0104017,25.727846 57.590214,23.5301717 59.4713969,22.119021 C60.1613648,21.5989717 60.9780389,21.2021293 61.3885454,21.4655304 C61.7180287,21.6765377 61.8244792,22.1683445 61.2957369,23.1204357 C59.3777637,26.588457 56.5552641,30.6633017 56.0376856,31.6516215 C55.9432237,31.8231285 56.0254939,31.9577973 56.2067681,31.9577973 C57.2102983,31.9530826 58.2055613,31.9552099 59.1166974,31.9552099 C59.2684167,31.9480516 59.3364234,31.879688 59.412283,31.7736727 C60.8841985,29.4920876 62.2697122,27.3202006 63.7546482,25.0752496 C63.8377431,24.9430359 63.9144275,25.0453685 63.9177344,25.1032792 C63.9483332,25.6241478 64.0775177,26.3367852 64.3896338,26.8046447 C64.9508276,27.6697548 65.7464172,28.0414251 66.6286159,28.0469506 C67.3305723,28.0549426 67.685475,27.9493269 68.4424137,27.6695507 C69.0583826,27.4433988 69.5530159,27.146227 69.9325212,26.8777087 C70.1541038,26.7254401 70.1929619,26.9804496 70.1871768,27.0195416 C69.846944,28.830812 70.267168,30.9769089 72.0855158,31.8667857 C74.2610372,32.9287847 76.6515314,31.4361755 78.0269172,30.0884666 C78.1612731,29.9585039 78.3059642,29.9722169 78.3196062,30.2519931 C78.3487309,30.7665169 78.583565,31.3772299 79.0135025,31.8045685 C80.1660626,32.949863 82.491861,32.4961248 84.8257194,30.7073671 C86.3242974,29.5620726 87.8923283,27.9440055 89.3088472,26.2303588 C89.3613513,26.1644589 89.4004166,26.0572131 89.2991257,25.9497661 C89.0835394,25.7262735 88.7710089,25.4704447 88.5574864,25.2733545 C88.4597176,25.1914878 88.3168872,25.2150241 88.2344137,25.2766319 C86.782754,26.6437832 85.4757853,28.2027034 83.5869527,29.492286 C82.9499032,29.9323113 81.935002,30.2874024 81.4788124,29.6764825 C81.3012595,29.439481 81.3213081,29.1107923 81.4965821,28.6803862 C82.0478551,27.3199907 90.7666945,14.1765154 91.21937,13.4010456 L91.2193819,13.401218 Z M79.6941672,24.4237686 C79.7119369,24.5244626 79.8444402,24.621678 79.9742462,24.6679313 C80.0195149,24.6847203 80.0453526,24.717459 79.9936892,24.8230661 C79.6226624,25.6097909 79.2820192,26.0635292 78.8173552,26.7469007 C78.3903102,27.3784908 77.9087013,27.8713211 77.3255982,28.3451142 C76.4462921,29.065735 75.2251037,29.8502088 74.21537,29.3227914 C73.7668302,29.0921375 73.5731531,28.4709832 73.5820419,27.9677172 C73.6053894,26.553085 74.2389367,25.1007925 75.4123742,23.6734708 C76.8431566,21.9295348 78.4248295,21.0249244 79.4628831,21.5193905 C80.536691,22.0267502 80.1939801,23.2578011 79.7136102,24.2244245 C79.6776327,24.2991272 79.6751625,24.3625719 79.6941672,24.4237686 L79.6941672,24.4237686 Z" id="path3549"></path>
<path d="M27.9749678,31.9060531 C24.7237698,31.9291668 21.8597267,29.9394438 21.5312793,26.4955739 C21.3485549,24.5872921 21.8934173,22.8863378 22.9837638,21.4854157 C23.9515396,20.236972 25.5890196,19.1997369 26.9751548,18.9463632 C27.426384,18.8644994 28.0324282,18.9166891 28.282745,19.2122223 C28.6758883,19.6651412 28.5626168,20.1624735 28.1700911,20.3609954 C27.1126105,20.895781 25.8399539,21.8108299 25.2105502,23.0602999 C24.6993823,24.0803435 24.596442,25.3099598 25.376533,26.4808375 C26.6822586,28.4327105 30.3214323,28.4863319 33.7051216,25.3736087 C34.5428803,24.6120588 35.292998,23.880183 36.0551042,23.0132273 C37.5454149,21.325983 38.0410842,20.7111763 40.0221038,17.9901783 C40.0458896,17.9590697 40.0522643,17.9175225 40.0419452,17.8974648 C40.0256099,17.8626735 39.9979195,17.8530543 39.9402479,17.8495729 C38.6179838,17.8855946 37.4648021,18.2760922 36.3444823,19.1055917 C36.0216168,19.3382954 35.5573671,19.3055481 35.3539765,18.9989641 C35.127844,18.6524687 35.2896911,18.2003662 35.6623713,17.9457649 C37.4650093,16.7042784 39.4344547,16.4791471 41.4456508,16.1428861 C41.4440572,16.1428861 41.5855887,16.149642 41.7005136,15.9981899 C42.5258694,14.9492915 43.1496912,14.0027229 44.0294077,12.9417473 C44.9159492,11.8652189 46.0621027,10.876902 46.9372732,10.1343835 C48.158876,9.09407801 48.9420627,8.74431106 49.7382739,8.31492552 C49.9478719,8.2068633 49.7111812,8.07669646 49.6477404,8.07669646 C45.2022276,7.24965495 40.5818473,6.17926429 36.166515,7.79774248 C33.1094125,8.92768824 31.7697851,11.3283892 32.4142771,12.9325392 C32.8723273,14.0702614 34.3841369,14.2552773 35.7990023,13.5696547 C36.9745076,12.9992584 38.0615471,12.080731 38.8327454,10.8973679 C39.2645435,10.240603 40.1732015,10.714399 39.6824926,11.8551915 C38.3906161,14.8618993 35.9224017,17.2468405 32.9159386,17.3471263 C30.357605,17.4294012 28.7066863,15.565941 28.712061,13.2665492 C28.7215833,8.73162153 33.8214968,5.74435619 39.1797991,5.29777913 C45.6332011,4.76974933 51.7451312,6.47152302 58.1526469,7.2412633 C63.0617877,7.82967041 67.7683628,7.84235706 72.7025166,6.71957539 C73.2858268,6.59432165 73.6952974,6.96271467 73.657268,7.54600457 C73.6088995,8.38942402 72.9495225,9.20132378 71.3242343,10.0791234 C69.4761244,11.082792 67.5426446,11.387125 65.5233884,11.4035001 C60.6400852,11.4436127 56.0914288,9.55907415 51.3844394,8.54639871 C51.3912525,8.75024472 51.4441749,8.99399921 51.2713752,9.12232328 C48.6642588,11.0267154 46.3074592,12.9601693 44.728886,15.675846 C44.6755571,15.7386755 44.7045025,15.7986417 44.7964743,15.7920929 C46.1668997,15.7200523 47.3996623,15.6850541 48.6791398,15.5837477 C48.9023799,15.56532 48.9108543,15.5102727 48.8910089,15.3483849 C48.7783589,14.4122548 49.0540951,13.3449345 49.8858615,12.6106036 C50.7368478,11.8547804 51.80301,11.7688228 52.5090981,12.3132276 C53.3129589,12.9331516 53.2418525,14.0477486 52.8022014,14.8835929 C52.3549006,15.7319225 51.6165643,16.1850485 50.9071693,16.4054708 C50.9071693,16.4054708 50.7589642,16.437807 50.7804591,16.5714523 C50.8087869,16.785734 51.774483,17.3158107 51.8571636,17.4568243 C51.9367444,17.5910849 51.8960097,17.79943 51.7490596,17.9588627 C51.6461232,18.0747042 51.4865511,18.183994 51.2815031,18.1799002 C51.1155243,18.1766229 51.0146517,18.119934 50.8034042,18.0063464 C50.3693311,17.7736427 49.8279827,17.3915368 49.4670838,16.9410729 C49.3434772,16.7888043 49.2814668,16.7855299 48.9736895,16.8019021 C47.5892077,16.8811067 45.4300137,17.0876119 43.9671941,17.2687381 C43.6131122,17.3123321 43.5608192,17.3778238 43.4878522,17.4993949 C41.1560616,21.3071557 38.6659379,25.4133131 35.9323224,28.1623522 C32.9998623,31.1101173 30.5622387,31.8859954 27.9749678,31.9060531 L27.9749678,31.9060531 Z M50.1975632,14.986949 C50.2343774,15.1824005 50.3114562,15.2200608 50.4005435,15.2036858 C50.8445373,15.1156813 51.3311106,14.753633 51.6182177,14.334686 C51.8809334,13.9546269 52.0037153,13.40572 51.7436849,13.1859129 C51.5107353,12.9884117 51.1328836,13.0444882 50.8530118,13.2894703 C50.2953321,13.7771834 50.1252177,14.46997 50.1975632,14.986949 L50.1975632,14.986949 L50.1975632,14.986949 Z" id="path3564"></path>
</g>
</g>
</g>
</svg>
