<?xml version="1.0" encoding="UTF-8" standalone="no"?>
<svg width="36px" height="50px" viewBox="0 0 36 50" version="1.1" xmlns="http://www.w3.org/2000/svg" xmlns:xlink="http://www.w3.org/1999/xlink">
    <!-- Generator: Sketch 42 (36781) - http://www.bohemiancoding.com/sketch -->
    <title>Shape</title>
    <desc>Created with Sketch.</desc>
    <defs></defs>
    <g id="Page-1" stroke="none" stroke-width="1" fill="none" fill-rule="evenodd">
        <g id="Artboard" transform="translate(-936.000000, -980.000000)" fill-rule="nonzero" fill="#DCE2E8">
            <path d="M965.83845,987.220084 L964.640806,993.002994 C964.503933,993.618926 963.92222,994.16642 963.203633,994.16642 L952.801238,994.16642 C951.637812,994.16642 950.679696,995.124536 950.679696,996.287961 L950.679696,997.554043 C950.679696,998.717468 951.637812,999.675584 952.801238,999.675584 L961.595368,999.675584 C962.41661,999.675584 963.100978,1000.46261 962.929886,1001.31807 C962.758794,1002.20775 961.834897,1006.72458 961.732242,1007.20363 C961.663805,1007.71691 961.11631,1008.36706 960.295069,1008.36706 L953.109203,1008.36706 C951.603593,1008.40128 951.295628,1008.4355 950.405949,1009.53048 C949.516271,1010.62547 941.646037,1020.48037 941.646037,1020.48037 C941.5776,1020.58303 941.509163,1020.54881 941.509163,1020.44616 L941.509163,986.946337 C941.509163,986.159313 942.159313,985.509163 942.946337,985.509163 L964.538151,985.509163 C965.290956,985.509163 966.043761,986.261968 965.83845,987.220084 M967.412497,980 L940.756359,980 C937.094989,980 936,982.771691 936,984.51683 L936,1026.87922 C936,1028.96654 937.060771,1029.58247 937.642484,1029.822 C938.224196,1030.06153 939.764025,1030.23262 940.859014,1029.13763 C940.859014,1029.13763 953.519824,1014.3895 953.725135,1014.14997 C953.930445,1013.91044 954.0331,1013.91044 954.169974,1013.91044 L962.177081,1013.91044 C965.598922,1013.91044 966.249071,1011.54937 966.625474,1010.1122 C966.933439,1008.91455 970.457935,991.80535 971.552924,986.398842 C972.374166,982.224196 971.313395,980 967.412497,980" id="Shape"></path>
        </g>
    </g>
</svg>