<?xml version="1.0" encoding="UTF-8" standalone="no"?>
<svg width="60px" height="60px" viewBox="0 0 60 60" version="1.1" xmlns="http://www.w3.org/2000/svg" xmlns:xlink="http://www.w3.org/1999/xlink">
    <!-- Generator: Sketch 42 (36781) - http://www.bohemiancoding.com/sketch -->
    <title>Page 1</title>
    <desc>Created with Sketch.</desc>
    <defs></defs>
    <g id="Page-1" stroke="none" stroke-width="1" fill="none" fill-rule="evenodd">
        <g id="Artboard" transform="translate(-989.000000, -980.000000)" fill="#DCE2E8">
            <g id="Page-1" transform="translate(989.000000, 980.000000)">
                <polygon id="Fill-1" points="46.532566 27.8483774 46.532566 32.1063019 49.4838868 32.1063019 50.0116226 31.5783774 50.0116226 28.3763019 49.4838868 27.8483774"></polygon>
                <path d="M0,59.954717 L59.954717,59.954717 L59.954717,0 L0,0 L0,59.954717 Z M44.4556604,26.9916981 L50.1760377,26.9916981 L51.2145283,28.0301887 L51.2145283,31.9245283 L50.1760377,32.9630189 L44.4556604,32.9630189 L44.4556604,32.1235849 L45.3298113,32.1235849 L45.3298113,27.8309434 L44.4556604,27.8309434 L44.4556604,26.9916981 Z M37.444717,26.9916981 L43.7624528,26.9916981 L43.7624528,28.6879245 L42.7239623,28.6879245 L42.7239623,27.8309434 L39.5216981,27.8309434 L39.5216981,29.5358491 L42.9577358,29.5358491 L42.9577358,30.3928302 L39.5216981,30.3928302 L39.5216981,32.1235849 L42.7239623,32.1235849 L42.7239623,31.2667925 L43.7711321,31.2667925 L43.7711321,32.9630189 L37.444717,32.9630189 L37.444717,32.1235849 L38.3188679,32.1235849 L38.3188679,27.8309434 L37.444717,27.8309434 L37.444717,26.9916981 Z M30.9462264,26.9916981 L34.1567925,26.9916981 L34.1567925,27.8309434 L33.0232075,27.8309434 L33.0232075,32.1235849 L35.7149057,32.1235849 L35.7149057,31.2588679 L36.7532075,31.2588679 L36.7532075,32.9630189 L30.9462264,32.9630189 L30.9462264,32.1235849 L31.8203774,32.1235849 L31.8203774,27.8309434 L30.9462264,27.8309434 L30.9462264,26.9916981 Z M23.9354717,26.9916981 L30.2530189,26.9916981 L30.2530189,28.6879245 L29.214717,28.6879245 L29.214717,27.8309434 L26.0124528,27.8309434 L26.0124528,29.5358491 L29.4481132,29.5358491 L29.4481132,30.3928302 L26.0124528,30.3928302 L26.0124528,32.1235849 L29.214717,32.1235849 L29.214717,31.2667925 L30.2616981,31.2667925 L30.2616981,32.9630189 L23.9354717,32.9630189 L23.9354717,32.1235849 L24.8096226,32.1235849 L24.8096226,27.8309434 L23.9354717,27.8309434 L23.9354717,26.9916981 Z M20.1632075,26.9916981 L23.2441509,26.9916981 L23.2441509,27.8309434 L22.3786792,27.8309434 L22.3786792,31.9245283 L21.3401887,32.9630189 L17.4716981,32.9630189 L16.424717,31.9245283 L16.424717,27.8309434 L15.5590566,27.8309434 L15.5590566,26.9916981 L18.64,26.9916981 L18.64,27.8309434 L17.6360377,27.8309434 L17.6360377,31.5264151 L18.1639623,32.0456604 L20.6390566,32.0456604 L21.1756604,31.5264151 L21.1756604,27.8309434 L20.1632075,27.8309434 L20.1632075,26.9916981 Z M8.74037736,26.9916981 L14.8935849,26.9916981 L14.8935849,28.7137736 L13.8462264,28.7137736 L13.8462264,27.8309434 L10.8173585,27.8309434 L10.8173585,29.5966038 L14.2184906,29.5966038 L14.2184906,30.4881132 L10.8173585,30.4881132 L10.8173585,32.1235849 L11.9335849,32.1235849 L11.9335849,32.9630189 L8.74037736,32.9630189 L8.74037736,32.1235849 L9.61433962,32.1235849 L9.61433962,27.8309434 L8.74037736,27.8309434 L8.74037736,26.9916981 Z" id="Fill-2"></path>
            </g>
        </g>
    </g>
</svg>