<svg width="25px" height="30px" viewBox="18 13 25 30" version="1.1" xmlns="http://www.w3.org/2000/svg" xmlns:xlink="http://www.w3.org/1999/xlink">
<!-- Generator: Sketch 42 (36781) - http://www.bohemiancoding.com/sketch -->
<desc>Created with Sketch.</desc>
<defs></defs>
<path d="M39,20 L39,21 L41,21 L41,23 L40,24 L40,27 L41,28 L41,37 L39,37 L39,27 L38,26 L36,26 L36,16 L33,13 L23,13 L20,16 L20,41 L18,41 L18,43 L38,43 L38,41 L36,41 L36,27 L38,27 L38,37 L39,38 L41,38 L42,37 L42,28 L43,27 L43,22 L41,20 L39,20 Z M34,26 L22,26 L22,16 L23,15 L33,15 L34,16 L34,26 Z" id="Shape" stroke="none" fill="#DCE2E8" fill-rule="nonzero"></path>
</svg>
