<?xml version="1.0" encoding="UTF-8" standalone="no"?>
<svg width="75px" height="50px" viewBox="0 0 75 50" version="1.1" xmlns="http://www.w3.org/2000/svg" xmlns:xlink="http://www.w3.org/1999/xlink">
    <!-- Generator: Sketch 42 (36781) - http://www.bohemiancoding.com/sketch -->
    <title>Shape</title>
    <desc>Created with Sketch.</desc>
    <defs></defs>
    <g id="Page-1" stroke="none" stroke-width="1" fill="none" fill-rule="evenodd">
        <g id="Artboard" transform="translate(-645.000000, -631.000000)" fill-rule="nonzero" fill="#DCE2E8">
            <path d="M715.502103,633.546033 C716.190005,634.406955 715.969256,635.006955 714.526829,635.977257 C714.97668,636.298636 715.394115,636.597343 715.812146,636.895255 C716.057555,637.070264 716.328619,637.249051 716.257821,637.600857 C716.093353,638.419021 716.620167,638.711961 717.236475,638.962144 C717.66445,639.13576 718.107539,639.291477 718.500115,639.527938 C719.02872,639.846333 719.691365,640.154786 719.06034,640.964398 C718.815528,641.278419 719.160374,641.502946 719.262197,641.76347 C719.582183,642.581634 719.184437,643.398804 718.343005,643.651571 C718.126631,643.716603 717.918809,643.782032 717.701441,643.593699 C716.723979,642.746699 714.92199,642.63533 713.821028,643.366785 C713.37774,643.661316 712.908599,644.038578 712.92769,644.601787 C712.946981,645.170365 713.529083,645.33364 713.971774,645.538877 C714.510919,645.788861 715.0614,646.01478 715.611881,646.23891 C716.114234,646.443352 716.182249,646.769106 715.852517,647.161881 C715.408036,647.691281 714.931934,648.194231 714.44728,648.732978 C714.148771,648.527343 714.376481,648.287303 714.313239,648.10255 C714.065841,647.381436 713.520531,646.938745 712.833822,646.756776 C712.259079,646.604439 711.972304,647.162875 711.683739,647.53258 C710.979132,648.435066 710.914697,649.550943 710.773099,650.629233 C710.687186,651.283725 710.652781,651.944978 710.5965,652.603446 C710.516354,653.541133 710.087584,654.295658 709.388545,654.908783 C709.272801,654.986941 709.156858,655.064899 709.041113,655.142857 C708.909658,655.203513 708.674391,655.266556 708.754338,655.41412 C708.871872,655.631091 709.066171,655.449122 709.220895,655.371362 C709.349764,655.293006 709.478833,655.21465 709.607703,655.136294 C710.034485,654.774544 710.369188,654.741332 710.862393,655.163142 C711.739821,655.91349 712.685463,656.607558 713.68142,657.190256 C715.171775,658.061917 716.116223,659.408089 717.036807,660.777927 C717.762892,661.858205 717.501573,664.927215 716.527493,665.663841 C715.882547,666.151478 715.006511,666.439048 714.19491,666.565134 C713.61778,666.654826 713.245092,666.063974 713.0848,665.474116 C712.870614,664.686777 712.990534,664.064901 713.664913,662.648925 C712.616653,662.485451 711.890965,661.757774 711.057687,661.214851 C710.217448,660.667353 709.359509,660.212928 708.316818,660.156647 C706.489373,660.058006 706.251321,660.18429 705.577341,661.880877 C704.854835,663.699174 704.05437,664.638054 702.30906,665.59165 C703.494344,662.845014 704.812077,660.267419 704.113038,657.194432 C703.967463,657.333246 703.852315,657.391316 703.851122,657.451973 C703.805779,659.454625 703.085262,661.270138 702.261529,663.044881 C701.647807,664.367387 701.513766,665.778591 701.334979,667.187806 C701.182444,668.389198 700.814926,669.496921 700.105745,670.502623 C699.451253,671.430763 699.137034,672.397485 699.788741,673.53325 C700.29547,674.416445 700.587813,675.419959 701.033886,676.341736 C701.291227,676.873522 701.655364,677.212203 702.386819,676.943526 C703.28493,676.613595 704.149034,677.059867 704.547377,677.938886 C704.635875,678.134378 704.748636,678.243559 704.90853,678.369645 C705.501172,678.837196 705.615524,679.655956 705.02328,680.019496 C704.219435,680.512701 703.38735,681.148101 702.306475,680.772231 C701.997227,680.66464 701.650392,680.515287 701.348304,680.562221 C699.629245,680.829109 698.788807,679.91469 697.827057,678.586615 C695.855628,675.863645 695.197358,672.844751 695.079824,669.627581 C695.022946,668.072194 694.489966,666.728608 693.659074,665.465167 C693.483071,665.197285 693.319996,664.864968 692.885657,665.005969 C690.841241,665.669409 688.813531,665.202058 686.79119,664.886446 C685.224667,664.642031 683.682406,664.664901 682.179323,665.178392 C681.600801,665.376072 681.399939,665.224331 681.197685,664.665498 C680.552143,662.882004 679.485388,661.386876 677.907927,660.291483 C677.779454,660.202189 677.643028,660.094002 677.426057,660.190853 C677.266362,660.54445 677.603253,660.704542 677.773687,660.896057 C680.935173,664.445942 679.282935,668.213394 676.757048,670.307727 C676.325692,670.665301 675.872261,671.038784 675.365135,671.254363 C673.413792,672.084061 671.815648,673.388868 670.321514,674.847801 C669.752339,675.403651 669.91104,676.039648 670.135369,676.682604 C670.417371,677.49162 670.879154,678.100371 671.815449,678.129207 C672.176602,678.140344 672.541137,678.034146 672.902489,678.042697 C673.657014,678.060795 673.963875,678.61406 674.216444,679.216447 C674.448529,679.770109 673.993905,679.913497 673.741734,680.274451 C672.949225,681.408426 671.952473,680.85536 670.987142,680.926954 C669.084523,681.068154 668.069276,680.180384 667.521977,678.457547 C667.280744,677.69805 666.677165,677.125892 666.160492,676.518335 C665.187804,675.374218 665.234738,674.466561 666.284987,673.375146 C666.948626,672.685454 667.714487,672.098778 668.212863,671.248198 C669.211007,669.545049 669.111371,668.478691 667.80736,667.029702 C667.262448,666.424133 666.776004,665.765664 666.182766,665.170437 C666.193306,666.075309 666.650516,666.807163 667.234606,667.432022 C667.67332,667.901163 667.658404,668.137027 667.2004,668.611936 C665.429832,670.447336 663.322573,671.670008 661.066159,672.869809 C657.890354,674.558441 654.481669,674.707198 651.129464,675.302425 C649.901621,675.52039 649.024193,676.190393 648.080342,676.841902 C647.807289,677.030234 647.700096,677.321186 647.785214,677.62745 C647.889622,678.002923 648.217166,677.949028 648.523033,677.93988 C650.003445,677.895929 649.909576,678.178329 649.889888,679.746642 C649.871592,681.20299 649.080276,680.700835 648.485844,680.671402 C647.492672,680.622281 646.540865,680.299708 645.603576,679.961823 C645.109376,679.783633 644.867547,679.410746 645.073778,678.961292 C645.474507,678.088438 645.327739,677.212203 645.193897,676.345514 C645.092273,675.686847 645.338279,675.270605 645.820944,674.899906 C646.721243,674.208424 647.748422,673.747834 648.754124,673.245083 C649.997478,672.623604 651.244214,672.006899 652.468079,671.348231 C654.910241,670.033481 656.755186,668.183563 657.764467,665.533778 C658.336228,664.032485 658.937819,662.547499 659.405369,660.855089 C658.208551,661.226982 657.163473,661.621745 656.057738,661.775076 C654.736227,661.958238 653.417101,662.051112 652.121443,661.630496 C650.700694,661.169508 649.831817,660.197615 649.604903,658.718794 C649.394495,657.346968 650.091148,656.380246 651.124094,655.586941 C652.4114,654.598144 653.92383,654.121644 655.436857,653.625455 C657.893536,652.81982 660.319987,651.933244 662.43003,650.379846 C663.129865,649.864566 663.732848,649.257406 664.050051,648.415179 C664.392709,647.505732 664.185285,646.713422 663.525424,646.04481 C662.479152,644.984817 660.139012,644.76009 658.897845,645.5878 C658.209744,646.0466 657.560424,646.566256 656.857407,646.999799 C655.354523,647.926349 653.849451,647.863704 652.489756,646.867349 C652.307787,646.733906 652.028768,646.622537 652.068941,646.369968 C652.107124,646.130326 652.392706,646.068277 652.60371,645.972421 C653.430426,645.596749 654.365527,645.741728 655.209942,645.45714 C655.162213,644.978453 654.570366,645.449185 654.563207,645.074508 C654.556843,644.738811 654.951606,644.660256 655.171361,644.473315 C656.208882,643.590716 657.379847,643.288031 658.686841,643.749815 C659.705071,644.109576 660.769241,644.092274 661.818496,644.219752 C663.48187,644.422006 665.118795,644.854356 665.694533,646.659129 C666.279021,648.491745 665.389859,649.969969 664.04667,651.139144 C661.886908,653.019091 659.263772,654.063175 656.626913,655.0647 C655.51561,655.486709 654.34027,655.76891 653.34849,656.460789 C652.613057,656.973882 651.80782,657.501691 652.046269,658.584754 C652.207953,659.31959 653.298374,659.758105 654.5115,659.627048 C657.114948,659.34604 659.327809,658.11064 661.25648,656.476898 C664.721049,653.542525 668.819426,652.195359 673.146904,651.338812 C674.116809,651.1469 675.118731,651.011467 676.104147,651.022405 C679.827052,651.06397 683.015982,649.715809 685.879556,647.442491 C686.320259,647.092673 686.840113,646.820217 687.213796,646.41193 C688.311178,645.212725 689.582573,645.305599 690.944456,645.777724 C691.157449,645.851506 691.392319,645.862046 691.617045,645.901821 C691.747705,646.003047 691.88612,646.042424 692.040247,645.95492 C692.232955,645.982961 692.425464,646.011002 692.618172,646.039242 C692.688772,646.12774 692.759571,646.216239 692.830171,646.304737 C690.862918,646.447926 689.809289,648.075106 688.217707,649.008616 C688.88075,649.246667 689.249063,648.924493 689.619961,648.658003 C690.581712,647.967118 691.424337,647.10023 692.583171,646.699898 C692.693943,646.661516 692.738491,646.431221 692.813665,646.289822 C693.34386,646.297976 693.874056,646.30613 694.404451,646.314283 C694.398484,646.364996 694.384563,646.413123 694.362687,646.459262 C692.403588,647.038977 691.671934,649.158567 689.861791,649.952269 C690.866299,650.102021 691.80319,650.180377 692.7544,649.983492 C694.039916,649.717201 695.193778,649.142657 696.334514,648.541264 C697.22467,648.071924 698.250458,648.028967 699.441111,647.57494 C696.313434,647.092673 694.163019,649.190386 691.281347,649.676432 C692.71562,648.53669 693.739021,647.368907 695.036867,646.515742 L695.010815,646.514151 C695.087182,646.520316 695.16335,646.52668 695.239718,646.532845 C695.40339,646.525884 695.596695,646.536822 695.663317,646.358234 C695.72278,646.198738 695.584961,646.153992 695.444955,646.130525 C695.094341,646.072056 694.745518,646.002251 694.396098,645.937021 C693.868289,645.865029 693.368521,645.599335 692.81446,645.709709 C692.525299,645.896451 692.113234,645.241164 691.884927,645.845142 L691.903621,645.845738 C691.810946,645.239971 691.257284,645.23122 690.859935,645.139341 C689.316282,644.782563 687.756719,644.502748 686.00067,645.100362 C687.532192,643.1876 689.211476,642.106526 691.58085,642.472453 C692.455494,642.607488 693.340877,642.67769 694.462124,642.164199 C692.672266,641.637583 690.843031,641.557438 690.044158,639.601322 C691.290496,639.840566 692.413134,640.314282 693.616913,639.980175 C694.77515,639.658597 695.674056,638.846399 696.796496,638.427374 C696.183172,638.17043 695.536237,638.180572 694.947971,637.777655 C695.229376,637.366784 695.713234,637.432809 696.066035,637.259989 C697.467693,636.572484 698.569251,635.526014 699.543133,634.345503 C700.357916,633.357701 701.338559,632.612722 702.59842,632.464561 C703.925501,632.308645 704.982511,631.516334 706.220496,631.169301 C706.881948,630.983951 707.493483,630.939801 708.164878,631.091939 C708.739622,631.222201 709.350162,631.272516 709.939224,631.242884 C710.791594,631.200126 711.568989,631.147624 712.05066,632.084515 C712.226265,632.426179 712.689441,632.601386 713.104688,632.498171 C713.763753,632.334697 714.275652,632.421804 714.608168,633.077091 C714.931735,633.714678 714.667234,634.188394 714.177807,634.652166 C715.061201,634.761148 715.448805,634.348685 715.519405,633.552 L715.502103,633.546033 Z M713.99902,662.526817 C714.064051,662.449455 714.222951,662.394566 714.108798,662.26331 C714.001406,662.140008 713.908533,662.247798 713.826398,662.32675 C713.720796,662.384821 713.567465,662.438716 713.687585,662.590058 C713.803727,662.736827 713.901771,662.587473 713.99902,662.526817 Z M677.027515,660.097383 C677.113428,660.172159 677.18204,660.335434 677.323836,660.207161 C677.458871,660.085053 677.344519,659.99019 677.248662,659.906862 C677.022146,659.865497 676.761025,659.491416 676.608887,659.752935 C676.443027,660.038317 676.88373,659.9709 677.027515,660.097383 Z M707.050592,636.623197 C706.112309,637.190781 705.911447,638.288361 705.239654,639.050244 C706.236207,638.576131 706.702565,637.678219 707.160569,636.773346 C707.260602,636.710701 707.533655,636.851304 707.450327,636.604304 C707.39862,636.451172 707.185428,636.544443 707.050592,636.623197 Z M699.993978,654.249519 C699.807634,655.505999 699.935509,656.759894 700.026991,658.013988 C699.972301,658.375539 699.917611,658.73729 699.826129,659.341466 C701.639852,657.646073 702.622285,655.810673 702.980058,653.613125 C703.283538,651.748292 703.04668,649.836724 703.501304,647.988397 C703.548437,647.796882 703.610486,647.607754 703.642504,647.413853 C703.674324,647.221542 703.67671,647.02426 703.692222,646.829166 C702.818175,648.0232 702.544923,649.355451 702.467562,650.747364 C702.385029,652.232747 702.387416,653.73762 701.945719,655.170302 C701.623942,656.213789 701.348901,657.318728 700.379991,658.022341 C700.560568,656.937687 700.319732,655.849254 700.40843,654.764004 C700.434084,654.450978 700.319931,654.264435 699.983637,654.260656 C699.755529,653.807225 700.160236,653.528604 700.312971,653.203844 C700.922318,651.907987 700.620826,650.697645 700.065374,649.478156 C700.238194,651.411799 699.881814,653.234471 698.822218,655.000464 C699.537763,654.931455 699.4431,654.1823 699.993978,654.249519 Z M704.358248,635.548288 C704.369982,635.906458 704.450526,636.149481 704.909525,636.157237 C706.03972,636.17613 707.041643,635.606955 708.164481,635.611132 C707.737301,635.240432 707.3139,635.237051 706.837003,635.292736 C706.008895,635.389189 705.218772,635.881798 704.347708,635.558033 C704.365209,635.432544 704.443167,635.252762 704.388676,635.191509 C704.224208,635.007552 704.089173,635.212391 703.999481,635.310833 C702.839852,636.587201 701.3843,637.274904 699.69885,637.540201 C699.475715,637.575401 699.184763,637.612591 699.013733,638.048123 C699.812606,637.955846 700.515622,637.891809 701.213269,637.790383 C702.641178,637.58276 703.407834,636.433472 704.358248,635.548288 Z M704.620562,647.065825 C703.857884,648.418957 703.8197,649.844679 704.11801,651.243751 C704.445355,652.779648 704.967794,654.274776 704.720993,655.979516 C705.288577,655.596686 705.261928,655.124163 705.310652,654.674511 C705.58987,652.091348 703.995902,649.686376 704.620562,647.065825 Z M706.175551,646.228768 C705.460801,647.179779 705.646747,649.799137 706.162226,651.1292 C706.520795,652.05396 706.851918,652.988664 707.045422,653.967716 C707.092754,654.207358 706.903228,654.710308 707.398223,654.587405 C707.716817,654.508253 707.565674,654.070136 707.540417,653.790918 C707.309128,651.238978 705.870281,648.909776 706.175551,646.228768 Z M708.30051,653.953596 C710.049002,651.423731 708.845025,648.494131 709.468293,645.804174 C708.650328,646.858599 708.427192,648.08664 708.478899,649.328802 C708.542936,650.878222 708.718939,652.418693 708.30051,653.953596 Z M702.099845,640.11879 C700.110915,641.456012 697.807965,641.813785 695.525498,642.234799 C698.041641,642.532314 700.462125,642.5347 702.099845,640.11879 Z M691.702958,643.793766 C693.10382,643.707057 694.211941,644.498771 695.446546,644.884187 C696.443695,645.195423 697.461926,645.235198 698.43183,644.674376 C697.349165,644.570365 696.29633,644.442291 695.291822,644.023265 C694.656622,643.758366 693.992584,643.549748 693.325763,643.37653 C692.7544,643.228369 692.185822,643.272718 691.702958,643.793766 Z M704.62792,641.138412 C703.465308,643.156377 701.686388,644.434137 699.586288,645.334038 C702.061264,645.392308 704.225202,643.556112 704.62792,641.138412 Z M701.431433,654.306596 C702.06027,652.081007 701.175483,649.89917 701.220627,647.677956 C700.429112,649.906727 701.400011,652.085382 701.431433,654.306596 Z M697.38874,649.639442 C696.696662,650.520052 696.813997,651.450977 697.185293,652.35923 C697.601137,653.376665 698.302363,654.285117 698.316682,655.463043 C699.301502,653.31223 696.903291,651.713092 697.38874,649.639442 Z M701.203325,638.3345 C698.767528,638.317596 697.830835,640.681998 695.938757,641.54988 C698.192983,641.292539 699.163086,638.962144 701.203325,638.3345 Z M703.065573,633.468871 C700.90601,633.801784 700.114296,635.93967 698.448933,636.949945 C700.54605,636.539273 701.399613,634.483123 703.065573,633.468871 Z M703.948968,640.270729 C702.804055,642.049052 700.316153,642.312559 699.41486,644.365526 C700.859673,642.925685 703.24973,642.551803 703.948968,640.270729 Z M705.053111,644.938877 C703.440051,645.561151 701.488708,645.369835 700.278963,646.93437 C701.744061,645.947363 703.784102,646.385679 705.053111,644.938877 Z M707.737301,645.777326 C706.92928,644.041562 708.297328,642.530325 708.232098,640.871126 C706.769187,643.151207 706.471076,644.111167 707.737301,645.777326 Z M706.296665,657.13656 C706.931467,655.792377 706.138362,654.490354 706.197029,653.163274 C705.319601,654.514418 706.313171,655.810673 706.296665,657.13656 Z M708.81221,637.740267 C707.329611,637.794957 706.586622,639.057006 705.491825,639.744908 C706.918541,639.598935 707.63687,638.296714 708.81221,637.740267 Z M709.937434,631.828963 C708.768458,632.328333 707.351289,631.55412 706.282942,632.569169 C707.497261,632.303275 708.892953,632.966915 709.937434,631.828963 Z M694.763218,652.445541 C695.882873,651.584222 695.743065,650.043353 696.650126,649.055153 C695.25165,649.7526 695.249661,651.22983 694.763218,652.445541 Z M710.173895,646.20013 C709.445422,647.45323 710.279297,648.541264 710.437998,649.707456 C710.998621,648.483392 710.110255,647.387403 710.173895,646.20013 Z M707.715823,650.287768 C708.181982,649.002053 707.374358,647.8643 707.38987,646.635265 C706.601537,647.933707 707.618375,649.077227 707.715823,650.287768 Z M704.875716,633.351138 C705.76806,634.389653 707.127755,634.037449 708.202664,634.533041 C707.354272,633.363269 705.973695,633.777323 704.875716,633.351138 Z M705.894742,643.0818 C706.625601,642.258068 706.57807,641.155515 707.087185,640.260785 C706.069353,640.954057 705.873264,641.981435 705.894742,643.0818 Z M708.287782,645.659394 C709.403062,645.184286 709.453775,644.06125 709.843566,643.14186 C708.929744,643.725751 708.903095,644.885778 708.287782,645.659394 Z M710.883275,645.222072 C710.329612,645.989524 710.732728,646.69612 710.977541,647.416438 C711.295937,646.673249 711.070216,645.950544 710.883275,645.222072 Z M709.81473,636.753857 C709.092622,636.35611 708.439323,636.536886 707.668491,637.001652 C708.535976,637.348487 709.158846,636.912756 709.81473,636.753857 Z M709.827855,639.864232 C709.057222,640.278087 708.848008,641.02406 708.552283,642.00351 C709.382777,641.348621 709.536705,640.572817 709.827855,639.864232 Z M707.791196,639.80457 C708.510321,639.695389 709.224673,639.223861 709.601936,638.60974 C708.81758,638.758299 708.281617,639.111895 707.791196,639.80457 Z M714.083342,637.983489 C714.603594,638.142587 714.969521,638.267281 715.342607,638.363933 C715.585431,638.426976 715.827857,638.384417 715.868228,638.086306 C715.903628,637.824987 715.68606,637.756774 715.482812,637.767911 C715.076912,637.790383 714.647943,637.595885 714.083342,637.983489 Z M666.025457,664.909913 C666.048328,664.931789 666.071198,664.953665 666.094069,664.975541 C666.115746,664.952472 666.137224,664.929204 666.158901,664.906134 C666.125689,664.883662 666.092676,664.861189 666.059465,664.838717 C666.048924,664.861985 666.038185,664.884855 666.025457,664.909913 Z" id="Shape"></path>
        </g>
    </g>
</svg>