<?xml version="1.0" encoding="UTF-8" standalone="no"?>
<svg width="49px" height="48px" viewBox="0 0 49 48" version="1.1" xmlns="http://www.w3.org/2000/svg" xmlns:xlink="http://www.w3.org/1999/xlink">
    <!-- Generator: Sketch 41.2 (35397) - http://www.bohemiancoding.com/sketch -->
    <title>Fill 1</title>
    <desc>Created with Sketch.</desc>
    <defs></defs>
    <g id="Page-1" stroke="none" stroke-width="1" fill="none" fill-rule="evenodd">
        <g id="Artboard" transform="translate(-570.000000, -710.000000)" fill="#DCE2E8">
            <g id="Page-1" transform="translate(570.000000, 710.000000)">
                <path d="M24.4777458,0 C10.9599828,0 0,11.0170092 0,24.6081283 C0,35.4801173 7.01360754,44.7025005 16.7412873,47.9579036 C17.9660763,48.1829872 18.4124104,47.4231413 18.4124104,46.7705501 C18.4124104,46.1874477 18.3913711,44.6390541 18.3793487,42.5861108 C11.5701231,44.0725687 10.1334381,39.2868995 10.1334381,39.2868995 C9.01985696,36.4454085 7.41485742,35.6870733 7.41485742,35.6870733 C5.19220357,34.1613391 7.58317198,34.1915517 7.58317198,34.1915517 C10.040264,34.3652739 11.3326793,36.7278959 11.3326793,36.7278959 C13.5162602,40.4878487 17.0628884,39.4017073 18.4574947,38.7732861 C18.6799104,37.1825949 19.31109,36.0979641 20.0113988,35.4831385 C14.5757402,34.8622704 8.86055926,32.7504127 8.86055926,23.3210734 C8.86055926,20.635177 9.81484269,18.438724 11.3807692,16.7181189 C11.1282974,16.0957402 10.2882274,13.5941404 11.6197158,10.205802 C11.6197158,10.205802 13.6755579,9.54414701 18.3522981,12.7285506 C20.3044464,12.1817033 22.3993616,11.9097903 24.4807514,11.9007265 C26.5591356,11.9097903 28.6540508,12.1817033 30.6092047,12.7285506 C35.2829393,9.54414701 37.334273,10.205802 37.334273,10.205802 C38.6702698,13.5941404 37.8301998,16.0957402 37.577728,16.7181189 C39.1466601,18.438724 40.0949323,20.635177 40.0949323,23.3210734 C40.0949323,32.7745827 34.3707345,34.8547173 28.9170423,35.4635003 C29.7961853,36.2233462 30.5791485,37.7249103 30.5791485,40.0210647 C30.5791485,43.3097016 30.5490924,45.9638748 30.5490924,46.7705501 C30.5490924,47.4291839 30.9894153,48.1950722 32.2322379,47.9548824 C41.9524037,44.6934368 48.96,35.477096 48.96,24.6081283 C48.96,11.0170092 37.9985144,0 24.4777458,0" id="Fill-1"></path>
            </g>
        </g>
    </g>
</svg>