<?xml version="1.0" encoding="UTF-8" standalone="no"?>
<svg width="46px" height="46px" viewBox="0 0 46 46" version="1.1" xmlns="http://www.w3.org/2000/svg" xmlns:xlink="http://www.w3.org/1999/xlink">
    <!-- Generator: Sketch 41.2 (35397) - http://www.bohemiancoding.com/sketch -->
    <title>Group</title>
    <desc>Created with Sketch.</desc>
    <defs></defs>
    <g id="Page-1" stroke="none" stroke-width="1" fill="none" fill-rule="evenodd">
        <g id="Artboard" transform="translate(-269.000000, -546.000000)">
            <g id="Group" transform="translate(269.000000, 546.000000)">
                <path d="M46,23.4759926 C46,21.8468426 45.8508302,20.2790413 45.5733743,18.7755102 L23.4693878,18.7755102 L23.4693878,27.6652354 L36.1000951,27.6652354 C35.5561224,30.5379147 33.9023262,32.9714149 31.4171567,34.6015387 L31.4171567,40.3673469 L39.0019457,40.3673469 C43.4402456,36.3660455 46,30.4746184 46,23.4759926 L46,23.4759926 Z" id="Shape" fill="#DCE2E8"></path>
                <path d="M23.311395,46 C29.5036462,46 34.6949527,43.9246363 38.4897959,40.3838477 L31.0779473,34.5683112 C29.0245533,35.9590897 26.3968309,36.7811813 23.311395,36.7811813 C17.3377968,36.7811813 12.282541,32.7041179 10.4788972,27.2244898 L2.81632653,27.2244898 L2.81632653,33.2305708 C6.5897903,40.8061886 14.3456529,46 23.311395,46 L23.311395,46 Z" id="Shape" fill="#DCE2E8"></path>
                <path d="M10.3265306,26.8993417 C9.85763956,25.5197429 9.59140482,24.0456377 9.59140482,22.5306122 C9.59140482,21.0155868 9.85763956,19.5414816 10.3265306,18.1618828 L10.3265306,12.2040816 L2.49346723,12.2040816 C0.905992873,15.3081789 0,18.8205048 0,22.5306122 C0,26.2407197 0.905992873,29.7530456 2.49346723,32.8571429 L10.3265306,26.8993417 L10.3265306,26.8993417 Z" id="Shape" fill="#DCE2E8"></path>
                <path d="M23.2158132,9.21881873 C26.5673648,9.21881873 29.5765067,10.3886049 31.9424215,12.684961 L38.4897959,6.03652886 C34.5356422,2.29733827 29.3685461,0 23.2158132,0 C14.2928514,0 6.5721922,5.19479355 2.81632653,12.7694292 L10.4431617,18.7755102 C12.2383939,13.2968643 17.2710411,9.21881873 23.2158132,9.21881873 Z" id="Shape" fill="#DCE2E8"></path>
                <polygon id="Shape" points="0 0 46 0 46 46 0 46"></polygon>
            </g>
        </g>
    </g>
</svg>