<?xml version="1.0" encoding="UTF-8" standalone="no"?>
<svg width="52px" height="50px" viewBox="0 0 52 50" version="1.1" xmlns="http://www.w3.org/2000/svg" xmlns:xlink="http://www.w3.org/1999/xlink">
    <!-- Generator: Sketch 42 (36781) - http://www.bohemiancoding.com/sketch -->
    <title>Group</title>
    <desc>Created with Sketch.</desc>
    <defs></defs>
    <g id="Page-1" stroke="none" stroke-width="1" fill="none" fill-rule="evenodd">
        <g id="Artboard" transform="translate(-218.000000, -848.000000)" fill-rule="nonzero" fill="#DCE2E8">
            <g id="Group" transform="translate(218.000000, 848.000000)">
                <path d="M27.9929414,49.8359186 C15.2688771,49.8359186 4.87755798,39.4445994 4.87755798,26.720535 C4.87755798,13.9964707 15.2688771,3.60515154 27.9929414,3.60515154 C40.7170058,3.60515154 51.1083248,13.9964707 51.1083248,26.720535 C51.1083248,39.4445994 40.7170058,49.8359186 27.9929414,49.8359186 L27.9929414,49.8359186 L27.9929414,49.8359186 Z M27.9929414,5.2310042 C16.1171481,5.2310042 6.50341064,14.8447417 6.50341064,26.720535 C6.50341064,38.5963284 16.1171481,48.2100658 27.9929414,48.2100658 C39.8687346,48.2100658 49.4824722,38.5963284 49.4824722,26.720535 C49.4824722,14.8447417 39.7980454,5.2310042 27.9929414,5.2310042 L27.9929414,5.2310042 L27.9929414,5.2310042 Z" id="Shape"></path>
                <path d="M23.2567618,49.8359186 C10.5326977,49.8359186 0.141378492,39.4445994 0.141378492,26.720535 C0.141378492,13.9964707 10.5326977,3.60515154 23.2567618,3.60515154 C35.9808262,3.60515154 46.3721454,13.9964707 46.3721454,26.720535 C46.3721454,39.4445994 35.9808262,49.8359186 23.2567618,49.8359186 L23.2567618,49.8359186 L23.2567618,49.8359186 Z M23.2567618,5.2310042 C11.3809686,5.2310042 1.76723115,14.8447417 1.76723115,26.720535 C1.76723115,38.5963284 11.3809686,48.2100658 23.2567618,48.2100658 C35.1325552,48.2100658 44.7462928,38.5963284 44.7462928,26.720535 C44.7462928,14.8447417 35.1325552,5.2310042 23.2567618,5.2310042 L23.2567618,5.2310042 L23.2567618,5.2310042 Z" id="Shape"></path>
                <path d="M25.7308856,46.3721454 C13.0068213,46.3721454 2.61550212,35.9808262 2.61550212,23.2567618 C2.61550212,10.5326977 13.0068213,0.141378492 25.7308856,0.141378492 C38.4549498,0.141378492 48.846269,10.5326977 48.846269,23.2567618 C48.846269,35.9808262 38.4549498,46.3721454 25.7308856,46.3721454 L25.7308856,46.3721454 L25.7308856,46.3721454 Z M25.7308856,1.76723115 C13.8550922,1.76723115 4.24135476,11.3809686 4.24135476,23.2567618 C4.24135476,35.1325552 13.8550922,44.7462928 25.7308856,44.7462928 C37.606679,44.7462928 47.2204164,35.1325552 47.2204164,23.2567618 C47.2204164,11.3809686 37.606679,1.76723115 25.7308856,1.76723115 L25.7308856,1.76723115 L25.7308856,1.76723115 Z" id="Shape"></path>
                <path d="M32.8951422,27.5688058 C32.427085,28.0636308 31.9772444,28.5584554 31.5274036,29.0532802 C29.618794,31.1739576 28.13432,32.7291208 25.6601962,32.7291208 C21.1360846,32.7291208 17.4602438,29.0532802 17.4602438,24.5291684 C17.4602438,20.0050566 21.1360846,16.3292158 25.6601962,16.3292158 C28.4170768,16.3292158 31.032579,17.81369 32.5877424,20.2171242 C33.0825672,20.9240168 33.930838,21.0653954 34.6377304,20.7119492 C35.344623,20.2171242 35.4860016,19.3688534 35.1325552,18.6619609 C33.0825672,15.3395664 29.5481048,13.4309567 25.6601962,13.4309567 C19.5102319,13.4309567 14.4912954,18.379204 14.4912954,24.5291684 C14.4912954,30.6791328 19.5102319,35.6980692 25.6601962,35.6980692 L25.6601962,35.6980692 C29.4067264,35.6980692 31.5274036,33.4360134 33.5773918,31.032579 C33.6727572,30.927677 33.766836,30.8240618 33.8601488,30.7215596 L33.8601488,33.8601488 C33.8601488,34.5670414 34.4963522,35.2739338 35.2739338,35.2739338 L35.2739338,35.2739338 C36.192894,35.2739338 36.8290972,34.6377304 36.6877186,33.8601488 L36.6877186,26.1550212 C36.6877186,25.4481286 36.0515154,24.7412362 35.2739338,24.7412362 L28.0636308,24.7412362 C27.3567382,24.7412362 26.6498458,25.4481286 26.6498458,26.1550212 C26.6498458,26.8619134 27.286049,27.5688058 28.0636308,27.5688058 L32.8951422,27.5688058 L32.8951422,27.5688058 Z" id="Shape"></path>
            </g>
        </g>
    </g>
</svg>