<?xml version="1.0" encoding="UTF-8" standalone="no"?>
<svg width="50px" height="50px" viewBox="0 0 50 50" version="1.1" xmlns="http://www.w3.org/2000/svg" xmlns:xlink="http://www.w3.org/1999/xlink">
    <!-- Generator: Sketch 42 (36781) - http://www.bohemiancoding.com/sketch -->
    <title>Page 1</title>
    <desc>Created with Sketch.</desc>
    <defs></defs>
    <g id="Page-1" stroke="none" stroke-width="1" fill="none" fill-rule="evenodd">
        <g id="Artboard" transform="translate(-570.000000, -1100.000000)" fill="#DCE2E8">
            <g id="Page-1" transform="translate(570.000000, 1100.000000)">
                <path d="M41.5688614,27.5576733 L38.7540099,27.5576733 L38.7540099,22.5532178 L41.4569802,22.5532178 L41.4569802,23.094802 L39.4005446,23.094802 L39.4005446,24.6764851 L41.3460891,24.6764851 L41.3460891,25.2111386 L39.4005446,25.2111386 L39.4005446,27.0155941 L41.5688614,27.0155941 L41.5688614,27.5576733 Z M34.3802475,27.5576733 L35.0267822,27.5576733 L35.0267822,22.5532178 L34.3802475,22.5532178 L34.3802475,27.5576733 Z M30.7941089,27.334901 C30.504505,27.4388614 29.9327228,27.6096535 29.2569802,27.6096535 C28.5000495,27.6096535 27.8757921,27.4165842 27.3861881,26.9487624 C26.955,26.5329208 26.6876733,25.864604 26.6876733,25.084901 C26.695099,23.5923267 27.7198515,22.5012376 29.3980693,22.5012376 C29.9772772,22.5012376 30.4302475,22.6274752 30.6455941,22.7309406 L30.4896535,23.2581683 C30.2223267,23.1393564 29.8881683,23.0428218 29.3832178,23.0428218 C28.165396,23.0428218 27.3708416,23.8002475 27.3708416,25.055198 C27.3708416,26.325 28.1356931,27.075 29.3015347,27.075 C29.724802,27.075 30.0144059,27.0155941 30.1629208,26.9413366 L30.1629208,25.4487624 L29.1455941,25.4487624 L29.1455941,24.9289604 L30.7941089,24.9289604 L30.7941089,27.334901 Z M23.3980693,27.334901 C23.1084653,27.4388614 22.5366832,27.6096535 21.8609406,27.6096535 C21.1035149,27.6096535 20.4797525,27.4165842 19.9896535,26.9487624 C19.5589604,26.5329208 19.2916337,25.864604 19.2916337,25.084901 C19.2995545,23.5923267 20.3238119,22.5012376 22.0025248,22.5012376 C22.5817327,22.5012376 23.034703,22.6274752 23.2495545,22.7309406 L23.0936139,23.2581683 C22.8262871,23.1393564 22.4921287,23.0428218 21.9871782,23.0428218 C20.7693564,23.0428218 19.974802,23.8002475 19.974802,25.055198 C19.974802,26.325 20.7401485,27.075 21.905495,27.075 C22.3287624,27.075 22.6183663,27.0155941 22.7673762,26.9413366 L22.7673762,25.4487624 L21.7495545,25.4487624 L21.7495545,24.9289604 L23.3980693,24.9289604 L23.3980693,27.334901 Z M16.1505446,27.5576733 L13.3366832,27.5576733 L13.3366832,22.5532178 L16.0391584,22.5532178 L16.0391584,23.094802 L13.9822277,23.094802 L13.9822277,24.6764851 L15.9277723,24.6764851 L15.9277723,25.2111386 L13.9822277,25.2111386 L13.9822277,27.0155941 L16.1505446,27.0155941 L16.1505446,27.5576733 Z M9.66044554,25.9017327 C9.66044554,27.2309406 9.00747525,27.6393564 8.14608911,27.6393564 C7.90846535,27.6393564 7.61886139,27.5873762 7.45549505,27.5205446 L7.5520297,26.9933168 C7.68569307,27.045297 7.87876238,27.0898515 8.09410891,27.0898515 C8.67331683,27.0898515 9.01490099,26.8299505 9.01490099,25.8497525 L9.01490099,22.5532178 L9.66044554,22.5532178 L9.66044554,25.9017327 Z M24.7525248,0.49480198 C11.0822277,0.49480198 4.95049505e-05,11.5769802 4.95049505e-05,25.2472772 C4.95049505e-05,38.9180693 11.0822277,49.9997525 24.7525248,49.9997525 C38.4228218,49.9997525 49.505,38.9180693 49.505,25.2472772 C49.505,11.5769802 38.4228218,0.49480198 24.7525248,0.49480198 L24.7525248,0.49480198 Z" id="Fill-1"></path>
            </g>
        </g>
    </g>
</svg>