<?xml version="1.0" encoding="UTF-8" standalone="no"?>
<svg width="100px" height="14px" viewBox="0 0 100 14" version="1.1" xmlns="http://www.w3.org/2000/svg" xmlns:xlink="http://www.w3.org/1999/xlink">
    <!-- Generator: Sketch 42 (36781) - http://www.bohemiancoding.com/sketch -->
    <title>kohactive</title>
    <desc>Created with Sketch.</desc>
    <defs></defs>
    <g id="Page-1" stroke="none" stroke-width="1" fill="none" fill-rule="evenodd">
        <g id="Artboard" transform="translate(-703.000000, -1192.000000)" fill-rule="nonzero" fill="#DCE2E8">
            <g id="kohactive" transform="translate(703.000000, 1192.000000)">
                <path d="M8.62358393,13.9989648 L2.69721936,8.52153658 L0.954170958,9.86785965 L0.954170958,13.9989648 L0,13.9989648 L0,0 L0.954170958,0 L0.954170958,8.72392502 C1.45571576,8.33001812 1.95108136,7.93662883 2.44026777,7.54375716 C2.92945417,7.15036788 3.41864058,6.75697859 3.90834192,6.36358931 L7.41297631,3.59744149 L8.91761071,3.59744149 L3.46807415,7.91333604 L10,14 L8.62409887,14 L8.62358393,13.9989648 Z" id="Shape"></path>
                <path d="M21.6488013,9.86252983 C21.4139572,10.4577566 21.0526175,10.9875895 20.5647823,11.452506 C20.076947,11.9169451 19.4551439,12.2916468 18.7009741,12.5756563 C17.9468043,12.8582339 17.049593,13 16.0098741,13 C14.9952408,13 14.1140417,12.8644391 13.3662767,12.5923628 C12.6185118,12.3207637 11.9935062,11.9546539 11.4928613,11.4954654 C10.9916826,11.0362768 10.618067,10.5064439 10.3709469,9.90548926 C10.1238269,9.30453461 10,8.66968974 10,8.00047733 C10,7.2071599 10.1585198,6.49832936 10.4755593,5.87446301 C10.7925989,5.25059666 11.2201219,4.72649165 11.7591958,4.30119332 C12.2977361,3.87589499 12.9318151,3.55274463 13.6608993,3.33174224 C14.3899835,3.11073986 15.1729751,3 16.0093404,3 C16.8334297,3 17.6100165,3.11026253 18.3391007,3.33174224 C19.0681849,3.55322196 19.7017302,3.87589499 20.2408042,4.30119332 C20.7793444,4.72601432 21.2074011,5.25107399 21.5244407,5.87446301 C21.8414802,6.49785203 22,7.2071599 22,8.00047733 L22,8.0176611 C22,8.65250597 21.8831117,9.26778043 21.6488013,9.86252983 L21.6488013,9.86252983 Z M20.6314994,6.25680191 C20.3779745,5.74081146 20.0257083,5.30453461 19.5763021,4.94701671 C19.1268959,4.58949881 18.5968954,4.31789976 17.9884357,4.13078759 C17.379976,3.94367542 16.7202775,3.85011933 16.0104079,3.85011933 C15.2877285,3.85011933 14.622159,3.94653938 14.0136992,4.13937947 C13.4052395,4.33221957 12.8757728,4.6071599 12.4258329,4.96420048 C11.9758929,5.32124105 11.6236267,5.75799523 11.3706356,6.27398568 C11.1176444,6.78997613 10.9900814,7.37040573 10.9900814,8.01718377 C10.9900814,8.56133652 11.0914913,9.08591885 11.2943113,9.59045346 C11.4971312,10.0949881 11.8045634,10.5374702 12.2166081,10.9169451 C12.6286528,11.2968974 13.1485122,11.6033413 13.7761865,11.8353222 C14.4038607,12.0673031 15.1484233,12.1837709 16.0109416,12.1837709 L16.0301561,12.1837709 C16.8670551,12.1837709 17.598808,12.0677804 18.227016,11.8353222 C18.8552239,11.6033413 19.3740159,11.2968974 19.7865943,10.9169451 C20.198639,10.5374702 20.5060713,10.0945107 20.7088912,9.59045346 C20.9117111,9.08639618 21.013121,8.56133652 21.013121,8.01718377 C21.013121,7.35990453 20.8860917,6.77326969 20.6325668,6.25727924 L20.6314994,6.25680191 Z" id="Shape"></path>
                <path d="M32.0964404,13.9989647 L32.0964404,6.80536863 C32.0964404,6.448717 32.0618194,6.12001775 31.9920897,5.81875324 C31.9223601,5.51748872 31.7721732,5.24417659 31.5405537,4.99829919 C31.3552582,4.80159728 31.100233,4.63284774 30.7759658,4.49101531 C30.4516985,4.34918287 30.0172292,4.27878429 29.4730455,4.27878429 C28.8011053,4.27878429 28.0716259,4.43252237 27.2836322,4.73999852 C27.0983367,4.81402056 26.8984125,4.90615988 26.6843474,5.01641648 C26.4702823,5.12667308 26.2557295,5.25349405 26.0416644,5.39429121 C25.8271117,5.53612364 25.6218237,5.68002662 25.4248253,5.82807069 C25.2278268,5.97611477 25.0537465,6.11121793 24.9035596,6.2338978 L24.9035596,13.9984471 L24,13.9984471 L24,0 L24.9035596,0 L24.9035596,5.12770835 C25.2512326,4.86940768 25.6013437,4.63595356 25.9548681,4.42682837 C26.3083925,4.21770317 26.664355,4.03963618 27.0232432,3.8915921 C27.4513735,3.70731347 27.8717018,3.57531613 28.2827653,3.49508245 C28.6938289,3.41536641 29.1019667,3.37550839 29.5076665,3.37550839 C30.6891694,3.37550839 31.5810262,3.70731347 32.1832367,4.37144125 C32.46118,4.66649412 32.6669556,5.00502847 32.8000759,5.38600902 C32.9331961,5.76698957 33,6.23441544 33,6.78776899 L33,14 L32.0964404,14 L32.0964404,13.9989647 Z" id="Shape"></path>
                <path d="M45.5898633,13.7824661 C45.3877959,13.5548377 45.2542514,13.3327613 45.1892297,13.1172463 C45.1242081,12.9017312 45.0911971,12.643315 45.0911971,12.3445213 L45.0731911,12.3445213 C44.7995999,12.6680462 44.484995,12.938071 44.1288763,13.153586 C43.7727576,13.3691011 43.4096365,13.5402009 43.0415138,13.6663807 C42.672891,13.7920557 42.3167723,13.8788674 41.9721574,13.9273204 C41.6275425,13.9762782 41.3304435,14 41.0808603,14 C40.2725909,14 39.6073691,13.9192449 39.0846949,13.7572301 C38.5620207,13.59572 38.145882,13.3892899 37.8372791,13.1369303 C37.5281761,12.8850755 37.3116039,12.6034422 37.1870624,12.2915258 C37.0625208,11.9796093 37,11.6681976 37,11.3562812 C37,10.7087266 37.1690564,10.1686771 37.5076692,9.737647 C37.8462821,9.30611215 38.3509503,8.94927573 39.0226742,8.66713774 C39.693898,8.38550447 40.5346782,8.16140918 41.5445148,7.99283299 C42.5543515,7.82526624 43.7302434,7.68747792 45.0731911,7.57896331 L45.0731911,7.11108868 C45.0731911,6.64371877 45.0136712,6.2328774 44.8946315,5.8790693 C44.7755919,5.52526119 44.5770257,5.23201938 44.2974325,4.99782971 C44.0183394,4.76414475 43.6527176,4.59052137 43.2015672,4.47645485 C42.7504168,4.36238833 42.1917306,4.30585979 41.5265088,4.30585979 C40.9918306,4.30585979 40.5696899,4.32100136 40.261087,4.35077979 C39.9524842,4.38055822 39.7499166,4.41084137 39.6553851,4.4406198 C39.5603535,4.47039822 39.5068356,4.4855398 39.4948316,4.4855398 L39.4593198,4.1978499 C40.2080694,4.06611821 40.9028009,4 41.5445148,4 C42.9584862,4 43.9593198,4.25791147 44.5475158,4.7732297 C45.1357119,5.28854792 45.4298099,6.03856054 45.4298099,7.02124868 L45.4298099,12.0568314 C45.4298099,12.2975824 45.4353118,12.4913945 45.4478159,12.6412961 C45.4603201,12.7911977 45.4863288,12.9234341 45.5278426,13.0369959 C45.5693565,13.1505577 45.6258753,13.2621006 45.696899,13.3696058 C45.7679226,13.477111 45.8689563,13.6032908 46,13.7471357 L46,13.7829708 L45.5898633,13.7824661 L45.5898633,13.7824661 Z M45.0731911,7.88381366 C43.8137713,7.99232827 42.702901,8.12052693 41.7405802,8.27042851 C40.7782594,8.42083481 39.972991,8.62423661 39.3257753,8.88164337 C38.6780594,9.14005956 38.187896,9.46610811 37.8557853,9.86231262 C37.5236746,10.2575077 37.3566189,10.7496088 37.3566189,11.3371019 C37.3566189,11.6005653 37.4101367,11.87059 37.5171724,12.1461667 C37.6242081,12.4217433 37.8172724,12.6741029 38.0963655,12.9017312 C38.3754585,13.1293595 38.7585862,13.3186292 39.2457486,13.4685308 C39.732911,13.6184323 40.3566189,13.6931308 41.1168723,13.6931308 C41.3309436,13.6931308 41.6010337,13.6754656 41.9276425,13.6391258 C42.2542514,13.602786 42.5988663,13.522031 42.9614872,13.3968606 C43.3236079,13.2706809 43.6922307,13.0935245 44.0663555,12.8658961 C44.4404802,12.6387725 44.776092,12.332408 45.0731911,11.9488215 L45.0731911,7.88381366 L45.0731911,7.88381366 Z" id="Shape"></path>
                <path d="M58.3462532,12.6239968 C58.0950904,12.882439 57.7881137,13.113119 57.4258398,13.3170461 C57.0635659,13.5204684 56.6397933,13.6855282 56.1550388,13.811216 C55.6697674,13.9369037 55.1085271,14 54.4697674,14 C53.7576227,14 53.073385,13.9045985 52.4165375,13.7122811 C51.7596899,13.5204684 51.1767442,13.220635 50.6666667,12.8132855 C50.1576227,12.4054313 49.751938,11.8865277 49.4511628,11.2575842 C49.1503876,10.6276311 49,9.87602847 49,8.99974761 C49,8.14870526 49.1565891,7.41123618 49.4697674,6.78784514 C49.7829457,6.16445409 50.1937984,5.64555045 50.703876,5.23214376 C51.2129199,4.81873707 51.7958656,4.50981778 52.45323,4.30589067 C53.1095607,4.10196356 53.7813953,4 54.4692506,4 C55.5498708,4 56.4180879,4.16808844 57.0749354,4.50376054 C57.7317829,4.83943264 58.2749354,5.28312554 58.7049096,5.83483923 L58.3922481,6.01453738 C57.9989664,5.49916713 57.501292,5.08525567 56.9002584,4.77330776 C56.2992248,4.46135985 55.4883721,4.30589067 54.4697674,4.30589067 C53.8439276,4.30589067 53.2242894,4.40179698 52.6098191,4.59360961 C51.9958656,4.78542224 51.4496124,5.0761698 50.9710594,5.4658523 C50.4925065,5.8555348 50.1054264,6.34415224 49.8108527,6.93170461 C49.5162791,7.51925698 49.3689922,8.2087729 49.3689922,8.99974761 C49.3689922,9.82706577 49.5162791,10.537782 49.8108527,11.1313917 C50.1054264,11.725506 50.4925065,12.2110948 50.9710594,12.5886629 C51.4496124,12.9662309 51.9932817,13.2453687 52.6010336,13.4245621 C53.2087855,13.6042603 53.8315245,13.6946141 54.4692506,13.6946141 C55.0459948,13.6946141 55.5586563,13.6406037 56.0067183,13.5325829 C56.4547804,13.4245621 56.8444444,13.2746454 57.1767442,13.0833375 C57.5090439,12.8910201 57.7963824,12.6754833 58.0423773,12.4357175 C58.2883721,12.1959517 58.496124,11.938519 58.6682171,11.6624098 L59,11.824441 C58.8160207,12.1005502 58.5979328,12.366564 58.3462532,12.6250063 L58.3462532,12.6239968 Z" id="Shape"></path>
                <path d="M69.3590827,13.3053226 C69.1098093,13.4270067 68.8250681,13.5399623 68.5048592,13.6431628 C68.1846503,13.7463632 67.8399637,13.8321068 67.4722979,13.8998802 C67.1041326,13.9661133 66.7184832,14 66.3158492,14 C65.8647593,14 65.3841962,13.9604655 64.8736603,13.8808831 C64.363624,13.8018141 63.8915531,13.6370015 63.4589464,13.3874722 C63.0258401,13.1379428 62.6661671,12.7805922 62.3819255,12.3174739 C62.0971844,11.8533288 61.9548138,11.2438816 61.9548138,10.4881054 L61.9548138,4.37823036 L59,4.37823036 L59,4.04860517 L61.9548138,4.04860517 L61.9548138,2 L62.31099,2 L62.31099,4.0491186 L68.9154859,4.0491186 L68.9154859,4.3787438 L62.31099,4.3787438 L62.31099,10.4891323 C62.31099,11.1725141 62.4358765,11.7208626 62.6846503,12.135718 C62.9334242,12.5505733 63.2546322,12.8735239 63.6457766,13.1055964 C64.0374205,13.3371556 64.4735241,13.4927263 64.9540872,13.5717953 C65.4346503,13.6503508 65.9007266,13.6903988 66.351317,13.6903988 C66.7189827,13.6903988 67.0781562,13.6539449 67.4283379,13.5800103 C67.7785195,13.5065891 68.104723,13.4157111 68.4069482,13.3063495 C68.7091735,13.195961 68.9824251,13.0835187 69.2257039,12.9674825 C69.4689827,12.8519596 69.673297,12.7456786 69.8396458,12.648126 L70,12.9772377 C69.8221617,13.0747903 69.6078565,13.1846654 69.3590827,13.3068629 L69.3590827,13.3053226 Z" id="Shape"></path>
                <path d="M74,1.43078289 L74,0 L74.713,0 L74.713,1.43078289 L74,1.43078289 L74,1.43078289 Z M74,13 L74,3.48687461 L74.713,3.48687461 L74.713,13 L74,13 Z" id="Shape"></path>
                <path d="M82.6659783,13 L82.3164688,13 L77,4 L77.4042334,4 L79.9432112,8.39839629 C80.3717088,9.14285714 80.7981415,9.87592319 81.2219928,10.5975944 C81.6448116,11.3197405 82.065049,12.0357143 82.482189,12.7459907 L82.5183273,12.7459907 C82.9478575,12.0020046 83.3737739,11.2689386 83.7971089,10.5463178 C84.2194115,9.82417177 84.6463604,9.09775269 85.0753743,8.36421186 L87.6138358,4 L88,4 L82.6659783,13 L82.6659783,13 Z" id="Shape"></path>
                <path d="M90.3590392,8.94624199 C90.3590392,9.83413255 90.5097345,10.5806875 90.8101138,11.1859068 C91.110493,11.7911261 91.4917826,12.2802483 91.954488,12.6517591 C92.4166877,13.0227651 92.9304678,13.2902933 93.4953224,13.4523245 C94.060177,13.6143557 94.6058154,13.6951189 95.1352718,13.6951189 C95.6515803,13.6951189 96.1891277,13.6496896 96.747914,13.5598405 C97.3061947,13.4699914 97.819469,13.3710565 98.2887484,13.2630357 C98.7570164,13.1550149 99.291024,13.0111554 99.8927939,12.8314573 L99.910493,13.1010045 C99.2733249,13.2928171 98.7180784,13.4427338 98.2432364,13.5502499 C97.7689001,13.6577659 97.2556258,13.7602342 96.7029077,13.8561405 C96.1501896,13.9520468 95.6394437,14 95.1716814,14 C94.4869785,14 93.8164349,13.8919792 93.1620733,13.6759376 C92.5077118,13.4609056 91.9281922,13.113119 91.4235145,12.6330826 C90.9916561,12.2136187 90.6462705,11.6972389 90.3873578,11.0864671 C90.1289507,10.4751906 90,9.73772147 90,8.87405987 C90,8.10680935 90.1324905,7.42032204 90.3964602,6.81459795 C90.6604298,6.20887386 91.0391909,5.69653223 91.531732,5.2770683 C91.9878635,4.88132855 92.5163085,4.56988542 93.1175727,4.34172934 C93.7183312,4.11357327 94.4030341,4 95.1716814,4 C95.8442478,4 96.4814159,4.12619252 97.0816688,4.37756802 C97.6819216,4.62894352 98.2169406,5.0070163 98.6857143,5.51077684 C99.0700379,5.93074555 99.3850822,6.42844884 99.6313527,7.00338196 C99.878129,7.57831508 100,8.22593509 100,8.94573722 L90.3605563,8.94573722 L90.3590392,8.94573722 L90.3590392,8.94624199 Z M99.2414665,7.01347736 C99.0250316,6.49204987 98.7221239,6.03069002 98.331732,5.62889304 C97.9418458,5.22709606 97.4786346,4.90656706 96.9441214,4.66680127 C96.4096081,4.42703549 95.817952,4.30690021 95.169153,4.30690021 C94.4490518,4.30690021 93.7936789,4.42097824 93.2050569,4.64862955 C92.6169406,4.87628085 92.112263,5.18822876 91.6915297,5.5839685 C91.2707965,5.97970824 90.9436157,6.43803947 90.7099874,6.95997173 C90.4758534,7.48190399 90.3585335,8.03664631 90.3585335,8.62318914 L99.6020228,8.62318914 C99.577244,8.07198021 99.4579014,7.53490485 99.2414665,7.01347736 L99.2414665,7.01347736 Z" id="Shape"></path>
            </g>
        </g>
    </g>
</svg>