<svg width="72px" height="49px" viewBox="22 18 72 49" version="1.1" xmlns="http://www.w3.org/2000/svg" xmlns:xlink="http://www.w3.org/1999/xlink">
    <!-- Generator: Sketch 42 (36781) - http://www.bohemiancoding.com/sketch -->
    <desc>Created with Sketch.</desc>
    <defs></defs>
    <g id="LendStreet-Logo-lockup---vertical-copy" stroke="none" stroke-width="1" fill="none" fill-rule="evenodd" transform="translate(22.000000, 18.000000)">
        <g id="Group" fill-rule="nonzero" fill="#DCE2E8">
            <g transform="translate(0.000000, 36.461538)" id="Shape">
                <path d="M7.43076923,3.50769231 C5.26153846,3.50769231 3.69230769,5.21538462 3.69230769,7.43076923 C3.69230769,9.69230769 5.21538462,11.3076923 7.52307692,11.3076923 C8.81538462,11.3076923 9.73846154,10.8461538 10.2,10.3846154 C10.5230769,10.0615385 10.6615385,9.73846154 10.6615385,9.55384615 C10.6615385,9.18461538 10.2461538,9.09230769 10.2,9.09230769 C9.83076923,9.83076923 9.09230769,10.6153846 7.52307692,10.6153846 C5.72307692,10.6153846 4.47692308,9.32307692 4.43076923,7.47692308 L10.5692308,7.47692308 C10.8,7.47692308 10.8923077,7.43076923 10.8923077,7.2 L10.8923077,7.10769231 C10.8923077,4.98461538 9.50769231,3.50769231 7.43076923,3.50769231 Z M4.47692308,6.87692308 C4.70769231,5.30769231 5.90769231,4.15384615 7.43076923,4.15384615 C8.95384615,4.15384615 10.0153846,5.26153846 10.1076923,6.87692308 L4.47692308,6.87692308 Z"></path>
                <path d="M16.3846154,3.50769231 C15.1384615,3.50769231 14.1692308,4.15384615 13.6615385,5.07692308 L13.6615385,4.38461538 C13.6615385,3.78461538 13.4307692,3.6 13.1538462,3.6 C13.0153846,3.6 12.8769231,3.64615385 12.8769231,3.69230769 L12.8769231,10.8461538 C12.8769231,11.1230769 13.0153846,11.2153846 13.2,11.2153846 L13.3846154,11.2153846 C13.5692308,11.2153846 13.7076923,11.1230769 13.7076923,10.8461538 L13.7076923,6 C14.1692308,4.93846154 15.0923077,4.24615385 16.3846154,4.24615385 C17.8615385,4.24615385 18.6923077,5.26153846 18.6923077,6.92307692 L18.6923077,10.8923077 C18.6923077,11.1692308 18.8307692,11.2615385 19.0153846,11.2615385 L19.1076923,11.2615385 C19.2923077,11.2615385 19.4307692,11.1692308 19.4307692,10.8923077 L19.4307692,6.87692308 C19.3846154,4.84615385 18.3692308,3.50769231 16.3846154,3.50769231 Z"></path>
                <path d="M28.0615385,0.415384615 C27.9230769,0.415384615 27.7846154,0.461538462 27.7846154,0.507692308 L27.7846154,5.16923077 C27.3692308,4.29230769 26.3076923,3.55384615 24.8769231,3.55384615 C22.8,3.55384615 21.2307692,5.16923077 21.2307692,7.47692308 C21.2307692,9.83076923 22.7538462,11.4 24.7846154,11.4 C26.2153846,11.4 27.1846154,10.7076923 27.7384615,9.73846154 L27.7384615,10.9384615 C27.7384615,11.2153846 27.8769231,11.3076923 28.0615385,11.3076923 L28.1538462,11.3076923 C28.3384615,11.3076923 28.5230769,11.2153846 28.5230769,10.9384615 L28.5230769,1.24615385 C28.5692308,0.553846154 28.3384615,0.415384615 28.0615385,0.415384615 Z M27.7846154,7.98461538 C27.7846154,9.46153846 26.4923077,10.7076923 24.8769231,10.7076923 C23.1692308,10.7076923 21.9692308,9.32307692 21.9692308,7.43076923 C21.9692308,5.53846154 23.1692308,4.2 24.8769231,4.2 C26.3538462,4.2 27.2769231,5.03076923 27.7384615,6.23076923 L27.7384615,7.98461538 L27.7846154,7.98461538 Z"></path>
                <path d="M33.8307692,7.06153846 C32.4461538,6.73846154 31.5692308,6.55384615 31.5692308,5.58461538 C31.5692308,4.75384615 32.3538462,4.15384615 33.6461538,4.15384615 C34.7076923,4.15384615 35.5846154,4.66153846 35.9538462,5.30769231 C36,5.35384615 36.3692308,5.21538462 36.3692308,4.89230769 C36.3692308,4.75384615 36.2769231,4.52307692 36.0923077,4.33846154 C35.6307692,3.87692308 34.8461538,3.50769231 33.6461538,3.50769231 C31.9384615,3.50769231 30.8307692,4.38461538 30.8307692,5.67692308 C30.8307692,7.15384615 32.2615385,7.47692308 33.5076923,7.70769231 C34.8923077,8.03076923 35.8615385,8.21538462 35.8615385,9.23076923 C35.8615385,10.0615385 35.0769231,10.7076923 33.6923077,10.7076923 C32.3538462,10.7076923 31.4769231,10.1538462 31.0153846,9.41538462 C30.9692308,9.41538462 30.6,9.50769231 30.6,9.83076923 C30.6,9.96923077 30.6923077,10.2 30.9692308,10.4307692 C31.4307692,10.8923077 32.3076923,11.3076923 33.6461538,11.3076923 C35.4461538,11.3076923 36.6,10.3846154 36.6,9.09230769 C36.6,7.66153846 35.1230769,7.33846154 33.8307692,7.06153846 Z"></path>
                <path d="M42.4615385,10.0615385 C42.1846154,10.4307692 41.8153846,10.7076923 41.2153846,10.7076923 C40.3384615,10.7076923 39.9692308,10.2 39.9692308,8.95384615 L39.9692308,4.38461538 L42.1384615,4.38461538 C42.4153846,4.38461538 42.5076923,4.29230769 42.5076923,4.06153846 L42.5076923,3.96923077 C42.5076923,3.78461538 42.4153846,3.64615385 42.1384615,3.64615385 L39.9692308,3.64615385 L39.9692308,2.16923077 C39.9692308,1.89230769 39.8307692,1.8 39.6461538,1.8 L39.5538462,1.8 C39.3692308,1.8 39.2307692,1.89230769 39.2307692,2.16923077 L39.2307692,3.64615385 L38.3076923,3.64615385 C38.0307692,3.64615385 37.9384615,3.73846154 37.9384615,3.96923077 L37.9384615,4.06153846 C37.9384615,4.24615385 38.0307692,4.38461538 38.3076923,4.38461538 L39.2307692,4.38461538 L39.2307692,9.04615385 C39.2307692,10.6153846 39.8769231,11.4 41.2153846,11.4 C41.8153846,11.4 42.2307692,11.2153846 42.4615385,10.9384615 C42.6461538,10.7538462 42.7384615,10.5692308 42.7384615,10.4769231 C42.7384615,10.1538462 42.5076923,10.0153846 42.4615385,10.0615385 Z"></path>
                <path d="M47.8153846,3.50769231 C46.8,3.50769231 46.0615385,4.06153846 45.7384615,5.30769231 L45.7384615,4.38461538 C45.7384615,3.78461538 45.5076923,3.6 45.2307692,3.6 C45.0923077,3.6 44.9538462,3.64615385 44.9538462,3.69230769 L44.9538462,10.8461538 C44.9538462,11.1230769 45.0923077,11.2153846 45.3230769,11.2153846 L45.4153846,11.2153846 C45.6,11.2153846 45.7384615,11.1230769 45.7384615,10.8461538 L45.7384615,7.56923077 C45.7384615,5.53846154 46.3846154,4.2 47.7230769,4.2 C48.1384615,4.2 48.4153846,4.33846154 48.6461538,4.52307692 C48.6923077,4.52307692 48.8769231,4.43076923 48.8769231,4.10769231 C48.8307692,3.78461538 48.3692308,3.50769231 47.8153846,3.50769231 Z"></path>
                <path d="M53.4461538,3.50769231 C51.2769231,3.50769231 49.7076923,5.21538462 49.7076923,7.43076923 C49.7076923,9.69230769 51.2307692,11.3076923 53.5384615,11.3076923 C54.8307692,11.3076923 55.7538462,10.8461538 56.2153846,10.3846154 C56.5384615,10.0615385 56.6769231,9.73846154 56.6769231,9.55384615 C56.6769231,9.18461538 56.2615385,9.09230769 56.2153846,9.09230769 C55.8461538,9.83076923 55.1076923,10.6153846 53.5384615,10.6153846 C51.7384615,10.6153846 50.4923077,9.32307692 50.4461538,7.47692308 L56.5846154,7.47692308 C56.8153846,7.47692308 56.9076923,7.43076923 56.9076923,7.2 L56.9076923,7.10769231 C56.8615385,4.98461538 55.4769231,3.50769231 53.4461538,3.50769231 Z M50.4461538,6.87692308 C50.6769231,5.30769231 51.8769231,4.15384615 53.4,4.15384615 C54.9230769,4.15384615 55.9846154,5.26153846 56.0769231,6.87692308 L50.4461538,6.87692308 Z"></path>
                <path d="M62.1692308,3.50769231 C60,3.50769231 58.4307692,5.21538462 58.4307692,7.43076923 C58.4307692,9.69230769 59.9538462,11.3076923 62.2615385,11.3076923 C63.5538462,11.3076923 64.4769231,10.8461538 64.9384615,10.3846154 C65.2615385,10.0615385 65.4,9.73846154 65.4,9.55384615 C65.4,9.18461538 64.9846154,9.09230769 64.9384615,9.09230769 C64.5692308,9.83076923 63.8307692,10.6153846 62.2615385,10.6153846 C60.4615385,10.6153846 59.2153846,9.32307692 59.1692308,7.47692308 L65.3076923,7.47692308 C65.5384615,7.47692308 65.6307692,7.43076923 65.6307692,7.2 L65.6307692,7.10769231 C65.6307692,4.98461538 64.2461538,3.50769231 62.1692308,3.50769231 Z M59.2153846,6.87692308 C59.4461538,5.30769231 60.6461538,4.15384615 62.1692308,4.15384615 C63.6923077,4.15384615 64.7538462,5.26153846 64.8461538,6.87692308 L59.2153846,6.87692308 Z"></path>
                <path d="M71.3538462,10.0615385 C71.0769231,10.4307692 70.7076923,10.7076923 70.1076923,10.7076923 C69.2307692,10.7076923 68.8615385,10.2 68.8615385,8.95384615 L68.8615385,4.38461538 L71.0307692,4.38461538 C71.3076923,4.38461538 71.4,4.29230769 71.4,4.06153846 L71.4,3.96923077 C71.4,3.78461538 71.3076923,3.64615385 71.0307692,3.64615385 L68.8615385,3.64615385 L68.8615385,2.16923077 C68.8615385,1.89230769 68.7230769,1.8 68.5384615,1.8 L68.4461538,1.8 C68.2615385,1.8 68.1230769,1.89230769 68.1230769,2.16923077 L68.1230769,3.64615385 L67.2,3.64615385 C66.9230769,3.64615385 66.8307692,3.73846154 66.8307692,3.96923077 L66.8307692,4.06153846 C66.8307692,4.24615385 66.9230769,4.38461538 67.2,4.38461538 L68.1230769,4.38461538 L68.1230769,9.04615385 C68.1230769,10.6153846 68.7692308,11.4 70.1076923,11.4 C70.7076923,11.4 71.1230769,11.2153846 71.3538462,10.9384615 C71.5384615,10.7538462 71.6307692,10.5692308 71.6307692,10.4769231 C71.6307692,10.1538462 71.4,10.0153846 71.3538462,10.0615385 Z"></path>
                <path d="M1.98461538,11.3538462 C2.4,11.3538462 2.63076923,11.2153846 2.72307692,11.1230769 C2.86153846,10.9384615 2.86153846,10.7538462 2.81538462,10.6615385 L2.76923077,10.6153846 C2.63076923,10.6615385 2.49230769,10.6615385 2.35384615,10.6615385 C1.56923077,10.6153846 1.2,10.0615385 1.2,8.90769231 L1.2,8.90769231 L1.2,8.44615385 L1.2,7.15384615 L1.2,1.2 C1.2,0.6 0.969230769,0.461538462 0.692307692,0.461538462 C0.553846154,0.461538462 0.415384615,0.507692308 0.415384615,0.553846154 L0.415384615,8.26153846 L0.415384615,9.04615385 C0.369230769,10.4307692 1.01538462,11.3538462 1.98461538,11.3538462 Z"></path>
            </g>
            <g transform="translate(18.923077, 0.000000)" id="Shape">
                <path d="M7.98461538,23.8153846 C7.98461538,24.6923077 7.29230769,25.3846154 6.41538462,25.3846154 L1.61538462,25.3846154 C0.738461538,25.3846154 0.0461538462,24.6923077 0.0461538462,23.8153846 L0.0461538462,9.69230769 C0.0461538462,8.81538462 0.738461538,8.12307692 1.61538462,8.12307692 L6.41538462,8.12307692 C7.29230769,8.12307692 7.98461538,8.81538462 7.98461538,9.69230769 L7.98461538,23.8153846 L7.98461538,23.8153846 Z"></path>
                <path d="M23.4,6.50769231 C23.4,7.38461538 22.4769231,8.12307692 21.6,8.12307692 L8.72307692,8.12307692 C7.84615385,8.12307692 7.06153846,7.38461538 7.06153846,6.50769231 L7.06153846,1.61538462 C7.06153846,0.738461538 7.89230769,0.138461538 8.72307692,0.138461538 L21.6,0.138461538 C22.4769231,0.138461538 23.4,0.738461538 23.4,1.61538462 L23.4,6.50769231 L23.4,6.50769231 Z"></path>
                <path d="M34.1076923,23.9538462 C34.1076923,24.8307692 33.4615385,25.4307692 32.5846154,25.4307692 L25.2461538,25.4307692 C24.3692308,25.4307692 23.8615385,24.8769231 23.8615385,23.9538462 L23.8615385,19.2461538 C23.8615385,18.3692308 24.4153846,17.4923077 25.2461538,17.4923077 L32.5846154,17.4923077 C33.4615385,17.4923077 34.1076923,18.3692308 34.1076923,19.2461538 L34.1076923,23.9538462 Z"></path>
                <path d="M23.8615385,31.4307692 C23.8615385,32.3076923 23.2153846,32.9076923 22.3384615,32.9076923 L9.13846154,32.9076923 C8.26153846,32.9076923 7.47692308,32.3538462 7.47692308,31.4307692 L7.47692308,26.7230769 C7.47692308,25.8461538 8.26153846,24.9692308 9.13846154,24.9692308 L22.3384615,24.9692308 C23.2153846,24.9692308 23.8615385,25.8461538 23.8615385,26.7230769 L23.8615385,31.4307692 Z"></path>
                <path d="M30.8769231,15.3230769 C30.8769231,16.2461538 30.1846154,16.9846154 29.3538462,16.9846154 L16.0615385,16.9846154 C15.1846154,16.9846154 14.4923077,16.2461538 14.4923077,15.3230769 L14.4923077,10.2461538 C14.4923077,9.32307692 15.1846154,8.58461538 16.0615385,8.58461538 L29.3076923,8.58461538 C30.1384615,8.58461538 30.8307692,9.32307692 30.8307692,10.2461538 L30.8307692,15.3230769 L30.8769231,15.3230769 Z"></path>
            </g>
        </g>
    </g>
</svg>
