<?xml version="1.0" encoding="UTF-8" standalone="no"?>
<svg width="64px" height="47px" viewBox="0 0 64 47" version="1.1" xmlns="http://www.w3.org/2000/svg" xmlns:xlink="http://www.w3.org/1999/xlink">
    <!-- Generator: Sketch 42 (36781) - http://www.bohemiancoding.com/sketch -->
    <title>lyft</title>
    <desc>Created with Sketch.</desc>
    <defs></defs>
    <g id="Page-1" stroke="none" stroke-width="1" fill="none" fill-rule="evenodd">
        <g id="Artboard" transform="translate(-530.000000, -1037.000000)" fill-rule="nonzero" fill="#DCE2E8">
            <g id="lyft" transform="translate(530.000000, 1037.000000)">
                <g id="Group">
                    <path d="M23.6894242,23.1940727 C23.6894242,24.7980545 23.5210788,25.5990485 22.3577576,25.5990485 C21.1431636,25.5990485 20.9514606,24.8706909 20.9514606,23.4148303 L20.9514606,10.6103212 L11.520697,10.6103212 L11.520697,25.6491818 C11.520697,28.2652303 12.1507818,30.4198242 13.6271515,32.1132485 C15.1032364,33.8049636 16.9274061,34.6512485 19.2064788,34.6512485 C20.7477939,34.6512485 22.2953758,34.1784 23.9022061,33.2287152 C23.016897,36.5822364 21.0272303,38.2585697 18.0417333,38.2585697 C17.1074303,38.2585697 16.2152848,37.9965091 14.7414788,37.4718182 C14.7414788,37.4718182 13.3465758,37.0288788 11.520697,35.9663939 L11.520697,43.7797879 C11.520697,43.7797879 13.3368909,44.9174727 14.7414788,45.4467212 C16.4619636,46.1004485 18.1556727,46.4280242 19.8610606,46.4280242 C23.7483879,46.4280242 26.9993636,44.9391212 29.7381818,41.9627394 C32.0337758,39.4603455 33.1201879,36.1723394 33.1201879,32.101 L33.1201879,10.6103212 L23.6894242,10.6103212 L23.6894242,23.1940727 Z M45.0718606,0.969624242 C33.8798788,1.97770303 34.6407091,13.9453273 34.6407091,13.9453273 L34.6407091,34.8734303 C40.7253576,34.8734303 43.7669697,31.9525939 43.7669697,27.9080303 L43.7669697,25.1746242 L48.2553273,25.1746242 L48.2553273,16.0717212 L43.7669697,16.0717212 L43.7669697,14.8534242 C43.7669697,13.4306061 44.1438242,12.3353636 44.7753333,11.5659879 C45.3931697,10.8151273 46.2961394,10.4334303 47.4218606,10.4163394 C48.1724364,10.4248848 49.5516727,10.6735576 49.8305394,11.755697 L49.8510485,11.8417212 L49.8510485,21.3294545 C49.8510485,24.8140061 50.5076242,27.6109333 51.9184788,29.7210909 C53.0328061,31.3729273 54.4883818,32.6809515 56.3330606,33.6471576 C58.1783091,34.6113697 60.1184121,35.0919091 62.2020788,35.0919091 C62.4316667,35.0919091 62.8498242,35.0853576 63.2360788,35.0679818 L63.2360788,25.4272848 C61.3070848,25.4272848 60.4796,25.0706545 59.8654667,24.3334667 C59.2499091,23.597703 58.9525273,22.140703 58.9525273,20.3196667 L62.2374,20.3196667 L62.2374,10.6103212 L59.1265697,10.6103212 C58.5414909,6.96938788 56.3549939,1.48491515 48.2447879,0.873915152 C48.2447879,0.873915152 47.2845636,0.837739394 46.5322788,0.864230303 C45.9452061,0.885309091 45.0718606,0.969624242 45.0718606,0.969624242 Z M13.1876303,34.1157333 L13.1944667,34.1302606 C12.1448,34.7723091 10.9122606,35.2183818 10.0001758,35.4542364 L10.0001758,35.5038 L9.96855758,35.4587939 C9.4099697,35.5812788 8.85622424,35.648503 8.32355758,35.648503 C6.0248303,35.648503 4.183,34.795097 2.69495152,33.0877152 C1.20661818,31.3800485 0.56969697,29.2069394 0.56969697,26.568103 L0.56969697,1.4852 L10.0001758,1.4852 L10.0001758,26.5683879 C10.0001758,29.2072242 10.6294061,31.3803333 12.1188788,33.0877152 C12.4569939,33.4756788 12.8110606,33.8146485 13.1876303,34.1157333 Z" id="Shape"></path>
                    <g id="Clipped" opacity="0.16">
                        <path d="M23.6894242,23.1940727 C23.6894242,24.7980545 23.5210788,25.5990485 22.3577576,25.5990485 C21.1431636,25.5990485 20.9514606,24.8706909 20.9514606,23.4148303 L20.9514606,10.6103212 L11.520697,10.6103212 L11.520697,25.6491818 C11.520697,28.2652303 12.1507818,30.4198242 13.6271515,32.1132485 C15.1032364,33.8049636 16.9274061,34.6512485 19.2064788,34.6512485 C20.7477939,34.6512485 22.2953758,34.1784 23.9022061,33.2287152 C23.016897,36.5822364 21.0272303,38.2585697 18.0417333,38.2585697 C17.1074303,38.2585697 16.2152848,37.9965091 14.7414788,37.4718182 C14.7414788,37.4718182 13.3465758,37.0288788 11.520697,35.9663939 L11.520697,43.7797879 C11.520697,43.7797879 13.3368909,44.9174727 14.7414788,45.4467212 C16.4619636,46.1004485 18.1556727,46.4280242 19.8610606,46.4280242 C23.7483879,46.4280242 26.9993636,44.9391212 29.7381818,41.9627394 C32.0337758,39.4603455 33.1201879,36.1723394 33.1201879,32.101 L33.1201879,10.6103212 L23.6894242,10.6103212 L23.6894242,23.1940727 Z M45.0718606,0.969624242 C33.8798788,1.97770303 34.6407091,13.9453273 34.6407091,13.9453273 L34.6407091,34.8734303 C40.7253576,34.8734303 43.7669697,31.9525939 43.7669697,27.9080303 L43.7669697,25.1746242 L48.2553273,25.1746242 L48.2553273,16.0717212 L43.7669697,16.0717212 L43.7669697,14.8534242 C43.7669697,13.4306061 44.1438242,12.3353636 44.7753333,11.5659879 C45.3931697,10.8151273 46.2961394,10.4334303 47.4218606,10.4163394 C48.1724364,10.4248848 49.5516727,10.6735576 49.8305394,11.755697 L49.8510485,11.8417212 L49.8510485,21.3294545 C49.8510485,24.8140061 50.5076242,27.6109333 51.9184788,29.7210909 C53.0328061,31.3729273 54.4883818,32.6809515 56.3330606,33.6471576 C58.1783091,34.6113697 60.1184121,35.0919091 62.2020788,35.0919091 C62.4316667,35.0919091 62.8498242,35.0853576 63.2360788,35.0679818 L63.2360788,25.4272848 C61.3070848,25.4272848 60.4796,25.0706545 59.8654667,24.3334667 C59.2499091,23.597703 58.9525273,22.140703 58.9525273,20.3196667 L62.2374,20.3196667 L62.2374,10.6103212 L59.1265697,10.6103212 C58.5414909,6.96938788 56.3549939,1.48491515 48.2447879,0.873915152 C48.2447879,0.873915152 47.2845636,0.837739394 46.5322788,0.864230303 C45.9452061,0.885309091 45.0718606,0.969624242 45.0718606,0.969624242 Z M13.1876303,34.1157333 L13.1944667,34.1302606 C12.1448,34.7723091 10.9122606,35.2183818 10.0001758,35.4542364 L10.0001758,35.5038 L9.96855758,35.4587939 C9.4099697,35.5812788 8.85622424,35.648503 8.32355758,35.648503 C6.0248303,35.648503 4.183,34.795097 2.69495152,33.0877152 C1.20661818,31.3800485 0.56969697,29.2069394 0.56969697,26.568103 L0.56969697,1.4852 L10.0001758,1.4852 L10.0001758,26.5683879 C10.0001758,29.2072242 10.6294061,31.3803333 12.1188788,33.0877152 C12.4569939,33.4756788 12.8110606,33.8146485 13.1876303,34.1157333 Z" id="Shape"></path>
                    </g>
                </g>
            </g>
        </g>
    </g>
</svg>