<?xml version="1.0" encoding="UTF-8" standalone="no"?>
<svg width="86px" height="23px" viewBox="0 0 86 23" version="1.1" xmlns="http://www.w3.org/2000/svg" xmlns:xlink="http://www.w3.org/1999/xlink">
    <!-- Generator: Sketch 42 (36781) - http://www.bohemiancoding.com/sketch -->
    <title>Group 6</title>
    <desc>Created with Sketch.</desc>
    <defs></defs>
    <g id="Page-1" stroke="none" stroke-width="1" fill="none" fill-rule="evenodd">
        <g id="Artboard" transform="translate(-791.000000, -1073.000000)" fill-rule="nonzero" fill="#DCE2E8">
            <g id="Group-6" transform="translate(791.000000, 1073.000000)">
                <path d="M0,1.34080717 L5.60251121,1.36556054 C5.60251121,1.36556054 5.70565022,1.64403587 5.95627803,2.39076233 C7.09080717,5.83973094 8.39139013,9.55479821 9.57439462,13.0047982 C9.57439462,13.0047982 9.87762332,12.1910314 9.97044843,11.9218386 C11.0864126,8.69668161 12.195157,5.4673991 13.2543946,2.2267713 C13.3388657,1.93329097 13.4507484,1.64840453 13.588565,1.37587444 L18.7279821,1.39237668 L18.7279821,17.6996861 L15.3058296,17.6996861 L15.3058296,5.52928251 C15.0995516,5.92946188 14.7952915,6.86390135 14.6869955,7.17950673 C13.5792825,10.4077578 12.4633184,13.6339462 11.4009865,16.874574 C11.1771749,17.5573543 11.1204484,17.7729148 11.1204484,17.7729148 C11.1204484,17.7729148 8.24390135,17.8017937 7.92932735,17.7729148 C7.92932735,17.7729148 7.75811659,17.2778475 7.19394619,15.6688789 C6.06766816,12.4664126 4.9444843,9.25466368 3.63255605,6.06766816 L3.63255605,17.8378924 L0,17.8378924 L0,1.34080717 Z" id="Shape"></path>
                <path d="M55.5186996,0 L55.5186996,6.26672646 C57.1142601,5.19511211 59.6669507,5.18376682 61.8101794,5.5509417 C63.2541256,5.79847534 64.0317937,6.67721973 64.1534978,8.13766816 C64.3254517,10.2095233 64.3275214,12.2919776 64.1596861,14.3641704 C64.0225112,16.0587444 63.025157,17.1582063 61.3811211,17.5903587 C59.1447637,18.1801214 56.7947517,18.1882873 54.5543498,17.6140807 C53.0258296,17.231435 52.1398655,16.2165471 51.9026457,14.6684305 C51.8113343,14.0462091 51.7658308,13.4181231 51.7665022,12.7892377 C51.7451868,8.52615845 51.7324664,4.26307922 51.7283408,1.46569354e-15 L55.5186996,1.46569354e-15 L55.5186996,0 Z M55.4619731,11.6227354 L55.4619731,12.5117937 C55.4619731,14.4363677 55.1608072,15.3718386 56.5861883,15.6544395 C57.082287,15.7575785 58.1869058,15.6544395 59.0378027,15.6544395 C60.0258744,15.6544395 60.532287,15.0737668 60.5405381,14.0939462 C60.5529148,12.4272197 60.5848879,10.7584305 60.5302242,9.09376682 C60.4889686,7.83547085 60.0991031,7.6209417 58.22713,7.59515695 C56.1849776,7.56730942 55.6208072,7.86744395 55.4836323,9.06798206 C55.4648572,9.28954565 55.4583152,9.51197604 55.4640359,9.73426009 L55.4640359,11.6237668 L55.4619731,11.6227354 Z" id="Shape"></path>
                <path d="M40.1272646,0 L40.1272646,6.26672646 C41.7228251,5.19511211 44.2755157,5.18376682 46.4187444,5.5509417 C47.8626906,5.79847534 48.6403587,6.67721973 48.7620628,8.13766816 C48.9340167,10.2095233 48.9360864,12.2919776 48.7682511,14.3641704 C48.6310762,16.0587444 47.633722,17.1582063 45.9896861,17.5903587 C43.7533288,18.1801214 41.4033167,18.1882873 39.1629148,17.6140807 C37.6343946,17.231435 36.7484305,16.2165471 36.5112108,14.6684305 C36.4198994,14.0462091 36.3743959,13.4181231 36.3750673,12.7892377 C36.3537519,8.52615845 36.3410314,4.26307922 36.3369058,4.39708061e-15 L40.1272646,4.39708061e-15 L40.1272646,0 Z M40.0705381,11.6227354 L40.0705381,12.5117937 C40.0705381,14.4363677 39.7693722,15.3718386 41.193722,15.6544395 C41.6898206,15.7575785 42.7944395,15.6544395 43.6453363,15.6544395 C44.6334081,15.6544395 45.1398206,15.0737668 45.1480717,14.0939462 C45.1604484,12.4272197 45.1924215,10.7584305 45.1377578,9.09376682 C45.0965022,7.83547085 44.7066368,7.6209417 42.8346637,7.59515695 C40.7925112,7.56730942 40.2283408,7.86744395 40.0911659,9.06798206 C40.0723909,9.28954565 40.0658488,9.51197604 40.0715695,9.73426009 L40.0715695,11.6237668 L40.0705381,11.6227354 Z" id="Shape"></path>
                <rect id="Rectangle-path" x="67.3363677" y="0" width="3.56757848" height="17.6749327"></rect>
                <path d="M79.7635874,13.739148 C80.4721525,11.2803139 81.1972197,8.82663677 81.8779372,6.35955157 C82.0408969,5.7706278 82.1130942,5.52721973 82.1130942,5.52721973 C83.0413453,5.52721973 85.0113004,5.54269058 85.9292377,5.54269058 L85.52287,6.61636771 C83.5632287,11.7877578 81.5850224,16.9498655 79.6439462,22.1274439 C79.3984753,22.793722 79.344843,23 79.344843,23 L75.5637668,23 C76.209417,21.4199103 76.7818386,19.9388341 77.4202691,18.4886996 C77.5512556,18.1916592 77.7204036,17.643991 77.7204036,17.643991 C77.7204036,17.643991 77.5430045,17.099417 77.4213004,16.8003139 C76.0804933,13.5380269 74.792287,10.2582063 73.4875785,6.9835426 C73.3256502,6.5761435 73.1781614,6.15843049 72.9564126,5.55506726 C74.2569955,5.55506726 75.7525112,5.5406278 76.9128251,5.56125561 C76.9128251,5.56125561 77.073722,6.03466368 77.1809865,6.37192825 C77.9675934,8.83282511 78.7514499,11.2944096 79.5325561,13.7566816 L79.7615247,13.7401794" id="Shape"></path>
                <path d="M29.6184305,17.7295964 L33.1303139,17.7295964 C33.1303139,15.2016592 33.138565,13.691704 33.1303139,11.8300448 C33.1230942,10.7563677 33.2148879,9.04529148 32.9766368,7.97573991 C32.7497309,6.95569507 32.2144395,6.17596413 31.1985202,5.87170404 C28.3281614,5.01049327 25.4299552,5.35600897 22.479148,5.60251121 C22.5224664,6.45340807 22.5936323,7.89838565 22.5936323,7.89838565 C24.2139462,7.78183857 25.7991928,7.57659193 27.3947534,7.65085202 C29.2130942,7.73542601 29.6297758,8.25112108 29.5049776,10.3139013 C27.9352018,10.3139013 26.1013901,10.2633632 24.5151121,10.3293722 C23.2599103,10.3819731 22.0944395,10.8027803 21.7994619,12.1972197 C21.4219731,13.9825561 21.6870404,16.4836771 22.7173991,17.3613901 C23.4930045,18.0225112 23.986009,18.0163229 26.201435,18.0163229 C27.8877578,18.0163229 28.3147534,18.1895964 29.6153363,17.3974888 L29.6184305,17.7295964 Z M29.5947085,14.7282511 C29.5947085,15.4130942 29.0583857,15.7400448 28.4601794,15.7400448 C27.9640807,15.7400448 27.1998206,15.7018834 26.3386099,15.7018834 C25.2515247,15.7018834 25.2907175,14.7272197 25.2824664,14.011435 C25.2731839,13.2719283 25.1855157,12.3704933 26.1612108,12.3704933 C27.2225112,12.3704933 28.5086547,12.3601794 29.5947085,12.3601794 C29.6256502,12.5664574 29.5885202,14.5859193 29.5947085,14.7323767 L29.5947085,14.7282511 Z" id="Shape"></path>
            </g>
        </g>
    </g>
</svg>