<svg width="48px" height="48px" viewBox="0 0 70 70" version="1.1" xmlns="http://www.w3.org/2000/svg" xmlns:xlink="http://www.w3.org/1999/xlink">
<!-- Generator: Sketch 42 (36781) - http://www.bohemiancoding.com/sketch -->
<desc>Created with Sketch.</desc>
<defs></defs>
<path d="M34.803,0.939 C15.735,0.939 0.277,16.397 0.277,35.464 C0.277,54.532 15.735,69.989 34.803,69.989 C53.868,69.989 69.326,54.532 69.326,35.464 C69.326,16.397 53.868,0.939 34.803,0.939 Z M56.602,41.984 C51.965,49.268 43.97,54.46 37.213,59.605 C34.698,61.517 29.504,56.468 31.81,54.712 C37.576,50.324 43.782,46.004 48.604,40.543 C52.268,36.395 55.858,29.282 52.38,23.968 C50.06,20.424 45.082,22.662 42.305,24.501 C38.642,26.924 35.24,30.639 34.024,34.936 C33.212,37.809 28.994,34.562 28.35,33.227 C27.012,30.452 24.776,27.532 22.182,25.833 C19.603,24.142 16.865,24.804 16.216,28.097 C15.536,31.539 16.853,35.39 18.082,38.56 C19.104,41.197 20.993,44.966 22.144,46.605 C22.839,47.602 23.795,49.649 22.169,50.366 C20.663,51.033 18.625,49.715 17.79,48.523 C15.1,44.679 13.011,40.291 11.541,35.844 C10.195,31.771 8.755,26.363 10.948,22.324 C13.636,17.377 19.757,18.553 23.66,21.313 C25.88,22.882 27.989,24.79 29.808,26.931 C35.032,17.937 47.768,11.848 55.685,20.746 C61.132,26.868 60.854,35.302 56.602,41.984 Z" id="Shape" stroke="none" fill="#DCE2E8" fill-rule="nonzero"></path>
</svg>
