<?xml version="1.0" encoding="UTF-8" standalone="no"?>
<svg width="32px" height="50px" viewBox="0 0 32 50" version="1.1" xmlns="http://www.w3.org/2000/svg" xmlns:xlink="http://www.w3.org/1999/xlink">
    <!-- Generator: Sketch 42 (36781) - http://www.bohemiancoding.com/sketch -->
    <title>logo</title>
    <desc>Created with Sketch.</desc>
    <defs></defs>
    <g id="Page-1" stroke="none" stroke-width="1" fill="none" fill-rule="evenodd">
        <g id="Artboard" transform="translate(-751.000000, -880.000000)" fill-rule="nonzero" fill="#DCE2E8">
            <g id="logo" transform="translate(751.000000, 880.000000)">
                <g id="layer1" transform="translate(0.000000, 0.034091)">
                    <g id="g4144" transform="translate(0.086659, 0.206023)">
                        <g id="g4140">
                            <g id="minio" transform="translate(0.156292, 0.052863)">
                                <path d="M16.1876952,25.698512 C19.0395612,26.6571095 22.4048918,27.7938797 24.9106174,28.6425442 C22.1495386,23.7683081 18.511157,20.801062 16.1876952,19.2682529 L16.1876952,25.698512 L16.1876952,25.698512 Z M16.1876952,47.2394319 L12.918668,49.2993121 L12.918668,28.0484515 C12.5670574,27.9303362 12.233857,27.8190473 11.9225375,27.7145846 C7.32893707,26.181109 4.40191309,23.5873314 3.6822812,20.4104703 C3.09715222,17.8330344 4.03867252,15.1190729 6.26730191,12.9643144 C8.30123307,10.998669 11.1463647,8.73524165 13.4321326,6.91582102 C14.2603183,6.25695907 14.9792607,5.69368795 15.5473125,5.21575677 C16.0791873,4.76991137 15.9187354,4.07691805 15.6783977,3.78743342 C15.2783136,3.30676713 14.6167165,3.3859703 14.1701816,3.71301323 C14.1462827,3.73144647 12.8702014,4.72622091 12.8702014,4.72622091 L10.8977067,2.06696159 C10.8977067,2.06696159 12.1867465,1.11519039 12.2359095,1.07832391 C14.1660675,-0.336346888 16.7270008,-0.0680306107 18.1943052,1.70236496 C18.9275896,2.58516091 19.2710179,3.70147522 19.1617745,4.84452003 C19.0532161,5.98335875 18.5076933,7.01226456 17.6262534,7.73867676 C17.0322525,8.22821491 16.3071734,8.8058281 15.4673807,9.47287238 C13.2361311,11.2487152 10.4593771,13.4580839 8.53951603,15.3151985 C7.13167151,16.6766151 6.53836019,18.2291215 6.86880246,19.6874621 C7.3255653,21.6995354 9.47358949,23.4432924 12.9186749,24.6012309 L12.9186749,13.9768348 C22.1803441,17.1079575 28.7229955,28.0483848 30.893613,34.1200921 C30.893613,34.1200921 21.2947671,30.8660045 16.1877021,29.146105 L16.1877021,47.2391814 L16.1876952,47.2394319 Z" id="path48"></path>
                                <path d="M0.40452,12.6550405 C0.350578637,12.6932768 0.27820863,12.6891787 0.236559159,12.6379633 C0.195594614,12.5860744 0.206535041,12.514387 0.2549924,12.4693221 C1.38836091,11.4315444 5.87621151,6.98347929 10.8984652,2.06626288 L12.8709369,4.7255222 C12.8709369,4.7255222 0.565024802,12.543101 0.404595847,12.6550336" id="path52"></path>
                            </g>
                        </g>
                    </g>
                </g>
            </g>
        </g>
    </g>
</svg>