<?xml version="1.0" encoding="UTF-8" standalone="no"?>
<svg width="50px" height="50px" viewBox="0 0 50 50" version="1.1" xmlns="http://www.w3.org/2000/svg" xmlns:xlink="http://www.w3.org/1999/xlink">
    <!-- Generator: Sketch 42 (36781) - http://www.bohemiancoding.com/sketch -->
    <title>Page 1</title>
    <desc>Created with Sketch.</desc>
    <defs>
        <polygon id="path-1" points="0 0.362052207 0 49.6268657 49.2025397 49.6268657 49.2025397 0.362052207 5.05691312e-21 0.362052207"></polygon>
    </defs>
    <g id="Page-1" stroke="none" stroke-width="1" fill="none" fill-rule="evenodd">
        <g id="Artboard" transform="translate(-671.000000, -1236.000000)">
            <g id="Page-1" transform="translate(671.000000, 1236.000000)">
                <g id="Group-3" transform="translate(0.000000, 0.011194)">
                    <mask id="mask-2" fill="white">
                        <use xlink:href="#path-1"></use>
                    </mask>
                    <g id="Clip-2"></g>
                    <path d="M24.7085075,10.7661567 C16.6999254,10.2210075 10.7689552,17.4773507 10.3297761,23.7146642 C9.67604478,32.9971269 17.4644776,38.9075746 23.7420896,39.2340672 C32.5357463,39.6911567 38.6073881,32.2680224 38.893209,25.6221269 C39.2648507,16.9866791 31.8525373,10.2639179 24.7085075,10.7661567 M24.6152239,49.6269776 C22.3361194,49.3754851 20.2204478,48.736306 18.5316418,47.0460075 C13.1734328,41.6822015 7.80141791,36.3318284 2.45141791,30.9594403 C-0.834402985,27.6601866 -0.813134328,22.2206343 2.49097015,18.9053358 C7.84320896,13.5351866 13.2032836,8.17287313 18.5745522,2.82175373 C21.8663433,-0.457350746 27.3372388,-0.458097015 30.6286567,2.82100746 C35.9999254,8.17175373 41.371194,13.5228731 46.7077612,18.9083209 C50.0014179,22.2322015 50.0413433,27.678097 46.7827612,30.9366791 C41.3775373,36.341903 35.9551493,41.7295896 30.5779104,47.1627985 C28.9174627,48.8407836 26.8428358,49.3236194 24.6152239,49.6269776" id="Fill-1" fill="#DCE2E8" mask="url(#mask-2)"></path>
                </g>
                <path d="M24.5910821,35.0448134 C29.8589925,35.0459328 34.740709,30.3343657 34.6664552,25.176903 C34.5828731,19.3295149 30.2470522,14.9515299 24.6224254,14.9388433 C18.9862313,14.9261567 14.5933209,19.3048881 14.5530224,25.1369776 C14.518694,30.0739179 18.9754104,35.0145896 24.5910821,35.0448134 M35.7892164,24.9045149 C36.3660821,30.724291 30.3560075,36.3306343 24.6138433,36.2496642 C18.5504104,36.1645896 13.1138433,30.6970522 13.3067537,24.551903 C13.468694,19.3839925 18.6101119,13.4175746 25.0601119,13.6690672 C30.3466791,13.8750373 36.2821269,19.0996642 35.7892164,24.9045149" id="Fill-4" fill="#DCE2E8"></path>
                <path d="M32.0578358,24.9175 C32.0585821,29.3936194 29.0708955,32.4186194 24.6488806,32.4189925 C20.0902985,32.4197388 17.1440299,29.4376493 17.1462687,24.8249627 C17.1481343,20.534291 20.2921642,17.5055597 24.7414179,17.5074254 C28.9623134,17.5096642 32.0570896,20.6439925 32.0578358,24.9175" id="Fill-6" fill="#DCE2E8"></path>
            </g>
        </g>
    </g>
</svg>