<?xml version="1.0" encoding="UTF-8" standalone="no"?>
<svg width="98px" height="22px" viewBox="0 0 98 22" version="1.1" xmlns="http://www.w3.org/2000/svg" xmlns:xlink="http://www.w3.org/1999/xlink">
    <!-- Generator: Sketch 42 (36781) - http://www.bohemiancoding.com/sketch -->
    <title>Shape</title>
    <desc>Created with Sketch.</desc>
    <defs></defs>
    <g id="Page-1" stroke="none" stroke-width="1" fill="none" fill-rule="evenodd">
        <g id="Artboard" transform="translate(-644.000000, -1044.000000)" fill-rule="nonzero" fill="#DCE2E8">
            <path d="M735.656387,1046.41341 L735.434294,1046.40784 L735.434294,1044.5763 L731.620557,1044.5763 L731.620557,1065.04592 L736.060123,1065.04592 L736.060123,1053.62272 C736.060123,1051.76623 736.308927,1049.64474 738.190229,1048.71623 C738.958014,1048.30814 740.186774,1047.97355 741.070566,1047.97355 L741.070566,1044 C738.919853,1044.07479 736.961468,1044.63155 735.656387,1046.41341 L735.656387,1046.41341 Z M717.685648,1062.12231 C713.615397,1062.12231 710.428633,1058.74269 710.428633,1054.88125 C710.428633,1050.87022 713.500611,1047.52776 717.723961,1047.52776 C722.062936,1047.52776 725.096677,1050.7591 725.096677,1054.88125 C725.096677,1058.85388 721.832448,1062.12231 717.685648,1062.12231 L717.685648,1062.12231 Z M724.815054,1047.23225 C723.214613,1045.04353 720.474705,1044 717.723961,1044 C711.273349,1044 706.435161,1048.67898 706.435161,1054.91819 C706.435161,1061.11954 711.35028,1065.65 717.723961,1065.65 C720.54492,1065.65 723.283301,1064.50496 724.815054,1062.18238 L724.815054,1065.04592 L729.171431,1065.04592 L729.171431,1044.5763 L724.815054,1044.5763 L724.815054,1047.23225 L724.815054,1047.23225 Z M694.877102,1047.52776 C697.718669,1047.52776 699.676825,1048.97587 700.867043,1051.38989 L705.282873,1051.38989 C704.092197,1046.97093 699.408024,1044 694.83856,1044 C688.541353,1044 683.895569,1048.79049 683.895569,1054.80645 C683.895569,1060.82265 688.464727,1065.65 694.800019,1065.65 C699.676825,1065.65 703.708533,1062.75333 705.282873,1058.33452 L700.828731,1058.33452 C699.715214,1060.71092 697.526494,1062.12231 694.800019,1062.12231 C690.538127,1062.12231 687.888812,1058.70575 687.888812,1054.80645 C687.888812,1050.7591 690.499433,1047.52776 694.877102,1047.52776 L694.877102,1047.52776 Z M675.946709,1052.39297 C674.487536,1051.94756 672.644777,1051.53856 672.644777,1049.71885 C672.644777,1048.34485 673.796454,1047.52776 675.140306,1047.52776 C676.753188,1047.52776 677.674606,1048.53046 677.866704,1050.01597 L681.8601,1050.01597 C681.783093,1046.45111 678.980145,1044 675.332176,1044 C671.838222,1044 668.651229,1046.41341 668.651229,1049.94132 C668.651229,1057.2204 678.365688,1054.99237 678.365688,1059.29967 C678.365688,1061.08206 677.060149,1062.12231 675.293939,1062.12231 C672.913425,1062.12231 672.335526,1060.49317 672.181511,1058.37688 L667.797812,1058.37688 C667.797812,1061.6073 669.342311,1064.09039 672.490915,1065.16712 C673.374249,1065.46485 674.29559,1065.65 675.217313,1065.65 C679.287259,1065.65 682.359313,1063.12486 682.359313,1059.0775 C682.359313,1055.10342 679.440968,1053.43238 675.946709,1052.39297 L675.946709,1052.39297 Z M655.480746,1062.12231 C651.333869,1062.12231 647.993243,1058.8171 647.993243,1054.80645 C647.993243,1050.79596 651.333869,1047.52776 655.480746,1047.52776 C659.627928,1047.52776 662.968249,1050.7591 662.968249,1054.76951 C662.968249,1058.77985 659.666012,1062.12231 655.480746,1062.12231 L655.480746,1062.12231 Z M655.480746,1044 C649.336866,1044 644,1048.64204 644,1054.69472 C644,1060.78548 649.222004,1065.65 655.480746,1065.65 C661.931663,1065.65 666.961797,1060.6365 666.961797,1054.76951 C666.961797,1048.67898 661.701251,1044 655.480746,1044 L655.480746,1044 Z" id="Shape"></path>
        </g>
    </g>
</svg>