<svg width="150px" height="48px" viewBox="73 223 226 48" version="1.1" xmlns="http://www.w3.org/2000/svg" xmlns:xlink="http://www.w3.org/1999/xlink">
<!-- Generator: Sketch 42 (36781) - http://www.bohemiancoding.com/sketch -->
<desc>Created with Sketch.</desc>
<defs></defs>
<g id="Ozmotik-Full" stroke="none" stroke-width="1" fill="none" fill-rule="evenodd" transform="translate(73.000000, 223.000000)">
<path d="M23.7243243,47.7989189 C23.586251,47.8119141 23.4472625,47.8119141 23.3091892,47.7989189 L23.3091892,47.7989189 C10.3273067,47.3869875 0.0594845653,36.6670941 0.206930233,23.6795146 C0.354375901,10.6919351 10.8629223,0.207912101 23.8508108,0.0908108108 C23.9231867,0.08676351 23.9957322,0.08676351 24.0681081,0.0908108108 L24.1427027,0.0908108108 C27.3807431,0.0291673886 30.3995479,1.72136585 32.0366248,4.51576833 C33.6737016,7.3101708 33.6737016,10.7709103 32.0366248,13.5653128 C30.3995479,16.3597152 27.3807431,18.0519137 24.1427027,17.9902703 C21.214655,17.9838957 18.7145132,20.1028269 18.2407694,22.9923027 C17.7670256,25.8817786 19.4596425,28.6881332 22.2364277,29.6170941 C25.0132128,30.5460549 28.0537935,29.3231701 29.4141424,26.7303039 C30.7744912,24.1374377 30.0527071,20.9406258 27.7102703,19.1837838 L27.7102703,19.1837838 C31.1903502,17.955699 33.7970266,15.0280686 34.614587,11.4293545 C35.4321474,7.83064036 34.346255,4.06412744 31.7383784,1.45297297 L31.5502703,1.27135135 C42.7029282,4.91549788 49.5536458,16.1244096 47.7101548,27.7116062 C45.8666638,39.2988028 35.8756296,47.8282382 24.1427027,47.8313514 C24.0025963,47.8318544 23.8626794,47.8210081 23.7243243,47.7989189 Z" id="Shape" fill="#DCE2E8"></path>
<path d="M69.3794595,9.5772973 C66.3632432,9.59243243 63.7686486,10.2162162 61.5956757,11.4486486 C59.4399815,12.6581348 57.6890499,14.4767572 56.5621622,16.6767568 C55.3837838,18.9340541 54.7881081,21.6075676 54.7751351,24.6972973 C54.7621622,27.787027 55.3578378,30.4540541 56.5621622,32.6983784 C57.6845361,34.9022898 59.4305519,36.7272599 61.5827027,37.9459459 C63.7621622,39.1805405 66.3567568,39.8075676 69.3664865,39.827027 C72.3718919,39.8075676 74.9610811,39.1805405 77.1340541,37.9459459 C79.2868355,36.7314309 81.0341529,34.9096637 82.1578378,32.7081081 C83.3340541,30.4508108 83.9297297,27.7837838 83.9448649,24.707027 C83.96,21.6302703 83.3643243,18.9567568 82.1578378,16.6864865 C81.0346624,14.4870598 79.2869812,12.6682979 77.1340541,11.4583784 C74.9697297,10.2216216 72.3848649,9.59459459 69.3794595,9.5772973 Z M69.3794595,34.9297297 C67.8977848,34.9686967 66.4401601,34.5496437 65.2054054,33.7297297 C63.9901178,32.8559208 63.0594272,31.6432027 62.5297297,30.2432432 C61.2714218,26.6530065 61.2714218,22.7415881 62.5297297,19.1513514 C63.0586993,17.7536242 63.989734,16.5438433 65.2054054,15.6745946 C66.4416485,14.8575664 67.8980066,14.437746 69.3794595,14.4713514 C70.851753,14.4381047 72.2986945,14.8581479 73.5243243,15.6745946 C74.7337327,16.5410605 75.6609992,17.7447021 76.1902703,19.1351351 C77.4442095,22.726114 77.4442095,26.6360482 76.1902703,30.227027 C75.6658044,31.6315739 74.7384042,32.8500558 73.5243243,33.7297297 C72.3002146,34.5491064 70.8519839,34.9683907 69.3794595,34.9297297 Z" id="Shape" fill="#DCE2E8" fill-rule="nonzero"></path>
<polygon id="Shape" fill="#DCE2E8" fill-rule="nonzero" points="105.476757 34.9686486 93.6389189 34.9686486 105.35027 21.1556757 105.35027 16.9427027 87.1945946 16.9427027 87.1945946 21.1978378 98.3156757 21.1978378 86.52 35.2248649 86.52 39.2237838 105.476757 39.2237838"></polygon>
<path d="M143.76,21.7913514 C143.600423,20.7735368 143.202586,19.8078367 142.598919,18.972973 C141.959943,18.1061146 141.11352,17.4135866 140.137297,16.9589189 C138.960767,16.4294364 137.681283,16.1680007 136.391351,16.1935135 C135.490941,16.1783608 134.592744,16.2874977 133.722162,16.5178378 C132.961644,16.7212053 132.24039,17.0500448 131.588108,17.4908108 L129.317838,20.52 C128.681931,18.7859212 127.32464,17.4132465 125.597838,16.7578378 C124.552438,16.364169 123.442349,16.170536 122.325405,16.187027 C121.417458,16.1707348 120.511609,16.2798732 119.633514,16.5113514 C118.868254,16.7184015 118.141175,17.0469012 117.48,17.4843243 L115.793514,20.2605405 L115.793514,16.7772973 L109.177297,16.7772973 L109.177297,39.2432432 L115.783784,39.2432432 L115.783784,27.5675676 C115.783784,25.2735135 116.092973,23.5621622 116.711351,22.4335135 C117.235074,21.3619263 118.34107,20.6995995 119.532973,20.7437838 C120.603243,20.7437838 121.433514,21.0518919 122.020541,21.6551351 C122.659542,22.376737 123.043583,23.288407 123.113514,24.2497297 C123.178378,24.8237838 123.220541,25.4043243 123.246486,25.9881081 C123.272432,26.5718919 123.285405,27.1297297 123.282162,27.6616216 L123.282162,39.2432432 L129.859459,39.2432432 L129.859459,27.5675676 C129.859459,25.2735135 130.176216,23.5621622 130.80973,22.4335135 C131.345078,21.3618188 132.456837,20.7013554 133.654054,20.7437838 C134.565164,20.6950987 135.455926,21.0248803 136.115676,21.6551351 C136.758402,22.3728939 137.138085,23.2877939 137.192432,24.2497297 C137.254054,24.8237838 137.296216,25.4043243 137.322162,25.9881081 C137.348108,26.5718919 137.361081,27.1297297 137.361081,27.6616216 L137.361081,39.2432432 L143.970811,39.2432432 L143.970811,25.9459459 C143.970811,25.0508108 143.956757,24.2724324 143.928649,23.6108108 C143.904291,23.0017923 143.847997,22.3944711 143.76,21.7913514 L143.76,21.7913514 Z" id="Shape" fill="#DCE2E8" fill-rule="nonzero"></path>
<path d="M159.139459,16.1935135 C156.646486,16.2064865 154.518919,16.707027 152.756757,17.6951351 C151.03435,18.6427921 149.628934,20.0764073 148.715676,21.8172973 C146.834665,25.7157756 146.834665,30.2593595 148.715676,34.1578378 C149.627225,35.9057553 151.032511,37.3471323 152.756757,38.3027027 C154.516757,39.2951351 156.644324,39.8 159.139459,39.8172973 C161.621622,39.7978378 163.743784,39.292973 165.505946,38.3027027 C167.232388,37.346805 168.640731,35.9057626 169.556757,34.1578378 C171.455108,30.2633426 171.455108,25.7117926 169.556757,21.8172973 C168.639023,20.0764037 167.230552,18.6431232 165.505946,17.6951351 C163.741622,16.7091892 161.619459,16.2086486 159.139459,16.1935135 Z M159.139459,35.2702703 C157.659223,35.3187636 156.257466,34.6050306 155.425946,33.3794595 C154.543784,32.1297297 154.096216,30.3308108 154.083243,27.9827027 C154.07027,25.6345946 154.517838,23.8421622 155.425946,22.6054054 C156.290844,21.4306009 157.662781,20.7369953 159.121622,20.7369953 C160.580462,20.7369953 161.952399,21.4306009 162.817297,22.6054054 C163.692973,23.8443243 164.138378,25.6367568 164.153514,27.9827027 C164.168649,30.3286486 163.721081,32.1275676 162.810811,33.3794595 C161.992841,34.5982777 160.606715,35.3121573 159.139459,35.2702703 Z" id="Shape" fill="#DCE2E8" fill-rule="nonzero"></path>
<path d="M182.429189,21.1589189 L187.187027,21.1589189 L187.187027,16.9427027 L182.429189,16.9427027 L182.429189,11.2994595 L175.816216,11.2994595 L175.816216,16.9427027 L172.404324,16.9427027 L172.404324,21.1589189 L175.816216,21.1589189 L175.816216,31.4594595 L175.816216,33.2140541 C175.816216,33.7589189 175.848649,34.3102703 175.890811,34.8713514 C175.922683,35.8301805 176.188808,36.7666277 176.665946,37.5989189 C177.16429,38.365685 177.910758,38.9381303 178.780541,39.2205405 C180.036947,39.6236932 181.353764,39.8058528 182.672432,39.7589189 C183.382703,39.7589189 184.076757,39.7264865 184.744865,39.6681081 C185.412973,39.6097297 186.087568,39.5286486 186.758919,39.4216216 L186.758919,35.2054054 C185.901018,35.2890302 185.036065,35.2661536 184.183784,35.1372973 C183.662967,35.0759187 183.192063,34.7980855 182.886486,34.3718919 C182.601833,33.8516635 182.451351,33.268683 182.448649,32.6756757 C182.425946,32.3772973 182.416216,32.0464865 182.40973,31.6864865 C182.403243,31.3264865 182.40973,30.9535135 182.40973,30.5675676 L182.429189,21.1589189 Z" id="Shape" fill="#DCE2E8" fill-rule="nonzero"></path>
<path d="M193.709189,8.10810811 C192.77882,8.07198164 191.870366,8.3960975 191.172973,9.01297297 C190.52442,9.64780622 190.171526,10.5253363 190.2,11.4324324 C190.167733,12.3516457 190.520374,13.2426524 191.172973,13.8908108 C191.867964,14.5124032 192.777516,14.8392373 193.709189,14.8021622 C194.647564,14.8383748 195.563877,14.5120326 196.268108,13.8908108 C196.926887,13.2467443 197.280655,12.3528918 197.241081,11.4324324 C197.275678,10.5242613 196.921823,9.64434314 196.268108,9.01297297 C195.561531,8.39641871 194.646282,8.07277563 193.709189,8.10810811 L193.709189,8.10810811 Z M197.043243,39.2432432 L197.043243,16.7772973 L190.43027,16.7772973 L190.43027,39.2432432 L197.043243,39.2432432 Z" id="Shape" fill="#DCE2E8" fill-rule="nonzero"></path>
<polygon id="Shape" fill="#DCE2E8" fill-rule="nonzero" points="210.392432 30.6324324 216.921081 39.227027 225.136216 39.227027 215.28 27.1394595 225.00973 16.7772973 217.174054 16.7772973 208.667027 26.6335135 208.667027 8.26054054 202.054054 8.26054054 202.054054 39.227027 208.667027 39.227027 208.667027 32.532973"></polygon>
</g>
</svg>
