<svg width="49px" height="49px" viewBox="0 0 49 49" version="1.1" xmlns="http://www.w3.org/2000/svg" xmlns:xlink="http://www.w3.org/1999/xlink">
<!-- Generator: Sketch 42 (36781) - http://www.bohemiancoding.com/sketch -->
<desc>Created with Sketch.</desc>
<defs></defs>
<path d="M24.2784705,48.2380172 C24.1396557,48.2510822 23.9999207,48.2510822 23.8611059,48.2380172 L23.8611059,48.2380172 C10.8095041,47.8238735 0.486538598,37.0464088 0.634776123,23.9890794 C0.783013649,10.9317501 11.3479963,0.391422578 24.4056363,0.273692394 C24.4784009,0.269623358 24.551336,0.269623358 24.6241006,0.273692394 L24.6990958,0.273692394 C27.9545262,0.211717916 30.9895434,1.91300434 32.6354122,4.72241417 C34.281281,7.531824 34.281281,11.0111494 32.6354122,13.8205592 C30.9895434,16.6299691 27.9545262,18.3312555 24.6990958,18.269281 C21.755323,18.2628722 19.2417542,20.3931831 18.7654661,23.2981769 C18.2891781,26.2031708 19.9908852,29.0245969 22.7825831,29.9585468 C25.574281,30.8924966 28.6311912,29.6630442 29.9988458,27.056253 C31.3665004,24.4494618 30.6408399,21.2354815 28.285823,19.4692043 L28.285823,19.4692043 C31.7845927,18.2345241 34.4052683,15.2911708 35.2272194,11.6731298 C36.0491706,8.05508874 34.9574464,4.26834774 32.3355641,1.64317006 L32.1464458,1.46057304 C43.3589991,5.12429048 50.2465086,16.3933998 48.3931171,28.0428254 C46.5397256,39.6922511 36.4950345,48.267494 24.6990958,48.2706238 C24.558237,48.2711296 24.4175686,48.260225 24.2784705,48.2380172 Z" id="Shape" stroke="none" fill="#DCE2E8" fill-rule="evenodd"></path>
</svg>
