<?xml version="1.0" encoding="UTF-8" standalone="no"?>
<svg width="34px" height="43px" viewBox="0 0 34 43" version="1.1" xmlns="http://www.w3.org/2000/svg" xmlns:xlink="http://www.w3.org/1999/xlink">
    <!-- Generator: Sketch 41.2 (35397) - http://www.bohemiancoding.com/sketch -->
    <title>Group 2</title>
    <desc>Created with Sketch.</desc>
    <defs></defs>
    <g id="Page-1" stroke="none" stroke-width="1" fill="none" fill-rule="evenodd">
        <g id="Artboard" transform="translate(-110.000000, -548.000000)">
            <g id="Group-2" transform="translate(110.000000, 548.000000)">
                <path d="M34,16.7924305 C34,29.2788291 20.4051487,43 16.9998503,43 C13.594552,43 0,29.2785334 0,16.7924305 C0,7.51803666 7.61103334,0 17.0001497,0 C26.389266,0 34,7.51803666 34,16.7924305 L34,16.7924305 Z" id="Shape" fill="#DCE2E8"></path>
                <path d="M17.0000037,7 C16.2077351,7 15.4375224,7.09489676 14.6983619,7.26930946 C16.0388339,7.92662188 16.9640178,9.30044837 16.9640178,10.8936692 C16.9640178,13.1241784 15.1560203,14.9324405 12.9251894,14.9324405 C10.7782287,14.9324405 9.02682182,13.2553506 8.89883997,11.1403427 C7.66224652,12.8436084 6.99745848,14.8950443 7.0000073,16.9998549 C7.0000073,22.5227302 11.4770502,27 17.0000037,27 C22.5229571,27 27,22.5227302 27,16.9998549 C27,11.4769796 22.5229571,7 17.0000037,7 L17.0000037,7 Z" id="Shape" fill="#3C4858"></path>
            </g>
        </g>
    </g>
</svg>