<svg width="54px" height="49px" viewBox="0 0 54 49" version="1.1" xmlns="http://www.w3.org/2000/svg" xmlns:xlink="http://www.w3.org/1999/xlink">
<!-- Generator: Sketch 42 (36781) - http://www.bohemiancoding.com/sketch -->
<desc>Created with Sketch.</desc>
<defs></defs>
<path d="M52.9361225,33.0632222 C52.9368398,33.0625049 52.9375572,33.0610702 52.9382746,33.0601137 C52.9215365,33.0436149 52.89906,33.0218557 52.8801699,33.003444 C52.8691708,32.9917274 52.8617581,32.9840758 52.8617581,32.9840758 L52.8615192,32.9852714 C52.0148201,32.1555491 49.3862502,29.809372 45.5006634,27.5870554 C46.9119085,27.5514275 47.9212047,27.2972504 48.3382178,26.6286903 C49.1641145,25.4173437 46.3366028,21.3263587 41.0476613,18.5273015 C40.0314309,17.9068032 38.7292213,17.3680815 38.7292213,17.3680815 C39.8707469,15.8650169 40.0161277,12.1922406 38.95064,8.17753271 C37.6431699,3.24989123 35.0052748,-0.326761601 33.0605685,0.189244336 C31.1161013,0.705967614 30.5991389,5.11975519 31.9082828,10.0471576 C32.1072248,10.7970161 32.3374907,11.5150725 32.5909505,12.1927189 C31.8638077,11.4127322 31.0175867,10.6322672 30.0716555,9.89006029 C26.059817,6.74309362 21.8012137,5.47507715 20.5594997,7.05800549 C19.3177857,8.64117289 21.5630571,12.4753505 25.5748957,15.6223172 C27.246535,16.9336131 28.9604972,17.9173241 30.4819735,18.5057813 C30.4614098,18.5313664 30.4434763,18.5538431 30.4308033,18.5710592 C29.4174422,19.9077011 28.1338835,21.197955 26.5942346,22.3877815 C21.6455511,26.2255458 15.6232502,27.8615572 11.4237079,27.032074 C10.7759507,26.3226256 9.84627912,25.874767 8.80996322,25.874767 C6.85354033,25.874767 5.26774269,27.4605646 5.26774269,29.4167484 C5.26774269,30.8236895 6.0898133,32.0352752 7.27820511,32.6067554 C4.24529533,37.5150288 2.11097234,42.0622414 0.509632323,45.9970856 L0.509393211,45.9963682 C0.506284741,46.0044983 0.501980708,46.0157363 0.501980708,46.0157363 C0.485242793,46.056864 0.467787544,46.0989476 0.451288743,46.1398363 C0.452006082,46.1412706 0.452962534,46.1436617 0.453918986,46.1448574 C0.219827321,46.7840067 -0.60343887,49.2000048 0.945535393,47.603686 L0.945057168,47.6020123 L0.945774506,47.6034471 C5.20605152,43.193007 14.503962,35.021558 28.2553529,32.1199213 C37.9420612,30.0996552 46.6438629,31.979801 52.5614323,34.3255 C52.5621497,34.3245435 52.5628671,34.3231088 52.5635844,34.3221524 C54.6916905,35.061729 53.2873797,33.4448466 52.9361225,33.0632222 L52.9361225,33.0632222 Z M42.0748909,23.9812308 C41.2420602,23.9812308 40.5663268,23.3062147 40.5663268,22.4733839 C40.5663268,21.6410315 41.2420602,20.9664936 42.0748909,20.9664936 C42.9065261,20.9664936 43.5817813,21.6412706 43.5817813,22.4733839 C43.5817813,23.3062147 42.9065261,23.9812308 42.0748909,23.9812308 L42.0748909,23.9812308 Z" id="path-1" stroke="none" fill="#DCE2E8" fill-rule="nonzero"></path>
</svg>
