<?xml version="1.0" encoding="UTF-8" standalone="no"?>
<svg width="40px" height="56px" viewBox="0 0 40 56" version="1.1" xmlns="http://www.w3.org/2000/svg" xmlns:xlink="http://www.w3.org/1999/xlink">
    <!-- Generator: Sketch 41.2 (35397) - http://www.bohemiancoding.com/sketch -->
    <title>Group</title>
    <desc>Created with Sketch.</desc>
    <defs></defs>
    <g id="Page-1" stroke="none" stroke-width="1" fill="none" fill-rule="evenodd">
        <g id="Artboard" transform="translate(-352.000000, -536.000000)">
            <g id="Group" transform="translate(352.000000, 536.000000)">
                <path d="M33.3334095,1.06666667 C34.9534224,1.06666667 36.2666667,2.3799109 36.2666667,3.99992387 C36.2666667,5.61993686 34.9534224,6.93333333 33.3334095,6.93333333 C31.7132442,6.93333333 30.4,5.61993686 30.4,3.99992387 C30.4,2.3799109 31.7132442,1.06666667 33.3334095,1.06666667" id="Shape"></path>
                <path d="M19.7333333,10.6666667 C29.158989,10.6666667 36.8,15.6809604 36.8,21.8665891 C36.8,28.052218 29.158989,33.0666667 19.7333333,33.0666667 C10.3076777,33.0666667 2.66666667,28.052218 2.66666667,21.8665891 C2.66666667,15.6809604 10.3076777,10.6666667 19.7333333,10.6666667" id="Shape"></path>
                <path d="M19.7333334,33.3087584 C16.8428442,33.3087584 14.1208602,32.8348681 11.7349617,32 C11.3893179,33.9352205 11.2,36.0292338 11.2,38.2157855 C11.2,46.5472027 13.9444924,53.5210259 17.6485242,55.4666667 L21.8182966,55.4666667 C25.5207868,53.5210259 28.2666667,46.5472027 28.2666667,38.2157855 C28.2666667,36.0292338 28.0773488,33.935065 27.7317049,32 C25.3458065,32.8348681 22.6238225,33.3087584 19.7333334,33.3087584" id="Shape"></path>
                <path d="M27.7296075,51.2 C27.1049143,51.2 26.5123562,51.3083408 25.9778586,51.5012702 C25.2438752,52.8477917 24.3957891,53.9403943 23.4666667,54.712112 C23.4783098,54.9738463 23.532334,55.2239341 23.6121283,55.4666667 L31.8497258,55.4666667 C31.9368165,55.1935927 32,54.9122437 32,54.6141915 C32,52.7304098 30.0886624,51.2 27.7296075,51.2" id="Shape"></path>
                <path d="M13.9614523,51.4792036 C13.4425722,51.2999126 12.8707325,51.2 12.2693845,51.2 C9.91073982,51.2 8,52.7304098 8,54.6141915 C8,54.9122437 8.06181212,55.1935927 8.15173477,55.4666667 L16.3885873,55.4666667 C16.46329,55.2358869 16.5174921,54.9986711 16.5333333,54.7510349 C15.58006,53.9731877 14.7108077,52.858825 13.9614523,51.4792036" id="Shape"></path>
                <path d="M11.4938808,37.859837 C11.4938808,36.0062795 11.6279793,34.2191256 11.8733006,32.5333333 C9.31927666,33.5129478 7.46666667,36.4262511 7.46666667,39.8683897 C7.46666667,43.7146973 9.77994439,46.9012775 12.8,47.4666667 C11.9723757,44.6777107 11.4938808,41.3876939 11.4938808,37.859837" id="Shape"></path>
                <path d="M28.1167422,32.5333333 C28.3614149,34.2218676 28.4949862,36.0126697 28.4949862,37.8703759 C28.4949862,41.394793 28.0206208,44.6815409 27.2,47.4666667 C30.2154969,46.9328668 32.5333333,43.7380326 32.5333333,39.8747935 C32.5333333,36.4134577 30.6726977,33.4886297 28.1167422,32.5333333" id="Shape"></path>
                <path d="M7.46666667,14.1821721 C6.80093124,13.3371301 5.8071544,12.8 4.69620932,12.8 C2.69157791,12.8 1.06666667,14.5467502 1.06666667,16.7014957 C1.06666667,18.2919754 1.95248238,19.659143 3.22232483,20.2666667 C3.74401312,17.932186 5.26437881,15.8302755 7.46666667,14.1821721" id="Shape"></path>
                <path d="M35.5701043,12.8 C34.3421953,12.8 33.2475676,13.3643162 32.5333333,14.2452889 C34.8612906,15.8830087 36.4608246,17.9619269 36.9977757,20.2666667 C38.443303,19.7010843 39.4666667,18.3035867 39.4666667,16.6679241 C39.4666667,14.5317197 37.7220539,12.8 35.5701043,12.8" id="Shape"></path>
                <path d="M40,16.283909 C40,13.8795369 38.0348436,11.9234086 35.6195312,11.9234086 C34.4628125,11.9234086 33.3728125,12.3714968 32.5576562,13.1668885 C32.5231249,13.1440252 32.489375,13.1208509 32.4543749,13.0981432 C29.3101562,11.0553835 25.2046874,9.87240564 20.8121874,9.73056029 L23.328125,1.81412744 L30.1359375,3.40926556 C30.1340624,3.4577916 30.1323437,3.50647318 30.1323437,3.55562135 C30.1323437,5.51626012 31.7346874,7.1112427 33.704375,7.1112427 C35.6740624,7.1112427 37.2764061,5.51626012 37.2764061,3.55562135 C37.2764061,1.59498259 35.6740624,0 33.704375,0 C32.1737499,0 30.8654687,0.963366373 30.3579686,2.31276363 L23.0784374,0.607197663 C22.7932813,0.540474354 22.5029687,0.703783152 22.4143749,0.982652364 L19.638125,9.71827324 C15.0140625,9.7644663 10.6698437,10.9600422 7.37874999,13.0981432 C7.37687499,13.0993875 7.37515624,13.1006317 7.37343749,13.1017205 C6.56546874,12.3480115 5.49999999,11.9234086 4.38046873,11.9234086 C1.965,11.9234086 0,13.8795369 0,16.283909 C0,17.8496516 0.847343748,19.2835027 2.19062499,20.0568088 C2.1028125,20.5355369 2.05781249,21.021264 2.05781249,21.5119679 C2.05781249,24.7086211 3.94749998,27.6967055 7.37874999,29.9257927 C8.52781248,30.6721917 9.80531249,31.303808 11.178125,31.811776 C11.16375,31.898563 11.1479687,31.9844168 11.1342187,32.0713593 C8.47953123,33.2404947 6.71781248,36.2231356 6.71781248,39.6132706 C6.71781248,41.5298938 7.29484374,43.3860149 8.34249999,44.8396187 C9.32468748,46.2023918 10.66,47.1351183 12.130625,47.4951754 C12.418125,48.4036389 12.7446875,49.2599991 13.1067187,50.0532132 C12.8801562,50.0266173 12.650625,50.0126194 12.4185937,50.0126194 C9.74046872,50.0126194 7.56156248,51.8178815 7.56156248,54.0368592 C7.56156248,54.3639434 7.62062498,54.7034702 7.74171874,55.074881 C7.81687499,55.3052241 8.03249998,55.4610675 8.27578124,55.4610675 L17.6553125,55.4610675 L17.6660938,55.4666667 L22.1671874,55.4666667 L22.1778125,55.4610675 L31.6096874,55.4610675 C31.8548437,55.4610675 32.0717186,55.3027357 32.1453125,55.069904 C32.2660937,54.6876059 32.3223437,54.3592774 32.3223437,54.0368592 C32.3223437,51.8178815 30.1423437,50.0126194 27.4628125,50.0126194 C27.2132813,50.0126194 26.9665625,50.0283281 26.7234374,50.0591235 C27.0848437,49.2679312 27.4110938,48.413904 27.6982812,47.5079289 C29.1823438,47.1610923 30.5314061,46.2333428 31.5257812,44.8663703 C32.5864062,43.4084116 33.1704686,41.5429585 33.1704686,39.6132706 C33.1704686,36.1884518 31.3851563,33.1961681 28.6946875,32.0461632 C28.6821875,31.9676194 28.6681249,31.8900088 28.6551562,31.811776 C30.0279687,31.303808 31.3054687,30.6723473 32.4543749,29.9257927 C35.885625,27.6967055 37.7753124,24.7086211 37.7753124,21.5119679 C37.7753124,21.0509707 37.7346874,20.5944837 37.6571874,20.1439069 C39.0943749,19.3959526 40,17.9275733 40,16.283909 L40,16.283909 Z M33.704375,1.11796537 C35.0546874,1.11796537 36.1532811,2.21135665 36.1532811,3.55562135 C36.1532811,4.89988606 35.0546874,5.99343287 33.704375,5.99343287 C32.3540624,5.99343287 31.2553124,4.89988606 31.2553124,3.55562135 C31.2553124,2.21135665 32.3540624,1.11796537 33.704375,1.11796537 L33.704375,1.11796537 Z M1.123125,16.283909 C1.123125,14.495911 2.584375,13.041374 4.38046873,13.041374 C5.13359374,13.041374 5.8540625,13.2997129 6.42953124,13.764132 C4.46656249,15.2503976 3.12312499,17.0142882 2.48453125,18.9200241 C1.6415625,18.31827 1.123125,17.3407503 1.123125,16.283909 L1.123125,16.283909 Z M18.9360937,33.289954 C19.0754687,33.294931 19.215,33.2986638 19.3549999,33.3014634 C19.3821874,33.3020855 19.4092187,33.3030187 19.4364062,33.3034853 C19.5960937,33.3062848 19.7560937,33.3078402 19.9165625,33.3078402 C20.076875,33.3078402 20.2368749,33.3062848 20.3967188,33.3034853 C20.4239063,33.3030187 20.45125,33.3020855 20.4785938,33.3014634 C20.6182812,33.2986638 20.7578124,33.294931 20.8968749,33.289954 C20.9092187,33.2894875 20.9214061,33.2890208 20.9337499,33.2885542 C23.2654687,33.2030115 25.5142187,32.823824 27.5790625,32.1780544 L27.6309375,32.5270686 C27.7540625,33.3565219 27.8470313,34.2012171 27.9093749,35.0550888 C27.9103125,35.0676869 27.9109374,35.080285 27.911875,35.0928832 C27.9260937,35.2908757 27.9387499,35.4893348 27.9496874,35.6881049 C27.9520312,35.7307207 27.95375,35.7733364 27.9557811,35.8159522 C27.9646875,35.9875042 27.9728124,36.1590563 27.9790625,36.3310749 C27.9823437,36.4220612 27.9843749,36.5136697 27.9870312,36.6049671 C27.990625,36.7318814 27.995,36.8586401 27.9973436,36.9858654 C28.0014062,37.208743 28.0035937,37.4322429 28.0035937,37.6562091 C28.0035937,37.8811087 28.0010937,38.1049195 27.9970312,38.3282637 C27.9951562,38.4301374 27.9920313,38.5318554 27.9892187,38.6335734 C27.9864062,38.7457122 27.9831249,38.8576953 27.9792187,38.9693674 C27.9740624,39.1104351 27.968125,39.2513473 27.9614062,39.3917928 C27.9587499,39.4494953 27.9557811,39.5070422 27.9528124,39.564589 C27.815625,42.1542 27.4006249,44.6461368 26.7315625,46.8616928 C26.5632811,47.4163205 26.3804687,47.9563284 26.1801562,48.476739 C25.8754687,49.2690199 25.5389062,50.0003322 25.1765624,50.6641436 C25.1585937,50.6972721 25.1403124,50.7299337 25.1221875,50.762751 C25.095,50.8115883 25.0678125,50.8605808 25.0403124,50.9087959 C25.0303124,50.9263709 25.0201561,50.9437905 25.0099999,50.9613658 C24.4309375,51.9673478 23.7903125,52.8044222 23.1096874,53.4428818 C23.1004687,53.4515916 23.0910937,53.4599903 23.081875,53.4685446 C23.0420312,53.5055613 23.0020312,53.5422669 22.9618749,53.5778836 C22.9184375,53.6164556 22.8746874,53.6540945 22.8307812,53.6911112 C22.5264063,53.9485169 22.2146874,54.1668841 21.8978124,54.343102 L17.9353124,54.343102 C17.6354687,54.1763716 17.3404688,53.9720023 17.0517187,53.7327938 C17.015625,53.7029316 16.9798437,53.6721361 16.9440624,53.6411853 C16.9245313,53.6242323 16.9048437,53.6079013 16.8854687,53.5906373 C16.8617188,53.5697961 16.8382812,53.5480216 16.8146875,53.5267137 C16.0979687,52.876589 15.42375,52.0076308 14.8175,50.9526558 C14.8092187,50.9380358 14.8007812,50.9237269 14.7923437,50.9091069 C14.7621875,50.8560704 14.7323437,50.8024118 14.7025,50.7485977 C14.6865625,50.7198241 14.670625,50.6910507 14.6548437,50.6619663 C14.2928125,49.9987769 13.956875,49.2680867 13.6525,48.4768945 C13.4515625,47.9544619 13.268125,47.4124323 13.099375,46.8556271 C12.4315625,44.6420929 12.0173437,42.1517114 11.8804687,39.5641225 C11.8775,39.5059534 11.874375,39.44794 11.8717187,39.3896154 C11.865,39.2499475 11.8590625,39.109813 11.8540625,38.9695229 C11.85,38.8573842 11.846875,38.7449344 11.8439062,38.6324846 C11.84125,38.5309221 11.838125,38.4295152 11.83625,38.3277971 C11.8321875,38.104764 11.8295312,37.8809532 11.8295312,37.6562091 C11.8295312,37.4327094 11.831875,37.2098318 11.8359375,36.9874207 C11.8382812,36.863306 11.8423437,36.7396579 11.8459375,36.6156989 C11.8485937,36.5217574 11.850625,36.4276604 11.8540625,36.3338745 C11.8601562,36.1663663 11.868125,35.9991693 11.8767187,35.8319722 C11.8789062,35.785779 11.8807812,35.7394305 11.8832812,35.6932373 C11.8939062,35.4989776 11.90625,35.3051847 11.92,35.1118581 C11.92125,35.0955272 11.9221875,35.0790408 11.9234375,35.0627099 C11.9851562,34.2133487 12.0771875,33.3730082 12.1992187,32.5477544 L12.2435937,32.2481994 C12.2471875,32.2248696 12.2503125,32.2013842 12.2540625,32.1780544 C14.3190625,32.823824 16.568125,33.2030115 18.9001562,33.2885542 C18.9120312,33.2890208 18.9240625,33.2894875 18.9360937,33.289954 L18.9360937,33.289954 Z M11.749375,46.200681 C9.46718748,45.2811747 7.84093749,42.625618 7.84093749,39.6132706 C7.84093749,36.9524259 9.05796874,34.5917585 10.95,33.4279111 C10.9309375,33.5923086 10.9129687,33.7571727 10.8960937,33.9226589 C10.8928125,33.9539209 10.89,33.9851829 10.886875,34.0164449 C10.8603125,34.2825604 10.836875,34.5499202 10.81625,34.8183689 C10.8101562,34.8972237 10.8039062,34.9760785 10.7982812,35.0550888 C10.7896875,35.1773371 10.7817187,35.2995855 10.774375,35.4223004 C10.7659375,35.5622793 10.7585937,35.7024138 10.7517187,35.8428593 C10.7467187,35.9464438 10.7415625,36.0498727 10.7375,36.1537682 C10.7295312,36.3484944 10.7234375,36.5436874 10.7185937,36.7390358 C10.716875,36.8088698 10.7153125,36.8787038 10.7140625,36.9486932 C10.7095312,37.1843245 10.7064062,37.4201113 10.7064062,37.6562091 C10.7064062,37.8224731 10.7079687,37.9881148 10.7101562,38.1536011 C10.7107812,38.2005718 10.7115625,38.2475426 10.7125,38.2945133 C10.7146875,38.4273378 10.7176562,38.5598511 10.7214062,38.6920535 C10.7223437,38.7292257 10.723125,38.7663979 10.7242187,38.8035701 C10.7290625,38.9577025 10.7348437,39.1113683 10.7415625,39.264723 C10.744375,39.3288023 10.7475,39.392726 10.750625,39.4568053 C10.7551562,39.5495025 10.76,39.6418885 10.7653125,39.7342747 C10.7696875,39.8117297 10.7739062,39.8891848 10.77875,39.9664843 C10.7823437,40.0232536 10.7864062,40.0798672 10.7903125,40.1366365 C10.8028125,40.3246749 10.816875,40.5122467 10.8323437,40.6991964 C10.8339062,40.7178602 10.8354687,40.7366796 10.8370312,40.7553435 C10.9975,42.65688 11.3040625,44.495115 11.749375,46.200681 L11.749375,46.200681 Z M15.366875,54.343102 L8.71156248,54.343102 C8.69343749,54.2368736 8.68468749,54.1357776 8.68468749,54.0368592 C8.68468749,52.4342555 10.3596875,51.1305847 12.4185937,51.1305847 C12.8725,51.1305847 13.3142187,51.1935752 13.7346875,51.3180009 C14.381875,52.4818484 15.1045312,53.4435038 15.888125,54.1922359 C15.9071874,54.2104332 15.9262499,54.2287858 15.9453125,54.2468276 C15.9790624,54.2785562 16.0121874,54.3123067 16.0462499,54.343102 L15.366875,54.343102 L15.366875,54.343102 Z M31.1993749,54.0368592 C31.1993749,54.1340668 31.1903125,54.2350072 31.171875,54.343102 L23.7865624,54.343102 C23.8198436,54.3130843 23.8521875,54.279956 23.8851562,54.2491607 C23.9064062,54.2289415 23.9276563,54.2085667 23.9489061,54.188192 C24.7265625,53.4439705 25.4443749,52.4894694 26.0875,51.3365093 C26.5257812,51.1997966 26.9873437,51.1305847 27.4628125,51.1305847 C29.5231249,51.1305847 31.1993749,52.4342555 31.1993749,54.0368592 L31.1993749,54.0368592 Z M28.8793749,33.3966492 C30.7828125,34.5502314 32.0473436,36.9642465 32.0473436,39.6132706 C32.0473436,42.6615461 30.3940625,45.3293896 28.0773437,46.2241663 C28.5253124,44.5148676 28.83375,42.6719667 28.9951562,40.7656087 C28.9975,40.7394792 28.9996874,40.7131943 29.0017187,40.6869093 C29.0146875,40.5313771 29.0264062,40.3753784 29.0373438,40.2189131 C29.0432812,40.1350812 29.0492187,40.0512493 29.0545311,39.9669508 C29.0590625,39.8926065 29.0632813,39.8179511 29.0675,39.7434512 C29.0728124,39.6482654 29.0778125,39.5527686 29.0824999,39.4569608 C29.0856249,39.3942813 29.0887499,39.3317574 29.0914062,39.2689224 C29.098125,39.11479 29.1040624,38.960191 29.1089061,38.8051254 C29.1099999,38.7695085 29.1107812,38.7335806 29.1117186,38.6978082 C29.1154687,38.5638949 29.1184374,38.4296707 29.1207812,38.2951354 C29.1215624,38.2484757 29.1223437,38.2018161 29.1229687,38.1550009 C29.1251562,37.9892036 29.1267187,37.8229396 29.1267187,37.6562091 C29.1267187,37.4196447 29.12375,37.1833913 29.1192188,36.947449 C29.1178125,36.8774595 29.11625,36.80747 29.1146874,36.737636 C29.1098437,36.5452427 29.10375,36.353316 29.0960936,36.1615447 C29.0920313,36.0601378 29.0871874,35.9591975 29.0823437,35.8581015 C29.0751562,35.7089461 29.0671874,35.5599463 29.0582812,35.4112576 C29.0509374,35.2910312 29.043125,35.1711159 29.0346875,35.0513561 C29.0284374,34.9636358 29.0215624,34.8760713 29.0146875,34.7885067 C28.994375,34.5258128 28.9710936,34.2642076 28.9451562,34.0038468 C28.9415625,33.9680744 28.9382811,33.932302 28.9345312,33.8966851 C28.9176562,33.7318209 28.8993749,33.5675789 28.8801562,33.4036481 C28.88,33.4013151 28.8796875,33.398982 28.8793749,33.3966492 L28.8793749,33.3966492 Z M28.2164062,30.7816864 L27.8389062,30.9120224 C25.7323437,31.6394465 23.384375,32.0682487 20.9903124,32.1673226 C20.9656249,32.1684114 20.9409374,32.1695001 20.91625,32.1704334 C20.7810938,32.1755658 20.6457812,32.1794542 20.5103125,32.1825648 C20.4749999,32.1833425 20.4398438,32.1844312 20.404375,32.1850534 C20.241875,32.188164 20.0792187,32.1898748 19.9165625,32.1898748 C19.7539062,32.1898748 19.59125,32.188164 19.42875,32.1850534 C19.3934375,32.1844312 19.3584375,32.1833425 19.323125,32.1825648 C19.1874999,32.1794542 19.0520312,32.1755658 18.9165625,32.1704334 C18.8921875,32.1695001 18.8678125,32.1684114 18.8434375,32.1673226 C16.4493749,32.0682487 14.10125,31.639602 11.9942187,30.9120224 L11.61875,30.782464 C6.58171873,28.9398743 3.18093749,25.4746171 3.18093749,21.5119679 C3.18093749,20.9861137 3.24187499,20.4692802 3.3575,19.9634896 L3.37578124,19.888212 C3.88031249,17.7973927 5.34671874,15.860706 7.61624999,14.2878089 L7.97984373,14.0358468 C11.0184375,12.0610546 15.246875,10.8339056 19.9165625,10.8339056 C24.6390625,10.8339056 28.9103125,12.0888949 31.9559375,14.1028812 L32.3185936,14.3587316 C34.5523437,15.9347393 35.9885936,17.8670711 36.4718749,19.9468476 L36.475,19.960379 C36.5910937,20.4671028 36.6521874,20.9850249 36.6521874,21.5119679 C36.6521874,25.4741505 33.2523438,28.9389411 28.2164062,30.7816864 L28.2164062,30.7816864 Z M37.37875,19.0139656 C36.7624999,17.1006085 35.4374999,15.3275416 33.4898437,13.8306998 C34.0770313,13.3238204 34.8275,13.041374 35.6195312,13.041374 C37.4156249,13.041374 38.8768749,14.495911 38.8768749,16.283909 C38.8768749,17.4102731 38.305,18.4262094 37.37875,19.0139656 L37.37875,19.0139656 Z" id="Shape" fill="#DCE2E8"></path>
                <path d="M14.1553983,16.5333333 C12.5482513,16.5333333 11.2,17.8815846 11.2,19.4885681 C11.2,21.0957152 12.5482513,22.4 14.1553983,22.4 C15.7623818,22.4 17.0666667,21.0957152 17.0666667,19.4885681 C17.0666667,17.8815846 15.7623818,16.5333333 14.1553983,16.5333333" id="Shape" fill="#DCE2E8"></path>
                <path d="M26.4238482,16.5333333 C24.8168691,16.5333333 23.4666667,17.8807674 23.4666667,19.4885681 C23.4666667,21.0965323 24.8168691,22.4 26.4238482,22.4 C28.0308274,22.4 29.3333333,21.0965323 29.3333333,19.4885681 C29.3333333,17.8807674 28.0308274,16.5333333 26.4238482,16.5333333" id="Shape" fill="#DCE2E8"></path>
                <path d="M25.9724707,26.8170318 C25.7578597,26.616664 25.4100156,26.6165212 25.1949459,26.8167464 C24.118832,27.8198705 22.3390758,28.307518 19.754108,28.307518 C19.7467657,28.307518 19.7398822,28.3092307 19.7325397,28.3095161 C19.7253503,28.3092307 19.7184669,28.307518 19.7111245,28.307518 C17.1261568,28.307518 15.3468594,27.8198705 14.2718163,26.8168891 C14.0572054,26.616664 13.7092084,26.616664 13.4942915,26.8168891 C13.2796806,27.0171143 13.2796806,27.3419273 13.4942915,27.5421526 C14.7860871,28.7474998 16.8196135,29.3333333 19.7111245,29.3333333 C19.7184669,29.3333333 19.7253503,29.3314781 19.7325397,29.3313354 C19.7398822,29.3314781 19.7467657,29.3333333 19.754108,29.3333333 C22.6453131,29.3333333 24.6791455,28.7474998 25.9721648,27.5424379 C26.1869287,27.3422127 26.1870816,27.0173997 25.9724707,26.8170318" id="Shape" fill="#DCE2E8"></path>
            </g>
        </g>
    </g>
</svg>