<?xml version="1.0" encoding="UTF-8" standalone="no"?>
<svg width="47px" height="50px" viewBox="0 0 47 50" version="1.1" xmlns="http://www.w3.org/2000/svg" xmlns:xlink="http://www.w3.org/1999/xlink">
    <!-- Generator: Sketch 42 (36781) - http://www.bohemiancoding.com/sketch -->
    <title>Page 1</title>
    <desc>Created with Sketch.</desc>
    <defs></defs>
    <g id="Page-1" stroke="none" stroke-width="1" fill="none" fill-rule="evenodd">
        <g id="Artboard" transform="translate(-210.000000, -1211.000000)" fill="#DCE2E8">
            <g id="Page-1" transform="translate(210.000000, 1211.000000)">
                <path d="M39.0961381,28.0723677 C39.0696611,28.070331 39.0431841,28.0682943 39.0167071,28.0662577 C39.0167071,27.2760207 39.0458997,26.4841996 39.0022239,25.6962256 C38.9852515,25.3893638 38.8922425,24.9437806 38.6811053,24.8186371 C38.178042,24.5203747 37.518606,24.1094153 37.0413409,24.2268646 C36.1931713,24.4357388 35.6127137,25.1304775 35.6138452,26.125289 C35.6156556,27.6681973 35.6482427,29.2124634 35.5891786,30.7531087 C35.5751481,31.1167715 35.3411546,31.5994678 35.051039,31.8054002 C32.4660227,33.6384241 29.8561134,35.4372768 27.2287791,37.2094263 C26.4733922,37.7188259 26.1262492,38.4409468 26.3984871,39.2042542 C26.5716061,39.6894398 27.2563876,40.3162887 27.6994815,40.3070104 C28.411419,40.2918484 29.1810627,39.9062344 29.8070065,39.4955013 C32.2087204,37.9195533 34.5726424,36.2854464 36.9293228,34.6420613 C37.7374374,34.0785761 38.6885731,33.5832071 38.7849766,32.4227445 C38.9055941,30.9739767 38.9938508,29.5227196 39.0961381,28.0723677 M34.3748568,16.5098338 C33.6163017,16.9590378 32.9887739,17.338768 32.3535519,17.7053728 C30.4426811,18.808129 28.5159692,19.8839557 26.6225234,21.0152256 C25.7456138,21.5391084 25.4036756,22.5517975 25.7793324,23.1901877 C26.3371601,24.1383816 27.2106752,24.3891211 28.2835599,23.808211 C29.9061255,22.9292647 31.4963304,21.9908017 33.1012446,21.0794946 C34.0360869,20.5485966 34.9729657,20.0208667 36.0668963,19.4026171 C36.0668963,20.1152335 36.0653122,20.5644375 36.0671226,21.0136415 C36.0721012,22.2757124 36.4817028,22.7486779 37.5622818,22.7425678 C38.5722553,22.736684 39.2332754,22.0403612 39.2418748,20.9566141 C39.251832,19.675534 39.0782604,18.3629984 39.3034282,17.121747 C39.5261067,15.8927158 39.0911595,15.2176651 38.120562,14.7136967 C36.9435796,14.1026887 35.7283526,13.562965 34.5651745,12.9275167 C33.428926,12.3065516 32.5719307,12.433958 32.0059563,13.4127023 C31.5354801,14.2262481 31.8706293,15.1244298 32.8873919,15.7198231 C33.3282228,15.9780306 33.789647,16.2007091 34.3748568,16.5098338 M12.0993164,16.5670875 C12.2097504,16.4301765 12.2448268,16.3475773 12.3061539,16.316348 C15.7918413,14.5299417 19.277076,12.7426302 22.774531,10.9795327 C22.9861208,10.8727195 23.3407317,10.873851 23.5552634,10.9772698 C25.0495173,11.6982592 26.5494287,12.4144963 27.9972914,13.2223846 C29.0948427,13.8345241 30.0367002,13.8044263 30.5524362,12.9745869 C31.1487347,12.0153044 30.7622156,10.9130008 29.6313982,10.3298276 C27.7689554,9.36941358 25.9314055,8.35491404 24.0311707,7.47596775 C23.5464377,7.25193149 22.7804147,7.26505685 22.2907032,7.48999831 C20.5902906,8.27050442 18.9579941,9.19878395 17.2933368,10.0582685 C14.2455385,11.6324061 11.1857463,13.1839137 8.14541591,14.7723082 C6.56743124,15.5967164 6.42101562,17.0205912 7.85303728,17.9033846 C9.95716771,19.2009845 12.1153837,20.4107803 14.2491593,21.6606311 C16.4472039,22.9478212 18.6447959,24.2352376 20.8392198,25.5285379 C21.3784909,25.846262 21.631946,26.255411 21.6084109,26.9601069 C21.538937,29.0316503 21.5445945,31.1081722 21.5964171,33.180847 C21.6362457,34.7676574 21.7908081,36.3517521 21.9057681,38.1119077 C18.7226429,36.1849696 15.753823,34.4094256 12.8135168,32.5877167 C12.2853344,32.260488 11.5910483,31.8108313 11.4686204,31.2991687 C11.2031714,30.1903024 11.2407371,29.0056258 11.1861989,27.8501419 C11.0959055,25.9424392 11.0520035,24.0320209 10.9472269,22.1252234 C10.8791109,20.8866876 9.61251395,20.0482489 8.53442432,20.4761808 C7.66701929,20.8206083 7.40270177,21.7977684 7.5459492,23.3137471 C7.82293948,26.2436435 8.05625401,29.1794237 8.20651671,32.1181457 C8.26060223,33.1731528 8.61679725,33.8785276 9.5362511,34.3691444 C10.4475582,34.8552352 11.3416665,35.378439 12.2151816,35.929704 C15.6173646,38.0775102 19.0039328,40.249983 22.4076999,42.3955262 C23.0438271,42.7965285 23.7964984,43.1586073 24.4036593,42.4446331 C24.7901784,41.9899979 25.1753397,41.343461 25.175566,40.7826914 C25.1766975,37.5920983 25.0490647,34.4015052 24.991811,31.2106857 C24.9619395,29.5519122 24.9300313,27.8897442 25.0026734,26.2339126 C25.0725998,24.6373714 24.2828155,23.7027555 22.9777477,22.9523472 C19.3372716,20.8590791 15.731872,18.7049366 12.0993164,16.5670875 M46.3236835,13.6125245 C46.0453355,18.3157018 45.8154154,22.3442811 45.5646759,26.3717289 C45.4350064,28.4554924 45.0957838,30.542424 45.1589213,32.6184934 C45.2555511,35.7986767 43.7877741,37.7842264 41.1432411,39.349312 C37.2710346,41.6408182 33.5450175,44.1783117 29.7411534,46.586362 C28.0267103,47.6719195 26.3423649,48.8409814 24.518393,49.7065761 C22.9818211,50.4357123 21.5043133,49.6787413 20.164848,48.8031895 C18.2824908,47.5723478 16.4008126,46.340601 14.5069141,45.127637 C11.5532563,43.2360016 8.56497472,41.3975465 5.6425462,39.4592934 C4.42958222,38.6545733 3.20756627,37.7742692 2.25891981,36.6923325 C1.657869,36.0070983 1.36300108,34.9059262 1.2659187,33.9570534 C1.06043898,31.9484213 1.12606576,29.913991 0.987570619,27.8965332 C0.72777908,24.1060208 0.369999965,20.322071 0.119712994,16.5308797 C0.0205939221,15.0289315 -0.116996022,13.4706349 0.180134894,12.0239038 C0.357779805,11.1589881 1.18829805,10.1628188 1.99505488,9.73941286 C5.19628408,8.05981982 8.51699928,6.60924162 11.7680143,5.02129978 C14.2783519,3.79521044 16.8142613,2.5998978 19.2225379,1.19209017 C21.8385573,-0.337240167 24.3140448,-0.414408212 26.9542781,1.06920967 C29.0667816,2.25614924 31.2718415,3.27879556 33.4411461,4.36344786 C36.1198503,5.70291313 38.8028543,7.03423162 41.4869897,8.36283451 C42.50511,8.86680295 43.5920253,9.26011104 44.5413507,9.86930862 C46.1401549,10.8955757 46.6004475,12.4568143 46.3236835,13.6125245" id="Fill-1"></path>
            </g>
        </g>
    </g>
</svg>