<?xml version="1.0" encoding="UTF-8" standalone="no"?>
<svg width="115px" height="17px" viewBox="0 0 115 17" version="1.1" xmlns="http://www.w3.org/2000/svg" xmlns:xlink="http://www.w3.org/1999/xlink">
    <!-- Generator: Sketch 42 (36781) - http://www.bohemiancoding.com/sketch -->
    <title>shutterstock</title>
    <desc>Created with Sketch.</desc>
    <defs></defs>
    <g id="Page-1" stroke="none" stroke-width="1" fill="none" fill-rule="evenodd">
        <g id="Artboard" transform="translate(-741.000000, -1093.000000)" fill-rule="nonzero" fill="#DCE2E8">
            <g id="shutterstock" transform="translate(741.000000, 1093.000000)">
                <path d="M70.6305263,9.47302632 C70.4533684,9.44260526 69.8561316,9.34284211 69.6807632,9.31063158 C68.7377105,9.14152632 67.9288684,8.92052632 67.9288684,7.97121053 C67.9288684,7.15610526 68.7833421,6.77628947 69.8467368,6.77628947 C71.4290789,6.77628947 72.8168158,7.49297368 72.9747368,7.57215789 L73.8417368,5.28431579 C73.5088947,5.11073684 72.0974474,4.35692105 69.8735789,4.35692105 C67.8367105,4.35692105 65.3502368,5.42613158 65.3502368,8.08618421 C65.3502368,10.4670789 67.0515789,11.2311842 68.6907368,11.5192895 C68.9171053,11.5613421 69.6293158,11.6825789 69.8324211,11.7179211 C70.9351842,11.9044737 71.5409211,12.3147105 71.5409211,13.0367632 C71.5409211,13.9520789 70.6810789,14.382 69.3783421,14.382 C67.2936053,14.382 66.0696053,13.7601579 65.7157368,13.6152105 L64.7552368,15.8538421 C65.0540789,16.0077368 66.4776053,16.8107632 69.2553158,16.8107632 C71.9507105,16.8107632 74.1132895,15.4758158 74.1132895,12.9906842 C74.0936053,10.6782368 72.5381053,9.80094737 70.6305263,9.47302632 L70.6305263,9.47302632 Z M78.8607632,0.189684211 L76.3103158,1.60068421 L76.3103158,4.58865789 L74.9673158,4.58865789 L74.9673158,7.02815789 L76.3103158,7.02815789 L76.3103158,12.3026316 C76.3103158,14.5560263 77.2359211,16.5790263 80.5021579,16.5790263 L81.5239474,16.5790263 L81.5239474,14.1368421 L81.1414474,14.1368421 C79.5353947,14.1368421 78.8607632,13.2103421 78.8607632,11.951 L78.8607632,7.02860526 L81.7905789,7.02860526 L81.7905789,4.58910526 L78.8607632,4.58910526 L78.8607632,0.189684211 Z M98.7892368,6.83668421 C99.7850789,6.83668421 100.805526,7.28942105 101.110184,8.38502632 L103.425316,7.50505263 C102.777526,5.21363158 100.648947,4.35692105 98.7713421,4.35692105 C95.4066842,4.35692105 94.0507105,6.44568421 94.0507105,8.47628947 L94.0507105,12.6891579 C94.0507105,14.7188684 95.4066842,16.8098684 98.7713421,16.8098684 C100.648947,16.8098684 102.777526,15.9518158 103.425316,13.6608421 L101.110184,12.7804211 C100.804184,13.8746842 99.7846316,14.3301053 98.7892368,14.3301053 C97.0570263,14.3301053 96.5975789,13.3812368 96.5975789,12.2995 L96.5975789,8.86415789 C96.5962368,7.78465789 97.0570263,6.83668421 98.7892368,6.83668421 L98.7892368,6.83668421 Z M109.696974,9.97363158 L114.465474,4.58910526 L111.328526,4.58910526 L107.226605,9.28289474 L107.226605,0.190578947 L104.673921,0.190578947 L104.673921,16.5785789 L107.226605,16.5785789 L107.226605,12.7625263 L108.064079,11.8167895 L111.716395,16.5785789 L114.778184,16.5785789 L109.696974,9.97363158 Z" id="Shape"></path>
                <path d="M88.9265526,7.20576316 L86.2736579,7.20576316 C85.8522368,7.20576316 85.5095526,7.54844737 85.5095526,7.96852632 L85.5095526,10.8468947 L82.8928947,10.8468947 L82.8928947,7.96852632 C82.8927759,7.07197913 83.2489671,6.21213769 83.8830476,5.57830897 C84.517128,4.94448024 85.3771108,4.58863045 86.2736579,4.58910526 L88.9265526,4.58910526 L88.9265526,7.20576316 Z M86.7675526,13.9614737 L89.4222368,13.9614737 C89.8433376,13.960243 90.184263,13.6189177 90.185,13.1978158 L90.185,10.3207895 L92.8016579,10.3207895 L92.8016579,13.1982632 C92.801658,15.0648107 91.2887843,16.5780849 89.4222368,16.5785789 L86.7675526,16.5785789 L86.7675526,13.9614737 L86.7675526,13.9614737 Z M43.5101579,4.58910526 L46.4390789,4.58910526 L46.4390789,7.02860526 L43.5101579,7.02860526 L43.5101579,11.951 C43.5101579,13.2094474 44.1838947,14.1368421 45.7881579,14.1368421 L46.1711053,14.1368421 L46.1711053,16.5785789 L45.1488684,16.5785789 C41.8821842,16.5785789 40.9588158,14.5560263 40.9588158,12.3021842 L40.9588158,7.02860526 L36.6658684,7.02860526 L36.6658684,11.951 C36.6658684,13.2094474 37.3405,14.1368421 38.9447632,14.1368421 L39.3268158,14.1368421 L39.3268158,16.5785789 L38.3045789,16.5785789 C35.0392368,16.5785789 34.1136316,14.5560263 34.1136316,12.3021842 L34.1136316,7.02860526 L32.8202895,7.02860526 L32.8202895,4.58910526 L34.1136316,4.58910526 L34.1136316,1.60113158 L36.6658684,0.190131579 L36.6658684,4.58910526 L40.9588158,4.58910526 L40.9588158,1.60113158 L43.5101579,0.190131579 L43.5101579,4.58910526 Z M15.9719474,4.35692105 C15.1644474,4.35692105 14.3462105,4.51305263 13.6093947,4.82486842 L13.6093947,0.189684211 L11.0580526,0.189684211 L11.0580526,16.5781316 L13.6093947,16.5781316 L13.6093947,7.20978947 C14.1216316,6.88768421 14.8597895,6.69531579 15.5809474,6.69531579 C17.1843158,6.69531579 17.9390263,7.58692105 17.9390263,8.90218421 L17.9390263,16.5785789 L20.4881316,16.5785789 L20.4881316,8.55323684 C20.4885789,6.13342105 18.7353421,4.35692105 15.9719474,4.35692105 L15.9719474,4.35692105 Z M28.9017895,14.1941053 C28.4168421,14.4558158 27.8030526,14.6056842 27.1923947,14.6056842 C25.2888421,14.6056842 24.5730526,13.6357895 24.5730526,12.2981579 L24.5730526,4.58910526 L22.0217105,4.58910526 L22.0217105,12.3442368 C22.0217105,15.3595 23.7646579,16.8098684 26.8783421,16.8098684 C28.3698684,16.8098684 30.0211053,16.4327368 31.4517895,15.8131316 L31.4517895,4.58865789 L28.9017895,4.58865789 L28.9017895,14.1941053 L28.9017895,14.1941053 Z M6.28821053,9.47302632 C6.11194737,9.44260526 5.51381579,9.34284211 5.338,9.31063158 C4.39673684,9.14152632 3.58655263,8.92052632 3.58655263,7.97121053 C3.58655263,7.15610526 4.44013158,6.77628947 5.50486842,6.77628947 C7.08676316,6.77628947 8.4745,7.49297368 8.63286842,7.57215789 L9.49986842,5.28431579 C9.16881579,5.11073684 7.75557895,4.35692105 5.53081579,4.35692105 C3.49573684,4.35692105 1.00792105,5.42613158 1.00792105,8.08618421 C1.00792105,10.4670789 2.70747368,11.2311842 4.34931579,11.5192895 C4.57523684,11.5613421 5.28744737,11.6825789 5.49234211,11.7179211 C6.59465789,11.9044737 7.19771053,12.3147105 7.19771053,13.0367632 C7.19771053,13.9520789 6.34010526,14.382 5.03826316,14.382 C2.95128947,14.382 1.72773684,13.7601579 1.37431579,13.6152105 L0.414263158,15.8538421 C0.713552632,16.0077368 2.13618421,16.8107632 4.91389474,16.8107632 C7.60928947,16.8107632 9.77186842,15.4758158 9.77186842,12.9906842 C9.74860526,10.6782368 8.194,9.80094737 6.28821053,9.47302632 L6.28821053,9.47302632 Z M56.9862368,8.47628947 C56.9862368,6.28328947 55.3148684,4.35602632 52.3094474,4.35602632 C48.8982632,4.35602632 47.5883684,6.48594737 47.5883684,8.47628947 L47.5883684,12.4583158 C47.5883684,15.2127632 49.3483158,16.8107632 52.3094474,16.8107632 C54.9216316,16.8107632 56.2776053,15.3 56.6806842,14.3931842 L54.5266053,13.0989474 C54.3427368,13.6317632 53.4905,14.3793158 52.3264474,14.3793158 C50.7494737,14.3793158 50.1428421,13.4988947 50.1428421,12.3961316 L50.1334474,11.7398421 L56.9862368,11.7398421 L56.9862368,8.47628947 L56.9862368,8.47628947 Z M54.4353421,9.67434211 L50.1338947,9.67434211 L50.1338947,8.80197368 C50.1338947,7.82894737 50.6228684,6.78523684 52.2982632,6.78523684 C53.9128158,6.78523684 54.4353421,7.80165789 54.4353421,8.75455263 L54.4353421,9.67434211 L54.4353421,9.67434211 Z M58.6191316,8.48076316 L58.6191316,16.5785789 L61.1677895,16.5785789 L61.1677895,8.69863158 C61.1677895,8.01057895 61.5583421,6.83444737 63.4310263,6.83444737 C63.7249474,6.83444737 64.3892895,6.91765789 64.6013421,6.95747368 L64.6013421,4.48486842 C64.3709474,4.42939474 63.8443947,4.35557895 63.3008421,4.35557895 C60.0583158,4.35602632 58.6191316,6.38931579 58.6191316,8.48076316 L58.6191316,8.48076316 Z" id="Shape"></path>
            </g>
        </g>
    </g>
</svg>