<?xml version="1.0" encoding="UTF-8" standalone="no"?>
<svg width="57px" height="50px" viewBox="0 0 57 50" version="1.1" xmlns="http://www.w3.org/2000/svg" xmlns:xlink="http://www.w3.org/1999/xlink">
    <!-- Generator: Sketch 42 (36781) - http://www.bohemiancoding.com/sketch -->
    <title>Page 1</title>
    <desc>Created with Sketch.</desc>
    <defs></defs>
    <g id="Page-1" stroke="none" stroke-width="1" fill="none" fill-rule="evenodd">
        <g id="Artboard" transform="translate(-205.000000, -1129.000000)" fill="#DCE2E8">
            <g id="Page-1" transform="translate(205.000000, 1129.000000)">
                <path d="M41.2217427,14.505456 C42.9337948,15.4899837 44.6178339,16.4526873 46.2963355,17.425 C48.9414495,18.9572476 51.582329,20.4968241 54.2264658,22.0308632 C54.7090391,22.3108306 55.175,22.6412866 55.6906352,22.838355 C56.4917752,23.1443811 56.7215798,23.6443811 56.7147394,24.4995928 C56.6714169,29.845684 56.6810261,35.1924267 56.709202,40.5386808 C56.7122964,41.1425896 56.4785831,41.4253257 55.994544,41.7017101 C51.6548046,44.1805375 47.2968241,46.6300489 43.0163681,49.2080619 C41.7785831,49.9535016 40.8922638,50.1424267 39.5714169,49.2968241 C36.5521987,47.3640879 33.389658,45.6549674 30.2811889,43.8619707 C29.0373779,43.1447068 27.7951954,42.4232085 26.5277687,41.74943 C25.9797231,41.4580619 25.7300489,41.1401466 25.7344463,40.4642508 C25.7699511,35.0637622 25.7653909,29.6629479 25.738355,24.2622964 C25.7354235,23.6746743 25.896987,23.3204397 26.4020358,23.0362378 C28.6484528,21.7714169 30.8849349,20.4888436 33.1183225,19.2012215 C35.812785,17.6478013 38.50057,16.0829805 41.2217427,14.505456" id="Fill-1"></path>
                <path d="M13.5392997,10.7254886 C13.5392997,9.09861564 13.5575407,7.47141694 13.5277362,5.84503257 C13.5191042,5.37662866 13.6785505,5.12972313 14.0808306,4.9017101 C16.8759446,3.31848534 19.6521661,1.70187296 22.4485831,0.121091205 C22.6661726,-0.00203583062 23.057215,-0.0486156352 23.2580293,0.0642508143 C25.5966287,1.37809446 27.9140554,2.72939739 30.2363681,4.07190554 C30.2824593,4.09861564 30.3140554,4.16115635 30.3609609,4.17337134 C32.2034691,4.6482899 32.3668241,5.96978827 32.2941857,7.60578176 C32.1774104,10.2307003 32.2536319,12.8645765 32.2707329,15.494544 C32.2741531,16.0228827 32.1598208,16.3266287 31.6300163,16.6227199 C29.0101466,18.0860749 26.429202,19.6196254 23.8508632,21.1557818 C23.1997231,21.5437296 22.6520033,21.5714169 21.9775733,21.1668567 C19.3362052,19.5826547 16.6581922,18.0596906 14.0140554,16.4802117 C13.7809935,16.3411238 13.5671498,15.9606678 13.5601466,15.6868893 C13.5182899,14.0339577 13.5392997,12.3793974 13.5392997,10.7254886" id="Fill-4"></path>
                <path d="M21.6764658,28.4205212 C21.6764658,29.6136808 21.7057818,30.8081433 21.654316,31.9990228 C21.6425896,32.2723127 21.4179967,32.6405537 21.1815147,32.7833876 C19.2041531,33.9783388 17.19943,35.1276873 15.2072476,36.2982085 C14.7720684,36.5539088 14.4238599,36.6022801 13.9285831,36.2972313 C11.9839577,35.0995114 9.98346906,33.9928339 8.03037459,32.8081433 C7.77776873,32.654886 7.54063518,32.2459283 7.53558632,31.9513029 C7.49552117,29.5928339 7.50447883,27.2332248 7.52581433,24.8742671 C7.52809446,24.6180782 7.62939739,24.2363192 7.81245928,24.1276873 C9.88933225,22.8933225 11.99943,21.7148208 14.0792345,20.485342 C14.4867264,20.2444625 14.7818404,20.2892508 15.1515472,20.5060261 C17.1903094,21.7016287 19.244544,22.8711726 21.2712541,24.086645 C21.4815147,24.2128664 21.6495928,24.5801303 21.6585505,24.8416938 C21.69943,26.0333876 21.6764658,27.2273616 21.6764658,28.4205212" id="Fill-6"></path>
                <path d="M10.7644463,8.44045603 L10.7644463,9.41586319 C10.7644463,11.5204235 10.7611889,11.5145603 8.90092834,12.5484365 C7.85630293,13.1288925 6.83887622,13.7603257 5.77666124,14.3052769 C5.52894137,14.4323127 5.09099349,14.4069055 4.83903909,14.2702606 C3.41640065,13.4987622 2.02210098,12.6749837 0.622100977,11.8621173 C0.217703583,11.6274267 -0.0182899023,11.3471336 0.00109120521,10.7912704 C0.0579315961,9.16765472 0.051742671,7.53996743 0.0036970684,5.91570033 C-0.0117752443,5.39664495 0.211351792,5.12482085 0.590667752,4.90478827 C2.01412052,4.07905537 3.43431596,3.24729642 4.8787785,2.45983713 C5.11363192,2.33166124 5.5287785,2.29957655 5.75174267,2.42172638 C7.31053746,3.27547231 8.84815961,4.16928339 10.3709609,5.0862215 C10.5660749,5.20381107 10.7352932,5.52416938 10.7468567,5.7590228 C10.7905049,6.65104235 10.7644463,7.54631922 10.7644463,8.44045603" id="Fill-8"></path>
            </g>
        </g>
    </g>
</svg>