<?xml version="1.0" encoding="UTF-8" standalone="no"?>
<svg width="51px" height="50px" viewBox="0 0 51 50" version="1.1" xmlns="http://www.w3.org/2000/svg" xmlns:xlink="http://www.w3.org/1999/xlink">
    <!-- Generator: Sketch 42 (36781) - http://www.bohemiancoding.com/sketch -->
    <title>Group</title>
    <desc>Created with Sketch.</desc>
    <defs></defs>
    <g id="Page-1" stroke="none" stroke-width="1" fill="none" fill-rule="evenodd">
        <g id="Artboard" transform="translate(-840.000000, -930.000000)" fill-rule="nonzero" fill="#DCE2E8">
            <g id="Group" transform="translate(840.000000, 930.000000)">
                <path d="M4.4207483,26.4557823 C2.55204082,26.470068 0.969047619,25.3564626 0.38537415,23.6183673 C0.36372132,23.5527258 0.343534897,23.4866096 0.324829932,23.420068 C-0.31122449,21.1942177 0.922108844,18.8656463 3.13265306,18.120068 L38.5884354,6.2414966 C39.009425,6.11970615 39.4450965,6.05607775 39.8833333,6.05238095 C41.8017007,6.03741497 43.4282313,7.1755102 44.0261905,8.95034014 L44.0792517,9.12176871 C44.742517,11.4401361 43.0945578,13.5095238 41.120068,14.1727891 C41.1187075,14.1738095 40.7595238,14.2952381 5.86088435,26.2105442 C5.39701609,26.3686746 4.91080989,26.4514697 4.4207483,26.4557823 L4.4207483,26.4557823 Z" id="Shape"></path>
                <path d="M10.3306122,43.8928571 C8.44727891,43.9064626 6.85884354,42.8085034 6.28197279,41.0952381 C6.26007518,41.0300642 6.23966175,40.964401 6.2207483,40.8982993 C5.57585034,38.6459184 6.80782313,36.2928571 9.02585034,35.5462585 L44.4829932,23.5588435 C44.9411565,23.4057823 45.4142857,23.327551 45.8901361,23.3231293 C47.7785714,23.3088435 49.4377551,24.462585 50.0231293,26.1952381 L50.077551,26.3755102 C50.420068,27.5731293 50.2176871,28.9190476 49.5367347,29.9812925 C49.0292517,30.7710884 47.4285714,31.4663265 47.4285714,31.4663265 L11.8367347,43.6360544 C11.3513162,43.8003856 10.8430542,43.8872768 10.3306122,43.8935374 L10.3306122,43.8928571 L10.3306122,43.8928571 Z" id="Shape"></path>
                <path d="M39.8462585,43.9687075 C37.9608702,43.986813 36.2781567,42.7890725 35.6778912,41.0017007 L23.8445578,5.85204082 L23.7853741,5.6547619 C23.1442177,3.41326531 24.3772109,1.07517007 26.5870748,0.330272109 C27.0292517,0.181632653 27.4863946,0.104081633 27.9465986,0.1 C28.6302721,0.0948979592 29.2918367,0.248979592 29.914966,0.556802721 C30.9516825,1.06949146 31.7411645,1.97441479 32.1085034,3.07108844 L43.9408163,38.2176871 L43.9751701,38.3306122 C44.6397959,40.6578231 43.4095238,42.9972789 41.1996599,43.7421769 C40.7631509,43.8880083 40.3064637,43.9644481 39.8462585,43.9687075 L39.8462585,43.9687075 Z" id="Shape"></path>
                <path d="M22.2568027,49.8891156 C20.3703269,49.9070856 18.6868182,48.7083066 18.0867347,46.9197279 L6.25646259,11.7714286 C5.8862492,10.676274 5.96689967,9.47883172 6.48062554,8.44321243 C6.9943514,7.40759315 7.89894891,6.61887534 8.99489796,6.25102041 C9.43205424,6.10488398 9.88942577,6.02821542 10.3503401,6.02380952 C12.2360455,6.00519305 13.9192255,7.2030701 14.5193878,8.99081633 L26.35,44.1404762 C26.7203908,45.2361601 26.6394754,46.4342064 26.1251168,47.4701348 C25.6107582,48.5060632 24.7052542,49.2946852 23.6085034,49.6619048 C23.1721966,49.8081186 22.7155784,49.8846808 22.2554422,49.8887755 L22.2568027,49.8887755 L22.2568027,49.8891156 Z" id="Shape"></path>
            </g>
        </g>
    </g>
</svg>