<?xml version="1.0" encoding="UTF-8" standalone="no"?>
<svg width="50px" height="50px" viewBox="0 0 50 50" version="1.1" xmlns="http://www.w3.org/2000/svg" xmlns:xlink="http://www.w3.org/1999/xlink">
    <!-- Generator: Sketch 41.2 (35397) - http://www.bohemiancoding.com/sketch -->
    <title>Page 1</title>
    <desc>Created with Sketch.</desc>
    <defs>
        <polygon id="path-1" points="49.4604883 49.8046875 0 49.8046875 0 0.0905078125 49.4604883 0.0905078125 49.4604883 49.8046875"></polygon>
    </defs>
    <g id="Page-1" stroke="none" stroke-width="1" fill="none" fill-rule="evenodd">
        <g id="Artboard" transform="translate(-437.000000, -633.000000)">
            <g id="Page-1" transform="translate(437.000000, 633.000000)">
                <g id="Group-3" transform="translate(0.000000, 0.104883)">
                    <mask id="mask-2" fill="white">
                        <use xlink:href="#path-1"></use>
                    </mask>
                    <g id="Clip-2"></g>
                </g>
                <path d="M23.635957,21.8518945 C23.6720898,21.9999414 23.5443555,22.2220117 23.745918,22.2966211 C24.3379102,22.1681055 25.4101758,22.6116602 25.7408398,21.9087305 C25.5101758,21.650332 25.1332227,21.5329492 24.7379102,21.5329492 C24.3425977,21.5329492 23.9326367,21.6479883 23.635957,21.8518945 L23.635957,21.8518945 Z M22.6367383,23.3489648 L22.6900586,23.6833398 C23.4127148,24.1647852 23.6351758,24.9809961 24.6357617,24.9069727 C25.5230664,24.9595117 26.1886914,24.1282617 26.6308789,23.462832 C25.4300977,23.2968164 23.9689648,23.553457 22.6367383,23.3491602 L22.6367383,23.3489648 Z M42.3902539,20.741543 C44.2756055,21.2405664 46.1666211,23.2944727 48.1629102,21.9620508 C46.4242383,19.0770898 43.8369336,16.412832 44.5562695,12.6403711 C44.6316602,12.3827539 44.4652539,12.1218164 44.2258008,12.085293 C43.0980664,12.5464258 42.2244336,13.6575586 41.7783398,14.7497461 C41.5945508,15.3954492 41.4861523,16.082168 41.2273633,16.6911523 C39.8763867,15.9880273 38.4347852,15.3067773 36.7886914,15.4714258 C36.1949414,15.5454492 35.3441602,15.5841211 35.2345898,16.1934961 C37.1025586,17.1919336 38.6384961,18.8579492 39.7836133,20.632168 C40.5806836,20.5022852 41.5582227,20.6132227 42.3902539,20.741543 L42.3902539,20.741543 Z M36.0670117,10.0864648 C34.6978711,10.0140039 33.5513867,10.7911523 32.2933789,11.1425195 C32.1838086,10.072207 32.9970898,8.94154297 33.1824414,7.86693359 C31.148457,7.99779297 29.5375195,9.22220703 27.8549023,10.2001367 C27.4654492,9.25912109 27.0748242,8.31380859 26.6883008,7.36908203 L28.9076367,5.26029297 L28.9644727,4.98216797 L25.9666211,4.81517578 C25.4500195,3.91048828 25.2465039,2.82064453 24.6361523,1.98822266 C24.1367383,2.93138672 23.8011914,3.92982422 23.302168,4.87220703 L20.3076367,5.03958984 L20.3076367,5.26009766 L22.5804883,7.31205078 C22.3023633,8.36673828 22.0445508,9.51322266 21.3605664,10.310293 C20.0289258,9.51263672 18.7162305,8.64486328 17.2564648,8.09076172 C16.9050977,7.97748047 16.4043164,7.79310547 16.0898633,8.03392578 C16.5517773,9.05169922 17.1982617,10.1460352 17.0894727,11.2567773 C16.4787305,11.1444727 15.9986523,10.7526758 15.4248242,10.5882227 C14.7386914,10.400918 13.9244336,10.0350977 13.2586133,10.2575586 C14.3687695,11.810293 15.2746289,13.4354883 15.5881055,15.304043 C19.270332,13.5266992 23.564668,12.5491602 28.0226758,13.3087305 C30.1121289,13.6413477 32.033418,14.4923242 33.9019727,15.1934961 C33.9750195,13.2345117 35.214082,11.659707 36.0670117,10.0864648 L36.0670117,10.0864648 Z M28.0138867,17.9067773 C27.9404492,17.9087305 27.8691602,17.9122461 27.7970898,17.9147852 C27.4093945,18.1731836 26.2800977,17.9874414 26.6877148,18.8569727 C27.3912305,18.3007227 28.3713086,18.6905664 29.0742383,18.9671289 C29.3341992,18.8380273 29.2775586,18.5792383 29.2949414,18.3558008 C29.0689648,17.9358789 28.5299023,17.8966211 28.0138867,17.9067773 L28.0138867,17.9067773 Z M29.1273633,16.0831445 C28.610957,14.9360742 27.427168,14.4718164 26.3529492,14.1942773 C25.8263867,14.1296289 25.2799023,14.0856836 24.7379102,14.0806055 C24.6361523,14.0796289 24.5349805,14.0782617 24.4338086,14.0806055 C22.9174023,14.1110742 21.4687695,14.500332 20.5840039,15.7483789 C20.4568555,16.1007227 19.8982617,16.5954492 20.4170117,16.9112695 C21.5820508,16.8368555 22.9119336,16.6907617 23.6888867,17.6907617 C23.6888867,18.5794336 24.2625195,19.7618555 23.3013867,20.1874414 C22.504707,19.4497461 21.5613477,20.5013086 20.6941602,19.9093164 C20.2869336,19.6684961 20.0289258,19.9497461 19.8621289,20.3011133 C19.6211133,22.594082 20.8218945,25.1247461 22.9670117,26.400332 C23.8361523,26.7138086 25.0050977,27.0120508 25.9123242,26.5673242 C28.0949414,25.550918 28.9988477,23.2220117 29.405293,21.075918 C29.3508008,20.6679102 29.3701367,19.8720117 28.7972852,19.8524805 C28.1502148,20.2616602 27.2064648,20.0198633 26.520918,19.8524805 C26.1152539,19.9835352 26.0968945,20.5766992 25.6353711,20.6890039 L25.3543164,20.4647852 C25.1133008,19.4487695 24.9648633,18.0059961 25.9091992,17.3028711 C26.9642773,16.8774805 28.2035352,16.691543 29.2947461,17.0255273 C29.4986523,16.6739648 29.1841992,16.3975977 29.1273633,16.0831445 L29.1273633,16.0831445 Z M20.0832227,18.4657617 C20.0461133,18.7054102 20.1013867,19.1319727 20.4705273,18.9671289 C21.0447461,18.1718164 22.061543,18.8011133 22.6900586,18.8569727 L22.6900586,18.6333398 C22.3451367,18.0917383 21.6357617,17.8198633 20.9152539,17.8466211 C20.7488477,17.8526758 20.580293,17.8766992 20.4174023,17.9147852 C20.176582,17.9683008 20.0086133,18.1888086 20.0832227,18.4657617 L20.0832227,18.4657617 Z M14.2000195,15.9688867 C12.2761914,14.7108789 9.83693359,15.8954492 8.04396484,16.5808008 C7.87736328,14.8966211 7.19357422,13.3624414 5.76759766,12.2528711 C5.62931641,12.1839258 5.43791016,12.0391992 5.26583984,12.028457 C5.16271484,12.0220117 5.06466797,12.0638086 4.98849609,12.1954492 C5.63478516,16.1716211 3.05021484,18.9458398 1.21857422,21.9620508 C1.82853516,22.460293 2.80822266,22.3858789 3.54787109,22.2393945 C5.48966797,21.4630273 7.33927734,20.1114648 9.65119141,20.5747461 C10.3351758,19.4095117 11.4836133,18.2809961 12.4256055,17.3561914 C13.0011914,16.8583398 13.7918164,16.5419336 14.2002148,15.969082 L14.2000195,15.9688867 Z M49.052168,26.2640039 C49.0707227,26.8899805 49.1293164,27.4278711 48.8849805,28.0686914 C46.3508008,28.7895898 44.6861523,26.1061914 42.2273633,26.5108789 L42.5050977,27.9018945 C44.7800977,27.9765039 46.2009961,30.1581445 48.5511914,30.0643945 C48.2174023,30.7309961 48.7002148,32.4880273 47.2211133,31.7856836 C45.6855664,31.4167383 44.5752148,30.0643945 42.8925977,30.0643945 C42.689668,30.4370508 42.8181836,30.9530664 42.7824414,31.394082 C44.5576367,31.6724023 45.8341992,33.1729883 47.6088086,33.4499414 C47.4420117,34.0599023 47.276582,34.7427148 46.776582,35.1143945 C45.3332227,34.7630273 44.2050977,33.466543 42.6683789,33.503457 L42.3947461,34.7806055 C43.855293,34.8181055 44.799043,36.1104883 46.1117383,36.4983789 C46.1478711,37.0370508 45.6664258,37.5184961 45.389082,37.9993555 C44.2236523,37.6493555 43.3349805,36.6481836 42.0035352,36.7224023 C41.9849805,36.2204492 42.282832,35.6507227 42.1705273,35.1143945 C40.6750195,35.5595117 39.6720898,34.169668 38.5638867,33.3362695 C38.5318555,30.6085352 35.6603711,28.819082 35.5088086,26.2640039 C35.479707,25.7542383 35.5572461,25.2104883 35.7894727,24.6263086 C36.7332227,22.444082 36.4367383,19.6110742 35.4019727,17.5766992 C35.0877148,17.0411523 34.530293,16.6184961 34.010957,16.3038477 C34.770918,17.9138086 35.6965039,19.815957 35.2345898,21.7950586 C35.1808789,23.3231836 34.2793164,24.790957 34.2689648,26.2640039 C34.2654492,26.7890039 34.3777539,27.3143945 34.679707,27.8450586 C35.882832,30.0114648 38.0472852,32.0626367 37.233418,34.7800195 C37.0095898,35.6149805 36.3433789,36.260293 36.1769727,37.109707 C37.5843945,38.275332 38.9152539,39.5890039 40.782832,39.662832 C41.4480664,39.2382227 41.0787305,37.3532617 42.4470898,38.2225977 L44.4463086,39.2224023 C44.3006055,39.7573633 43.8525586,40.2368555 43.4470898,40.6054102 C42.6886914,40.2362695 41.949043,39.7936914 41.0033398,39.8298242 C40.7244336,40.125918 40.4845898,40.4577539 40.5056836,40.8825586 C41.1711133,40.9919336 41.7814648,41.2725977 42.3373242,41.6620508 C42.0793164,42.2177148 41.5761914,42.565957 41.1138867,42.9917383 L39.5634961,42.4372461 C39.304707,42.8077539 38.7668164,43.1970117 38.9554883,43.603457 C39.3054883,43.7532617 39.6933789,43.9558008 39.9509961,44.2151758 C39.2664258,44.9550195 38.3992383,45.4308008 37.5644727,45.9329492 C36.8457227,43.5831445 34.4767773,41.9356836 34.680293,39.2183008 L34.5699414,39.1081445 C34.0133008,39.7343164 34.1992383,40.735293 34.2353711,41.547793 C34.9017773,43.2497461 36.4912305,44.5643945 36.7322461,46.4309961 C36.4539258,46.9114648 35.8263867,47.0069727 35.3451367,47.2104883 C35.4009961,43.8452539 30.2965039,41.2929102 33.5697461,37.8888086 C34.6617383,36.2220117 36.4906445,34.6313867 35.8425977,32.3364648 C35.177168,30.1206445 32.8236523,28.7479883 32.8443555,26.2640039 L32.8480664,26.0702539 C33.3841992,23.4800195 35.0125195,20.7237695 33.6804883,17.9683008 C33.3090039,16.8599023 32.4795117,15.6005273 31.3513867,15.1370508 C33.0336133,17.0626367 33.7002148,20.2042383 32.7381055,22.794668 C32.2529492,23.8255273 31.5853711,25.0530664 31.5181836,26.2643945 L31.514082,26.2643945 C31.4785352,26.8970117 31.6076367,27.5263086 32.0158398,28.1225977 C33.292793,30.1952539 35.511543,32.4714258 34.2353711,35.172207 C32.7925977,37.335293 30.2773633,39.5358789 31.6818555,42.3850977 C32.6992383,44.0866602 34.2728711,45.7845117 33.8482617,47.8763086 L32.1838086,48.4308008 C33.2933789,44.529043 27.8549023,42.2364648 30.1316602,38.3337305 C31.5373242,36.2436914 34.0513867,34.2827539 32.6279492,31.5087305 C31.7773633,29.7901758 30.0193555,28.7729883 30.0748242,26.6251367 L30.1353711,26.2643945 C30.7082227,23.2181055 33.0238477,20.334707 31.4045117,17.0794336 C30.9793164,16.1183008 30.1289258,15.1386133 29.1851758,14.5831445 L29.1281445,14.6399805 C31.0158398,16.4710352 31.5900586,19.4839258 30.5724805,21.9059961 C30.0974805,23.3270898 29.0550977,24.7421289 28.8433789,26.2649805 C28.7425977,26.9829492 28.8277539,27.7268945 29.2425977,28.5106836 C30.4447461,30.4143945 32.5525586,32.4335352 31.2373242,34.894668 C29.8519727,36.9276758 27.539082,38.9054102 28.4629102,41.5491602 C29.4806836,43.8618555 31.605293,46.0651758 30.4580273,48.9329492 L28.7404492,49.3208398 C30.1086133,46.5261133 28.0568555,43.7528711 26.8550977,41.329043 C25.3931836,37.8513086 29.995918,36.1862695 30.0701367,33.0067773 C30.0527539,30.9546289 27.8711133,29.7897852 27.4099805,27.9028711 C26.4658398,27.1063867 25.4871289,28.2198633 24.3582227,28.0132227 C23.5252148,28.1804102 22.2451367,26.865957 21.7476758,28.290957 C21.155293,30.3800195 18.4562695,31.9155664 19.642207,34.3934961 C20.7711133,36.5954492 23.4871289,38.2054102 22.5799023,41.0550195 C21.7675977,43.7167383 19.0836133,46.2511133 20.748457,49.3208398 C20.064668,49.0993555 18.7879102,49.5233789 18.8062695,48.4311914 C17.7525586,44.7136133 22.2465039,42.547793 20.858418,38.8319727 C20.2125195,36.5561914 17.2693555,35.2989648 17.917207,32.5616602 C18.3963086,30.3083398 20.9246289,28.7329492 20.5699414,26.2649805 C20.5412305,26.0581445 20.4904492,25.8468164 20.417793,25.6261133 C19.474043,22.9630273 17.5486523,20.2987695 18.6963086,17.1901758 C19.0113477,16.3022852 19.6404492,15.5438867 20.1935742,14.7505273 C18.3625195,15.7304102 17.4386914,17.8028711 17.476582,19.9108789 C17.3965039,22.203457 19.0902539,24.1671289 19.3310742,26.2649805 C19.4259961,27.1114648 19.2873242,27.9782617 18.6963086,28.8979883 C17.4951367,30.5280664 15.924043,32.2468164 16.6443555,34.3931055 C17.3291211,36.5579492 20.0293164,37.8698633 19.8629102,40.3862695 C19.8443555,43.3630273 16.3857617,45.2163477 17.3660352,48.5454492 L15.6447461,47.9868555 C14.9611523,45.028457 18.1049023,43.5149805 18.1410352,40.7776758 C18.585957,37.6302148 14.5713086,36.4624414 14.8123242,33.394082 C14.7951367,31.0624414 16.8472852,29.5862695 17.7535352,27.625332 C17.9088086,27.1479883 17.9607617,26.697207 17.9398633,26.2649805 C17.8289258,24.0968164 15.8752148,22.4015039 16.1994336,19.9638086 C16.308418,18.1698633 16.9189648,16.5974023 18.0845898,15.2479883 C16.4763867,15.8938867 15.8119336,17.7454492 15.367793,19.2995508 C14.5966992,21.7911523 16.4371289,24.0323633 16.6215039,26.2649805 C16.7033398,27.2507227 16.4625195,28.2308008 15.5349805,29.2327539 C14.2025586,30.8030664 12.8511914,32.7845117 13.8131055,34.894668 C14.8316602,37.2233789 18.0324414,39.0358789 16.6443555,41.9403711 C15.8869336,43.7718164 14.0732617,45.1579492 14.1476758,47.3214258 C13.667207,47.1179102 13.1687695,46.9149805 12.7605664,46.5462305 C12.7605664,43.7905664 16.680293,42.069668 14.8127148,39.165957 C14.6470898,39.7388086 14.6117383,40.5173242 14.4820508,41.1647852 C13.8338086,42.8489648 12.4472852,44.1966211 11.9283398,45.9374414 C11.0603711,45.6028711 10.1533398,44.8989648 9.43126953,44.1593164 L10.4312695,43.5474023 C10.3201367,43.1766992 10.0248242,42.8626367 9.76623047,42.5481836 C9.11701172,42.4569727 8.69064453,42.8829492 8.15529297,43.0499414 C7.69298828,42.6421289 7.24669922,42.272207 6.87833984,41.772793 C7.21017578,40.8276758 9.80314453,41.6091211 8.48966797,40.0550195 C7.60275391,39.5005273 6.71271484,40.2927148 5.93595703,40.662832 L4.88302734,39.3329492 C5.78927734,38.7782617 6.69318359,37.9999414 7.82052734,38.2229883 C8.09826172,38.7233789 8.11779297,39.4589258 8.65275391,39.7202539 C10.5582227,39.6833398 11.9086133,38.2421289 13.3693555,37.113418 C12.3509961,35.5985742 11.5224805,33.507168 12.4267773,31.675332 C13.1513867,29.8393945 15.0392773,28.2933008 15.1248242,26.2640039 C15.1441602,25.8020898 15.0720898,25.315957 14.8701367,24.7931055 C13.8716992,22.2218164 13.5193555,18.7464258 15.4248242,16.4704492 C14.3886914,16.7489648 13.7779492,18.0401758 13.4259961,19.0206445 C12.2806836,21.5313867 13.7293164,23.8577539 13.7793164,26.2640039 C13.7861523,26.6966211 13.7511914,27.1302148 13.6463086,27.5673242 C12.6654492,29.5464258 11.076582,31.2825586 10.8187695,33.5599023 C9.68986328,34.2798242 8.76349609,35.5388086 7.15529297,35.1138086 C7.09884766,35.5388086 7.22833984,36.1868555 7.37580078,36.6679102 C6.10041016,36.6143945 5.23068359,37.5542383 4.15705078,37.9983789 C3.58498047,37.8147852 3.43634766,37.075332 3.21466797,36.5579492 C4.47130859,36.1335352 5.37833984,34.8735742 6.82150391,34.8933008 C6.98869141,34.4288477 6.72736328,34.0028711 6.65392578,33.5593164 C4.85900391,32.7626367 2.01330078,37.4979883 1.77423828,33.3925195 C3.56798828,33.2817773 4.71408203,31.6163477 6.49064453,31.4505273 L6.54376953,30.1206445 C4.52775391,29.9173242 3.23087891,31.9895898 1.21564453,31.7850977 L0.771503906,30.0104883 C3.10236328,30.1563867 4.49142578,28.0671289 6.71134766,27.9548242 C7.00607422,27.5669336 7.04201172,26.9934961 7.09884766,26.4575586 C4.67541016,26.1417383 3.01271484,28.8274805 0.440839844,28.0116602 C0.440839844,28.0116602 0.351972656,26.894082 0.303925781,26.2640039 L0.307832031,26.2640039 C0.290253906,26.0173242 0.273457031,25.8458398 0.273457031,25.8458398 C2.56681641,26.7356836 4.58205078,25.088418 6.54376953,24.2382227 C7.04279297,24.0888086 7.82091797,24.347793 8.04474609,23.7933008 C8.02541016,23.3681055 8.80119141,22.8706445 8.15529297,22.5735742 C5.28693359,22.1843164 3.38166016,25.6436914 0.440449219,24.0706445 L0.219746094,23.6261133 C0.831269531,15.2663477 5.54552734,7.18490234 13.3687695,3.20794922 C16.5371289,1.39720703 20.4732617,0.474355469 24.4429883,0.441542969 C29.2338086,0.401699219 34.0742383,1.65833984 37.6756055,4.20755859 C41.1724805,6.35267578 44.5174023,9.88763672 46.332832,13.4761133 C48.0691602,16.6204492 48.8679883,20.1483789 49.1066602,23.9044336 C46.0722852,26.1968164 44.0369336,21.744668 40.9472852,22.740957 C41.1138867,23.2229883 41.2056836,23.7212305 41.5591992,24.1282617 C44.2972852,24.1089258 46.182832,26.975918 49.0492383,25.8458398 L49.052168,26.2640039 Z M24.5238477,9.03216797 C25.3945508,9.53392578 26.317793,10.1798242 27.0205273,10.8641992 L26.7445508,11.141543 C25.3574414,10.994082 23.8965039,11.1782617 22.5814648,11.1985742 C22.4347852,11.0505273 22.1392773,10.8280664 22.4144727,10.6421289 L24.5238477,9.03216797 Z" id="Fill-4" fill="#DCE2E8"></path>
            </g>
        </g>
    </g>
</svg>