<?xml version="1.0" encoding="UTF-8" standalone="no"?>
<svg width="76px" height="31px" viewBox="0 0 76 31" version="1.1" xmlns="http://www.w3.org/2000/svg" xmlns:xlink="http://www.w3.org/1999/xlink">
    <!-- Generator: Sketch 42 (36781) - http://www.bohemiancoding.com/sketch -->
    <title>Shape</title>
    <desc>Created with Sketch.</desc>
    <defs></defs>
    <g id="Page-1" stroke="none" stroke-width="1" fill="none" fill-rule="evenodd">
        <g id="Artboard" transform="translate(-645.000000, -1017.000000)" fill-rule="nonzero" fill="#DCE2E8">
            <path d="M714.034684,1028.38277 C712.508285,1028.38277 712.667636,1030.25884 712.604309,1032.26175 L715.147561,1032.26175 C715.147561,1030.00416 715.147561,1028.38277 714.034684,1028.38277 Z M712.604309,1035.53671 C712.604309,1037.34877 713.494335,1037.69845 714.988726,1037.69845 C716.705795,1037.69845 719.026368,1037.18942 719.916738,1037.03058 L719.916738,1041.41859 C719.217555,1041.6731 717.087308,1042.27661 714.988726,1042.27661 C711.205082,1042.27661 706.594394,1041.67259 706.594394,1033.59696 C706.594394,1026.47486 710.219204,1024.78979 714.034511,1024.78979 C717.945499,1024.78979 720.775101,1026.79287 720.775101,1033.53329 L720.775101,1035.53671 L712.604309,1035.53671 Z M697.68983,1029.24113 C697.340496,1029.24113 696.640796,1029.52731 696.259455,1029.75016 L696.259455,1037.88912 C696.545289,1037.98497 697.054146,1038.04847 697.276825,1038.04847 C698.326202,1038.04847 698.962058,1037.1581 698.962058,1033.4383 C698.961714,1029.65448 698.675363,1029.24113 697.68983,1029.24113 L697.68983,1029.24113 Z M698.389185,1042.27695 C697.626158,1042.27695 696.831295,1042.05445 696.259111,1041.9271 L696.259111,1048 L690.218049,1048 L690.218049,1025.10781 L695.114226,1025.10781 L696.004768,1026.15701 C696.926631,1025.33049 698.230522,1024.78979 699.59757,1024.78979 C702.077322,1024.78979 705.002431,1025.48915 705.002431,1033.43778 C705.002431,1042.15013 700.614939,1042.27695 698.389185,1042.27695 L698.389185,1042.27695 Z M684.652804,1023.04123 C682.967914,1023.04123 681.664367,1021.67401 681.664367,1020.02062 C681.664367,1018.36722 682.967914,1017 684.652804,1017 C686.338209,1017 687.641757,1018.36722 687.641757,1020.02062 C687.641757,1021.67401 686.338209,1023.04123 684.652804,1023.04123 Z M681.632531,1041.95911 L681.632531,1025.10781 L687.673593,1025.10781 L687.673593,1041.95911 L681.632531,1041.95911 Z M677.974681,1029.84532 C677.020811,1029.84532 676.289448,1030.22701 675.971434,1030.41768 L675.971434,1041.95911 L669.930544,1041.95911 L669.930544,1025.10781 L674.731558,1025.10781 L675.621756,1026.7292 C675.971434,1025.67999 676.925304,1024.78962 678.324359,1024.78962 C679.278229,1024.78962 679.914085,1024.98047 680.199919,1025.1393 L680.199919,1030.16265 C679.595899,1030.00416 678.801208,1029.84532 677.974681,1029.84532 Z M666.495373,1037.69862 C666.876887,1037.69862 668.212442,1037.50812 668.657111,1037.4441 L668.657111,1041.73643 C667.735421,1041.95877 665.700338,1042.27695 664.365127,1042.27695 C662.648057,1042.27695 659.436942,1042.08645 659.436942,1037.41261 L659.436942,1028.95512 L657.21136,1028.95512 L657.21136,1025.10781 L659.437286,1025.10781 L660.200313,1021.2925 L665.478176,1020.02079 L665.478176,1025.10798 L668.657628,1025.10798 L667.862937,1028.9553 L665.478348,1028.9553 L665.478348,1036.33174 C665.478004,1037.47594 665.827681,1037.69862 666.495373,1037.69862 Z M650.882399,1029.97249 C650.882399,1030.64019 651.327756,1030.86269 652.37679,1031.33954 L653.012818,1031.62589 C654.507036,1032.29358 656.573439,1033.37462 656.573439,1036.55425 C656.573439,1041.64127 652.789795,1042.27712 650.087364,1042.27712 C648.338631,1042.27712 646.494563,1041.86377 645.254514,1041.48261 L645.254514,1037.12643 C646.335384,1037.41313 648.211632,1037.85762 649.037986,1037.85762 C649.960021,1037.85762 650.659548,1037.7308 650.659548,1036.90393 C650.659548,1036.26807 650.214363,1035.98206 649.228829,1035.53705 L648.46563,1035.1872 C647.035083,1034.51934 645,1033.37514 645,1030.29085 C645,1025.77584 648.52913,1024.79048 651.486247,1024.79048 C653.712001,1024.79048 655.174556,1025.299 655.937411,1025.58535 L655.937411,1029.814 C655.04704,1029.528 653.235152,1029.14631 652.154111,1029.14631 C651.42292,1029.14597 650.882399,1029.33647 650.882399,1029.97249 L650.882399,1029.97249 Z" id="Shape"></path>
        </g>
    </g>
</svg>