<?xml version="1.0" encoding="UTF-8" standalone="no"?>
<svg width="50px" height="50px" viewBox="0 0 50 50" version="1.1" xmlns="http://www.w3.org/2000/svg" xmlns:xlink="http://www.w3.org/1999/xlink">
    <!-- Generator: Sketch 42 (36781) - http://www.bohemiancoding.com/sketch -->
    <title>Page 1</title>
    <desc>Created with Sketch.</desc>
    <defs>
        <polygon id="path-1" points="0 32.942148 0 0 50.0017628 0 50.0017628 32.942148 1.73976767e-15 32.942148"></polygon>
    </defs>
    <g id="Page-1" stroke="none" stroke-width="1" fill="none" fill-rule="evenodd">
        <g id="Artboard" transform="translate(-296.000000, -1206.000000)">
            <g id="Page-1" transform="translate(296.000000, 1206.000000)">
                <g id="Group-3">
                    <mask id="mask-2" fill="white">
                        <use xlink:href="#path-1"></use>
                    </mask>
                    <g id="Clip-2"></g>
                    <path d="M23.3992147,0 L26.6043429,0 C26.7069071,0.0264423077 26.808109,0.0625801282 26.9123558,0.077724359 C28.0433654,0.242227564 29.1877564,0.342067308 30.3039423,0.576362179 C34.4827885,1.4536859 38.1724519,3.33565705 41.4006571,6.12387821 C43.5905609,8.01530449 45.3936859,10.2282853 46.8042628,12.7535256 C48.3300641,15.485016 49.3374359,18.3964744 49.7573878,21.5034455 C49.8425641,22.1342147 49.9205288,22.7661058 50.0017788,23.3974359 L50.0017788,26.6025641 C49.9745353,26.7161058 49.9299038,26.8286058 49.9226122,26.9434295 C49.803141,28.8403846 49.4114744,30.6838141 48.867484,32.5009615 C48.7662019,32.8392628 48.615,32.9407051 48.2578686,32.9404647 C32.7553846,32.9297276 17.2529808,32.9293269 1.75049679,32.9421474 C1.36147436,32.9424679 1.23262821,32.8081731 1.12798077,32.4667468 C0.0338301282,28.8953526 -0.267692308,25.2658654 0.238076923,21.5619391 C0.694487179,18.2195513 1.78815705,15.1012019 3.51371795,12.2143429 C6.13775641,7.82419872 9.77886218,4.53645833 14.4061859,2.35032051 C16.6746154,1.27860577 19.0526603,0.570272436 21.5417628,0.241987179 C22.1607532,0.160336538 22.7800641,0.0806089744 23.3992147,0" id="Fill-1" fill="#DCE2E8" mask="url(#mask-2)"></path>
                </g>
                <path d="M23.3992147,50 C22.7415224,49.9171474 22.0827885,49.8419872 21.4264583,49.75 C19.4569872,49.4740385 17.5536218,48.9481571 15.7060256,48.2165064 C15.6605128,48.1984776 15.6215705,48.1637019 15.5240545,48.1011218 L34.4916026,48.1011218 C34.3361538,48.1820513 34.2470513,48.2401442 34.1498558,48.2773237 C31.8150801,49.1711538 29.4129167,49.768109 26.9095513,49.9213141 C26.8065865,49.9276442 26.7060256,49.9729167 26.6043429,50 L23.3992147,50 Z" id="Fill-4" fill="#DCE2E8"></path>
                <path d="M2.12376603,35.1184615 L47.8767308,35.1184615 C47.6993269,35.4821635 47.4877083,35.8031571 47.3812179,36.1558013 C47.1040545,37.0739904 46.5370673,37.2871314 45.5866667,37.2845673 C31.6091827,37.2461859 17.6316186,37.2567628 3.65397436,37.2662179 C3.31575321,37.2664583 3.12040064,37.1842468 2.97961538,36.8670994 C2.72288462,36.2888942 2.42536859,35.7287981 2.12376603,35.1184615" id="Fill-6" fill="#DCE2E8"></path>
                <path d="M4.55264423,39.433133 L45.4260417,39.433133 C45.1129808,39.8448317 44.8004808,40.1854567 44.5692308,40.574399 C44.0932692,41.3749599 43.4543269,41.613742 42.503766,41.610617 C30.5803686,41.5716747 18.6568109,41.5836939 6.73333333,41.5924279 C6.40905449,41.5926683 6.18277244,41.5121394 5.98661859,41.2534856 C5.53878205,40.663101 5.07075321,40.088101 4.55264423,39.433133" id="Fill-8" fill="#DCE2E8"></path>
                <path d="M8.58754006,43.7657933 L41.4216747,43.7657933 C41.438742,43.7913542 41.4558894,43.8169151 41.4729567,43.8423958 C40.9054087,44.2890304 40.3176683,44.7126683 39.7752804,45.1879888 C39.1048478,45.7754087 38.3577324,45.9323798 37.4719151,45.9294151 C28.8866587,45.9004087 20.301242,45.9140304 11.7159054,45.9019311 C11.458774,45.9015304 11.1621394,45.8088221 10.9518029,45.6620272 C10.1268029,45.0860657 9.3291266,44.4710817 8.52127404,43.870601 C8.54338942,43.8356651 8.56542468,43.8007292 8.58754006,43.7657933" id="Fill-10" fill="#DCE2E8"></path>
            </g>
        </g>
    </g>
</svg>