<?xml version="1.0" encoding="UTF-8" standalone="no"?>
<svg width="50px" height="50px" viewBox="0 0 50 50" version="1.1" xmlns="http://www.w3.org/2000/svg" xmlns:xlink="http://www.w3.org/1999/xlink">
    <!-- Generator: Sketch 42 (36781) - http://www.bohemiancoding.com/sketch -->
    <title>Group 4</title>
    <desc>Created with Sketch.</desc>
    <defs></defs>
    <g id="Page-1" stroke="none" stroke-width="1" fill="none" fill-rule="evenodd">
        <g id="Artboard" transform="translate(-368.000000, -636.000000)" fill="#DCE2E8">
            <g id="Group-4" transform="translate(368.000000, 636.000000)">
                <g id="Page-1">
                    <path d="M34.9467921,16.6872668 C36.4778069,16.6992962 37.7176596,15.4654992 37.7314894,13.8627987 C37.7440917,12.4014239 36.4233879,11.1177087 35.0086579,11.0977414 C33.3131588,11.0738462 32.0974468,12.3976596 32.1087398,13.8703273 C32.1208511,15.4575614 33.2345172,16.6749918 34.9467921,16.6872668 M12.2580033,14.6623077 L12.2580033,22.2599345 L9.189018,22.2599345 L9.189018,23.2505237 L12.2734697,23.2505237 L12.2734697,23.7844026 C12.2734697,27.7668903 12.2679051,31.7492962 12.2807529,35.7317021 C12.2822259,36.2115712 12.326743,36.7059247 12.4485106,37.1678723 C12.8059574,38.5237643 13.5668412,39.5039607 15.0098036,39.87491 C16.1681506,40.1727005 17.3191326,40.3555974 18.5142226,40.1780196 C19.2125041,40.0742553 19.8506383,39.8580524 20.4298527,39.4366939 C20.9913912,39.0281833 21.4062848,38.51018 21.7249427,37.9009329 C21.9683961,38.2510966 22.1663502,38.605761 22.4304255,38.9013421 C23.047856,39.5923404 23.8755155,39.8726187 24.7630769,40.0425041 C25.8174959,40.2443044 26.8805892,40.3799018 27.9327987,40.1476596 C29.6900818,39.7598527 30.7246972,38.5977414 31.1773159,36.8894763 C31.3138134,36.3740917 31.2976923,36.3698363 30.7290344,36.2467594 C30.633126,36.5313748 30.5497381,36.824419 30.4368903,37.1056792 C29.9545663,38.3078887 29.2809165,39.356252 27.8785434,39.5543699 C26.6088216,39.733748 25.77527,39.5277741 25.2714239,38.2828478 C25.0260065,37.6764648 24.9005565,36.9810475 24.8954828,36.3245827 C24.8629951,32.0969231 24.8787889,27.8688543 24.8787889,23.6408674 L24.8787889,23.2583797 L33.2227332,23.2583797 L33.2227332,23.7635352 L33.2227332,33.9515876 C33.2227332,35.3563339 33.2107856,36.7612439 33.2308347,38.1657447 C33.236072,38.5344845 33.1140589,38.6529787 32.7611129,38.6201637 C32.4940098,38.5953682 32.2227332,38.6152537 31.937054,38.6152537 L31.937054,39.6540426 L38.7577578,39.6540426 L38.7577578,38.5977414 L36.7323895,38.5977414 L36.7323895,22.2380851 L24.8764975,22.2380851 L24.8764975,11.9410311 C24.2031751,13.5100982 23.1300164,14.5252373 21.3569394,14.6686088 L21.3569394,15.1382488 C21.3569394,17.3476596 21.3490016,19.557234 21.3647136,21.766563 C21.3673322,22.1362029 21.2773977,22.2632897 20.8873813,22.257725 C19.3465466,22.2356301 17.8049755,22.2355483 16.2641408,22.257725 C15.8729787,22.2633715 15.7861538,22.134239 15.7877087,21.7658265 C15.8009656,18.6290835 15.7953191,15.4921768 15.7953191,12.35527 L15.7953191,11.9375941 C15.1077578,13.4761375 14.0606219,14.4980687 12.2580033,14.6623077 M24.9499836,0.0749099836 C38.7981015,0.0677905074 49.9194599,11.2289198 49.8950736,25.1085434 C49.8832079,31.8711457 47.4376268,37.7569067 42.678216,42.5630442 C37.8063666,47.4828478 31.8055483,49.9835025 24.8857447,49.9618167 C17.8111129,49.9397218 11.7323077,47.308707 6.84507365,42.1890671 C2.68590835,37.8321931 0.375351882,32.5633715 0.0511292962,26.5379214 C-0.369738134,18.7159902 2.33574468,12.058707 8.02379705,6.68481178 C12.3345172,2.61214403 18.326743,0.0447954173 24.9499836,0.0749099836" id="Fill-4"></path>
                    <path d="M15.7952782,23.3257119 L21.3568985,23.3257119 L21.3568985,23.8025532 C21.3568985,27.8658101 21.3309574,31.9293944 21.3819394,35.9919149 C21.3906137,36.6870867 21.3750655,37.3185106 21.017455,37.9127005 C20.5958511,38.6132733 20.0986334,39.2780033 19.2838216,39.5096727 C17.6890589,39.9630278 16.3859493,39.6464975 15.9742471,37.716874 C15.8294026,37.0380687 15.8054255,36.3240753 15.802725,35.6257938 C15.7873404,31.6990344 15.7952782,27.7721113 15.7952782,23.8451882 L15.7952782,23.3257119 Z" id="Fill-64"></path>
                </g>
            </g>
        </g>
    </g>
</svg>