<svg width="50px" height="48px" viewBox="269 172 50 48" version="1.1" xmlns="http://www.w3.org/2000/svg" xmlns:xlink="http://www.w3.org/1999/xlink">
    <!-- Generator: Sketch 42 (36781) - http://www.bohemiancoding.com/sketch -->
    <desc>Created with Sketch.</desc>
    <defs></defs>
    <g id="T" stroke="none" stroke-width="1" fill="none" fill-rule="evenodd" transform="translate(269.000000, 172.000000)">
        <path d="M24.8089756,47.8675276 L31.731122,10.1631496 C38.3291707,10.1631496 40.4103415,10.863874 40.7108293,13.7240315 C40.7108293,13.7240315 45.1369756,12.1256693 47.3693659,8.87943307 C38.6579512,4.96988976 29.9049756,4.7935748 29.9049756,4.7935748 L24.7974634,10.8185197 L24.8089756,10.8177638 L19.7014634,4.79262992 C19.7014634,4.79262992 10.9482927,4.96913386 2.23804878,8.87867717 C4.4684878,12.1249134 8.89639024,13.7232756 8.89639024,13.7232756 C9.19863415,10.8629291 11.2772683,10.1622047 17.8310244,10.1576693 L24.8089756,47.8675276" id="path35" fill="#DCE2E8" fill-rule="nonzero"></path>
        <path d="M24.8062439,3.05329134 C31.8481951,3.00113386 39.9084878,4.10834646 48.1598049,7.59137008 C49.2626341,5.66891339 49.5461463,4.81927559 49.5461463,4.81927559 C40.5262439,1.36308661 32.0792195,0.180283465 24.8052683,0.150614173 C17.5317073,0.180283465 9.08507317,1.36327559 0.0663414634,4.81927559 C0.0663414634,4.81927559 0.468682927,5.86582677 1.45170732,7.59137008 C9.70146341,4.10834646 17.763122,3.00113386 24.8052683,3.05329134 L24.8062439,3.05329134" id="path37" fill="#DCE2E8" fill-rule="nonzero"></path>
    </g>
</svg>
