<svg width="36px" height="72px" viewBox="0 0 24 48" version="1.1" xmlns="http://www.w3.org/2000/svg" xmlns:xlink="http://www.w3.org/1999/xlink">
<!-- Generator: Sketch 42 (36781) - http://www.bohemiancoding.com/sketch -->
<desc>Created with Sketch.</desc>
<defs></defs>
<path d="M13.2326247,10.2474817 C13.2083684,10.2555672 13.1841121,10.2604184 13.1582387,10.2604184 C13.1323653,10.2604184 13.108109,10.2555672 13.0838527,10.2474817 L12.1330054,11.921167 C12.1863693,11.9648284 12.2203281,12.0311289 12.2203281,12.1038979 C12.2203281,12.1750497 12.1896035,12.236499 12.1410909,12.2817774 L13.1032578,13.9748678 C13.1291312,13.9651652 13.1550045,13.960314 13.1841121,13.960314 C13.200283,13.960314 13.2148368,13.9619311 13.2293906,13.9651652 L14.1883233,12.2769262 C14.1430448,12.2332648 14.1155544,12.1734326 14.1155544,12.1055149 C14.1155544,12.0375973 14.1446619,11.976148 14.1899404,11.9324866 L13.2326247,10.2474817 Z M15.4011387,14.0201462 L14.4405889,12.328673 C14.4147155,12.3383755 14.3856079,12.3448439 14.3565004,12.3448439 C14.332244,12.3448439 14.3112219,12.3399926 14.2885827,12.3335242 L13.3345012,14.0136779 C13.3894822,14.0573392 13.4250581,14.1236398 13.4250581,14.1996429 C13.4250581,14.2610922 13.4008018,14.3176903 13.3619917,14.3597345 L14.3079877,16.0253344 C14.3273928,16.0204831 14.3484149,16.0156318 14.3710541,16.0156318 C14.3904592,16.0156318 14.4098642,16.018866 14.4292693,16.0237173 L15.3784995,14.3532662 C15.3429236,14.3112219 15.3202843,14.257858 15.3202843,14.1980258 C15.3186673,14.126874 15.351009,14.0638076 15.4011387,14.0201462 Z M9.50200451,16.0334198 C9.529495,16.0221002 9.56021965,16.0156318 9.59094431,16.0156318 C9.61034936,16.0156318 9.6297544,16.018866 9.64915945,16.0237173 L10.5983897,14.3532662 C10.5628137,14.3112219 10.5401745,14.257858 10.5401745,14.1980258 C10.5401745,14.1365765 10.5644308,14.0815955 10.6016238,14.0395513 L9.63460567,12.3367584 C9.61681771,12.3416097 9.59741266,12.3448439 9.57800761,12.3448439 C9.54404878,12.3448439 9.51332412,12.3383755 9.48421655,12.3254388 L8.52528383,14.0136779 C8.5802648,14.0573392 8.61584072,14.1236398 8.61584072,14.1996429 C8.61584072,14.2610922 8.59158441,14.3176903 8.55277432,14.3597345 L9.50200451,16.0334198 Z M11.9809992,12.3448439 C11.9486575,12.3448439 11.9163157,12.3383755 11.8872082,12.3254388 L10.9282754,14.0136779 C10.9832564,14.0573392 11.0188323,14.1236398 11.0188323,14.1996429 C11.0188323,14.2610922 10.994576,14.3176903 10.9557659,14.3597345 L11.9066132,16.0334198 C11.9341037,16.0221002 11.9632113,16.0156318 11.9939359,16.0156318 C12.013341,16.0156318 12.032746,16.018866 12.0521511,16.0237173 L13.0013813,14.3532662 C12.9658053,14.3112219 12.9431661,14.257858 12.9431661,14.1980258 C12.9431661,14.1365765 12.9674224,14.0799784 13.0062325,14.0379342 L12.0392144,12.3351413 C12.0214264,12.3399926 12.0020214,12.3448439 11.9809992,12.3448439 Z M13.793754,17.1572954 L14.2093454,16.4296062 C14.1608328,16.3859448 14.1301081,16.3244955 14.1301081,16.2549608 C14.1301081,16.185426 14.1592157,16.1255938 14.2061112,16.0819324 L13.2649665,14.424418 C13.2390931,14.4341205 13.2132197,14.4389718 13.1841121,14.4389718 C13.1533875,14.4389718 13.1242799,14.4325035 13.0967894,14.4228009 L12.1556446,16.0803153 C12.2041573,16.1239767 12.2348819,16.1870431 12.2348819,16.2581949 C12.2348819,16.3277297 12.2041573,16.3859448 12.1572617,16.4296062 L12.5744702,17.1605296 L13.793754,17.1605296 L13.793754,17.1572954 Z M11.3891453,17.1572954 L11.8160563,16.408584 C11.7788633,16.3665398 11.7562241,16.3131759 11.7562241,16.2533437 C11.7562241,16.1935114 11.7788633,16.1417646 11.8144392,16.0997204 L10.8619749,14.4228009 C10.8361015,14.4325035 10.8102281,14.4373547 10.7811205,14.4373547 C10.7503958,14.4373547 10.7212883,14.4308864 10.6937978,14.4211838 L9.75103595,16.0786982 C9.79954856,16.1223596 9.83027322,16.185426 9.83027322,16.2565778 C9.83027322,16.3261126 9.79954856,16.3843277 9.75265303,16.4279891 L10.1698615,17.1572954 L11.3891453,17.1572954 Z M10.8296331,10.2474817 C10.8053768,10.2555672 10.7811205,10.2604184 10.7552471,10.2604184 C10.7293737,10.2604184 10.7051174,10.2555672 10.6808611,10.2474817 L9.73001381,11.921167 C9.78337769,11.9648284 9.81733652,12.0311289 9.81733652,12.1038979 C9.81733652,12.1750497 9.78661187,12.2381161 9.73648216,12.2817774 L10.697032,13.9748678 C10.7229054,13.9651652 10.7503958,13.9586969 10.7795034,13.9586969 C10.7956743,13.9586969 10.8102281,13.960314 10.8247819,13.9635482 L11.7950342,12.254287 C11.7610754,12.2138598 11.7416703,12.162113 11.7416703,12.1038979 C11.7416703,12.0456827 11.7626925,11.9939359 11.7966513,11.9518917 L10.8296331,10.2474817 Z M12.0570023,16.4829701 C12.0375973,16.4878213 12.0165751,16.4942897 11.995553,16.4942897 C11.9664454,16.4942897 11.9373379,16.4845871 11.9114645,16.4748846 L11.5217465,17.1572954 L12.4434862,17.1572954 L12.0570023,16.4829701 Z M15.2378129,10.6355827 L14.5068895,11.921167 C14.5602533,11.9648284 14.5942122,12.0311289 14.5942122,12.1038979 C14.5942122,12.1653472 14.571573,12.218711 14.5343799,12.2607553 L15.5030152,13.9651652 C15.5191861,13.9619311 15.5353569,13.960314 15.5515278,13.9586969 L15.5515278,13.7031971 C15.2620692,12.5227234 15.1893003,11.5023414 15.2378129,10.6355827 Z M10.0372604,17.1572954 L9.65077654,16.4829701 C9.63137149,16.4878213 9.61196645,16.4942897 9.59094431,16.4942897 C9.56021965,16.4942897 9.53272917,16.4845871 9.50523869,16.4748846 L9.11552067,17.1589125 L10.0372604,17.1589125 L10.0372604,17.1572954 Z M15.5579962,14.4389718 L15.5579962,14.4389718 C15.5272715,14.4389718 15.4965468,14.4325035 15.4706734,14.4228009 L14.5295287,16.0803153 C14.5780413,16.1239767 14.608766,16.1870431 14.608766,16.2581949 C14.608766,16.3180272 14.5861267,16.3665398 14.5505508,16.408584 L14.9790789,17.1589125 L15.7504295,17.1589125 C15.740727,16.9486912 15.7164707,16.6770205 15.6873631,16.3600714 C15.6744264,16.2177677 15.6598727,16.0641445 15.6453189,15.8992016 C15.6339993,15.8684769 15.6307651,15.8361352 15.6372334,15.8037934 C15.6032746,15.407607 15.5725499,14.9548226 15.5579962,14.4389718 Z M6.45702928,40.0730384 L5.83930196,40.2654718 L6.15139979,40.6438702 L6.45702928,40.0730384 Z M11.9130816,45.3835529 C17.0667385,45.3835529 21.2679311,41.2357242 21.3665735,36.1095577 L2.45958966,36.1095577 C2.55823198,41.2357242 6.75942459,45.3835529 11.9130816,45.3835529 Z M16.3859448,40.4498198 L17.2252131,40.6422531 L16.9988209,39.8078361 L17.3173871,39.4747162 L17.631102,40.7538322 L18.1631237,41.2615975 L17.8833676,41.5559074 L17.3578142,41.0546104 L16.0609103,40.7958764 L16.3859448,40.4498198 Z M14.5214433,37.9853788 L14.7478355,37.9853788 L14.7478355,38.7939224 L15.2491325,38.7939224 L15.2491325,38.9879729 L14.5214433,38.9879729 L14.5214433,37.9853788 Z M15.0486137,41.3537715 C15.3574773,41.1936799 15.5951892,41.2001482 15.8248156,41.2713001 L15.7326416,41.6545497 C15.5466765,41.6060371 15.3817337,41.602803 15.2184078,41.6868915 C14.9418859,41.8308122 14.8626487,42.1623151 15.0081865,42.4436883 L15.0098036,42.4485396 C15.1553414,42.7282957 15.4706734,42.8625139 15.7520466,42.716976 C15.9396287,42.6199508 16.0140148,42.4857326 16.0819324,42.3013846 L16.4312233,42.4129636 C16.3568372,42.679783 16.2274703,42.8900044 15.9121383,43.0533302 C15.4302463,43.3039787 14.8804366,43.1180137 14.6362564,42.6474413 L14.6346394,42.64259 C14.3936934,42.178486 14.5473166,41.6141226 15.0486137,41.3537715 Z M13.6045548,37.9853788 L13.8066907,37.9853788 L14.2336017,38.9879729 L14.0039753,38.9879729 L13.9134185,38.7777516 L13.4929758,38.7777516 L13.4024189,38.9879729 L13.1792609,38.9879729 L13.6045548,37.9853788 Z M12.2575211,37.9853788 L13.0822356,37.9853788 L13.0822356,38.1794293 L12.7911599,38.1794293 L12.7911599,38.9879729 L12.5647677,38.9879729 L12.5647677,38.1794293 L12.2575211,38.1794293 L12.2575211,37.9853788 Z M12.3302901,42.1817202 L13.3328841,43.197251 L13.1873463,42.0717582 L13.5851497,42.0200115 L13.8228616,43.8489371 L13.4800391,43.8925985 L12.4434862,42.8447259 L12.5938753,44.0074116 L12.1960718,44.0591584 L11.95836,42.2302328 L12.3302901,42.1817202 Z M11.7238824,37.9853788 L11.9341037,37.9853788 L11.9341037,38.9879729 L11.7238824,38.9879729 L11.7238824,37.9853788 Z M10.4140417,38.488293 C10.4140417,38.2053027 10.6339656,37.9740592 10.9347438,37.9740592 C11.1142405,37.9740592 11.2209682,38.0225718 11.3244618,38.1098946 L11.1870094,38.2764545 C11.1110063,38.2133881 11.0414715,38.1761951 10.9266584,38.1761951 C10.7681838,38.1761951 10.6404339,38.3168817 10.6404339,38.4866759 L10.6404339,38.48991 C10.6404339,38.6710238 10.7633325,38.8052421 10.937978,38.8052421 C11.0172152,38.8052421 11.0932183,38.785837 11.141731,38.7454098 L11.141731,38.6014891 L10.9315096,38.6014891 L10.9315096,38.4236095 L11.3681232,38.4236095 L11.3681232,38.8472863 C11.2549271,38.934609 11.1223259,39.0041438 10.9395951,39.0041438 C10.6291143,39.0041438 10.4140417,38.7874541 10.4140417,38.4931442 L10.4140417,38.488293 Z M9.84806118,37.9853788 L10.0582825,37.9853788 L10.0582825,38.9879729 L9.84806118,38.9879729 L9.84806118,37.9853788 Z M9.91921302,41.9068153 L11.2808005,42.1914227 L11.2064144,42.5455648 L10.2393963,42.3434289 L10.1633932,42.7105077 L11.0139811,42.8883873 L10.9395951,43.2425294 L10.0890072,43.0646498 L10.0097699,43.4430482 L10.9897248,43.6484183 L10.9153387,44.0025604 L9.54081461,43.7147189 L9.91921302,41.9068153 Z M8.58673315,37.9853788 L8.97321699,37.9853788 C9.28531483,37.9853788 9.49230199,38.2053027 9.49230199,38.4850588 L9.49230199,38.488293 C9.49230199,38.7680491 9.28531483,38.9879729 8.97321699,38.9879729 L8.58673315,38.9879729 L8.58673315,37.9853788 Z M7.2768925,41.5704612 L7.28012667,41.5656099 C7.55179733,41.1160597 8.12262911,40.9608193 8.60128693,41.2486608 C8.88589428,41.4200721 9.01041,41.6011859 9.09126436,41.8405148 L8.71286595,41.9714988 C8.65303372,41.7968534 8.57864771,41.6723377 8.39591685,41.5623758 C8.14365125,41.4103696 7.80729711,41.5122461 7.64558838,41.7806825 L7.64235421,41.7855338 C7.46770879,42.0749924 7.53886063,42.4064953 7.81861672,42.5746724 C7.94474952,42.6506755 8.07735067,42.6878685 8.20348348,42.6765489 L8.3393188,42.4517737 L7.99002796,42.2399353 L8.17114173,41.9391571 L8.85678671,42.3531314 L8.44281238,43.0387764 C8.19701513,43.0775865 7.90593943,43.0565644 7.61648081,42.8819189 C7.1248863,42.585992 6.99551932,42.0377994 7.2768925,41.5704612 Z M6.95509214,39.9113297 L6.02526699,41.7046794 L5.75521342,41.3780278 L5.96705185,40.9850756 L5.47060607,40.3835192 L5.04369504,40.5161203 L4.78010983,40.1975542 L6.71576323,39.6251053 L6.95509214,39.9113297 Z M9.28208065,38.4915271 L9.28208065,38.488293 C9.28208065,38.3120305 9.15109659,38.1794293 8.97321699,38.1794293 L8.81312536,38.1794293 L8.81312536,38.7939224 L8.97321699,38.7939224 C9.15109659,38.7939224 9.28208065,38.6677896 9.28208065,38.4915271 Z M6.55082033,22.5583667 C6.39719705,22.4726611 6.26783007,22.4387023 6.15948523,22.4387023 C6.0495233,22.4387023 5.9605835,22.4758953 5.88781457,22.5308763 C5.87649496,22.5421959 5.86517535,22.5535155 5.85223866,22.5616009 C5.63554897,22.7637368 5.58865344,23.1453694 5.58380218,23.1728599 C5.46090355,23.787353 5.79402352,23.8649732 6.04467203,24.1786881 C6.29693764,24.4924031 6.35030152,25.029276 6.00262777,25.2459657 C5.48515986,25.5693831 5.91368797,25.844288 6.0236499,25.9073544 C6.0737796,25.9364619 6.12876057,25.9477816 6.18212445,25.9477816 C6.2888522,25.9477816 6.3907287,25.9041202 6.45056093,25.8653101 C6.64299431,25.7375602 6.67533605,25.4836775 6.69312401,25.3640131 C6.79661759,24.6977731 6.47805141,23.8520365 6.23710541,23.3685274 C6.1756561,23.2472459 6.33251356,23.0062999 6.51201024,23.0062999 C6.58477917,23.0062999 6.66239935,23.04511 6.73031702,23.1486036 C6.74972206,23.1777111 6.80955429,23.2569484 6.8710036,23.2569484 C6.89202574,23.2569484 6.91466496,23.2472459 6.93407001,23.2246067 C7.07313951,23.062898 6.87908904,22.7427147 6.55082033,22.5583667 Z M13.7031971,38.2457299 L13.570596,38.5675302 L13.8341812,38.5675302 L13.7031971,38.2457299 Z M17.9755416,22.5616009 C17.9609878,22.5535155 17.9496682,22.5421959 17.9383485,22.5308763 C17.8655796,22.4758953 17.7782569,22.4387023 17.668295,22.4387023 C17.5599501,22.4387023 17.4305832,22.4742782 17.2769599,22.5583667 C16.9486912,22.7427147 16.7546407,23.062898 16.8920931,23.2229896 C16.9131153,23.2472459 16.9341374,23.2553313 16.9551595,23.2553313 C17.0182259,23.2553313 17.0764411,23.1760941 17.0958461,23.1469865 C17.1637638,23.0434929 17.241384,23.0046828 17.3141529,23.0046828 C17.4952667,23.0046828 17.650507,23.2456288 17.5890577,23.3669104 C17.3481117,23.8504194 17.0295455,24.696156 17.1330391,25.362396 C17.1524442,25.4820604 17.1831688,25.7359431 17.3756022,25.863693 C17.4338173,25.9025031 17.5373109,25.9461645 17.6440387,25.9461645 C17.6974026,25.9461645 17.7523835,25.9348449 17.8025132,25.9057373 C17.9124752,25.8426709 18.3410033,25.5677661 17.8235354,25.2443486 C17.4758616,25.0276589 17.5292255,24.490786 17.7814911,24.1770711 C18.0337567,23.8633561 18.3652596,23.7857359 18.2423609,23.1712428 C18.2375097,23.1453694 18.1922312,22.7621197 17.9755416,22.5616009 Z M8.37489472,13.9586969 C8.39106559,13.9586969 8.40561938,13.960314 8.42017316,13.9635482 L9.39204258,12.2526699 C9.35970084,12.2122427 9.3386787,12.1604959 9.3386787,12.1038979 C9.3386787,12.0456827 9.35970084,11.9939359 9.39365967,11.9535087 L8.58188189,10.5256207 C8.64494829,11.4150187 8.57703062,12.4725937 8.2762524,13.7048142 L8.2762524,13.9813361 C8.30697706,13.9683994 8.3393188,13.9586969 8.37489472,13.9586969 Z M13.2229222,6.08348213 C13.1986659,6.09156756 13.1744096,6.09641883 13.1485362,6.09641883 C13.1226628,6.09641883 13.0984065,6.09156756 13.0741502,6.08348213 L12.1184516,7.76686993 C12.1604959,7.81053128 12.1863693,7.86874642 12.1863693,7.93342991 C12.1863693,7.9981134 12.1604959,8.05632854 12.1200687,8.09837281 L13.0838527,9.7946973 C13.108109,9.78661187 13.1323653,9.7817606 13.1598558,9.7817606 C13.182495,9.7817606 13.2051343,9.78661187 13.2245393,9.79146313 L14.1931745,8.0870532 C14.1575986,8.04500893 14.1349594,7.99164505 14.1349594,7.93342991 C14.1349594,7.87683186 14.1559815,7.82508507 14.1883233,7.78465788 L13.2229222,6.08348213 Z M10.8183135,6.08348213 C10.7940572,6.09156756 10.7698009,6.09641883 10.7439275,6.09641883 C10.7180541,6.09641883 10.6937978,6.09156756 10.6695415,6.08348213 L9.71384294,7.76686993 C9.75588721,7.81053128 9.7817606,7.86874642 9.7817606,7.93342991 C9.7817606,7.9981134 9.75588721,8.05632854 9.71384294,8.09998989 L10.6776269,9.79631439 C10.7018832,9.78822895 10.7277566,9.7817606 10.7552471,9.7817606 C10.7778863,9.7817606 10.8005256,9.78661187 10.8199306,9.79146313 L11.7788633,8.10322407 C11.735202,8.05956271 11.7077115,7.99973049 11.7077115,7.93181282 C11.7077115,7.86712933 11.7335849,7.80891419 11.7756291,7.76525284 L10.8183135,6.08348213 Z M8.14041707,16.3584543 C8.1113095,16.6770205 8.08543611,16.9470741 8.07735067,17.1572954 L8.9845366,17.1572954 L9.41306472,16.408584 C9.37587171,16.3665398 9.35323249,16.314793 9.35323249,16.2533437 C9.35323249,16.1951285 9.37587171,16.1433817 9.40983054,16.1013375 L8.45574908,14.4228009 C8.42987569,14.4325035 8.40400229,14.4373547 8.37489472,14.4373547 C8.34417006,14.4373547 8.31506249,14.4308864 8.28757201,14.4211838 L8.26816696,14.4535256 C8.25361318,14.9629081 8.22288852,15.4124583 8.19054678,15.8005592 C8.19701513,15.832901 8.19378095,15.8652427 8.18246134,15.8959674 C8.16790756,16.0625274 8.15335377,16.2145336 8.14041707,16.3584543 Z M17.8623455,19.429303 C17.9367315,19.7705084 17.9949466,20.4254287 17.6440387,20.7375265 C17.3497288,20.9978776 16.351986,21.0415389 14.645959,21.0415389 C14.36782,21.0415389 14.071893,21.043156 13.7549439,21.0415389 C13.404036,21.0399218 13.0434255,21.0399218 12.6779638,21.0399218 L11.1530506,21.0399218 C10.7875889,21.0399218 10.4253613,21.0399218 10.0760705,21.0415389 C7.82185089,21.0528585 6.5297982,21.043156 6.18697571,20.7391436 C5.8344507,20.4270458 5.89266584,19.7721255 5.96866894,19.4309201 C5.93309302,19.4341542 5.89913418,19.4357713 5.86355827,19.4373884 C5.72934003,19.4503251 5.39460297,19.466496 5.27493852,19.4729643 C5.20702085,19.6055655 5.2005525,20.153758 5.34447327,20.8038271 C5.46090355,21.3326146 5.60320722,21.5590068 5.6565711,21.5913486 C5.79402352,21.636627 5.8975171,21.7271839 5.95411515,21.8500825 C5.99292524,21.9341711 6.00586194,22.024728 6.00424485,22.1104336 C6.05599165,22.1007311 6.10773844,22.0942627 6.1627194,22.0942627 C6.33898191,22.0942627 6.52656403,22.1492437 6.72384867,22.2592056 C6.90819661,22.3626992 7.0618199,22.5001516 7.16693057,22.6489236 C7.31731968,22.6440724 7.52268976,22.5130883 7.60677829,22.4451706 C7.61648081,22.4370852 7.62780042,22.4289998 7.63912004,22.4241485 C7.67954722,22.4031264 8.65788498,21.9260856 9.7186942,22.4791295 C10.0097699,22.6311357 10.2005862,22.5502813 10.4884277,22.4354681 C10.716437,22.3432941 10.9735539,22.2365664 11.3244618,22.2365664 L12.5081697,22.2365664 C12.8590776,22.2365664 13.1161945,22.3432941 13.3442038,22.4354681 C13.6336624,22.5518984 13.8244787,22.6295186 14.1139373,22.4775124 C15.1747465,21.9244686 16.1514672,22.4015093 16.1935114,22.4225314 C16.204831,22.4289998 16.2161507,22.4354681 16.2258532,22.4435535 C16.3244955,22.5244079 16.5217801,22.6440724 16.6657009,22.6473065 C16.7724287,22.4985345 16.9260519,22.359465 17.1103999,22.2543543 C17.3060674,22.1460095 17.4936496,22.0894114 17.6699121,22.0894114 L17.6699121,22.0894114 C17.724893,22.0894114 17.7766398,22.0974969 17.8283866,22.1071994 C17.8267695,22.0214938 17.8397062,21.932554 17.8785163,21.8484655 C17.9351144,21.7255668 18.038608,21.636627 18.1760604,21.5913486 C18.2294242,21.5590068 18.3717279,21.3326146 18.4881582,20.8038271 C18.632079,20.1553751 18.6239935,19.6055655 18.557693,19.4729643 C18.447731,19.4681131 18.1049085,19.448708 17.9690732,19.4373884 C17.9302631,19.4341542 17.8963043,19.4309201 17.8623455,19.429303 Z M9.54243169,8.17275882 C9.51817539,8.17275882 9.49553617,8.16790756 9.47289694,8.16143921 L8.50749587,9.86099788 C8.52690092,9.98713068 8.54468888,10.1164977 8.55762558,10.2507159 L9.48421655,11.883974 C9.51332412,11.8726544 9.54404878,11.866186 9.57639053,11.866186 C9.5925614,11.866186 9.61034936,11.8678031 9.62490314,11.8710373 L10.5806017,10.1876495 C10.5385574,10.1439881 10.512684,10.085773 10.512684,10.0210895 C10.512684,9.95802311 10.5385574,9.89980797 10.5773675,9.8577637 L9.61358353,8.15982212 C9.5925614,8.16629047 9.56830509,8.17275882 9.54243169,8.17275882 Z M9.54243169,7.69248391 C9.56830509,7.69248391 9.5925614,7.69733518 9.61681771,7.70542061 L10.5725163,6.02203281 C10.530472,5.97837146 10.5045986,5.92015632 10.5045986,5.85547283 C10.5045986,5.78108682 10.5401745,5.71478624 10.5935384,5.67112489 L10.2862918,5.12940067 C10.0550483,5.25391638 9.77205808,5.40430549 9.42923559,5.41239093 C9.20769464,5.41724219 9.20446047,5.4414985 9.16726746,5.67759324 C9.15918202,5.72934003 9.15109659,5.78432099 9.13815989,5.84253613 C9.1365428,5.84738739 9.1365428,5.85223866 9.13492572,5.85708992 C9.05730553,6.11744096 8.91823603,6.30987434 8.75814439,6.45541219 L9.46966277,7.7070377 C9.4906849,7.69895226 9.5165583,7.69248391 9.54243169,7.69248391 Z M8.47677122,9.67988411 L9.37263754,8.10160698 C9.32897618,8.05794563 9.3014857,7.9981134 9.3014857,7.93181282 C9.3014857,7.86712933 9.32735909,7.80891419 9.36778627,7.76686993 L8.66435333,6.52818111 C8.39429977,6.7319341 8.08867028,6.81763973 7.90593943,6.85159856 L7.60677829,7.37876899 C7.90270525,7.83802176 8.28272075,8.59805276 8.47677122,9.67988411 Z M7.76363575,6.87585487 C7.57767072,6.9227504 7.44345248,6.96802884 7.34481016,7.01330728 C7.39817404,7.07799077 7.46447462,7.16531348 7.53724354,7.27365832 L7.76363575,6.87585487 Z M10.7439275,5.61776101 C10.7617155,5.61776101 10.7795034,5.62261227 10.7956743,5.62746353 L11.2193511,4.8852205 L11.0592595,4.8852205 C10.8910824,4.8852205 10.7439275,4.91917933 10.5563454,4.99679951 C10.5029815,5.01943874 10.4463835,5.04531213 10.3865512,5.07765388 L10.697032,5.62422936 C10.7132028,5.6193781 10.7293737,5.61776101 10.7439275,5.61776101 Z M10.9832564,5.85708992 C10.9832564,5.92177341 10.957383,5.97998855 10.9153387,6.0236499 L11.8710373,7.7070377 C11.8936765,7.69895226 11.9195499,7.694101 11.9454233,7.694101 C11.9712967,7.694101 11.995553,7.69895226 12.0198093,7.7070377 L12.9755079,6.0236499 C12.9334636,5.97998855 12.9075902,5.92177341 12.9075902,5.85708992 C12.9075902,5.78108682 12.9431661,5.71478624 12.9981471,5.67112489 L12.5469798,4.87875215 L11.3503352,4.87875215 L10.8991679,5.67597615 C10.9509147,5.7196375 10.9832564,5.78432099 10.9832564,5.85708992 Z M13.1485362,5.61776101 C13.1663242,5.61776101 13.1841121,5.6193781 13.200283,5.62422936 L13.4945929,5.10676145 C13.4153556,5.06310009 13.3393525,5.02590708 13.2698177,4.99679951 C13.0822356,4.91917933 12.9350807,4.8852205 12.7636694,4.8852205 L12.681198,4.8852205 L13.1032578,5.62584644 C13.1178115,5.62261227 13.1339824,5.61776101 13.1485362,5.61776101 Z M0,0 L0,36.0707476 C0,42.6587609 5.34609035,48 11.9341037,48 C18.522117,48 23.8682074,42.6587609 23.8682074,36.0707476 L23.8682074,0 L0,0 Z M11.9130816,45.7587171 C6.55243742,45.7587171 2.18306775,41.4459455 2.08442543,36.1095577 L2.06987164,36.1095577 L2.06987164,2.28009298 L21.7336523,2.28009298 L21.7336523,36.1095577 L21.7417377,36.1095577 C21.6430954,41.4459455 17.2737257,45.7587171 11.9130816,45.7587171 Z M6.53788364,15.0518479 C6.66725061,15.0405282 6.83542769,15.0340599 7.01977563,15.0534649 C7.36583229,15.090658 7.65529091,15.2070882 7.87521477,15.3930533 C7.9091736,14.9030758 7.935047,14.3419466 7.93019573,13.6870262 C7.93019573,13.6724725 7.93181282,13.6579187 7.935047,13.644982 C8.8584038,9.8836371 7.51298723,7.79436041 7.08931038,7.25263619 C7.06828825,7.30923424 7.05696864,7.37068356 7.04403194,7.44183539 C7.03432941,7.50166762 7.02624398,7.5550315 7.01815854,7.60354412 C6.95509214,8.00619883 6.93407001,8.06441397 6.60095004,8.23420813 C6.55082033,8.26008153 6.48937102,8.29080619 6.4166021,8.33123337 C6.41175083,8.33446754 6.40689957,8.33608463 6.40204831,8.33770171 C6.21931745,8.4153219 6.05760873,8.73712226 5.95734932,9.22063134 C5.70184954,10.4544689 5.90398545,12.1976889 6.16110231,12.4709767 C6.71091197,13.0498939 6.60418421,14.4858673 6.53788364,15.0518479 Z M2.47414345,35.7052859 L21.3940639,35.7052859 L21.3940639,2.66819392 L2.47414345,2.66819392 L2.47414345,35.7052859 Z M4.47124617,16.0172489 C4.90462554,15.6582556 5.8716437,15.2539838 6.17889027,15.1310851 C6.26297881,14.5311458 6.34868443,13.1711754 5.91207088,12.7070714 C5.48515986,12.2559041 5.38490045,10.2879089 5.62099518,9.1494795 C5.74874507,8.53498636 5.96381767,8.15497086 6.25974463,8.02398679 C6.33251356,7.98355961 6.39396287,7.95283496 6.44570967,7.92696156 C6.54111781,7.87844894 6.60418421,7.8461072 6.62035509,7.82185089 C6.64137722,7.78950915 6.65754809,7.68924974 6.67857023,7.54856315 C6.68665566,7.50005053 6.6947411,7.44668666 6.70444362,7.38523734 C6.77882963,6.94377253 6.93245292,6.72869993 7.69733518,6.53626655 C7.7070377,6.53464946 7.71674022,6.53303238 7.72644275,6.53141529 C7.76201866,6.52818111 8.59158441,6.45541219 8.80018866,5.76653303 C8.80989118,5.71640333 8.81797662,5.66789071 8.82444497,5.62422936 C8.86487215,5.36872958 8.91015059,5.07927096 9.41953307,5.06795135 C9.68796954,5.061483 9.91759593,4.93696729 10.1391369,4.81730283 C10.2377792,4.76393895 10.3299532,4.71380925 10.4237442,4.67499916 C10.6501364,4.5812081 10.8393356,4.53916383 11.0544082,4.53431257 L12.7669036,4.53431257 C12.9868275,4.53916383 13.1744096,4.5812081 13.4008018,4.67499916 C13.4945929,4.71380925 13.5867668,4.76393895 13.6854092,4.81730283 C13.9069501,4.93696729 14.1365765,5.061483 14.405013,5.06795135 C14.9143954,5.07927096 14.9596739,5.36872958 15.0001011,5.62422936 C15.0065694,5.66789071 15.0146549,5.71640333 15.0243574,5.76653303 C15.2345787,6.46026345 16.0900179,6.53141529 16.0981033,6.53141529 C16.1078058,6.53141529 16.1175083,6.53303238 16.1272109,6.53626655 C16.8920931,6.72708284 17.0473335,6.94377253 17.1201024,7.38523734 C17.1298049,7.44668666 17.1395075,7.50166762 17.1459758,7.55018024 C17.168615,7.68924974 17.1831688,7.78950915 17.204191,7.82185089 C17.2203618,7.8461072 17.2834282,7.87844894 17.3788364,7.92696156 C17.4305832,7.95283496 17.4904154,7.9851767 17.5648014,8.02398679 C17.8607284,8.15658795 18.075801,8.53498636 18.2035509,9.15109659 C18.4396456,10.289526 18.3393862,12.2575211 17.9124752,12.7086885 C17.4742445,13.1727925 17.5615672,14.5327629 17.6456558,15.1327022 C17.9529023,15.2556008 18.9199205,15.6598727 19.3532999,16.018866 C19.6734831,16.2856854 19.7494862,16.630125 19.5845433,17.074824 C19.4018125,17.5664185 18.89243,17.6456558 18.5932689,17.6165482 C18.001415,18.0466934 18.0159687,18.8503857 18.0709497,19.1010343 C18.2100192,19.1107368 18.447731,19.1236735 18.6110568,19.1317589 C18.7323384,19.1430785 18.8778762,19.2239329 18.9263888,19.5457332 C19.0104774,20.1003942 18.7873193,21.709396 18.3038103,21.9131489 C18.298959,21.914766 18.2924907,21.9180002 18.2876394,21.9196173 C18.2229559,21.9406394 18.2003167,21.9713641 18.1889971,21.9956204 C18.1469528,22.0845602 18.1809116,22.2284809 18.206785,22.3093353 C18.3943671,22.4823636 18.5253512,22.7572685 18.5803322,23.1114106 L18.5803322,23.1146447 C18.7080821,23.7630967 18.4186235,24.0363845 18.206785,24.2352862 C18.1485699,24.2902672 18.095206,24.3403969 18.0483105,24.398612 C17.9545194,24.5150423 17.9043897,24.6896877 17.9270289,24.8222889 C17.9415827,24.9079945 17.9787757,24.9403362 18.0062662,24.9565071 C18.3523229,25.1731968 18.4218576,25.4173769 18.4186235,25.5839369 C18.4137722,25.8265 18.2552976,26.0496581 17.9739245,26.2113668 C17.8752821,26.2679648 17.7637031,26.2970724 17.6440387,26.2970724 C17.4887983,26.2970724 17.3173871,26.2437085 17.1847859,26.1563858 C16.8743052,25.9493986 16.8177071,25.5887882 16.7950679,25.4335478 L16.7934508,25.418994 C16.6931914,24.7721591 16.9212007,24.0477041 17.1201024,23.5722804 C17.0715898,23.5916855 17.0166088,23.6046222 16.9567766,23.6046222 C16.8322609,23.6046222 16.7174477,23.5512583 16.6317421,23.452616 C16.5250143,23.3281003 16.481353,23.1647745 16.5120776,22.9917461 C16.5120776,22.9868949 16.5153118,22.9836607 16.5153118,22.9788094 C16.2889196,22.9254455 16.0884008,22.7782906 16.0237173,22.7281609 C15.907287,22.6764141 15.1084459,22.3513796 14.2740289,22.7879931 C13.8422666,23.0127683 13.5237004,22.8866354 13.2148368,22.7637368 C13.0062325,22.6796483 12.7911599,22.5955597 12.5065526,22.5955597 L11.3228447,22.5955597 C11.0382374,22.5955597 10.8231648,22.6796483 10.6145605,22.7637368 C10.3056969,22.8882525 9.98713068,23.0143853 9.55536839,22.7896102 C8.71448304,22.3513796 7.9221103,22.6764141 7.80568002,22.729778 C7.74099653,22.7799077 7.54047771,22.9270626 7.3140855,22.9804265 C7.31570259,22.9852778 7.31731968,22.9885119 7.31731968,22.9933632 C7.34804434,23.1663915 7.30438298,23.3297173 7.19765522,23.4542331 C7.1119496,23.5528754 6.99713641,23.6062393 6.87262069,23.6062393 C6.81278846,23.6062393 6.7578075,23.5933026 6.70929488,23.5738975 C6.90819661,24.0493212 7.13620591,24.7753933 7.0359465,25.4206111 L7.03432941,25.4351649 C7.01007311,25.5887882 6.95509214,25.9493986 6.64461139,26.1580029 C6.51201024,26.2453256 6.340599,26.2986895 6.18535862,26.2986895 C6.06569417,26.2986895 5.95411515,26.2695819 5.85547283,26.2129839 C5.57409965,26.0512751 5.41562511,25.8297342 5.41077384,25.585554 C5.40753967,25.418994 5.47707442,25.1748139 5.82313109,24.9581242 C5.85062157,24.9419533 5.88781457,24.9096116 5.90236836,24.8239059 C5.92500758,24.6913048 5.87487788,24.5166594 5.78108682,24.4002291 C5.73419129,24.3420139 5.68082741,24.2918842 5.62261227,24.2369033 C5.41077384,24.0363845 5.12131523,23.7630967 5.24906512,23.1162618 L5.24906512,23.1130277 C5.30566317,22.7588856 5.43664724,22.4839807 5.62422936,22.3109524 C5.65010275,22.2317151 5.68406158,22.0877944 5.64201732,21.9988546 C5.63069771,21.9745983 5.60805848,21.9422565 5.543375,21.9228515 C5.53852373,21.9212344 5.53205539,21.9196173 5.52720412,21.9163831 C5.04369504,21.7142472 4.82053701,20.1036283 4.90462554,19.5489674 C4.95313816,19.2271671 5.09867601,19.1463127 5.21187212,19.1349931 C5.38004919,19.1269077 5.62099518,19.113971 5.76006468,19.1026513 C5.81504565,18.8520028 5.82959943,18.0483105 5.23774551,17.6181653 C4.93858437,17.6472728 4.4292019,17.5696527 4.24647104,17.0764411 C4.07667689,16.6285079 4.1510629,16.2824512 4.47124617,16.0172489 Z M6.78529798,16.9519253 C6.92598457,17.2397669 7.11356669,17.8688138 7.03918068,18.4218576 C7.33510764,18.0612472 7.59222451,17.6019944 7.69733518,17.2850453 C7.70380352,17.2640232 7.71512313,17.2462352 7.72805983,17.2300643 C7.73452818,16.9777987 7.76201866,16.6754034 7.79436041,16.3309639 C7.80729711,16.1838089 7.82185089,16.0301856 7.83640468,15.8668598 C7.43213287,15.2345787 6.49422228,15.3995216 6.38264326,15.4221608 C6.31149143,15.4496513 5.93956137,15.5968063 5.54660917,15.7860055 C5.56278004,15.7892396 5.57895091,15.7924738 5.59512179,15.7973251 C6.06892834,15.9202237 6.46996597,16.3083246 6.78529798,16.9519253 Z M5.24583095,17.2640232 C5.2894923,17.2559377 5.33315366,17.2656403 5.37034666,17.2898966 C6.03011825,17.7184247 6.11744096,18.4719873 6.12390931,18.7759997 C6.1255264,18.8309807 6.1255264,18.9457939 6.10935552,19.0638413 C6.32281104,19.0185628 6.47643432,18.9150692 6.57507664,18.7517434 C6.85321565,18.2957248 6.64784557,17.4548395 6.47643432,17.1055486 C6.20799784,16.5589731 5.88296331,16.2307044 5.51426743,16.1320621 C5.09220766,16.018866 4.74129973,16.2468753 4.73806556,16.2501095 C4.72189469,16.2614291 4.7073409,16.2743658 4.6944042,16.2856854 C4.48741704,16.4570967 4.45184112,16.6462959 4.56665431,16.9551595 C4.71219216,17.3497288 5.22319173,17.2672574 5.24583095,17.2640232 Z M15.8911161,13.6433649 C15.8943503,13.6579187 15.8959674,13.6708554 15.8959674,13.6854092 C15.8911161,14.3403295 15.9169895,14.9014587 15.9509484,15.3914362 C16.1724893,15.2054711 16.4603308,15.0890409 16.8063875,15.0518479 C16.9907354,15.0324428 17.1605296,15.0389112 17.2882795,15.0502308 C17.2219789,14.4858673 17.1152512,13.0482768 17.6618266,12.4693596 C17.9205606,12.1960718 18.1226965,10.4528518 17.8655796,9.21901425 C17.7653202,8.73550517 17.6036115,8.4153219 17.4208806,8.33608463 C17.4160294,8.33446754 17.4111781,8.33123337 17.4063269,8.32961628 C17.3335579,8.2891891 17.2737257,8.25846444 17.2219789,8.23259105 C16.890476,8.06279689 16.8694539,8.00458175 16.8047704,7.60192703 C16.796685,7.5550315 16.7885995,7.50166762 16.778897,7.44021831 C16.7675774,7.36906647 16.7562578,7.30761715 16.7352357,7.2510191 C16.3131759,7.79759458 14.9709935,9.89495671 15.8911161,13.6433649 Z M7.08445912,18.8827275 C7.89461982,18.7824681 9.38072297,18.6450157 11.4586801,18.6450157 L12.3707172,18.6450157 C14.4470572,18.6450157 15.9347775,18.7840852 16.7449382,18.8827275 C16.3455176,18.484924 16.0026951,17.9011555 15.8474548,17.5130546 L7.98194253,17.5130546 C7.82670215,17.9011555 7.48387966,18.484924 7.08445912,18.8827275 Z M6.43277297,19.3258094 C6.38426035,19.3532999 6.34383317,19.3807904 6.32604521,19.3969612 C6.27268133,19.5457332 6.16110231,20.2524004 6.41336792,20.4771755 C6.67371896,20.708419 8.4783883,20.6954823 10.0712192,20.6890139 C10.4221271,20.6873968 10.7843547,20.6825456 11.1498164,20.6825456 L12.6747296,20.6825456 C13.0418084,20.6825456 13.4024189,20.6873968 13.7533268,20.6890139 C15.3461577,20.6970993 17.1508271,20.7068019 17.4111781,20.4755584 C17.6634437,20.2507833 17.5518647,19.5457332 17.4985008,19.3969612 C17.4807129,19.3791733 17.4402857,19.3532999 17.3917731,19.3258094 C17.3885389,19.3258094 17.3853047,19.3290436 17.3836876,19.3290436 C17.3658997,19.3258094 15.5838696,19.0007749 12.3674831,19.0007749 L11.4554459,19.0007749 C8.23420813,19.0007749 6.45702928,19.3258094 6.43924132,19.3290436 C6.43924132,19.3306606 6.43600714,19.3258094 6.43277297,19.3258094 Z M11.9470404,8.17275882 C11.9227841,8.17275882 11.9001449,8.16790756 11.8791227,8.16143921 L10.92019,9.84806118 C10.9654684,9.89172253 10.994576,9.95317185 10.994576,10.0210895 C10.994576,10.085773 10.9687026,10.1439881 10.9266584,10.1876495 L11.8904423,11.883974 C11.9179328,11.8726544 11.9486575,11.866186 11.9809992,11.866186 C11.9971701,11.866186 12.013341,11.8678031 12.0295118,11.8710373 L12.9852104,10.1876495 C12.9431661,10.1439881 12.9172927,10.085773 12.9172927,10.0210895 C12.9172927,9.95640602 12.9431661,9.89980797 12.9835933,9.85614662 L12.0198093,8.15982212 C11.9987872,8.16629047 11.9729138,8.17275882 11.9470404,8.17275882 Z M14.3742883,8.17275882 C14.3435637,8.17275882 14.312839,8.16629047 14.2853485,8.15497086 L13.3247987,9.84806118 C13.3700771,9.89172253 13.3991847,9.95317185 13.3991847,10.0210895 C13.3991847,10.085773 13.3733113,10.1439881 13.3312671,10.1876495 L14.2901998,11.8758886 C14.3112219,11.8694202 14.332244,11.866186 14.3548833,11.866186 C14.3710541,11.866186 14.387225,11.8678031 14.4033959,11.8710373 L15.2572179,10.3687633 C15.276623,10.1569248 15.3024964,9.95478894 15.3348381,9.76235556 L14.4292693,8.16629047 C14.4114813,8.16952464 14.3936934,8.17275882 14.3742883,8.17275882 Z M17.3513459,17.1039315 C17.1799346,17.4532224 16.9729475,18.2957248 17.2527036,18.7501263 C17.352963,18.9134521 17.5065863,19.0153286 17.7184247,19.0622242 C17.7038709,18.9441768 17.7038709,18.8293636 17.7038709,18.7743826 C17.7103393,18.4703702 17.797662,17.7184247 18.4574335,17.2882795 C18.4946266,17.2640232 18.5382879,17.2559377 18.5819493,17.2624061 C18.6029714,17.2656403 19.113971,17.3481117 19.262743,16.9519253 C19.3775562,16.6414446 19.3419803,16.4538625 19.1349931,16.2824512 C19.1204393,16.2711316 19.1058855,16.259812 19.0913317,16.2468753 L19.0913317,16.2468753 C19.0848634,16.2436411 18.7355725,16.0156318 18.3151299,16.1288279 C17.9448169,16.2290874 17.6197824,16.5573561 17.3513459,17.1039315 Z M14.4567598,16.4748846 C14.4292693,16.4862042 14.4001617,16.4942897 14.3694371,16.4942897 C14.3484149,16.4942897 14.330627,16.4878213 14.3112219,16.4829701 L13.9263552,17.1589125 L14.8480949,17.1589125 L14.4567598,16.4748846 Z M14.6136172,7.93342991 C14.6136172,8.00458175 14.5812755,8.06926524 14.5311458,8.11292659 L15.3671799,9.58447596 C15.5709329,8.53175218 15.9493313,7.79274332 16.2355557,7.3528956 L15.9557996,6.85968399 C15.7876225,6.83057642 15.4674393,6.75295624 15.184449,6.54758616 L14.5101236,7.73614527 C14.57319,7.77818954 14.6136172,7.85095846 14.6136172,7.93342991 Z M16.4829701,7.01330728 C16.3907961,6.97126301 16.2695145,6.92921874 16.1045716,6.88555739 L16.3083246,7.24616784 C16.3746252,7.15075969 16.4344574,7.07313951 16.4829701,7.01330728 Z M13.3878651,5.85708992 C13.3878651,5.92177341 13.3619917,5.97998855 13.3199474,6.0236499 L14.2788802,7.71350605 C14.3079877,7.70056935 14.3387124,7.694101 14.3726712,7.694101 C14.3823737,7.694101 14.3904592,7.69571809 14.3985446,7.69733518 L15.092275,6.47643432 C14.9208638,6.32927939 14.7720918,6.13037766 14.6912374,5.85708992 C14.6896203,5.85223866 14.6880032,5.84738739 14.6880032,5.84253613 C14.6750665,5.78432099 14.6669811,5.72772294 14.6588957,5.67759324 C14.6217027,5.4414985 14.6184685,5.41724219 14.3969275,5.41239093 C14.0815955,5.40430549 13.8163932,5.27817269 13.5964694,5.16012532 L13.3037766,5.67597615 C13.3555234,5.7196375 13.3878651,5.78432099 13.3878651,5.85708992 Z M15.9881414,15.8668598 C16.0026951,16.0301856 16.0172489,16.1838089 16.0301856,16.3309639 C16.0625274,16.6770205 16.0900179,16.9777987 16.0964862,17.2300643 C16.1094229,17.2462352 16.1207425,17.2640232 16.1272109,17.2850453 C16.2323215,17.6019944 16.4894384,18.0612472 16.7853654,18.4218576 C16.7109793,17.8688138 16.8985615,17.2397669 17.0392481,16.9519253 C17.3545801,16.3099417 17.7556177,15.9202237 18.2278072,15.795708 C18.243978,15.7908567 18.2601489,15.7892396 18.2763198,15.7843884 C17.8833676,15.5968063 17.5114375,15.4496513 17.4402857,15.4205437 C17.3319408,15.3995216 16.3907961,15.2378129 15.9881414,15.8668598 Z M6.340599,33.9717684 C5.60159014,33.9717684 5.12293232,33.4850251 5.12293232,32.8009972 L5.12293232,32.3223394 L5.76653303,32.3223394 L5.76653303,32.7314625 C5.76653303,33.1713102 5.97028602,33.4219587 6.340599,33.4219587 C6.72546575,33.4219587 6.91466496,33.1777785 6.91466496,32.8171681 C6.91466496,32.3304248 6.71899741,31.9762827 6.18374154,31.4976249 C5.70508372,31.0739481 5.17791328,30.4691574 5.17791328,29.7851295 C5.17791328,29.0865479 5.58703635,28.551292 6.36323822,28.551292 C7.06990533,28.551292 7.52592393,29.0380352 7.52592393,29.7301486 L7.52592393,30.2168918 L6.90496244,30.2168918 L6.90496244,29.8013004 C6.90496244,29.4002628 6.7319341,29.1253579 6.34706734,29.1253579 C6.00101068,29.1253579 5.821514,29.3291109 5.821514,29.6589967 C5.821514,30.1699963 6.02526699,30.4675403 6.63814304,31.0254354 C7.24293367,31.5671597 7.55664859,32.0619883 7.55664859,32.6991207 C7.55826567,33.5480915 6.99228515,33.9717684 6.340599,33.9717684 Z M10.7859718,33.8779773 L9.69443789,31.277701 L9.34838123,30.3980056 L9.34838123,33.8779773 L8.72741974,33.8779773 L8.72741974,28.6467001 L9.28531483,28.6467001 L10.3137823,31.2857865 L10.6355827,32.1735674 L10.6355827,28.6467001 L11.2565441,28.6467001 L11.2565441,33.8779773 L10.7859718,33.8779773 Z M13.7792002,33.9717684 C13.0725331,33.9717684 12.5615335,33.5238352 12.5615335,32.7702725 L12.5615335,28.6467001 L13.2132197,28.6467001 L13.2132197,32.7864434 C13.2132197,33.1793956 13.4024189,33.3831486 13.7872857,33.3831486 C14.1802378,33.3831486 14.3613516,33.1793956 14.3613516,32.7864434 L14.3613516,28.6467001 L15.0049523,28.6467001 L15.0049523,32.7702725 C15.0049523,33.5238352 14.4939528,33.9717684 13.7792002,33.9717684 Z M18.3976013,33.8779773 L18.2569147,33.5238352 C18.1081427,33.8229963 17.7928107,33.9717684 17.3933902,33.9717684 C16.686723,33.9717684 16.2630462,33.4688542 16.2630462,32.723377 L16.2630462,29.8013004 C16.2630462,29.1108042 16.6948085,28.5529091 17.4968837,28.5529091 C18.2973419,28.5529091 18.6676549,29.0639086 18.6676549,29.8013004 L18.6676549,30.3123 L18.0547788,30.3123 L18.0547788,29.7155948 C18.0547788,29.4164336 17.8817505,29.1496143 17.4968837,29.1496143 C17.1039315,29.1496143 16.9163494,29.4326045 16.9163494,29.7236802 L16.9163494,32.8026143 C16.9163494,33.1163292 17.0974632,33.391234 17.4968837,33.391234 C17.8898359,33.391234 18.0774181,33.1163292 18.0774181,32.8026143 L18.0774181,31.796786 L17.519523,31.796786 L17.519523,31.2388909 L18.7048479,31.2388909 L18.7048479,33.8779773 L18.3976013,33.8779773 Z M10.0890072,25.3963548 L10.0890072,25.1440892 L9.80278274,25.1440892 L9.80278274,26.827477 L10.1682444,26.827477 L10.1682444,27.1395748 L8.96998282,27.1395748 L8.96998282,26.827477 L9.33544453,26.827477 L9.33544453,25.1440892 L9.04922009,25.1440892 L9.04922009,25.3963548 L8.73712226,25.3963548 L8.73712226,24.7446687 L10.401105,24.7446687 L10.401105,25.3963548 L10.0890072,25.3963548 Z M12.0295118,27.1395748 L12.0295118,26.827477 L12.328673,26.827477 L12.328673,26.067446 L11.662433,26.067446 L11.662433,27.1395748 L10.8991679,27.1395748 L10.8991679,26.827477 L11.198329,26.827477 L11.198329,25.0567665 L10.8991679,25.0567665 L10.8991679,24.7446687 L11.9648284,24.7446687 L11.9648284,25.0567665 L11.6656672,25.0567665 L11.6656672,25.7084526 L12.3319072,25.7084526 L12.3319072,24.7430516 L13.0967894,24.7430516 L13.0967894,25.0551494 L12.7976283,25.0551494 L12.7976283,26.827477 L13.0967894,26.827477 L13.0967894,27.1395748 L12.0295118,27.1395748 Z M13.4913587,27.1395748 L13.4913587,26.827477 L13.7905198,26.827477 L13.7905198,25.0567665 L13.4913587,25.0567665 L13.4913587,24.7446687 L15.0890409,24.7446687 L15.0890409,25.3963548 L14.776943,25.3963548 L14.776943,25.140855 L14.257858,25.140855 L14.257858,25.7100697 L14.9564397,25.7100697 L14.9564397,26.0690631 L14.257858,26.0690631 L14.257858,26.7450056 L14.776943,26.7450056 L14.776943,26.4555469 L15.0890409,26.4555469 L15.0890409,27.1411919 L13.4913587,27.1411919 L13.4913587,27.1395748 Z" id="Shape" stroke="none" fill="#DCE2E8" fill-rule="nonzero"></path>
</svg>
