<?xml version="1.0" encoding="UTF-8" standalone="no"?>
<svg width="38px" height="50px" viewBox="0 0 38 50" version="1.1" xmlns="http://www.w3.org/2000/svg" xmlns:xlink="http://www.w3.org/1999/xlink">
    <!-- Generator: Sketch 42 (36781) - http://www.bohemiancoding.com/sketch -->
    <title>Shape</title>
    <desc>Created with Sketch.</desc>
    <defs></defs>
    <g id="Page-1" stroke="none" stroke-width="1" fill="none" fill-rule="evenodd">
        <g id="Artboard" transform="translate(-872.000000, -716.000000)" fill-rule="nonzero" fill="#DCE2E8">
            <path d="M892.247263,716 C892.687936,716.336985 893.070285,716.751736 893.491516,717.114643 C897.295561,720.704832 900.782061,724.670888 903.588111,729.097059 C906.303434,733.38066 908.390215,738.117894 909.316859,743.120828 C909.828753,745.862073 909.99731,748.674538 909.699143,751.448251 C909.563118,752.608257 909.362223,753.768264 908.992835,754.876427 C908.474396,756.483587 907.793946,758.045384 906.860756,759.45813 C906.057176,760.676461 905.052701,761.765182 903.892694,762.646528 C902.616038,763.61212 901.157929,764.318493 899.641496,764.804529 C897.75561,765.407214 895.779062,765.705317 893.80906,765.867329 C891.456579,766.042237 889.091202,766.07464 886.745332,765.776602 C884.088333,765.446097 881.450776,764.739724 879.085399,763.463069 C876.894995,762.283621 874.970291,760.553396 873.732519,758.375889 C872.300332,755.887383 871.827256,752.938762 872.054073,750.093829 C872.287371,747.080404 873.246482,744.157705 874.516657,741.429421 C875.61834,739.083486 876.96628,736.86068 878.463208,734.748042 C879.739863,732.959428 881.113726,731.2421 882.617263,729.63494 C882.64312,729.615498 882.695029,729.570135 882.727431,729.550693 C882.701509,730.905115 882.831119,732.266016 883.219948,733.568594 C883.615258,734.897093 884.282748,736.147827 885.170574,737.217107 C885.222483,737.281911 885.261301,737.372638 885.358508,737.385664 C887.283212,735.940516 889.104228,734.320395 890.523454,732.369769 C891.994524,730.354273 892.979493,727.995377 893.355426,725.526312 C893.854358,722.331433 893.426711,719.006945 892.247263,716 Z" id="Shape"></path>
        </g>
    </g>
</svg>