<svg width="82px" height="49px" viewBox="0 3 82 49" version="1.1" xmlns="http://www.w3.org/2000/svg" xmlns:xlink="http://www.w3.org/1999/xlink">
<!-- Generator: Sketch 42 (36781) - http://www.bohemiancoding.com/sketch -->
<desc>Created with Sketch.</desc>
<defs></defs>
<path d="M77.0514952,18.9245673 C77.9986213,14.8524314 81.0172693,10.7701659 81.0172693,10.7701659 L67.4738723,10.7701659 C59.876604,5.85726576 50.6585851,3.259 40.4275971,3.259 C29.8268754,3.259 20.2492525,5.89271968 12.6975678,10.8562683 L0,10.8562683 C0,10.8562683 2.98825887,14.8574963 3.95057952,18.9093727 C1.4789349,22.3078841 0.0101296911,26.410409 0.0101296911,30.9181215 C0.0101296911,42.1114301 9.11672197,51.2028279 20.3049658,51.2028279 C26.6866712,51.2028279 32.3592982,48.214569 36.1072839,43.590365 L40.4124026,50.0581728 L44.7681697,43.5245221 C46.692811,46.0062964 49.2252338,48.0322346 52.2134927,49.3997429 C57.1263929,51.6282749 62.6470745,51.8815172 67.71192,50.0075243 C78.1961503,46.1075933 83.5648866,34.4078001 79.715604,23.9235698 C79.0065256,22.049577 78.0948534,20.3781779 76.9805874,18.9093727 L77.0514952,18.9245673 Z M66.3494766,46.1734363 C62.2976002,47.6776954 57.8911845,47.5054906 53.9608644,45.6922759 C51.1751993,44.4007403 48.8858892,42.379867 47.2448792,39.8677036 C46.5712548,38.8547345 45.9786678,37.7657927 45.548156,36.5907485 C45.0568659,35.2586941 44.8086885,33.8810561 44.6770025,32.4882236 C44.4237602,29.6822992 44.8289479,26.835856 46.0445108,24.2072012 C47.8678552,20.276881 51.1093564,17.2835573 55.1612328,15.784363 C63.5688764,12.6948072 72.8881922,16.999926 75.977748,25.3721156 C79.0673037,33.7493702 74.762185,43.0737508 66.4051899,46.1785011 L66.3494766,46.1734363 Z M33.7116119,39.984195 C30.7942609,44.279184 25.871231,47.1154975 20.2999009,47.1154975 C11.3655134,47.1154975 4.0923952,39.8373145 4.0923952,30.9231863 C4.0923952,22.0090582 11.3705782,14.7156806 20.2999009,14.7156806 C29.2292236,14.7156806 36.497277,22.0090582 36.497277,30.9231863 C36.497277,31.4803194 36.3959801,31.9868039 36.3352019,32.5439369 C36.0617003,35.2789535 35.185482,37.8620247 33.7116119,40.0399083 L33.7116119,39.984195 Z M10.0081348,30.7155277 C10.0081348,36.2514039 14.5158473,40.7439218 20.036529,40.7439218 C25.5572106,40.7439218 30.0547934,36.2514039 30.0547934,30.7155277 C30.0547934,25.194846 25.5572106,20.7073929 20.0415938,20.7073929 C14.5209122,20.7073929 10.0131996,25.194846 10.0131996,30.7155277 L10.0081348,30.7155277 Z M50.6788445,30.7155277 C50.6788445,36.2514039 55.1662976,40.7439218 60.697109,40.7439218 C66.2177906,40.7439218 70.7052438,36.2514039 70.7052438,30.7155277 C70.7052438,25.194846 66.2177906,20.7073929 60.697109,20.7073929 C55.1764273,20.7073929 50.6687148,25.194846 50.6687148,30.7155277 L50.6788445,30.7155277 Z M13.4674243,30.7155277 C13.4674243,27.099228 16.4050347,24.1565527 20.001075,24.1565527 C23.5971154,24.1565527 26.5853742,27.1042928 26.5853742,30.7155277 C26.5853742,34.3470219 23.6477638,37.2998269 20.001075,37.2998269 C16.3543863,37.2998269 13.4167758,34.3470219 13.4167758,30.7155277 L13.4674243,30.7155277 Z M54.0874855,30.7155277 C54.0874855,27.099228 57.0250959,24.1565527 60.6717847,24.1565527 C64.2678251,24.1565527 67.2054355,27.1042928 67.2054355,30.7155277 C67.2054355,34.3470219 64.2678251,37.2998269 60.6211363,37.2998269 C56.9744475,37.2998269 54.0368371,34.3470219 54.0368371,30.7155277 L54.0874855,30.7155277 Z M40.4124026,6.79932703 C47.7057802,6.79932703 54.2900794,8.11618687 60.0640033,10.7245823 C57.8861197,10.7853605 55.7588846,11.1652239 53.6316494,11.9401453 C48.5161554,13.8141381 44.464279,17.5621238 42.235747,22.4902185 C41.1721294,24.7187506 40.6149964,27.0789686 40.4124026,29.4645108 C39.6526757,19.0815775 31.0930868,10.8461386 20.5582081,10.6334151 C26.332132,8.15164079 33.0177281,6.79932703 40.2604572,6.79932703 L40.4124026,6.79932703 Z" id="Shape" stroke="none" fill="#DCE2E8" fill-rule="evenodd"></path>
</svg>
