<?xml version="1.0" encoding="UTF-8" standalone="no"?>
<svg width="96px" height="20px" viewBox="0 0 96 20" version="1.1" xmlns="http://www.w3.org/2000/svg" xmlns:xlink="http://www.w3.org/1999/xlink">
    <!-- Generator: Sketch 42 (36781) - http://www.bohemiancoding.com/sketch -->
    <title>logo</title>
    <desc>Created with Sketch.</desc>
    <defs></defs>
    <g id="Page-1" stroke="none" stroke-width="1" fill="none" fill-rule="evenodd">
        <g id="Artboard" transform="translate(-641.000000, -896.000000)" fill-rule="nonzero" fill="#DCE2E8">
            <g id="uber_logo" transform="translate(641.000000, 896.000000)">
                <g id="Boostrap3-grid-system-layouts">
                    <g id="Artboard-8-Copy">
                        <path d="M15.0446281,0.477377851 L15.0446281,11.4965514 C15.0581818,13.3263126 14.6278555,14.6545638 13.7536364,15.4813448 C12.8794172,16.3081258 11.4969516,16.7215101 9.60619835,16.7215101 C7.71544512,16.7215101 6.3329795,16.3081258 5.45876033,15.4813448 C4.58454116,14.6545638 4.15421488,13.3263126 4.1677686,11.4965514 L4.1677686,0.00977454545 L0.487933884,0.00977454545 C0.162642975,-0.00377933884 0,0.152086942 0,0.477377851 L0,11.6795266 C0.0406613223,14.7155747 0.928421157,16.8672061 2.66330579,18.1344853 C4.39819041,19.4017643 6.70907653,20.015064 9.59603306,19.9744026 C12.4829896,20.015064 14.797264,19.4017643 16.5389256,18.1344853 C18.2805873,16.8672061 19.1717354,14.7155747 19.2123967,11.6795266 L19.2123967,0.00977454545 L15.532562,0.00977454545 C15.2072711,-0.00377933884 15.0446281,0.152086942 15.0446281,0.477377851 L15.0446281,0.477377851 Z M68.351405,3.20167537 C68.5004967,3.20167537 68.6157021,3.1745681 68.6970248,3.12035306 C68.7783474,3.06613785 68.8461154,2.98481636 68.9003306,2.87638612 L69.9575207,0.233410909 C70.0117359,0.0843191736 69.9575215,0.00977454545 69.794876,0.00977454545 L54.9942149,0.00977454545 C54.3165255,0.00977454545 53.8285965,0.11820314 53.5304132,0.335063802 C53.2322299,0.551924298 53.0831405,0.897540661 53.0831405,1.37192331 L53.0831405,18.4699398 C53.0831405,18.8629995 53.1949575,19.1544017 53.418595,19.3441547 C53.6422326,19.5339076 54.0183445,19.6287828 54.5469421,19.6287828 L68.351405,19.6287828 C68.5004967,19.6287828 68.6157021,19.6016755 68.6970248,19.5474605 C68.7783474,19.4932453 68.8461154,19.4119238 68.9003306,19.3034936 L69.9575207,16.6808489 C70.0117359,16.5182035 69.9575215,16.436882 69.794876,16.436882 L57.1899174,16.436882 L57.1899174,12.9603531 C57.1763636,12.3639864 57.359337,11.9234949 57.738843,11.6388655 C58.1183489,11.3542359 58.7485906,11.2119233 59.6295868,11.2119233 L65.0985124,11.2119233 C65.2476041,11.2119233 65.3628096,11.184816 65.4441322,11.130601 C65.5254549,11.0763858 65.5932228,10.9950643 65.647438,10.886634 L66.6639669,8.36564231 C66.7181821,8.20299686 66.6639678,8.12167537 66.5013223,8.12167537 L57.1899174,8.12167537 L57.1899174,3.20167537 L68.351405,3.20167537 Z M42.2876033,9.28051835 C43.0872767,8.86035091 43.6666924,8.27754678 44.0258678,7.5320886 C44.3850431,6.78663025 44.5646281,5.93953124 44.5646281,4.99076628 C44.4968592,2.87637554 43.7548005,1.50068678 42.3384298,0.863658843 C40.922059,0.226630744 39.2651334,-0.0579943802 37.3676033,0.00977454545 L29.0117355,0.00977454545 C28.3204924,0.00977454545 27.8257866,0.11820314 27.5276033,0.335063802 C27.22942,0.551924298 27.0871074,0.897540661 27.1006612,1.37192331 L27.1006612,18.4699398 C27.1006612,18.8629995 27.2124782,19.1544017 27.4361157,19.3441547 C27.6597532,19.5339076 28.0358651,19.6287828 28.5644628,19.6287828 L38.8517355,19.6287828 C40.8305884,19.6423365 42.4231345,19.2255638 43.6294215,18.3784522 C44.8357084,17.5313405 45.4591734,16.1387098 45.4998347,14.2005183 C45.4998347,13.0077851 45.2389283,11.9675474 44.7171074,11.0797745 C44.1952866,10.1920015 43.38546,9.59225537 42.2876033,9.28051835 L42.2876033,9.28051835 Z M31.1464463,3.12035306 L37.672562,3.12035306 C38.7297574,3.12035306 39.4582625,3.32704512 39.8580992,3.7404357 C40.2579359,4.15382612 40.4510744,4.7874562 40.4375207,5.64134479 C40.4510744,6.49523322 40.2579359,7.13225174 39.8580992,7.55241917 C39.4582625,7.97258645 38.7297574,8.18266711 37.672562,8.18266711 L31.1464463,8.18266711 L31.1464463,3.12035306 Z M38.4247934,16.5182043 L31.1464463,16.5182043 L31.1464463,12.8790307 C31.1328926,12.2826641 31.3192542,11.8421726 31.7055372,11.5575431 C32.0918202,11.2729136 32.7254501,11.130601 33.6064463,11.130601 L38.4247934,11.130601 C39.5633114,11.130601 40.3460309,11.354235 40.7729752,11.8015101 C41.1999195,12.248785 41.3998349,12.9264641 41.3727273,13.8345679 C41.3998349,14.7291179 41.1999195,15.4000202 40.7729752,15.8472952 C40.3460309,16.2945701 39.5633114,16.5182043 38.4247934,16.5182043 L38.4247934,16.5182043 Z M95.6350413,19.283163 L91.2233058,11.7405183 C92.3482701,11.4829964 93.2834673,10.9239111 94.0289256,10.0632456 C94.774384,9.20258017 95.160661,7.8641638 95.1877686,6.04795636 C95.160661,3.71670496 94.4626514,2.11738215 93.093719,1.24993983 C91.7247866,0.382497355 89.8069545,-0.0308869421 87.3401653,0.00977454545 L78.9436364,0.00977454545 C78.2659469,0.00977454545 77.778018,0.11820314 77.4798347,0.335063802 C77.1816514,0.551924298 77.032562,0.897540661 77.032562,1.37192331 L77.032562,19.1611795 C77.032562,19.4729165 77.195205,19.6287828 77.5204959,19.6287828 L81.0986777,19.6287828 L81.0986777,13.8955597 C81.085124,13.2991931 81.2714856,12.8587015 81.6577686,12.5740721 C82.0440516,12.2894425 82.6776815,12.1471299 83.5586777,12.1471299 L87.1978512,12.1471299 L91.162314,19.3034936 C91.2165293,19.4119238 91.2842972,19.4932453 91.3656198,19.5474605 C91.4469425,19.6016755 91.5621479,19.6287828 91.7112397,19.6287828 L95.4520661,19.6287828 C95.5740502,19.6152289 95.6452064,19.5711798 95.6655372,19.496634 C95.6858679,19.4220881 95.6757026,19.3509319 95.6350413,19.283163 L95.6350413,19.283163 Z M87.9500826,9.09754314 L81.0986777,9.09754314 L81.0986777,3.16101421 L87.9500826,3.16101421 C89.1970311,3.16101421 90.0339648,3.40836711 90.4609091,3.90308033 C90.8878534,4.39779355 91.0877688,5.13985223 91.0606612,6.12927868 C91.0877688,7.13225884 90.8878534,7.87770595 90.4609091,8.36564231 C90.0339648,8.85357851 89.1970311,9.09754314 87.9500826,9.09754314 L87.9500826,9.09754314 Z" id="logo"></path>
                    </g>
                </g>
            </g>
        </g>
    </g>
</svg>