<?xml version="1.0" encoding="UTF-8" standalone="no"?>
<svg width="84px" height="28px" viewBox="0 0 84 28" version="1.1" xmlns="http://www.w3.org/2000/svg" xmlns:xlink="http://www.w3.org/1999/xlink">
    <!-- Generator: Sketch 42 (36781) - http://www.bohemiancoding.com/sketch -->
    <title>logo-green</title>
    <desc>Created with Sketch.</desc>
    <defs></defs>
    <g id="Page-1" stroke="none" stroke-width="1" fill="none" fill-rule="evenodd">
        <g id="Artboard" transform="translate(-791.000000, -1123.000000)" fill-rule="nonzero" fill="#DCE2E8">
            <g id="logo-green" transform="translate(791.000000, 1123.000000)">
                <g id="Group">
                    <path d="M27.5916667,0.0729166667 C26.7604167,0.160416667 26.1625,0.408333333 25.7541667,0.860416667 C25.5354167,1.09375 25.375,1.4 25.2583333,1.73541667 C25.1416667,2.08541667 25.0833333,2.50833333 25.0833333,2.98958333 L25.0833333,7.7 C24.6458333,7.39375 24.1791667,7.14583333 23.6833333,6.94166667 C22.9541667,6.66458333 22.1666667,6.51875 21.3645833,6.51875 C19.11875,6.51875 17.3833333,7.175 16.2020833,8.47291667 C15.00625,9.78541667 14.4083333,11.7395833 14.4083333,14.2916667 C14.4083333,16.8 15.0208333,18.7395833 16.2020833,20.0666667 C17.4125,21.4083333 19.1916667,22.0791667 21.4958333,22.0791667 C22.5458333,22.0791667 23.5083333,21.9333333 24.3541667,21.6270833 C25.1854167,21.3354167 25.9145833,20.8979167 26.4979167,20.3291667 C27.08125,19.7604167 27.5333333,19.075 27.8395833,18.2875 C28.1458333,17.4854167 28.30625,16.58125 28.30625,15.61875 L28.30625,0.65625 C28.2916667,0.335416667 27.9854167,0.0291666667 27.5916667,0.0729166667 Z M25.0833333,15.3416667 C25.0833333,15.925 25.0104167,16.45 24.85,16.9020833 C24.6895833,17.3541667 24.45625,17.7333333 24.15,18.0395833 C23.84375,18.3458333 23.4645833,18.59375 23.0270833,18.7395833 C22.575,18.9 22.05,18.9875 21.48125,18.9875 C20.7958333,18.9875 20.2416667,18.9 19.7458333,18.725 C19.25,18.55 18.85625,18.2729167 18.55,17.89375 C17.9083333,17.1354167 17.6020833,15.9541667 17.6020833,14.2625 C17.6020833,13.43125 17.675,12.7166667 17.85,12.1041667 C18.0104167,11.50625 18.24375,11.0104167 18.5791667,10.6166667 C18.7395833,10.4270833 18.9145833,10.2520833 19.11875,10.10625 C19.3229167,9.96041667 19.5416667,9.84375 19.775,9.74166667 C20.25625,9.55208333 20.8395833,9.45 21.4958333,9.45 C21.9625,9.45 22.4291667,9.52291667 22.8666667,9.69791667 C23.3041667,9.85833333 23.6833333,10.0770833 24.01875,10.36875 C24.71875,10.9666667 25.0979167,11.7833333 25.0979167,12.64375 L25.0833333,15.3416667 L25.0833333,15.3416667 Z" id="Shape"></path>
                    <path d="M13.0520833,7.68541667 C13.0520833,7.35 12.7604167,7.0875 12.425,7.0875 L12.3520833,7.0875 C11.5208333,7.175 10.9229167,7.42291667 10.5145833,7.875 C10.2958333,8.10833333 10.1354167,8.41458333 10.01875,8.75 C9.91666667,9.1 9.84375,9.52291667 9.84375,10.0041667 L9.84375,15.9395833 C9.84375,16.49375 9.78541667,16.9604167 9.65416667,17.3541667 C9.52291667,17.7479167 9.33333333,18.0541667 9.07083333,18.3020833 C8.80833333,18.55 8.47291667,18.725 8.06458333,18.8416667 C7.65625,18.9583333 7.16041667,19.0166667 6.5625,19.0166667 C5.96458333,19.0166667 5.46875,18.9583333 5.06041667,18.8416667 C4.6375,18.725 4.31666667,18.55 4.05416667,18.3020833 C3.79166667,18.0541667 3.60208333,17.7479167 3.47083333,17.3541667 C3.33958333,16.9604167 3.28125,16.5083333 3.28125,15.9395833 L3.28125,7.7 C3.28125,7.37916667 2.98958333,7.10208333 2.65416667,7.10208333 L2.58125,7.10208333 C1.75,7.18958333 1.15208333,7.4375 0.74375,7.88958333 C0.525,8.12291667 0.364583333,8.42916667 0.247916667,8.76458333 C0.145833333,9.11458333 0.0729166667,9.5375 0.0729166667,10.01875 L0.0729166667,16.0416667 C0.0729166667,17.85 0.48125,19.2208333 1.32708333,20.1979167 C2.40625,21.4520833 4.1125,22.0645833 6.5625,22.0645833 C9.02708333,22.0645833 10.7333333,21.4520833 11.8125,20.1979167 C12.64375,19.2208333 13.0520833,17.8645833 13.0520833,16.0416667 L13.0520833,9.65416667 L13.0520833,9.58125 L13.0520833,7.68541667 L13.0520833,7.68541667 Z" id="Shape"></path>
                    <path d="M83.8541667,7.20416667 C83.7666667,7 83.5916667,6.83958333 83.3729167,6.75208333 C82.9645833,6.60625 82.5270833,6.51875 82.11875,6.51875 C81.6229167,6.51875 81.15625,6.63541667 80.7625,6.825 C80.325,7.05833333 80.0625,7.29166667 79.8875,7.64166667 L75.9791667,16.1875 L72.275,7.62708333 L72.275,7.6125 C72.0708333,7.21875 71.8083333,7.02916667 71.4145833,6.825 C71.0208333,6.62083333 70.5541667,6.51875 70.0583333,6.51875 C69.6354167,6.51875 69.2125,6.59166667 68.7895833,6.75208333 C68.5708333,6.825 68.3958333,7 68.3229167,7.20416667 C68.2354167,7.40833333 68.25,7.62708333 68.3375,7.83125 L74.025,20.5625 C73.8791667,20.8979167 73.7479167,21.1895833 73.63125,21.48125 C73.1645833,22.5166667 72.75625,23.3041667 72.2166667,23.8145833 C71.96875,24.0625 71.6770833,24.2375 71.35625,24.3541667 C71.0208333,24.4854167 70.6270833,24.54375 70.1604167,24.54375 L68.8333333,24.54375 C68.5125,24.54375 68.2354167,24.6604167 68.03125,24.8791667 C67.8416667,25.0833333 67.7395833,25.3604167 67.76875,25.6375 C67.7979167,25.9729167 67.9,26.29375 68.075,26.5854167 C68.2354167,26.8625 68.4541667,27.0958333 68.73125,27.3145833 C69.2708333,27.7083333 69.95625,27.9270833 70.6708333,27.9270833 C71.3708333,27.9270833 72.0270833,27.8104167 72.625,27.60625 C73.2229167,27.4020833 73.7770833,27.08125 74.2875,26.6583333 C74.7833333,26.25 75.25,25.7395833 75.6729167,25.1270833 C76.08125,24.54375 76.475,23.8291667 76.825,23.0416667 L83.8541667,7.83125 C83.9270833,7.62708333 83.9416667,7.40833333 83.8541667,7.20416667 Z" id="Shape"></path>
                    <path d="M67.9145833,21.3208333 L67.9145833,12.5270833 C67.9145833,10.8645833 67.4770833,9.50833333 66.6166667,8.50208333 C65.4791667,7.175 63.65625,6.50416667 61.1916667,6.50416667 C60.68125,6.50416667 60.2,6.53333333 59.7479167,6.62083333 C59.3104167,6.69375 58.8729167,6.81041667 58.49375,6.97083333 C58.1145833,7.11666667 57.75,7.32083333 57.4145833,7.55416667 C57.1520833,7.72916667 56.9041667,7.94791667 56.6708333,8.18125 C56.1458333,7.67083333 55.475,7.27708333 54.6875,6.98541667 C53.8125,6.66458333 52.80625,6.51875 51.6979167,6.51875 C50.9833333,6.51875 50.2833333,6.63541667 49.65625,6.85416667 C49.1020833,7.04375 48.60625,7.30625 48.16875,7.64166667 C48.08125,7.525 47.9791667,7.40833333 47.8770833,7.30625 C47.7166667,7.16041667 47.5125,7.01458333 47.29375,6.9125 C46.8854167,6.70833333 46.4041667,6.59166667 45.80625,6.53333333 C45.5583333,6.50416667 45.325,6.57708333 45.1354167,6.7375 C44.9604167,6.88333333 44.8729167,7.07291667 44.8729167,7.29166667 L44.8729167,19.4395833 C44.8729167,19.8916667 44.9458333,20.2854167 45.10625,20.6354167 C45.2520833,20.9416667 45.4708333,21.21875 45.7333333,21.4375 C46.15625,21.7729167 46.7395833,21.9916667 47.4979167,22.1083333 C48.0083333,22.18125 48.3729167,21.875 48.3729167,21.3791667 L48.3729167,12.55625 C48.3729167,12.0895833 48.4458333,11.68125 48.5625,11.33125 C48.69375,11.0104167 48.8833333,10.71875 49.13125,10.5 C49.3791667,10.28125 49.7,10.1208333 50.0791667,10.0041667 C50.4729167,9.90208333 50.9395833,9.82916667 51.4645833,9.82916667 C52.0770833,9.82916667 52.5583333,9.8875 52.9666667,9.98958333 C53.375,10.0916667 53.68125,10.2666667 53.9145833,10.5 C54.1625,10.7333333 54.3375,11.0395833 54.4541667,11.4333333 C54.5708333,11.8416667 54.6291667,12.3375 54.6291667,12.9645833 L54.6291667,19.4541667 C54.6291667,19.90625 54.7020833,20.3 54.8625,20.65 C55.0083333,20.95625 55.2270833,21.2333333 55.4895833,21.4520833 C55.9125,21.7875 56.4958333,22.00625 57.2541667,22.1229167 C57.7645833,22.1958333 58.1291667,21.8895833 58.1291667,21.39375 L58.1291667,12.6 C58.1291667,11.6229167 58.3625,10.9375 58.8583333,10.5 C59.3395833,10.0625 60.0979167,9.85833333 61.1770833,9.85833333 C62.3729167,9.85833333 63.1604167,10.0770833 63.65625,10.5583333 C63.91875,10.80625 64.09375,11.1125 64.2104167,11.50625 C64.3416667,11.9145833 64.4,12.3958333 64.4,12.99375 L64.4,19.4833333 C64.4,19.9354167 64.4729167,20.3291667 64.6333333,20.6791667 C64.7791667,20.9854167 64.9979167,21.2625 65.2604167,21.48125 C65.6833333,21.8166667 66.2666667,22.0354167 67.025,22.1520833 C67.06875,22.1520833 67.1270833,22.1666667 67.1708333,22.1666667 C67.375,22.1666667 67.5645833,22.09375 67.68125,21.9770833 C67.8416667,21.74375 67.9145833,21.5541667 67.9145833,21.3208333 Z" id="Shape"></path>
                    <path d="M36.75,6.51875 C35.6270833,6.51875 34.6208333,6.69375 33.73125,7.02916667 C32.85625,7.36458333 32.0979167,7.875 31.4854167,8.54583333 C30.8729167,9.20208333 30.40625,10.0333333 30.1,10.9958333 C29.7791667,11.9583333 29.6333333,13.0666667 29.6333333,14.2770833 C29.6333333,15.61875 29.8229167,16.8145833 30.1875,17.8354167 C30.5375,18.7979167 31.0625,19.6145833 31.7479167,20.25625 C32.3895833,20.86875 33.1916667,21.3354167 34.1104167,21.6416667 C34.9854167,21.9333333 35.9770833,22.0791667 37.0708333,22.0791667 C39.725,22.0791667 42.7729167,20.4604167 42.7729167,18.3895833 C42.7729167,18.0979167 42.6708333,17.7916667 42.4958333,17.5583333 C42.30625,17.3104167 42.0583333,17.1645833 41.78125,17.1645833 C41.6208333,17.1645833 41.4604167,17.2083333 41.3,17.3104167 C41.08125,17.4416667 40.8625,17.6020833 40.6291667,17.7479167 C39.7833333,18.33125 38.85,18.9875 37.0708333,18.9875 C36.4583333,18.9875 35.8895833,18.9145833 35.39375,18.7541667 C34.8979167,18.6083333 34.475,18.3604167 34.1104167,18.0541667 C33.7458333,17.7479167 33.46875,17.3541667 33.2645833,16.9166667 C33.0604167,16.4791667 32.94375,15.96875 32.8854167,15.4 L41.5333333,15.4 C41.9708333,15.4 42.3208333,15.3125 42.5979167,15.1375 C42.8458333,14.9916667 43.0354167,14.7583333 43.1520833,14.48125 C43.3854167,13.9708333 43.3854167,13.34375 43.3854167,12.9354167 C43.3854167,12.2354167 43.26875,10.45625 42.1458333,8.925 C41.0083333,7.32083333 39.1854167,6.51875 36.75,6.51875 Z M40.075,12.4833333 C40.0020833,12.55625 39.9,12.6 39.7979167,12.6 L32.9145833,12.6 C32.9875,12.0895833 33.1333333,11.6520833 33.3229167,11.2583333 C33.5270833,10.8645833 33.7895833,10.5291667 34.1104167,10.2666667 C34.43125,10.0041667 34.8104167,9.81458333 35.2479167,9.68333333 C35.6854167,9.55208333 36.18125,9.49375 36.7354167,9.49375 C37.7854167,9.49375 38.5583333,9.7125 39.1125,10.1354167 C39.68125,10.5729167 40.0166667,11.2583333 40.1479167,12.20625 C40.1770833,12.3229167 40.1479167,12.4104167 40.075,12.4833333 Z" id="Shape"></path>
                </g>
            </g>
        </g>
    </g>
</svg>