<?xml version="1.0" encoding="UTF-8" standalone="no"?>
<svg width="99px" height="19px" viewBox="0 0 99 19" version="1.1" xmlns="http://www.w3.org/2000/svg" xmlns:xlink="http://www.w3.org/1999/xlink">
    <!-- Generator: Sketch 42 (36781) - http://www.bohemiancoding.com/sketch -->
    <title>Group</title>
    <desc>Created with Sketch.</desc>
    <defs></defs>
    <g id="Page-1" stroke="none" stroke-width="1" fill="none" fill-rule="evenodd">
        <g id="Artboard" transform="translate(-791.000000, -1044.000000)" fill-rule="nonzero" fill="#DCE2E8">
            <g id="Group" transform="translate(791.000000, 1044.000000)">
                <path d="M16.3256216,0.171 C16.9923333,1.27214414 17.2929099,2.40632432 17.2929099,3.83902703 C17.2929099,8.40861261 13.3920901,14.3448288 10.2261081,18.5131892 L2.99481081,18.5131892 L0.0946576577,1.1714955 L6.42645045,0.570342342 L7.9598018,12.9100721 C9.3925045,10.575982 11.1605315,6.90795495 11.1605315,4.40714414 C11.1605315,3.03828829 10.926027,2.10591892 10.5595495,1.33821622 L16.3256216,0.171 Z" id="Shape"></path>
                <path d="M24.5319099,7.80728829 C25.6970721,7.80728829 28.6304324,7.27426126 28.6304324,5.60705405 C28.6304324,4.80648649 28.0643694,4.40714414 27.3973153,4.40714414 C26.2302703,4.40714414 24.6988018,5.80663964 24.5319099,7.80728829 Z M24.3983964,11.1091802 C24.3983964,13.1449189 25.5303514,13.9436036 27.031009,13.9436036 C28.6651802,13.9436036 30.2298559,13.5442613 32.2635405,12.5107297 L31.4975495,17.7122793 C30.0646757,18.4123694 27.8315766,18.8794955 25.664036,18.8794955 C20.1658468,18.8794955 18.1980631,15.5450811 18.1980631,11.3765495 C18.1980631,5.9737027 21.398964,0.236900901 27.9981261,0.236900901 C31.6314054,0.236900901 33.663036,2.27246847 33.663036,5.10689189 C33.6633784,9.67630631 27.7987117,11.0761441 24.3983964,11.1091802 Z" id="Shape"></path>
                <path d="M51.9357297,4.24042342 C51.9357297,4.90730631 51.8345676,5.87459459 51.7339189,6.50672973 L49.8339189,18.513018 L43.6685045,18.513018 L45.4016126,7.50705405 C45.4344775,7.20853153 45.5354685,6.60754955 45.5354685,6.27410811 C45.5354685,5.47354054 45.0353063,5.27378378 44.433982,5.27378378 C43.6352973,5.27378378 42.8347297,5.64026126 42.3015315,5.9078018 L40.3358018,18.5131892 L34.1356396,18.5131892 L36.9681802,0.537648649 L42.3343964,0.537648649 L42.4023514,1.97240541 C43.6683333,1.1388018 45.3353694,0.237243243 47.7006126,0.237243243 C50.8342432,0.236900901 51.9357297,1.83820721 51.9357297,4.24042342 Z" id="Shape"></path>
                <path d="M70.2390631,2.20468468 C72.0048649,0.938702703 73.6722432,0.236900901 75.9712432,0.236900901 C79.1370541,0.236900901 80.2381982,1.83820721 80.2381982,4.24042342 C80.2381982,4.90730631 80.1373784,5.87459459 80.0367297,6.50672973 L78.138955,18.513018 L71.9718288,18.513018 L73.737973,7.27443243 C73.7704955,6.97402703 73.8387928,6.60754955 73.8387928,6.3750991 C73.8387928,5.47371171 73.3384595,5.27378378 72.7373063,5.27378378 C71.9714865,5.27378378 71.206009,5.60722523 70.6377207,5.9078018 L68.6723333,18.5131892 L62.5067477,18.5131892 L64.2728919,7.2746036 C64.3054144,6.9741982 64.3716577,6.60772072 64.3716577,6.37527027 C64.3716577,5.47388288 63.8711532,5.27395495 63.2720541,5.27395495 C62.4716577,5.27395495 61.6728018,5.64043243 61.1396036,5.90797297 L59.1723333,18.5133604 L52.9742252,18.5133604 L55.8064234,0.53781982 L61.1070811,0.53781982 L61.2736306,2.03847748 C62.5067477,1.13914414 64.1724144,0.237585586 66.4053423,0.237585586 C68.3387207,0.236900901 69.6045315,1.07067568 70.2390631,2.20468468 Z" id="Shape"></path>
                <path d="M92.5084324,7.44115315 C92.5084324,5.9737027 92.1414414,4.97320721 91.0425225,4.97320721 C88.6093243,4.97320721 88.1096757,9.27490991 88.1096757,11.4754865 C88.1096757,13.1449189 88.5768018,14.1781081 89.6753784,14.1781081 C91.9752342,14.1781081 92.5084324,9.64155856 92.5084324,7.44115315 Z M81.843955,11.2098288 C81.843955,5.54115315 84.8428739,0.236900901 91.7427838,0.236900901 C96.9419369,0.236900901 98.8424505,3.30582883 98.8424505,7.5418018 C98.8424505,13.1447477 95.8758829,18.9471081 88.8095946,18.9471081 C83.5768919,18.9471081 81.843955,15.5117027 81.843955,11.2098288 Z" id="Shape"></path>
            </g>
        </g>
    </g>
</svg>