<svg width="42px" height="49px" viewBox="0 -1 42 49" version="1.1" xmlns="http://www.w3.org/2000/svg" xmlns:xlink="http://www.w3.org/1999/xlink">
<!-- Generator: Sketch 42 (36781) - http://www.bohemiancoding.com/sketch -->
<desc>Created with Sketch.</desc>
<defs></defs>
<path d="M13.3526037,43.9988668 C7.08838958,43.9988668 4.00874462,40.8648324 4.00874462,34.2232073 C4.00874462,28.7158498 9.94216725,25.6098122 12.2184614,24.0011998 C9.94216725,22.3917877 4.00554083,19.740097 4.00554083,12.8497009 C4.00554083,7.96307098 8.53169783,4.0011332 13.564054,4.0011332 C22.3224201,4.0011332 36.9317112,24.0011998 36.9317112,24.0011998 C36.9317112,24.0011998 22.9127188,43.9988668 13.3526037,43.9988668 L13.3526037,43.9988668 Z M13.3838407,-2.84217094e-14 C5.99349369,-2.84217094e-14 0,5.94330663 0,13.2728515 C0,17.6867365 2.18338418,21.5870815 5.52574008,24.0011998 C2.18338418,26.4153182 0,30.3148632 0,34.7279484 C0,42.0574933 4.18255034,48 13.3838407,48 C26.1845912,48 41.8255034,24.0011998 41.8255034,24.0011998 C41.8255034,24.0011998 25.6007002,-2.84217094e-14 13.3838407,-2.84217094e-14 L13.3838407,-2.84217094e-14 Z" id="WellLogo" stroke="none" fill="#DCE2E8" fill-rule="nonzero"></path>
</svg>
