<?xml version="1.0" encoding="UTF-8" standalone="no"?>
<svg width="117px" height="25px" viewBox="0 0 117 25" version="1.1" xmlns="http://www.w3.org/2000/svg" xmlns:xlink="http://www.w3.org/1999/xlink">
    <!-- Generator: Sketch 42 (36781) - http://www.bohemiancoding.com/sketch -->
    <title>WeWork-logo</title>
    <desc>Created with Sketch.</desc>
    <defs></defs>
    <g id="Page-1" stroke="none" stroke-width="1" fill="none" fill-rule="evenodd">
        <g id="Artboard" transform="translate(-644.000000, -992.000000)" fill-rule="nonzero" fill="#DCE2E8">
            <g id="WeWork-logo" transform="translate(644.000000, 992.000000)">
                <path d="M1.03169192,12.0770202 C1.70088384,12.2411616 2.07967172,12.3800505 2.63522727,13.364899 C4.56704545,16.9128788 6.5114899,20.8143939 8.38017677,24.665404 C8.62007576,24.8674242 8.88522727,24.905303 9.30189394,24.905303 C9.69330808,24.905303 9.9584596,24.8674242 10.2109848,24.665404 C11.1074495,22.9734848 13.4811869,18.4406566 14.4912879,16.6729798 C15.6781566,18.8573232 17.7236111,22.8219697 18.5443182,24.665404 C18.7715909,24.8674242 19.0493687,24.905303 19.4407828,24.905303 C19.832197,24.905303 20.122601,24.8674242 20.3498737,24.665404 C22.0039141,21.0542929 23.8094697,17.3169192 25.6276515,13.8320707 C26.2589646,12.5820707 26.5367424,12.2411616 27.8246212,12.0012626 L28.3801768,11.9128788 C28.6958333,11.5972222 28.6074495,10.864899 28.2665404,10.7133838 C27.3953283,10.7891414 26.372601,10.8143939 25.2362374,10.8143939 C24.2513889,10.8143939 23.3170455,10.7891414 22.0165404,10.7133838 C21.6251263,10.864899 21.6251263,11.6603535 21.8650253,11.9128788 L22.5342172,12.0391414 C23.2160354,12.1780303 23.5190657,12.354798 23.5190657,12.5189394 C23.5190657,12.7588384 23.4054293,13.2260101 23.152904,13.8320707 C22.5215909,15.4103535 21.9155303,17.0770202 20.9559343,19.0467172 C20.0847222,17.405303 18.9988636,15.1957071 18.2791667,13.5669192 C18.0518939,12.9987374 17.9635101,12.7840909 17.9635101,12.5189394 C17.9635101,12.3421717 18.5064394,12.1780303 19.4281566,12.0138889 L20.0089646,11.9255051 C20.2867424,11.7866162 20.3246212,10.7638889 19.8953283,10.7260101 C17.382702,10.8017677 15.4130051,10.8270202 12.9256313,10.8270202 L4.97108586,10.8270202 C3.31704545,10.8270202 2.05441919,10.8017677 0.438257576,10.7260101 C0.0342171717,10.8901515 0.0342171717,11.6477273 0.311994949,11.9255051 L1.03169192,12.0770202 Z M9.9584596,12.0770202 C10.6781566,12.0770202 11.3094697,12.1022727 11.852399,12.2032828 C12.6352273,12.3421717 13.3170455,13.4406566 13.3170455,13.9709596 C13.3170455,14.2361111 13.3170455,14.5391414 13.2034091,14.9936869 C13.0013889,15.6755051 11.6756313,18.125 11.1200758,19.0467172 C10.4508838,17.9608586 8.87260101,14.8926768 8.32967172,13.7058081 C8.08977273,13.2007576 7.97613636,12.7840909 7.97613636,12.5820707 C7.95088384,12.2032828 8.69583333,12.0770202 9.9584596,12.0770202 Z M33.8852273,24.905303 C36.2463384,24.905303 39.1630051,23.9204545 40.7791667,21.0290404 C40.7791667,20.4482323 40.1857323,20.1704545 39.7564394,20.2335859 C38.6958333,21.8118687 37.1933081,22.0012626 36.0948232,22.0012626 C32.4332071,22.0012626 30.5392677,19.5138889 30.5392677,16.9760101 C30.5392677,16.4330808 30.6276515,16.3573232 31.5241162,16.3573232 L39.0619949,16.3573232 C40.2867424,16.3573232 40.4761364,15.8775253 40.4761364,15.2335859 C40.4761364,12.6199495 38.2791667,10.334596 34.1756313,10.334596 C29.2640152,10.334596 25.6781566,13.6679293 25.6781566,17.9608586 C25.7160354,21.6729798 28.582197,24.905303 33.8852273,24.905303 Z M33.9357323,11.9128788 C35.2741162,11.9128788 36.0190657,12.6578283 36.0190657,13.7815657 C36.0190657,14.1224747 35.9306818,14.4760101 35.7539141,14.5643939 C35.3119949,14.8042929 34.6933081,14.8674242 34.1377525,14.8674242 L32.6731061,14.8674242 C31.4104798,14.8674242 30.8549242,14.8421717 30.8549242,14.3623737 C30.8675505,13.2638889 32.2816919,11.9128788 33.9357323,11.9128788 Z M41.6756313,12.0770202 C42.3574495,12.2411616 42.7362374,12.3800505 43.2917929,13.364899 C45.2236111,16.9128788 47.1554293,20.8143939 49.0367424,24.665404 C49.2766414,24.8674242 49.5417929,24.905303 49.9458333,24.905303 C50.3372475,24.905303 50.602399,24.8674242 50.8549242,24.665404 C51.7640152,22.9734848 54.1251263,18.4406566 55.1478535,16.6729798 C56.322096,18.8573232 58.3675505,22.8219697 59.2008838,24.665404 C59.4407828,24.8674242 59.7059343,24.905303 60.0973485,24.905303 C60.4887626,24.905303 60.7791667,24.8674242 61.0064394,24.665404 C62.6604798,21.0542929 64.4660354,17.3169192 66.2842172,13.8320707 C66.9155303,12.5820707 67.1806818,12.2411616 68.4811869,12.0012626 L69.0367424,11.9128788 C69.352399,11.5972222 69.2640152,10.864899 68.9104798,10.7133838 C68.0392677,10.7891414 67.0165404,10.8143939 65.8801768,10.8143939 C64.8953283,10.8143939 63.9609848,10.7891414 62.6604798,10.7133838 C62.2690657,10.864899 62.2690657,11.6603535 62.5089646,11.9128788 L63.1781566,12.0391414 C63.8473485,12.1780303 64.1630051,12.354798 64.1630051,12.5189394 C64.1630051,12.7588384 64.0493687,13.2260101 63.8094697,13.8320707 C63.1781566,15.4103535 62.5468434,17.0770202 61.5998737,19.0467172 C60.7286616,17.405303 59.642803,15.1957071 58.9231061,13.5669192 C58.6832071,12.9987374 58.6074495,12.7840909 58.6074495,12.5189394 C58.6074495,12.3421717 59.1503788,12.1780303 60.072096,12.0138889 L60.652904,11.9255051 C60.9306818,11.7866162 60.9811869,10.7638889 60.5392677,10.7260101 C58.0266414,10.8017677 56.0569444,10.8270202 53.5695707,10.8270202 L45.6150253,10.8270202 C43.9609848,10.8270202 42.6983586,10.8017677 41.082197,10.7260101 C40.6907828,10.8901515 40.6907828,11.6477273 40.9685606,11.9255051 L41.6756313,12.0770202 Z M50.6150253,12.0770202 C51.3347222,12.0770202 51.9660354,12.1022727 52.5089646,12.2032828 C53.2917929,12.3421717 53.9736111,13.4406566 53.9736111,13.9709596 C53.9736111,14.2361111 53.9736111,14.5391414 53.8599747,14.9936869 C53.6579545,15.6755051 52.332197,18.125 51.7766414,19.0467172 C51.0948232,17.9608586 49.5291667,14.8926768 48.9862374,13.7058081 C48.7589646,13.2007576 48.632702,12.7840909 48.632702,12.5820707 C48.6074495,12.2032828 49.352399,12.0770202 50.6150253,12.0770202 Z M75.3751263,24.905303 C80.2109848,24.905303 84.4155303,22.5568182 84.4155303,17.5820707 C84.4155303,12.7840909 80.2362374,10.334596 75.602399,10.334596 C70.9559343,10.334596 66.5114899,13.0239899 66.5493687,17.885101 C66.5998737,22.5820707 70.6781566,24.905303 75.3751263,24.905303 Z M75.3751263,11.9128788 C77.6099747,11.9128788 78.7084596,14.7664141 78.7589646,18.0618687 C78.7842172,21.1300505 78.0392677,23.3396465 75.7917929,23.3396465 C73.5190657,23.3396465 72.2185606,20.7133838 72.2185606,17.1401515 C72.2185606,13.4406566 73.6453283,11.9128788 75.3751263,11.9128788 Z M91.132702,13.2638889 C91.372601,13.2638889 91.7261364,13.2891414 92.622601,13.9457071 C93.1276515,14.3623737 93.6074495,14.5643939 94.1503788,14.5643939 C95.4130051,14.5643939 96.6756313,13.9204545 96.6756313,12.354798 C96.6756313,11.0669192 95.5645202,10.3472222 94.5039141,10.3472222 C92.8498737,10.3472222 91.7135101,11.4709596 90.652904,12.0517677 C90.3372475,11.9886364 90.2614899,11.8876263 90.2614899,11.6477273 C90.2614899,11.344697 90.3498737,10.864899 90.4130051,10.1830808 C90.2614899,9.98106061 90.0215909,9.86742424 89.7185606,9.86742424 C88.4938131,10.5618687 85.7791667,11.4709596 83.9609848,11.9255051 C83.6958333,12.1275253 83.6958333,12.7335859 83.9609848,12.9482323 L84.5291667,13.2512626 C85.2741162,13.655303 85.2741162,14.0593434 85.2741162,15.4356061 L85.2741162,20.5744949 C85.2741162,22.9482323 85.122601,23.2638889 83.8094697,23.364899 L83.0645202,23.4280303 C82.7488636,23.6426768 82.7488636,24.4128788 83.102399,24.6275253 C84.402904,24.5517677 86.132702,24.5265152 87.7488636,24.5265152 C89.592298,24.5265152 91.1705808,24.5517677 93.0645202,24.6275253 C93.4180556,24.4128788 93.4180556,23.6426768 93.0897727,23.4280303 L91.8271465,23.3396465 C90.5266414,23.2386364 90.3625,22.9608586 90.3625,20.5744949 L90.3625,15.334596 C90.3751263,14.0214646 90.5771465,13.2638889 91.132702,13.2638889 Z M106.536742,23.2260101 L106.031692,23.3270202 C105.703409,23.6300505 105.791793,24.3371212 106.183207,24.5138889 C107.294318,24.4507576 108.695833,24.4128788 111.031692,24.4128788 C113.317045,24.4128788 114.769066,24.4381313 115.981187,24.5138889 C116.372601,24.3876263 116.460985,23.5669192 116.132702,23.3270202 L115.551894,23.2260101 C114.529167,23.0618687 113.784217,22.885101 113.241288,22.4431818 C112.256439,21.6603535 108.784217,17.0265152 108.089773,15.9406566 C107.875126,15.6755051 107.799369,15.4734848 107.799369,15.3724747 C107.799369,15.2714646 107.837247,15.1325758 108.026641,14.9179293 C108.582197,14.4507576 109.188258,13.9330808 110.66553,12.9482323 C111.71351,12.2411616 112.55947,11.9002525 113.304419,11.7613636 L114.554419,11.5214646 C114.832197,11.2563131 114.794318,10.4987374 114.402904,10.334596 C112.092298,10.6502525 108.822096,10.8143939 106.966035,10.8143939 L106.031692,10.8143939 C105.640278,10.9659091 105.589773,11.6982323 105.943308,12.0012626 L106.928157,12.1527778 C107.281692,12.1780303 107.673106,12.3169192 107.673106,12.4810606 C107.673106,12.6957071 107.483712,13.0492424 106.738763,13.8320707 L105.084722,15.5239899 C104.289268,16.3068182 103.468561,16.4709596 102.799369,16.4709596 C102.370076,16.4709596 102.243813,16.3699495 102.243813,15.9911616 L102.243813,5.30934343 C102.243813,3.16287879 102.294318,1.73611111 102.370076,0.33459596 C102.218561,0.157828283 101.928157,0.0946969697 101.688258,0.0946969697 C99.6806818,0.839646465 97.2816919,1.66035354 95.6655303,1.98863636 C95.3877525,2.20328283 95.3877525,2.80934343 95.6655303,3.01136364 L96.3347222,3.35227273 C97.1175505,3.75631313 97.1175505,4.13510101 97.1175505,5.49873737 L97.1175505,20.4608586 C97.1175505,22.834596 96.9660354,23.1123737 95.5266414,23.2512626 L94.7816919,23.3143939 C94.4660354,23.5164141 94.4660354,24.2992424 94.8195707,24.5012626 C96.1958333,24.4381313 97.8119949,24.4002525 99.6175505,24.4002525 C101.435732,24.4002525 103.077146,24.4255051 104.339773,24.5012626 C104.680682,24.2992424 104.680682,23.5164141 104.365025,23.3143939 L103.733712,23.2512626 C102.344823,23.0997475 102.193308,22.834596 102.193308,20.4608586 L102.193308,18.4911616 C102.193308,17.8472222 102.395328,17.6830808 102.66048,17.6830808 C103.051894,17.6830808 103.367551,17.8219697 103.645328,18.1881313 L106.460985,21.8623737 C106.776641,22.2664141 107.130177,22.8093434 107.130177,22.9608586 C107.168056,23.0997475 106.940783,23.1628788 106.536742,23.2260101 Z" id="Shape"></path>
            </g>
        </g>
    </g>
</svg>